<?xml version="1.0" encoding="utf-8"?>
<!-- Generator: Adobe Illustrator 27.5.0, SVG Export Plug-In . SVG Version: 6.00 Build 0)  -->
<svg version="1.1" xmlns="http://www.w3.org/2000/svg" xmlns:xlink="http://www.w3.org/1999/xlink" x="0px" y="0px"
	 viewBox="0 0 500 500" style="enable-background:new 0 0 500 500;" xml:space="preserve">
<g id="Floor">
	<path style="fill:#F5F5F5;" d="M413.319,247.809c-90.802-52.425-237.542-52.424-327.754,0.001
		c-90.218,52.429-89.74,137.426,1.063,189.851c90.808,52.428,237.548,52.427,327.766-0.002
		C504.606,385.234,504.127,300.237,413.319,247.809z"/>
</g>
<g id="Shadows_1_">
	<path style="fill:#E0E0E0;" d="M446.11,340.025c6.698-3.867,17.522-3.867,24.177,0c6.655,3.867,6.62,10.137-0.078,14.004
		c-6.699,3.867-17.523,3.867-24.178,0C439.376,350.162,439.411,343.892,446.11,340.025z"/>
	<path style="fill:#E0E0E0;" d="M255.621,345.647l-12.39-16.842c-2.529-3.438-6.431-5.603-10.686-5.93l-18.262-1.404l-29.024-17.634
		l10.848-6.265c0.654-0.378,0.651-1.323-0.006-1.696l-4.514-2.566c-1.81-1.029-4.031-1.021-5.834,0.021L79.433,354.796
		c-0.651,0.376-0.651,1.317,0,1.693l4.399,2.54c1.815,1.048,4.051,1.048,5.865,0l46.16-26.659l28.615,16.416l3.742,10.522
		c2.356,6.624,8.626,11.048,15.656,11.048h26.702l18.117,10.46l43.779-25.441L255.621,345.647z"/>
	<path style="fill:#E0E0E0;" d="M418.523,330.115c-28.941-16.709-75.712-16.709-104.465,0.001
		c-25.407,14.765-28.23,37.629-8.583,54.28c-15.852-0.982-32.28,2.039-44.386,9.074c-21.249,12.349-21.137,32.369,0.25,44.716
		c21.388,12.349,55.951,12.349,77.2,0c16.906-9.824,20.274-24.501,10.179-36.311c24.363,3.523,51.176-0.223,70.148-11.248
		C447.619,373.916,447.467,346.825,418.523,330.115z"/>
	<path style="fill:#E0E0E0;" d="M82.585,376.231c-7.622-4.401-19.94-4.401-27.513,0c-7.573,4.401-7.533,11.536,0.089,15.937
		c7.623,4.401,19.94,4.401,27.513,0C90.247,387.767,90.207,380.632,82.585,376.231z"/>
</g>
<g id="Windows">
	<g>
		<g>
			<polygon style="fill:#F0F0F0;" points="156.769,31.936 162.118,28.881 162.454,145.821 162.44,145.829 119.317,170.452 
				119.3,164.327 118.982,53.512 			"/>
			<polygon style="opacity:0.1;" points="157.087,142.75 156.769,31.936 162.118,28.881 162.454,145.821 162.44,145.829 
				157.068,142.761 			"/>
			<polygon style="opacity:0.2;" points="119.3,164.327 157.068,142.761 162.44,145.829 119.317,170.452 			"/>
		</g>
		<g>
			<polygon style="fill:#F0F0F0;" points="97.76,65.627 103.109,62.573 103.445,179.513 103.431,179.521 60.308,204.143 
				60.291,198.018 59.973,87.204 			"/>
			<polygon style="opacity:0.1;" points="98.078,176.442 97.76,65.627 103.109,62.573 103.445,179.513 103.431,179.521 
				98.059,176.453 			"/>
			<polygon style="opacity:0.2;" points="60.291,198.018 98.059,176.453 103.431,179.521 60.308,204.143 			"/>
		</g>
	</g>
</g>
<g id="Clock">
	<g>
		<path style="fill:none;" d="M293.855,57.012C293.855,57.012,293.855,57.012,293.855,57.012c-0.105-0.083-0.211-0.166-0.317-0.248
			c0,0,0,0,0.001,0C293.644,56.846,293.749,56.929,293.855,57.012z"/>
		<path style="fill:none;" d="M295.644,58.503c-0.02-0.018-0.04-0.037-0.061-0.055c0.02,0.018,0.04,0.036,0.06,0.054
			C295.643,58.503,295.644,58.503,295.644,58.503z"/>
		<path style="fill:none;" d="M283.019,51.518c-0.152-0.033-0.301-0.056-0.451-0.085c0.144,0.028,0.286,0.049,0.431,0.08
			C283.005,51.514,283.012,51.516,283.019,51.518z"/>
		<path style="fill:none;" d="M284.046,51.772c-0.137-0.038-0.272-0.068-0.408-0.102c0.131,0.032,0.261,0.061,0.393,0.098
			C284.035,51.769,284.041,51.771,284.046,51.772z"/>
		<path style="fill:none;" d="M288.362,53.471c-0.013-0.007-0.027-0.013-0.04-0.02C288.335,53.458,288.348,53.464,288.362,53.471
			C288.362,53.471,288.362,53.471,288.362,53.471z"/>
		<path style="fill:none;" d="M302.383,106.616c0.286-0.088,0.567-0.186,0.841-0.297
			C302.95,106.429,302.669,106.529,302.383,106.616z"/>
		<path style="fill:none;" d="M305.674,70.942C305.674,70.942,305.675,70.942,305.674,70.942c-0.061-0.105-0.125-0.209-0.187-0.314
			c0,0,0,0,0,0.001C305.549,70.733,305.613,70.837,305.674,70.942z"/>
		<path style="fill:none;" d="M304.572,69.131c-0.074-0.117-0.148-0.235-0.223-0.352c0,0,0,0,0,0
			C304.424,68.896,304.498,69.014,304.572,69.131z"/>
		<path style="fill:none;" d="M297.439,60.185c-0.064-0.064-0.13-0.125-0.194-0.188C297.309,60.059,297.374,60.121,297.439,60.185
			C297.438,60.185,297.438,60.185,297.439,60.185z"/>
		<polygon style="fill:none;" points="298.642,61.423 298.634,61.414 298.642,61.422 		"/>
		<path style="fill:none;" d="M301.631,64.936c-0.011-0.014-0.022-0.029-0.033-0.043c0,0,0,0,0,0
			C301.61,64.907,301.62,64.922,301.631,64.936z"/>
		<path style="fill:none;" d="M299.992,107.057c0.314-0.024,0.623-0.061,0.926-0.108
			C300.614,106.996,300.306,107.033,299.992,107.057z"/>
		<path style="fill:none;" d="M282.811,98.957c0.468,0.457,0.942,0.901,1.424,1.328C283.753,99.857,283.279,99.413,282.811,98.957z"
			/>
		<path style="fill:none;" d="M289.652,104.233c0.445,0.257,0.885,0.49,1.324,0.711C290.538,104.722,290.097,104.49,289.652,104.233
			z"/>
		<path style="fill:none;" d="M288.005,103.201c0.544,0.363,1.092,0.712,1.647,1.032
			C289.097,103.912,288.549,103.563,288.005,103.201z"/>
		<path style="fill:none;" d="M296.379,106.838c0.161,0.031,0.324,0.065,0.484,0.09
			C296.704,106.903,296.541,106.868,296.379,106.838z"/>
		<path style="fill:none;" d="M307.583,74.532c-0.022-0.045-0.044-0.09-0.066-0.135c0,0,0,0,0,0
			C307.539,74.443,307.561,74.488,307.583,74.532z"/>
		<path style="fill:none;" d="M277.615,51.305c-0.007,0.001-0.013,0.002-0.02,0.003c0.006-0.001,0.012-0.002,0.017-0.003
			C277.614,51.305,277.615,51.305,277.615,51.305z"/>
		<path style="fill:none;" d="M280.776,51.189c-0.096-0.007-0.19-0.011-0.285-0.017c0.076,0.004,0.152,0.007,0.229,0.012
			C280.738,51.187,280.757,51.188,280.776,51.189z"/>
		<path style="fill:none;" d="M278.856,51.166c0.007,0,0.015,0,0.022,0c-0.087,0.005-0.172,0.015-0.259,0.022
			c0.005,0,0.01-0.002,0.015-0.002C278.709,51.18,278.781,51.17,278.856,51.166z"/>
		<path style="fill:none;" d="M281.974,51.323c0.007,0.001,0.014,0.003,0.02,0.004c-0.161-0.025-0.318-0.039-0.476-0.059
			c0.141,0.017,0.28,0.029,0.422,0.051C281.952,51.32,281.963,51.321,281.974,51.323z"/>
		<path style="fill:none;" d="M276.171,51.617c0.01-0.003,0.02-0.004,0.03-0.007c-0.056,0.016-0.11,0.037-0.166,0.054
			c0.029-0.009,0.056-0.021,0.085-0.03C276.137,51.629,276.154,51.622,276.171,51.617z"/>
		<path style="fill:none;" d="M275.122,51.986c-0.053,0.021-0.105,0.044-0.158,0.066c0.046-0.02,0.092-0.04,0.138-0.059
			C275.109,51.99,275.116,51.988,275.122,51.986z"/>
		<path style="fill:none;" d="M291.875,55.556c-0.023-0.015-0.045-0.03-0.068-0.045C291.829,55.526,291.852,55.54,291.875,55.556
			L291.875,55.556z"/>
		<path style="fill:none;" d="M311.96,97.567c-0.037,0.216-0.07,0.436-0.112,0.647C311.89,98.003,311.924,97.783,311.96,97.567z"/>
		<path style="fill:none;" d="M311.452,99.81c-0.055,0.189-0.105,0.382-0.165,0.565C311.347,100.192,311.398,99.999,311.452,99.81z"
			/>
		<path style="fill:none;" d="M311.731,98.726c-0.045,0.199-0.087,0.401-0.137,0.595C311.644,99.128,311.685,98.925,311.731,98.726z
			"/>
		<path style="fill:none;" d="M310.74,101.82c-0.071,0.167-0.139,0.337-0.215,0.499C310.601,102.157,310.669,101.987,310.74,101.82z
			"/>
		<path style="fill:none;" d="M311.122,100.84c-0.063,0.179-0.124,0.361-0.192,0.535
			C310.999,101.201,311.059,101.019,311.122,100.84z"/>
		<path style="fill:none;" d="M310.311,102.741c-0.079,0.156-0.155,0.315-0.239,0.466
			C310.155,103.056,310.232,102.896,310.311,102.741z"/>
		<polygon style="fill:none;" points="310.184,80.907 310.183,80.904 310.184,80.907 		"/>
		<path style="fill:none;" d="M289.794,54.24c0.315,0.182,0.627,0.373,0.938,0.569C290.421,54.615,290.109,54.422,289.794,54.24z"/>
		<path style="fill:none;" d="M312.257,94.99c-0.018,0.286-0.035,0.573-0.061,0.851C312.222,95.563,312.238,95.276,312.257,94.99z"
			/>
		<path style="fill:none;" d="M312.139,96.308c-0.029,0.25-0.055,0.502-0.09,0.745C312.085,96.81,312.111,96.558,312.139,96.308z"/>
		<path style="fill:none;" d="M312.319,93.261c-0.001,0.447-0.013,0.885-0.033,1.315C312.306,94.146,312.318,93.708,312.319,93.261z
			"/>
		<path style="fill:none;" d="M312.256,91.296c-0.003-0.042-0.005-0.083-0.008-0.125C312.251,91.213,312.254,91.255,312.256,91.296
			L312.256,91.296z"/>
		<path style="fill:none;" d="M312.041,88.949c-0.01-0.082-0.023-0.164-0.034-0.247C312.018,88.785,312.031,88.867,312.041,88.949
			C312.041,88.949,312.041,88.949,312.041,88.949z"/>
		<path style="fill:none;" d="M307.812,106.178c0.112-0.108,0.219-0.225,0.327-0.339
			C308.031,105.953,307.924,106.07,307.812,106.178z"/>
		<path style="fill:none;" d="M311.548,85.995c-0.01-0.049-0.021-0.099-0.032-0.148C311.527,85.896,311.538,85.945,311.548,85.995
			C311.548,85.995,311.548,85.995,311.548,85.995z"/>
		<path style="fill:none;" d="M311.827,87.493C311.827,87.494,311.827,87.494,311.827,87.493c-0.034-0.204-0.072-0.408-0.109-0.613
			c0,0,0,0.001,0,0.001C311.756,87.086,311.793,87.29,311.827,87.493z"/>
		<path style="fill:none;" d="M309.835,103.603c-0.087,0.145-0.171,0.294-0.262,0.433
			C309.664,103.897,309.748,103.748,309.835,103.603z"/>
		<path style="fill:none;" d="M306.805,107.028c-0.124,0.093-0.245,0.19-0.373,0.278
			C306.56,107.219,306.682,107.122,306.805,107.028z"/>
		<path style="fill:none;" d="M308.747,105.154c-0.102,0.124-0.201,0.251-0.306,0.37
			C308.547,105.405,308.646,105.278,308.747,105.154z"/>
		<path style="fill:none;" d="M309.312,104.409c-0.094,0.134-0.185,0.272-0.283,0.4
			C309.127,104.681,309.218,104.543,309.312,104.409z"/>
		<path style="fill:none;" d="M307.492,106.465c-0.116,0.103-0.23,0.21-0.349,0.308
			C307.262,106.675,307.375,106.568,307.492,106.465z"/>
		<path style="fill:none;" d="M274.594,54.933c-0.112,0.071-0.227,0.139-0.336,0.214C274.367,55.072,274.482,55.005,274.594,54.933z
			"/>
		<path style="fill:none;" d="M271.452,81.433c-0.219-0.579-0.43-1.158-0.624-1.74C271.022,80.274,271.232,80.854,271.452,81.433
			C271.452,81.432,271.452,81.433,271.452,81.433z"/>
		<path style="fill:none;" d="M270.783,79.55C270.783,79.551,270.783,79.551,270.783,79.55c-0.198-0.599-0.379-1.199-0.549-1.799
			c0,0,0,0.001,0,0.001C270.403,78.352,270.585,78.952,270.783,79.55z"/>
		<path style="fill:none;" d="M306.46,103.729c-0.31,0.049-0.625,0.087-0.945,0.111c-0.069,0.005-0.136,0.014-0.205,0.018
			c-0.396,0.023-0.8,0.025-1.211,0.01c-0.092-0.003-0.186-0.01-0.278-0.015c-0.458-0.026-0.922-0.067-1.397-0.14
			c-0.311-0.048-0.627-0.107-0.945-0.175c-0.099-0.021-0.201-0.049-0.301-0.073c-0.217-0.051-0.435-0.102-0.655-0.163
			c-0.372-0.102-0.748-0.217-1.128-0.348c-0.076-0.026-0.154-0.058-0.23-0.085c-0.305-0.109-0.612-0.224-0.922-0.351
			c-0.117-0.048-0.235-0.101-0.353-0.152c-0.329-0.141-0.661-0.293-0.995-0.454c-0.126-0.061-0.252-0.121-0.379-0.185
			c-0.438-0.222-0.879-0.455-1.325-0.712c-0.555-0.32-1.103-0.669-1.647-1.032c-0.092-0.062-0.185-0.122-0.278-0.185
			c-0.519-0.354-1.032-0.728-1.539-1.118c-0.099-0.076-0.196-0.153-0.295-0.231c-0.515-0.405-1.024-0.823-1.525-1.262
			c-0.045-0.039-0.088-0.081-0.133-0.12c-0.483-0.428-0.958-0.872-1.427-1.33c-0.076-0.075-0.154-0.147-0.23-0.222
			c-0.36-0.357-0.717-0.721-1.068-1.095c-0.02-0.021-0.039-0.043-0.058-0.064c-0.331-0.354-0.656-0.715-0.978-1.083
			c-0.07-0.08-0.139-0.163-0.209-0.244c-0.525-0.608-1.039-1.231-1.537-1.872c-0.053-0.069-0.105-0.139-0.159-0.209
			c-0.397-0.516-0.784-1.042-1.163-1.576c-0.055-0.077-0.111-0.153-0.165-0.231c-0.363-0.519-0.715-1.047-1.059-1.581
			c-0.082-0.127-0.162-0.255-0.243-0.383c-0.277-0.439-0.549-0.882-0.813-1.33c-0.056-0.095-0.115-0.19-0.17-0.286
			c-0.298-0.513-0.587-1.032-0.866-1.555c-0.068-0.128-0.134-0.257-0.202-0.385c-0.219-0.417-0.431-0.836-0.638-1.258
			c-0.068-0.139-0.137-0.278-0.204-0.418c-0.254-0.532-0.501-1.067-0.735-1.605c-0.034-0.077-0.065-0.155-0.098-0.232
			c-0.207-0.483-0.405-0.969-0.595-1.456c-0.057-0.146-0.114-0.292-0.169-0.438c-0.219-0.578-0.43-1.158-0.624-1.739
			c-0.016-0.047-0.03-0.095-0.045-0.142c-0.198-0.598-0.379-1.197-0.548-1.796c-0.033-0.116-0.067-0.232-0.099-0.349
			c-0.191-0.697-0.361-1.394-0.512-2.089c-0.033-0.152-0.066-0.305-0.098-0.457c-0.056-0.272-0.107-0.545-0.157-0.816
			c-0.035-0.19-0.07-0.38-0.101-0.57c-0.047-0.281-0.087-0.561-0.127-0.841c-0.024-0.168-0.049-0.336-0.07-0.503
			c-0.076-0.601-0.134-1.199-0.176-1.792c-0.009-0.127-0.016-0.252-0.023-0.379c-0.036-0.61-0.06-1.216-0.058-1.815
			c0.014-4.96,1.336-8.813,3.587-11.346c3.374-0.719,7.455,0.073,11.85,2.611c11.545,6.666,20.877,22.824,20.84,36.096
			c-0.014,4.949-1.331,8.795-3.575,11.327c-0.102,0.021-0.201,0.051-0.304,0.07C306.653,103.699,306.556,103.714,306.46,103.729z"/>
		<path style="fill:none;" d="M275.94,90.394c-0.277-0.439-0.549-0.882-0.813-1.33C275.392,89.512,275.663,89.955,275.94,90.394
			C275.94,90.394,275.94,90.394,275.94,90.394z"/>
		<path style="fill:none;" d="M280.266,96.247c-0.525-0.607-1.038-1.23-1.536-1.87C279.228,95.017,279.741,95.64,280.266,96.247
			C280.266,96.247,280.266,96.247,280.266,96.247z"/>
		<path style="fill:none;" d="M273.253,85.582c0.205,0.42,0.417,0.837,0.635,1.252C273.67,86.42,273.459,86.002,273.253,85.582z"/>
		<path style="fill:none;" d="M274.959,88.781C274.959,88.781,274.959,88.781,274.959,88.781c-0.298-0.513-0.586-1.032-0.866-1.555
			h0C274.372,87.749,274.661,88.267,274.959,88.781z"/>
		<path style="fill:none;" d="M304.282,105.821c0.021-0.011,0.042-0.021,0.063-0.031c-0.276,0.153-0.561,0.29-0.852,0.417
			c0.006-0.003,0.011-0.006,0.017-0.008C303.773,106.084,304.031,105.958,304.282,105.821z"/>
		<path style="fill:none;" d="M277.242,92.359c-0.362-0.518-0.714-1.045-1.057-1.579C276.529,91.313,276.88,91.84,277.242,92.359
			L277.242,92.359z"/>
		<path style="fill:none;" d="M281.447,97.566c-0.328-0.351-0.651-0.709-0.97-1.074l0,0
			C280.796,96.857,281.119,97.215,281.447,97.566z"/>
		<path style="fill:none;" d="M285.894,101.668c-0.543-0.427-1.079-0.871-1.607-1.336c0.027,0.025,0.055,0.05,0.082,0.074
			C284.87,100.845,285.379,101.263,285.894,101.668z"/>
		<path style="fill:none;" d="M287.727,103.016c0.068,0.046,0.136,0.09,0.203,0.135c-0.654-0.439-1.299-0.908-1.934-1.403
			c0.064,0.05,0.128,0.101,0.192,0.151C286.696,102.288,287.208,102.662,287.727,103.016z"/>
		<path style="fill:none;" d="M304.452,105.735c0.003-0.002,0.005-0.003,0.008-0.005
			C304.457,105.732,304.454,105.734,304.452,105.735z"/>
		<path style="fill:none;" d="M282.579,98.732c-0.36-0.357-0.716-0.72-1.066-1.093C281.863,98.013,282.219,98.376,282.579,98.732z"
			/>
		<path style="fill:none;" d="M292.351,105.585c0.001,0.001,0.003,0.001,0.004,0.002c-0.403-0.173-0.809-0.361-1.219-0.564
			c0.073,0.036,0.146,0.072,0.218,0.107C291.69,105.292,292.021,105.443,292.351,105.585z"/>
		<path style="fill:none;" d="M293.626,106.087c0.076,0.027,0.154,0.059,0.23,0.085c0.375,0.129,0.746,0.242,1.114,0.343
			c-0.743-0.205-1.503-0.467-2.276-0.783c0.003,0.001,0.006,0.002,0.01,0.004C293.013,105.863,293.32,105.978,293.626,106.087z"/>
		<path style="fill:none;" d="M298.285,107.072c-0.221-0.012-0.443-0.027-0.668-0.05c0.223,0.021,0.445,0.038,0.665,0.05
			C298.283,107.072,298.284,107.072,298.285,107.072z"/>
		<path style="fill:none;" d="M299.75,107.077c-0.395,0.022-0.798,0.025-1.208,0.01c0.006,0,0.012,0,0.018,0
			C298.964,107.101,299.361,107.099,299.75,107.077z"/>
		<path style="fill:none;" d="M302.226,106.666c-0.338,0.097-0.685,0.175-1.038,0.239c0.007-0.002,0.014-0.004,0.022-0.005
			C301.555,106.837,301.895,106.761,302.226,106.666z"/>
		<path style="fill:none;" d="M295.919,106.751c-0.12-0.026-0.243-0.059-0.364-0.089c0.028,0.007,0.056,0.014,0.083,0.02
			C295.732,106.705,295.826,106.73,295.919,106.751z"/>
		<path style="fill:none;" d="M278.569,94.165C278.569,94.165,278.569,94.165,278.569,94.165c-0.395-0.515-0.782-1.039-1.159-1.572
			c0,0,0,0,0,0C277.787,93.126,278.174,93.65,278.569,94.165z"/>
		<path style="fill:none;" d="M271.591,57.832c-0.079,0.113-0.161,0.222-0.237,0.339C271.43,58.054,271.512,57.945,271.591,57.832z"
			/>
		<path style="fill:none;" d="M272.116,57.14c-0.086,0.105-0.176,0.207-0.259,0.317C271.94,57.347,272.03,57.245,272.116,57.14z"/>
		<path style="fill:none;" d="M271.108,58.578c-0.072,0.12-0.147,0.237-0.216,0.361C270.961,58.815,271.036,58.699,271.108,58.578z"
			/>
		<path style="fill:none;" d="M273.284,55.922c-0.1,0.09-0.203,0.175-0.301,0.269C273.08,56.097,273.183,56.011,273.284,55.922z"/>
		<path style="fill:none;" d="M273.922,55.399c-0.107,0.081-0.216,0.158-0.32,0.243C273.706,55.556,273.815,55.479,273.922,55.399z"
			/>
		<path style="fill:none;" d="M272.68,56.504c-0.093,0.097-0.189,0.191-0.279,0.292C272.491,56.695,272.586,56.601,272.68,56.504z"
			/>
		<path style="fill:none;" d="M271.621,81.87c0.19,0.487,0.388,0.972,0.595,1.456C272.009,82.842,271.811,82.357,271.621,81.87z"/>
		<path style="fill:none;" d="M272.314,83.559c0.234,0.538,0.48,1.072,0.734,1.604C272.794,84.631,272.548,84.097,272.314,83.559z"
			/>
		<path style="fill:#EBEBEB;" d="M281.447,97.566c-0.328-0.351-0.651-0.709-0.97-1.074l0,0c-0.071-0.081-0.14-0.164-0.21-0.246
			c0,0,0,0,0,0c-0.525-0.607-1.038-1.23-1.536-1.87c-0.054-0.07-0.107-0.142-0.161-0.212c0,0,0,0,0,0
			c-0.396-0.515-0.782-1.039-1.159-1.572c0,0,0,0,0,0c-0.055-0.078-0.112-0.155-0.167-0.234l0,0
			c-0.362-0.518-0.714-1.045-1.057-1.578c-0.082-0.128-0.163-0.257-0.245-0.386c0,0,0,0,0,0c-0.277-0.439-0.548-0.882-0.813-1.33
			c-0.056-0.095-0.113-0.188-0.169-0.283c0,0,0,0,0,0c-0.298-0.513-0.586-1.032-0.866-1.555h0c-0.069-0.13-0.136-0.261-0.205-0.391
			c-0.218-0.415-0.429-0.832-0.635-1.252c-0.069-0.14-0.138-0.279-0.205-0.42c-0.254-0.532-0.5-1.066-0.734-1.604
			c-0.034-0.077-0.065-0.156-0.098-0.233c-0.207-0.483-0.405-0.969-0.595-1.456c-0.057-0.146-0.113-0.291-0.169-0.437
			c0,0,0,0,0-0.001c-0.219-0.578-0.43-1.158-0.624-1.739c-0.016-0.047-0.03-0.095-0.045-0.142c0,0,0,0,0-0.001
			c-0.198-0.599-0.379-1.199-0.549-1.799c0,0,0,0,0-0.001c-0.033-0.115-0.067-0.23-0.098-0.345c-0.191-0.698-0.361-1.395-0.512-2.09
			c0,0,0,0,0,0c-0.033-0.153-0.067-0.305-0.098-0.457c-0.056-0.272-0.107-0.543-0.157-0.815c-0.032-0.174-0.064-0.348-0.093-0.521
			c-0.003-0.016-0.006-0.033-0.009-0.049c-0.047-0.282-0.088-0.562-0.127-0.843c-0.024-0.167-0.049-0.334-0.07-0.501
			c-0.076-0.602-0.134-1.199-0.176-1.793c-0.009-0.127-0.016-0.253-0.023-0.379c-0.036-0.609-0.06-1.216-0.058-1.815
			c0.001-0.413,0.011-0.819,0.031-1.216c0.007-0.151,0.022-0.296,0.032-0.445c0.016-0.243,0.029-0.489,0.052-0.726
			c0.015-0.153,0.037-0.299,0.054-0.45c0.026-0.225,0.049-0.453,0.081-0.673c0.023-0.159,0.054-0.311,0.08-0.467
			c0.035-0.203,0.066-0.409,0.106-0.607c0.032-0.158,0.071-0.309,0.106-0.465c0.042-0.187,0.082-0.378,0.129-0.561
			c0.04-0.154,0.087-0.301,0.131-0.452c0.051-0.175,0.098-0.353,0.153-0.523c0.048-0.149,0.103-0.291,0.155-0.436
			c0.058-0.163,0.113-0.33,0.175-0.488c0.056-0.142,0.118-0.276,0.177-0.414c0.066-0.154,0.129-0.311,0.198-0.459
			c0.063-0.133,0.131-0.258,0.197-0.388c0.074-0.145,0.145-0.294,0.223-0.434c0.069-0.124,0.144-0.241,0.216-0.361
			c0.082-0.136,0.161-0.276,0.246-0.407c0.076-0.117,0.158-0.226,0.237-0.339c0.088-0.126,0.174-0.255,0.266-0.376
			c0.083-0.11,0.173-0.211,0.259-0.317c0.095-0.115,0.186-0.234,0.284-0.344c0.09-0.101,0.186-0.195,0.279-0.292
			c0.101-0.105,0.199-0.213,0.303-0.313c0.098-0.094,0.201-0.18,0.301-0.269c0.106-0.094,0.209-0.191,0.318-0.28
			c0.104-0.085,0.213-0.162,0.32-0.243c0.112-0.084,0.221-0.172,0.336-0.251c0.11-0.076,0.224-0.143,0.336-0.214
			c1.011-0.64,2.131-1.097,3.344-1.355c-2.251,2.533-3.573,6.385-3.587,11.346c-0.002,0.599,0.022,1.206,0.058,1.815
			c0.007,0.126,0.014,0.252,0.023,0.379c0.042,0.594,0.1,1.191,0.176,1.792c0.021,0.167,0.047,0.335,0.07,0.503
			c0.04,0.28,0.08,0.56,0.127,0.841c0.031,0.19,0.066,0.38,0.101,0.57c0.049,0.272,0.101,0.544,0.157,0.816
			c0.031,0.152,0.065,0.305,0.098,0.457c0.151,0.695,0.321,1.392,0.512,2.089c0.032,0.116,0.066,0.233,0.099,0.349
			c0.17,0.599,0.351,1.198,0.548,1.796c0.016,0.047,0.03,0.095,0.045,0.142c0.194,0.581,0.405,1.161,0.624,1.739
			c0.055,0.146,0.112,0.292,0.169,0.438c0.19,0.487,0.388,0.973,0.595,1.456c0.033,0.077,0.064,0.155,0.098,0.232
			c0.234,0.538,0.48,1.073,0.735,1.605c0.067,0.14,0.136,0.279,0.204,0.418c0.206,0.422,0.419,0.841,0.638,1.258
			c0.067,0.128,0.133,0.257,0.202,0.385c0.28,0.523,0.568,1.042,0.866,1.555c0.056,0.096,0.114,0.19,0.17,0.286
			c0.264,0.448,0.535,0.891,0.813,1.33c0.081,0.128,0.161,0.256,0.243,0.383c0.344,0.534,0.696,1.062,1.059,1.581
			c0.054,0.078,0.111,0.154,0.165,0.231c0.378,0.535,0.766,1.06,1.163,1.576c0.053,0.069,0.105,0.14,0.159,0.209
			c0.498,0.641,1.012,1.264,1.537,1.872c0.07,0.081,0.139,0.164,0.209,0.244c0.322,0.367,0.647,0.729,0.978,1.083
			c0.02,0.021,0.039,0.043,0.058,0.064c0.351,0.374,0.707,0.737,1.068,1.095c0.076,0.075,0.153,0.147,0.23,0.222
			c0.468,0.458,0.944,0.902,1.427,1.33c0.045,0.04,0.088,0.081,0.133,0.12c0.501,0.439,1.01,0.857,1.525,1.262
			c0.098,0.077,0.196,0.155,0.295,0.231c0.507,0.39,1.02,0.764,1.539,1.118c0.092,0.063,0.185,0.123,0.278,0.185
			c0.544,0.363,1.092,0.712,1.647,1.032c0.445,0.257,0.886,0.49,1.325,0.712c0.127,0.064,0.253,0.124,0.379,0.185
			c0.334,0.162,0.666,0.313,0.995,0.454c0.117,0.05,0.236,0.104,0.353,0.152c0.31,0.127,0.617,0.242,0.922,0.351
			c0.076,0.027,0.154,0.059,0.23,0.085c0.38,0.13,0.755,0.245,1.128,0.348c0.22,0.061,0.438,0.112,0.655,0.163
			c0.1,0.024,0.201,0.052,0.301,0.073c0.318,0.068,0.634,0.128,0.945,0.175c0.475,0.073,0.939,0.114,1.397,0.14
			c0.093,0.005,0.186,0.012,0.278,0.015c0.411,0.015,0.815,0.013,1.211-0.01c0.069-0.004,0.136-0.013,0.205-0.018
			c0.32-0.024,0.635-0.062,0.945-0.111c0.097-0.015,0.194-0.03,0.289-0.048c0.103-0.019,0.201-0.049,0.304-0.07
			c-0.763,0.86-1.631,1.57-2.593,2.119c-0.003,0.002-0.005,0.003-0.008,0.005c-0.035,0.02-0.072,0.036-0.107,0.055
			c-0.021,0.01-0.043,0.02-0.063,0.031c-0.251,0.137-0.509,0.262-0.772,0.377c-0.006,0.003-0.011,0.005-0.017,0.008
			c-0.089,0.039-0.178,0.076-0.269,0.112c-0.274,0.11-0.555,0.209-0.841,0.297c-0.053,0.016-0.104,0.035-0.157,0.051
			c-0.331,0.095-0.671,0.17-1.016,0.234c-0.007,0.001-0.014,0.003-0.022,0.005c-0.089,0.016-0.18,0.029-0.27,0.043
			c-0.304,0.048-0.612,0.084-0.926,0.108c-0.081,0.006-0.16,0.015-0.242,0.02c-0.389,0.022-0.787,0.024-1.19,0.01
			c-0.006,0-0.012,0-0.018,0c-0.085-0.003-0.172-0.01-0.257-0.015c-0.001,0-0.002,0-0.003,0c-0.22-0.012-0.442-0.029-0.665-0.05
			c-0.249-0.026-0.5-0.054-0.754-0.094c-0.16-0.025-0.323-0.059-0.484-0.09c-0.153-0.029-0.305-0.053-0.46-0.087
			c-0.093-0.021-0.187-0.046-0.28-0.068c-0.028-0.007-0.056-0.014-0.083-0.02c-0.195-0.047-0.389-0.092-0.586-0.147
			c-0.368-0.101-0.739-0.215-1.114-0.343c-0.076-0.026-0.154-0.058-0.23-0.085c-0.305-0.109-0.612-0.224-0.922-0.351
			c-0.003-0.001-0.006-0.002-0.01-0.004c-0.112-0.046-0.226-0.097-0.338-0.146c-0.001-0.001-0.003-0.002-0.004-0.002
			c-0.33-0.141-0.662-0.293-0.996-0.455c-0.073-0.035-0.146-0.071-0.218-0.107c-0.054-0.027-0.107-0.052-0.161-0.079
			c-0.438-0.221-0.879-0.454-1.324-0.711c-0.555-0.32-1.103-0.669-1.647-1.032c-0.025-0.017-0.05-0.033-0.074-0.049
			c-0.068-0.045-0.136-0.089-0.203-0.135c-0.519-0.354-1.031-0.727-1.539-1.118c-0.064-0.05-0.128-0.1-0.192-0.151
			c-0.034-0.027-0.068-0.053-0.102-0.08c-0.515-0.405-1.024-0.823-1.525-1.262c-0.028-0.024-0.055-0.049-0.082-0.074
			c-0.017-0.015-0.034-0.031-0.052-0.047c-0.482-0.427-0.957-0.871-1.424-1.328c-0.077-0.075-0.155-0.148-0.232-0.224
			c-0.36-0.357-0.716-0.72-1.066-1.093C281.491,97.616,281.469,97.591,281.447,97.566z"/>
		<g>
			<g>
				<polygon style="fill:#FFFFFF;" points="306.702,86.161 306.698,87.447 310.326,89.541 310.33,88.255 				"/>
			</g>
			<g>
				<polygon style="fill:#FFFFFF;" points="277.348,59.038 276.788,59.824 279.928,63.727 280.488,62.936 				"/>
			</g>
			<g>
				<path style="fill:#E0E0E0;" d="M313.398,90.674c-0.038,13.266-9.431,18.613-20.976,11.948
					c-11.545-6.666-20.878-22.824-20.84-36.09c0.038-13.272,9.431-18.619,20.976-11.954
					C304.104,61.244,313.436,77.402,313.398,90.674z M283.044,77.856c0.09,0.294,0.295,0.557,0.511,0.682
					c0.075,0.043,0.151,0.07,0.221,0.076l8.88,0.696c0.139,0.029,0.262-0.013,0.331-0.131l5.813-9.846
					c0.136-0.239,0.027-0.689-0.248-1.01c-0.08-0.091-0.164-0.161-0.247-0.209c-0.204-0.118-0.401-0.102-0.501,0.066l-5.716,9.693
					l-8.748-0.691C283.056,77.164,282.925,77.463,283.044,77.856 M300.116,69.163l1.826-2.566l-0.966-1.199l-1.827,2.566
					L300.116,69.163 M300.874,101.541l0.97-0.081l-1.806-4.664l-0.97,0.081L300.874,101.541 M277.287,80.647l3.152-0.271
					l-0.554-1.434l-3.152,0.271L277.287,80.647 M307.633,98.168l0.56-0.791l-3.14-3.903l-0.56,0.791L307.633,98.168 M277.348,59.038
					l-0.56,0.785l3.14,3.903l0.56-0.791L277.348,59.038 M305.096,78.258l3.152-0.271l-0.554-1.429l-3.152,0.265L305.096,78.258
					 M284.102,55.655l-0.965,0.084l1.806,4.664l0.965-0.084L284.102,55.655 M284,91.799l1.827-2.566l-0.962-1.196l-1.827,2.566
					L284,91.799 M278.279,71.039l0.004-1.286l-3.633-2.097l-0.004,1.286L278.279,71.039 M310.33,88.255l-3.628-2.094l-0.004,1.286
					l3.628,2.094L310.33,88.255 M291.876,98.777l1.114,0.643l0.012-4.174l-1.114-0.643L291.876,98.777 M293.106,58.422l-1.114-0.643
					l-0.012,4.174l1.114,0.643L293.106,58.422"/>
			</g>
			<g>
				<polygon style="fill:#FFFFFF;" points="291.992,57.779 291.98,61.953 293.094,62.597 293.106,58.422 				"/>
			</g>
			<g>
				<polygon style="fill:#FFFFFF;" points="300.976,65.398 299.15,67.964 300.116,69.163 301.943,66.597 				"/>
			</g>
			<g>
				<polygon style="fill:#FFFFFF;" points="307.694,76.558 304.542,76.823 305.096,78.258 308.248,77.987 				"/>
			</g>
			<g>
				<polygon style="fill:#FFFFFF;" points="305.053,93.473 304.493,94.264 307.633,98.168 308.193,97.376 				"/>
			</g>
			<g>
				<polygon style="fill:#FFFFFF;" points="300.038,96.797 299.068,96.878 300.874,101.541 301.844,101.461 				"/>
			</g>
			<g>
				<polygon style="fill:#FFFFFF;" points="291.887,94.603 291.876,98.777 292.99,99.421 293.001,95.246 				"/>
			</g>
			<g>
				<polygon style="fill:#FFFFFF;" points="284.865,88.037 283.038,90.603 284,91.799 285.827,89.233 				"/>
			</g>
			<g>
				<polygon style="fill:#FFFFFF;" points="279.885,78.942 276.733,79.213 277.287,80.647 280.439,80.377 				"/>
			</g>
			<g>
				<polygon style="fill:#FFFFFF;" points="274.65,67.656 274.647,68.942 278.279,71.039 278.283,69.753 				"/>
			</g>
			<g>
				<polygon style="fill:#FFFFFF;" points="284.102,55.655 283.137,55.739 284.943,60.403 285.909,60.319 				"/>
			</g>
			<g>
				<path style="fill:#FFFFFF;" d="M292.495,77.961c-0.075-0.043-0.15-0.069-0.223-0.074l-0.185-0.014l-8.748-0.691
					c-0.281-0.018-0.413,0.281-0.293,0.674c0.09,0.294,0.295,0.557,0.511,0.682c0.075,0.043,0.151,0.07,0.221,0.076l8.88,0.695
					l0.054,0.004c0.281,0.024,0.413-0.276,0.294-0.674C292.911,78.346,292.708,78.084,292.495,77.961z"/>
			</g>
			<g>
				<path style="fill:#F5F5F5;" d="M298.303,68.114c-0.204-0.118-0.401-0.102-0.501,0.066l-5.716,9.693l0.185,0.014
					c0.073,0.005,0.149,0.031,0.223,0.074c0.213,0.123,0.416,0.385,0.508,0.678c0.119,0.398-0.012,0.698-0.294,0.674l-0.054-0.004
					c0.138,0.029,0.262-0.013,0.331-0.13l5.813-9.846c0.136-0.239,0.027-0.689-0.248-1.01
					C298.471,68.232,298.387,68.161,298.303,68.114z"/>
			</g>
		</g>
		<path style="fill:#EBEBEB;" d="M306.805,107.028c0.112-0.085,0.227-0.166,0.337-0.255c0.12-0.098,0.233-0.205,0.349-0.308
			c0.107-0.095,0.217-0.187,0.32-0.286c0.112-0.108,0.219-0.225,0.327-0.339c0.101-0.105,0.204-0.206,0.302-0.316
			c0.105-0.118,0.204-0.246,0.306-0.37c0.094-0.115,0.191-0.225,0.282-0.344c0.098-0.129,0.189-0.266,0.283-0.4
			c0.087-0.124,0.177-0.244,0.261-0.372c0.091-0.14,0.175-0.288,0.262-0.433c0.079-0.132,0.162-0.26,0.237-0.397
			c0.083-0.15,0.16-0.31,0.239-0.466c0.071-0.141,0.146-0.277,0.214-0.422c0.076-0.162,0.144-0.332,0.215-0.499
			c0.063-0.148,0.13-0.292,0.19-0.445c0.068-0.174,0.128-0.356,0.192-0.535c0.055-0.155,0.114-0.306,0.165-0.465
			c0.059-0.184,0.11-0.376,0.165-0.565c0.047-0.163,0.098-0.322,0.141-0.489c0.05-0.194,0.092-0.396,0.137-0.595
			c0.039-0.171,0.082-0.338,0.117-0.513c0.042-0.211,0.076-0.431,0.112-0.647c0.029-0.172,0.063-0.339,0.089-0.514
			c0.036-0.243,0.061-0.496,0.09-0.745c0.018-0.157,0.041-0.308,0.056-0.467c0.027-0.278,0.043-0.565,0.061-0.851
			c0.009-0.139,0.023-0.273,0.03-0.414c0.02-0.43,0.032-0.868,0.033-1.315c0.002-0.648-0.024-1.305-0.063-1.965l0,0
			c-0.003-0.042-0.005-0.083-0.008-0.125c-0.046-0.736-0.113-1.476-0.208-2.222c0,0,0,0,0,0c-0.01-0.082-0.023-0.164-0.034-0.246
			c-0.053-0.402-0.112-0.804-0.179-1.208c0,0,0,0,0-0.001c-0.034-0.204-0.072-0.408-0.108-0.612c0,0,0-0.001,0-0.001
			c-0.054-0.295-0.11-0.59-0.17-0.886c0,0,0,0,0-0.001c-0.01-0.049-0.021-0.098-0.032-0.147c-0.343-1.642-0.788-3.294-1.332-4.94
			l0,0c0-0.001-0.001-0.002-0.001-0.004c-0.711-2.149-1.586-4.285-2.6-6.371c-0.022-0.045-0.044-0.09-0.066-0.134c0,0,0,0,0,0
			c-0.573-1.17-1.186-2.325-1.842-3.455c0,0,0,0,0,0c-0.061-0.105-0.125-0.209-0.187-0.313c0,0,0,0,0-0.001
			c-0.297-0.504-0.603-1.003-0.915-1.497c-0.074-0.118-0.148-0.235-0.223-0.352c0,0,0,0,0,0c-0.854-1.326-1.761-2.611-2.717-3.843
			c-0.011-0.014-0.022-0.029-0.033-0.043c0,0,0,0,0,0c-0.942-1.211-1.929-2.372-2.956-3.47c0,0,0,0-0.001-0.001
			c-0.003-0.003-0.005-0.005-0.007-0.008c-0.393-0.42-0.792-0.829-1.196-1.229c0,0,0,0,0,0c-0.064-0.063-0.129-0.125-0.194-0.188
			c-0.525-0.514-1.058-1.014-1.6-1.493c0,0-0.001-0.001-0.001-0.001c-0.02-0.018-0.04-0.036-0.06-0.054
			c-0.567-0.5-1.144-0.977-1.728-1.436c0,0,0,0-0.001,0c-0.105-0.083-0.21-0.166-0.316-0.248c0,0,0,0-0.001,0
			c-0.548-0.422-1.102-0.825-1.663-1.208h0c-0.023-0.015-0.045-0.03-0.068-0.045c-0.356-0.242-0.714-0.476-1.074-0.701
			c-0.311-0.196-0.624-0.387-0.938-0.569c-0.481-0.278-0.958-0.53-1.432-0.769c0,0,0,0,0,0c-0.013-0.007-0.026-0.013-0.04-0.019
			c-1.467-0.738-2.898-1.299-4.276-1.679c-0.005-0.001-0.01-0.003-0.015-0.004c-0.132-0.037-0.262-0.066-0.393-0.098
			c-0.207-0.052-0.414-0.108-0.618-0.152c-0.007-0.002-0.014-0.004-0.021-0.005c-0.145-0.031-0.287-0.052-0.431-0.08
			c-0.191-0.036-0.384-0.077-0.573-0.107c-0.007-0.001-0.013-0.003-0.02-0.004c-0.011-0.002-0.022-0.003-0.034-0.004
			c-0.142-0.022-0.282-0.034-0.422-0.051c-0.249-0.031-0.497-0.059-0.742-0.078c-0.019-0.001-0.037-0.003-0.056-0.004
			c-0.077-0.006-0.152-0.008-0.229-0.012c-0.549-0.032-1.088-0.037-1.613-0.007c-0.007,0-0.015,0-0.022,0
			c-0.075,0.004-0.147,0.014-0.222,0.02c-0.005,0-0.01,0.002-0.015,0.002c-0.34,0.026-0.675,0.065-1.004,0.117
			c-0.001,0-0.002,0-0.002,0c-0.006,0.001-0.012,0.002-0.017,0.003c-0.476,0.076-0.943,0.173-1.394,0.302
			c-0.01,0.003-0.02,0.004-0.03,0.007c-0.017,0.005-0.034,0.012-0.051,0.017c-0.029,0.009-0.056,0.021-0.085,0.03
			c-0.311,0.094-0.615,0.202-0.913,0.322c-0.007,0.003-0.013,0.004-0.02,0.007c-0.047,0.019-0.092,0.039-0.138,0.059
			c-0.417,0.175-0.824,0.368-1.214,0.593c-0.013,0.007-0.027,0.014-0.04,0.021l5.539-3.219c0.041-0.024,0.082-0.048,0.124-0.071
			c0.047-0.027,0.099-0.046,0.146-0.072c0.271-0.147,0.549-0.283,0.833-0.407c0.053-0.023,0.102-0.054,0.155-0.076
			c0.043-0.018,0.09-0.03,0.134-0.047c0.332-0.134,0.67-0.256,1.017-0.359c0.015-0.004,0.028-0.011,0.043-0.015
			c0.003-0.001,0.006-0.001,0.008-0.002c0.367-0.106,0.745-0.189,1.129-0.26c0.045-0.008,0.087-0.023,0.132-0.03
			c0.059-0.01,0.122-0.012,0.181-0.021c0.335-0.053,0.675-0.093,1.021-0.119c0.055-0.004,0.108-0.016,0.163-0.019
			c0.019-0.001,0.039,0,0.059,0c0.428-0.025,0.865-0.027,1.309-0.011c0.044,0.001,0.085-0.003,0.128-0.001
			c0.141,0.006,0.284,0.021,0.426,0.031c0.101,0.007,0.201,0.013,0.303,0.022c0.303,0.028,0.609,0.064,0.918,0.111
			c0.011,0.002,0.022,0.003,0.034,0.004c0.002,0,0.003,0,0.005,0c0.336,0.052,0.676,0.116,1.019,0.19
			c0.107,0.023,0.216,0.053,0.323,0.079c0.215,0.05,0.429,0.098,0.646,0.157c0.021,0.006,0.042,0.014,0.063,0.019
			c0.402,0.111,0.808,0.235,1.219,0.376c0.083,0.028,0.167,0.063,0.251,0.093c0.33,0.117,0.661,0.242,0.996,0.379
			c0.044,0.018,0.088,0.032,0.133,0.05c0.082,0.034,0.166,0.078,0.248,0.113c0.356,0.153,0.715,0.316,1.076,0.492
			c0.136,0.066,0.272,0.131,0.409,0.2c0.474,0.24,0.951,0.492,1.432,0.77c0.6,0.346,1.192,0.723,1.78,1.116
			c0.1,0.067,0.201,0.132,0.301,0.2c0.561,0.383,1.115,0.786,1.663,1.208c0.107,0.082,0.212,0.166,0.318,0.249
			c0.557,0.438,1.108,0.89,1.649,1.365c0.047,0.041,0.093,0.085,0.14,0.126c0.523,0.463,1.038,0.944,1.545,1.44
			c0.051,0.05,0.104,0.094,0.155,0.144c0.032,0.031,0.062,0.065,0.094,0.096c0.389,0.386,0.775,0.779,1.153,1.183
			c0.019,0.02,0.038,0.042,0.057,0.062c0.36,0.385,0.714,0.778,1.064,1.177c0.033,0.038,0.068,0.074,0.101,0.111
			c0.042,0.049,0.081,0.102,0.124,0.151c0.568,0.658,1.124,1.331,1.663,2.024c0.015,0.02,0.032,0.038,0.047,0.058
			c0.041,0.053,0.079,0.11,0.12,0.163c0.429,0.558,0.848,1.126,1.256,1.703c0.042,0.059,0.086,0.114,0.128,0.173
			c0.019,0.028,0.037,0.056,0.056,0.084c0.391,0.56,0.771,1.129,1.142,1.705c0.035,0.055,0.074,0.108,0.109,0.163
			c0.053,0.083,0.102,0.169,0.154,0.253c0.299,0.473,0.591,0.95,0.875,1.432c0.045,0.076,0.094,0.15,0.138,0.226
			c0.017,0.029,0.032,0.059,0.049,0.088c0.322,0.554,0.634,1.115,0.936,1.68c0.024,0.046,0.051,0.09,0.075,0.135
			c0.049,0.093,0.094,0.188,0.143,0.282c0.236,0.45,0.465,0.902,0.688,1.358c0.046,0.095,0.097,0.188,0.143,0.282
			c0.028,0.057,0.052,0.115,0.079,0.173c0.275,0.576,0.542,1.155,0.796,1.738c0.007,0.017,0.016,0.034,0.023,0.051
			c0.026,0.06,0.048,0.121,0.074,0.181c0.227,0.528,0.443,1.059,0.651,1.591c0.034,0.085,0.072,0.17,0.105,0.256
			c0.028,0.072,0.051,0.145,0.078,0.217c0.237,0.626,0.465,1.253,0.675,1.882c0.004,0.012,0.009,0.023,0.013,0.035
			c0.012,0.036,0.021,0.072,0.033,0.109c0.215,0.65,0.411,1.3,0.596,1.951c0.023,0.082,0.052,0.163,0.074,0.244
			c0.013,0.045,0.021,0.09,0.033,0.135c0.207,0.754,0.39,1.508,0.554,2.26c0.014,0.067,0.035,0.134,0.049,0.2
			c0.021,0.098,0.036,0.196,0.057,0.294c0.061,0.296,0.117,0.591,0.171,0.886c0.037,0.205,0.075,0.41,0.109,0.614
			c0.051,0.305,0.095,0.609,0.138,0.913c0.02,0.142,0.046,0.286,0.065,0.428c0.005,0.038,0.006,0.074,0.011,0.112
			c0.082,0.651,0.145,1.298,0.19,1.941c0.01,0.136,0.017,0.272,0.025,0.408c0.039,0.66,0.065,1.316,0.063,1.965
			c-0.02,7.124-2.535,12.138-6.592,14.495l-5.539,3.219c0.12-0.07,0.234-0.15,0.352-0.224c0.118-0.075,0.239-0.146,0.354-0.226
			C306.56,107.219,306.681,107.122,306.805,107.028z"/>
		<path style="fill:#FFFFFF;" d="M267.116,67.163c-0.04,14.339,10.047,31.811,22.53,39.018c6.465,3.733,12.299,3.972,16.431,1.351
			c0.118-0.075,0.239-0.146,0.354-0.226c0.127-0.088,0.249-0.185,0.373-0.278c0.112-0.085,0.227-0.166,0.337-0.255
			c0.12-0.098,0.233-0.205,0.349-0.308c0.107-0.095,0.217-0.187,0.32-0.286c0.112-0.108,0.219-0.225,0.327-0.339
			c0.101-0.105,0.204-0.206,0.302-0.316c0.105-0.118,0.204-0.246,0.306-0.37c0.094-0.115,0.191-0.225,0.282-0.344
			c0.098-0.129,0.189-0.266,0.283-0.4c0.087-0.124,0.177-0.244,0.261-0.372c0.091-0.14,0.175-0.288,0.262-0.433
			c0.079-0.132,0.162-0.26,0.237-0.397c0.083-0.15,0.16-0.31,0.239-0.466c0.071-0.141,0.146-0.277,0.214-0.422
			c0.076-0.162,0.144-0.332,0.215-0.499c0.063-0.148,0.13-0.292,0.19-0.445c0.068-0.174,0.128-0.356,0.192-0.535
			c0.055-0.155,0.114-0.306,0.165-0.465c0.059-0.184,0.11-0.376,0.165-0.565c0.047-0.163,0.098-0.322,0.141-0.489
			c0.05-0.194,0.092-0.396,0.137-0.595c0.039-0.171,0.082-0.338,0.117-0.513c0.042-0.211,0.076-0.431,0.112-0.647
			c0.029-0.172,0.063-0.339,0.089-0.514c0.036-0.243,0.061-0.496,0.09-0.745c0.018-0.157,0.041-0.308,0.056-0.467
			c0.027-0.278,0.043-0.565,0.061-0.851c0.009-0.139,0.023-0.273,0.03-0.414c0.02-0.43,0.032-0.868,0.033-1.315
			c0.002-0.648-0.024-1.305-0.063-1.965c-0.003-0.042-0.005-0.083-0.008-0.125c-0.046-0.736-0.113-1.476-0.208-2.222
			c-0.01-0.082-0.023-0.164-0.034-0.247c-0.053-0.402-0.112-0.804-0.179-1.208c-0.034-0.204-0.072-0.409-0.109-0.614
			c-0.054-0.295-0.11-0.59-0.17-0.886c-0.01-0.049-0.021-0.099-0.032-0.148c-0.343-1.642-0.788-3.294-1.332-4.94
			c0-0.001-0.001-0.002-0.001-0.004c-0.711-2.149-1.586-4.285-2.6-6.371c-0.022-0.045-0.044-0.09-0.066-0.135
			c-0.573-1.17-1.186-2.325-1.842-3.455c-0.061-0.105-0.125-0.209-0.188-0.314c-0.297-0.504-0.603-1.003-0.915-1.497
			c-0.074-0.117-0.148-0.235-0.223-0.352c-0.854-1.326-1.761-2.611-2.717-3.843c-0.011-0.014-0.022-0.029-0.033-0.043
			c-0.942-1.211-1.929-2.372-2.956-3.47c-0.003-0.003-0.005-0.006-0.008-0.009c-0.393-0.42-0.792-0.829-1.196-1.229
			c-0.064-0.064-0.13-0.125-0.194-0.188c-0.525-0.514-1.058-1.014-1.6-1.493c-0.02-0.018-0.04-0.037-0.061-0.055
			c-0.567-0.5-1.144-0.977-1.728-1.436c-0.106-0.083-0.211-0.167-0.318-0.249c-0.548-0.422-1.102-0.825-1.663-1.208
			c-0.023-0.015-0.045-0.03-0.068-0.045c-0.356-0.242-0.714-0.476-1.074-0.701c-0.312-0.194-0.624-0.387-0.938-0.569
			c-0.481-0.278-0.958-0.53-1.432-0.769c-0.013-0.007-0.027-0.013-0.04-0.02c-1.467-0.738-2.898-1.299-4.276-1.679
			c-0.137-0.038-0.272-0.068-0.408-0.102c-0.207-0.052-0.414-0.108-0.618-0.152c-0.152-0.033-0.301-0.056-0.451-0.085
			c-0.191-0.036-0.384-0.077-0.573-0.107c-0.161-0.025-0.318-0.039-0.476-0.059c-0.249-0.031-0.497-0.059-0.742-0.078
			c-0.096-0.007-0.19-0.011-0.285-0.017c-0.549-0.032-1.088-0.037-1.613-0.007c-0.087,0.005-0.172,0.015-0.259,0.022
			c-0.34,0.026-0.675,0.065-1.004,0.117c-0.007,0.001-0.013,0.002-0.02,0.003c-0.476,0.076-0.943,0.173-1.394,0.302
			c-0.056,0.016-0.11,0.037-0.166,0.054c-0.311,0.094-0.615,0.202-0.913,0.322c-0.053,0.021-0.105,0.044-0.158,0.066
			c-0.417,0.175-0.824,0.368-1.214,0.593C269.67,54.992,267.137,60.014,267.116,67.163z M281.513,97.64
			c-0.022-0.024-0.044-0.049-0.067-0.073c-0.328-0.351-0.651-0.709-0.97-1.074c-0.071-0.081-0.14-0.164-0.21-0.246
			c-0.525-0.607-1.038-1.23-1.536-1.87c-0.054-0.07-0.107-0.142-0.161-0.212c-0.396-0.515-0.782-1.039-1.16-1.573
			c-0.055-0.078-0.112-0.155-0.167-0.234c-0.362-0.518-0.714-1.045-1.057-1.579c-0.082-0.128-0.163-0.257-0.245-0.386
			c-0.277-0.439-0.549-0.882-0.813-1.33c-0.056-0.095-0.113-0.188-0.169-0.283c-0.298-0.513-0.587-1.032-0.867-1.555
			c-0.069-0.13-0.136-0.261-0.205-0.391c-0.218-0.415-0.429-0.833-0.635-1.252c-0.069-0.14-0.138-0.279-0.205-0.42
			c-0.254-0.532-0.5-1.066-0.734-1.604c-0.034-0.077-0.065-0.156-0.098-0.233c-0.207-0.483-0.405-0.969-0.595-1.456
			c-0.057-0.146-0.113-0.291-0.169-0.437c-0.219-0.579-0.43-1.158-0.624-1.74c-0.016-0.047-0.03-0.095-0.045-0.142
			c-0.198-0.599-0.379-1.2-0.549-1.8c-0.033-0.115-0.067-0.23-0.098-0.345c-0.191-0.698-0.361-1.395-0.513-2.09
			c-0.033-0.153-0.067-0.305-0.098-0.457c-0.056-0.272-0.107-0.543-0.157-0.815c-0.032-0.174-0.064-0.348-0.093-0.521
			c-0.05-0.298-0.094-0.595-0.136-0.892c-0.024-0.167-0.049-0.334-0.07-0.501c-0.076-0.602-0.134-1.199-0.176-1.793
			c-0.009-0.127-0.016-0.253-0.023-0.379c-0.036-0.609-0.06-1.216-0.058-1.815c0.001-0.413,0.011-0.819,0.031-1.216
			c0.007-0.151,0.022-0.296,0.032-0.445c0.016-0.243,0.029-0.489,0.052-0.726c0.015-0.153,0.037-0.299,0.054-0.45
			c0.026-0.225,0.049-0.453,0.081-0.673c0.023-0.159,0.054-0.311,0.08-0.467c0.035-0.203,0.066-0.409,0.106-0.607
			c0.032-0.158,0.071-0.309,0.106-0.465c0.042-0.187,0.082-0.378,0.129-0.561c0.04-0.154,0.087-0.301,0.131-0.452
			c0.051-0.175,0.098-0.353,0.153-0.523c0.048-0.149,0.103-0.291,0.155-0.436c0.058-0.163,0.113-0.33,0.175-0.488
			c0.056-0.142,0.118-0.276,0.177-0.414c0.066-0.154,0.129-0.311,0.198-0.459c0.063-0.133,0.131-0.258,0.197-0.388
			c0.074-0.145,0.145-0.294,0.223-0.434c0.069-0.124,0.144-0.241,0.216-0.361c0.082-0.136,0.161-0.276,0.246-0.407
			c0.076-0.117,0.158-0.226,0.237-0.339c0.088-0.126,0.174-0.255,0.266-0.376c0.083-0.11,0.173-0.212,0.259-0.317
			c0.095-0.115,0.186-0.234,0.284-0.344c0.09-0.101,0.186-0.195,0.279-0.292c0.101-0.105,0.199-0.213,0.303-0.313
			c0.098-0.094,0.201-0.18,0.301-0.269c0.106-0.094,0.209-0.191,0.318-0.28c0.104-0.085,0.213-0.162,0.32-0.243
			c0.112-0.084,0.221-0.172,0.336-0.251c0.11-0.076,0.224-0.143,0.336-0.214c1.011-0.64,2.131-1.097,3.344-1.355
			c3.374-0.719,7.455,0.073,11.85,2.611c11.545,6.666,20.877,22.824,20.84,36.096c-0.014,4.949-1.331,8.795-3.575,11.327
			c-0.763,0.86-1.631,1.57-2.593,2.119c-0.003,0.002-0.005,0.003-0.008,0.005c-0.035,0.02-0.072,0.036-0.107,0.055
			c-0.276,0.153-0.561,0.29-0.852,0.417c-0.089,0.039-0.178,0.076-0.269,0.112c-0.275,0.11-0.555,0.21-0.841,0.297
			c-0.053,0.016-0.104,0.035-0.157,0.051c-0.338,0.097-0.685,0.175-1.038,0.239c-0.089,0.016-0.18,0.029-0.27,0.043
			c-0.304,0.048-0.612,0.084-0.926,0.108c-0.081,0.006-0.16,0.015-0.242,0.02c-0.395,0.022-0.798,0.025-1.208,0.01
			c-0.085-0.003-0.172-0.01-0.257-0.015c-0.221-0.012-0.443-0.027-0.668-0.05c-0.249-0.026-0.5-0.054-0.754-0.094
			c-0.16-0.025-0.323-0.06-0.484-0.09c-0.153-0.029-0.305-0.053-0.46-0.087c-0.12-0.026-0.243-0.059-0.364-0.089
			c-0.195-0.047-0.389-0.092-0.586-0.147c-0.743-0.205-1.503-0.467-2.276-0.783c-0.112-0.046-0.226-0.097-0.338-0.146
			c-0.403-0.173-0.809-0.361-1.219-0.564c-0.054-0.027-0.107-0.052-0.161-0.079c-0.438-0.221-0.879-0.454-1.324-0.711
			c-0.555-0.32-1.103-0.669-1.647-1.032c-0.025-0.017-0.05-0.033-0.074-0.049c-0.654-0.439-1.299-0.908-1.934-1.403
			c-0.034-0.027-0.068-0.053-0.102-0.08c-0.543-0.427-1.079-0.871-1.607-1.336c-0.017-0.015-0.034-0.031-0.052-0.047
			c-0.482-0.427-0.957-0.871-1.424-1.328c-0.077-0.075-0.155-0.148-0.232-0.224C282.219,98.376,281.863,98.013,281.513,97.64z"/>
	</g>
</g>
<g id="Pictures">
	<g>
		<g>
			<g>
				<polygon style="fill:none;" points="426.094,143.344 456.658,160.99 456.591,184.349 426.028,166.703 				"/>
				<polygon style="fill:#F0F0F0;" points="426.094,143.344 426.028,166.703 423.197,168.348 423.272,141.715 				"/>
				<polygon style="fill:#F5F5F5;" points="456.591,184.349 456.582,187.623 423.197,168.348 426.028,166.703 				"/>
				<path style="fill:#E0E0E0;" d="M419.765,170.305l40.227,23.225l0.098-34.49l-40.227-23.225L419.765,170.305z M423.197,168.348
					l0.076-26.633l2.822,1.629l30.564,17.646l-0.066,23.359l-0.009,3.274L423.197,168.348z"/>
				<polygon style="fill:#F5F5F5;" points="419.862,135.814 422.693,134.169 462.921,157.395 460.09,159.04 				"/>
				<polygon style="fill:#F0F0F0;" points="462.921,157.395 462.823,191.885 459.992,193.53 460.09,159.04 				"/>
			</g>
			<g>
				<g style="enable-background:new    ;">
					<g>
						<polygon style="fill:#E0E0E0;" points="435.805,152.213 427.47,158.776 427.452,165.187 455.174,181.193 455.193,174.782 
							449.909,164.288 445.165,167.971 446.842,173.183 444.408,168.555 						"/>
					</g>
					<g>
						<path style="fill:#E0E0E0;" d="M444.911,155.445c-1.305-0.753-2.366-0.148-2.37,1.351c-0.004,1.499,1.051,3.326,2.355,4.079
							c1.305,0.753,2.366,0.148,2.371-1.351C447.27,158.025,446.216,156.198,444.911,155.445z"/>
					</g>
				</g>
			</g>
		</g>
		<g>
			<g>
				<polygon style="fill:none;" points="427.292,96.01 457.855,113.656 457.789,137.015 427.226,119.369 				"/>
				<polygon style="fill:#F0F0F0;" points="427.292,96.01 427.226,119.369 424.395,121.014 424.47,94.381 				"/>
				<polygon style="fill:#F5F5F5;" points="457.789,137.015 457.78,140.289 424.395,121.014 427.226,119.369 				"/>
				<path style="fill:#E0E0E0;" d="M420.962,122.97l40.227,23.225l0.098-34.49L421.06,88.48L420.962,122.97z M424.395,121.014
					l0.076-26.634l2.822,1.629l30.563,17.646l-0.066,23.359l-0.009,3.274L424.395,121.014z"/>
				<polygon style="fill:#F5F5F5;" points="421.06,88.48 423.891,86.835 464.118,110.061 461.287,111.706 				"/>
				<polygon style="fill:#F0F0F0;" points="464.118,110.061 464.021,144.55 461.19,146.195 461.287,111.706 				"/>
			</g>
			<g>
				<g style="enable-background:new    ;">
					<g>
						<polygon style="fill:#E0E0E0;" points="437.003,104.879 428.668,111.442 428.649,117.853 456.372,133.859 456.39,127.448 
							451.107,116.954 446.363,120.637 448.04,125.849 445.606,121.221 						"/>
					</g>
					<g>
						<path style="fill:#E0E0E0;" d="M446.109,108.111c-1.305-0.753-2.366-0.148-2.371,1.351c-0.004,1.499,1.051,3.326,2.355,4.079
							c1.305,0.753,2.366,0.148,2.37-1.351C448.468,110.69,447.414,108.864,446.109,108.111z"/>
					</g>
				</g>
			</g>
		</g>
	</g>
</g>
<g id="Speech_bubble">
	<g>
		<g>
			<g>
				<path style="fill:#BA68C8;" d="M342.499,69.107l59.87,34.624c1.059,0.607,1.9,1.486,2.479,2.513
					c0.551,0.979,0.864,2.094,0.864,3.257v60.203c0,4.465-5.055,8.263-10.049,5.41l-25.042-14.841l-0.536,0.867
					c-0.022,0.037-0.057,0.053-0.088,0.079l0.005,0.012c-0.02,0.013-0.045,0.028-0.065,0.042c-0.006,0.003-0.011,0.008-0.017,0.011
					c-0.975,0.645-2.69,1.565-3.075,1.764l0.009-0.025c-0.177,0.05-0.382-0.023-0.453-0.223l-2.181-6.183h0L335.8,140.571
					c-2.073-1.185-3.352-3.389-3.352-5.776v-60.28C332.447,69.716,339.514,67.394,342.499,69.107z"/>
				<path style="fill:none;" d="M396.445,107.768c0.001,0.001,0.003,0.003,0.004,0.004
					C396.448,107.77,396.447,107.769,396.445,107.768z"/>
				<path style="opacity:0.2;fill:#FFFFFF;" d="M370.085,161.141c-0.022,0.037-0.057,0.053-0.087,0.079l0.005,0.012
					c-0.02,0.013-0.045,0.028-0.065,0.042c-0.006,0.003-0.01,0.008-0.017,0.011c-0.975,0.645-2.69,1.565-3.075,1.764l0.009-0.025
					c0.083-0.024,0.162-0.066,0.215-0.151l2.112-3.421l-0.418-0.239l0,0l1.858,1.062L370.085,161.141z"/>
				<path style="opacity:0.4;fill:#FFFFFF;" d="M398.231,110.003c-0.432-0.855-1.027-1.623-1.781-2.232
					c-0.001-0.001-0.003-0.003-0.004-0.004c-0.252-0.203-0.521-0.388-0.807-0.552l-59.87-34.624
					c-1.478-0.848-3.321,0.219-3.321,1.924c0-4.799,7.066-7.121,10.052-5.408l59.87,34.624c1.059,0.607,1.9,1.486,2.479,2.513
					L398.231,110.003z"/>
				<path style="opacity:0.2;fill:#FFFFFF;" d="M398.98,173.189v-60.203c0-0.266-0.018-0.528-0.052-0.786
					c-0.103-0.773-0.351-1.511-0.697-2.196l6.617-3.759c0.551,0.979,0.864,2.094,0.864,3.257v60.203
					c0,4.465-5.055,8.263-10.049,5.41C397.141,175.959,398.98,174.891,398.98,173.189z"/>
			</g>
		</g>
		<g>
			<path style="fill:#FFFFFF;" d="M347.113,97.317l34.746,20.061l-2.086,23.817c-0.125,1.453-1.24,1.972-2.57,1.204l-26.624-15.372
				c-0.5-0.289-0.973-0.727-1.37-1.244l0.049,0.674c0.215,2.881,2.192,6.108,4.601,7.499l1.168,0.674
				c0.399,0.086,0.816,0.247,1.251,0.499c0.44,0.254,0.857,0.575,1.251,0.946l12.51,7.223c0.399,0.086,0.816,0.247,1.252,0.499
				c0.436,0.251,0.857,0.575,1.25,0.946l2.65,1.53c0.565,0.326,1.027,1.121,1.025,1.776c-0.002,0.655-0.467,0.914-1.032,0.588
				l-0.204-0.118c0.295,0.831,0.464,1.676,0.462,2.469c-0.007,2.646-1.876,3.711-4.179,2.382c-2.298-1.327-4.159-4.545-4.152-7.191
				c0.002-0.793,0.176-1.44,0.474-1.929l-7.617-4.398c0.299,0.834,0.464,1.676,0.462,2.469c-0.008,2.646-1.876,3.711-4.179,2.382
				c-2.298-1.327-4.159-4.545-4.152-7.191c0.002-0.846,0.199-1.522,0.535-2.022c-2.904-2.284-5.152-6.329-5.425-9.996l-2.36-31.989
				c-0.094-1.281-0.976-2.718-2.047-3.336l-4.305-2.485c-0.57-0.329-1.027-1.121-1.025-1.776c0.002-0.655,0.462-0.917,1.032-0.588
				l4.304,2.485c2.141,1.236,3.901,4.103,4.093,6.667L347.113,97.317z M365.298,131.228l0.054-19.077
				c0.003-0.889-0.621-1.964-1.39-2.408s-1.397-0.092-1.399,0.797l-0.054,19.077c-0.003,0.884,0.621,1.964,1.39,2.408
				C364.668,132.469,365.296,132.112,365.298,131.228 M371.326,134.708l0.054-19.077c0.003-0.889-0.621-1.964-1.39-2.408
				c-0.769-0.444-1.397-0.092-1.399,0.797l-0.054,19.077c-0.003,0.884,0.621,1.964,1.39,2.408
				C370.696,135.95,371.324,135.592,371.326,134.708 M377.354,138.189l0.054-19.077c0.003-0.889-0.621-1.964-1.39-2.408
				c-0.769-0.444-1.397-0.092-1.399,0.797l-0.054,19.077c-0.002,0.884,0.621,1.964,1.39,2.408
				C376.724,139.43,377.352,139.073,377.354,138.189 M359.27,127.748l0.054-19.077c0.003-0.889-0.621-1.964-1.39-2.408
				c-0.769-0.444-1.397-0.092-1.399,0.797l-0.054,19.077c-0.003,0.884,0.621,1.964,1.39,2.408
				C358.64,128.989,359.267,128.631,359.27,127.748 M353.242,124.267l0.054-19.077c0.003-0.889-0.621-1.964-1.39-2.408
				s-1.397-0.092-1.399,0.797l-0.054,19.077c-0.002,0.884,0.621,1.964,1.39,2.408C352.612,125.509,353.239,125.151,353.242,124.267
				 M356.27,138.122c-0.862-0.498-1.564-0.098-1.567,0.893c-0.003,0.99,0.695,2.198,1.556,2.696c0.866,0.5,1.564,0.098,1.566-0.893
				C357.829,139.827,357.137,138.622,356.27,138.122 M371.283,146.789c-0.862-0.498-1.564-0.098-1.567,0.893
				s0.695,2.198,1.557,2.696c0.862,0.498,1.564,0.098,1.566-0.893C372.842,148.495,372.145,147.287,371.283,146.789"/>
		</g>
		<g>
			<g>
				<path style="fill:#FFFFFF;" d="M391.812,117.886c0.387,0.223,0.773,0.617,1.065,1.127c0.591,1.017,0.588,2.118-0.007,2.45
					l-8.831,5.038c-0.295,0.168-0.682,0.114-1.068-0.109c-0.386-0.223-0.772-0.615-1.07-1.125l-4.327-7.501
					c-0.591-1.024-0.588-2.118,0.007-2.457c0.295-0.168,0.682-0.114,1.068,0.11c0.387,0.223,0.774,0.616,1.07,1.125l3.264,5.654
					l7.755-4.42C391.037,117.609,391.425,117.663,391.812,117.886z"/>
			</g>
			<path style="fill:#BA68C8;" d="M385.251,108.643c5.886,3.398,10.641,11.635,10.622,18.392c-0.019,6.764-4.806,9.485-10.691,6.087
				c-5.881-3.395-10.636-11.625-10.617-18.389C374.584,107.976,379.371,105.248,385.251,108.643z M384.04,126.502l8.831-5.038
				c0.595-0.333,0.598-1.433,0.007-2.45c-0.293-0.51-0.678-0.904-1.065-1.127c-0.387-0.223-0.775-0.277-1.073-0.107l-7.755,4.42
				l-3.264-5.654c-0.296-0.509-0.683-0.901-1.07-1.125c-0.387-0.223-0.774-0.278-1.068-0.11c-0.595,0.339-0.598,1.433-0.007,2.457
				l4.327,7.501c0.298,0.51,0.684,0.902,1.07,1.125C383.359,126.616,383.745,126.67,384.04,126.502"/>
			<path style="opacity:0.3;fill:#FFFFFF;" d="M385.251,108.643c5.886,3.398,10.641,11.635,10.622,18.392
				c-0.019,6.764-4.806,9.485-10.691,6.087c-5.881-3.395-10.636-11.625-10.617-18.389
				C374.584,107.976,379.371,105.248,385.251,108.643z M384.04,126.502l8.831-5.038c0.595-0.333,0.598-1.433,0.007-2.45
				c-0.293-0.51-0.678-0.904-1.065-1.127c-0.387-0.223-0.775-0.277-1.073-0.107l-7.755,4.42l-3.264-5.654
				c-0.296-0.509-0.683-0.901-1.07-1.125c-0.387-0.223-0.774-0.278-1.068-0.11c-0.595,0.339-0.598,1.433-0.007,2.457l4.327,7.501
				c0.298,0.51,0.684,0.902,1.07,1.125C383.359,126.616,383.745,126.67,384.04,126.502"/>
		</g>
	</g>
</g>
<g id="Device">
	<g>
		<g>
			<g>
				<g>
					<path style="fill:#455A64;" d="M193.313,79.64l0.007-0.007c-0.704-2.472-5.722-7.171-10.716-7.073
						c-0.18-0.001-1.078,0.09-1.402,0.275l-97.005,55.189c-1.649,0.938-2.922,2.348-3.729,3.995
						c-0.612,1.249-0.962,2.631-0.962,4.07v209.829c0,5.345,6.163,10.446,11.95,7.992c0.015-0.006,0.024-0.021,0.039-0.027
						c0.125-0.045,0.251-0.081,0.372-0.15l97.009-55.281c2.896-1.65,4.685-4.728,4.685-8.062V80.651
						C193.56,80.278,193.461,79.943,193.313,79.64z"/>
					<path style="fill:#BA68C8;" d="M93.038,158.269c0-1.668,0.896-3.208,2.345-4.033l90.07-51.243
						c1.547-0.88,3.467,0.237,3.467,2.016v169.197c0,1.663-0.898,3.208-2.344,4.033l-90.071,51.326
						c-1.546,0.881-3.468-0.235-3.468-2.016V158.269z"/>
					<path style="opacity:0.2;" d="M93.038,158.269c0-1.668,0.896-3.208,2.345-4.033l90.07-51.243
						c1.547-0.88,3.467,0.237,3.467,2.016v169.197c0,1.663-0.898,3.208-2.344,4.033l-90.071,51.326
						c-1.546,0.881-3.468-0.235-3.468-2.016V158.269z"/>
					<path style="opacity:0.1;fill:#FFFFFF;" d="M93.038,158.269c0-1.668,0.896-3.208,2.345-4.033l90.07-51.243
						c1.547-0.88,3.467,0.237,3.467,2.016v169.197c0,1.663-0.898,3.208-2.344,4.033l-90.071,51.326
						c-1.546,0.881-3.468-0.235-3.468-2.016V158.269z"/>
					<path style="opacity:0.3;" d="M79.506,136.09v209.829c0,5.345,6.163,10.446,11.95,7.992c0.015-0.006,0.024-0.021,0.039-0.027
						c-1.466,0.531-3.096-0.525-3.096-2.166V141.89c0-1.859,0.572-3.628,1.567-5.124l-9.497-4.745
						C79.856,133.27,79.506,134.651,79.506,136.09z"/>
					<path style="opacity:0.1;fill:#FFFFFF;" d="M182.603,72.561c-0.18-0.001-1.078,0.09-1.402,0.275l-97.005,55.189
						c-1.649,0.938-2.922,2.348-3.729,3.995l9.497,4.745c0.79-1.189,1.84-2.21,3.124-2.941l97.005-55.19
						c1.222-0.695,2.662-0.134,3.219,1.005l0.007-0.007C192.616,77.162,187.597,72.462,182.603,72.561z"/>
					<g>
						<g>
							<g>
								<path style="fill:#263238;" d="M152.935,113.284c0.681-0.393,1.246-0.089,1.248,0.694c0.002,0.783-0.559,1.755-1.24,2.148
									l-19.032,10.988c-0.681,0.393-1.231,0.063-1.233-0.72c-0.002-0.783,0.544-1.729,1.225-2.122L152.935,113.284z"/>
							</g>
							<g>
								<path style="fill:#263238;" d="M129.015,127.094c0.681-0.393,1.231-0.08,1.233,0.703c0.002,0.783-0.544,1.746-1.225,2.139
									c-0.681,0.393-1.246,0.072-1.248-0.711C127.773,128.442,128.334,127.488,129.015,127.094z"/>
							</g>
						</g>
						<g>
							<path style="fill:#263238;" d="M141.197,111.686c1.361-0.786,2.46-0.16,2.464,1.404c0.004,1.564-1.087,3.488-2.448,4.274
								c-1.361,0.786-2.489,0.143-2.493-1.421C138.716,114.379,139.836,112.472,141.197,111.686z"/>
						</g>
						<g>
							<path style="fill:#263238;" d="M141.204,309.222c2.772-1.6,5.009-0.326,5.018,2.859c0.009,3.186-2.213,7.105-4.986,8.705
								c-2.772,1.601-5.07,0.291-5.079-2.894C136.149,314.707,138.432,310.823,141.204,309.222z"/>
						</g>
					</g>
				</g>
			</g>
		</g>
		<g>
			<g>
				<polygon style="fill:#BA68C8;" points="188.624,100.342 221.379,127.533 209.44,134.429 176.688,107.24 				"/>
				<polygon style="fill:#BA68C8;" points="164.752,114.138 197.501,141.326 185.562,148.222 152.817,121.036 				"/>
				<polygon style="fill:#FFFFFF;" points="152.817,121.036 185.562,148.222 173.622,155.119 140.881,127.935 				"/>
				<polygon style="fill:#FFFFFF;" points="176.688,107.24 209.44,134.429 197.501,141.326 164.752,114.138 				"/>
				<polygon style="fill:#BA68C8;" points="117.01,141.732 149.744,168.912 137.804,175.808 105.074,148.63 				"/>
				<polygon style="fill:#BA68C8;" points="140.881,127.935 173.622,155.119 161.683,162.015 128.945,134.833 				"/>
				<polygon style="fill:#FFFFFF;" points="92.905,155.663 105.074,148.63 137.804,175.808 125.606,182.854 				"/>
				<polygon style="fill:#FFFFFF;" points="128.945,134.833 161.683,162.015 149.744,168.912 117.01,141.732 				"/>
			</g>
			<path style="fill:#BA68C8;" d="M221.379,127.533l-11.939,6.896l0,0c0,3.544,3.837,5.759,6.906,3.986l0,0
				c3.115-1.799,5.033-5.123,5.033-8.72V127.533z"/>
			<path style="fill:#E0E0E0;" d="M209.44,134.429l-11.939,6.896l0,0c0,3.544,3.837,5.759,6.906,3.986l0,0
				c3.115-1.799,5.033-5.123,5.033-8.72V134.429z"/>
			<path style="fill:#BA68C8;" d="M197.501,141.326l-11.939,6.896l0,0c0,3.544,3.837,5.759,6.906,3.986l0,0
				c3.115-1.799,5.033-5.123,5.033-8.72V141.326z"/>
			<path style="fill:#E0E0E0;" d="M185.561,148.222l-11.939,6.896l0,0c0,3.544,3.837,5.759,6.906,3.986l0,0
				c3.115-1.799,5.033-5.123,5.033-8.72V148.222z"/>
			<path style="fill:#BA68C8;" d="M173.622,155.118l-11.939,6.896l0,0c0,3.544,3.837,5.759,6.906,3.986l0,0
				c3.115-1.799,5.033-5.123,5.033-8.72V155.118z"/>
			<path style="fill:#E0E0E0;" d="M161.683,162.015l-11.939,6.896l0,0c0,3.544,3.837,5.759,6.906,3.986l0,0
				c3.115-1.799,5.033-5.123,5.033-8.72V162.015z"/>
			<path style="fill:#BA68C8;" d="M149.744,168.911l-11.939,6.896l0,0c0,3.544,3.837,5.759,6.906,3.986h0
				c3.114-1.799,5.033-5.123,5.033-8.72V168.911z"/>
			<path style="opacity:0.2;" d="M221.379,127.533l-11.939,6.896l0,0c0,3.544,3.837,5.759,6.906,3.986l0,0
				c3.115-1.799,5.033-5.123,5.033-8.72V127.533z"/>
			<path style="opacity:0.2;" d="M197.501,141.326l-11.939,6.896l0,0c0,3.544,3.837,5.759,6.906,3.986l0,0
				c3.115-1.799,5.033-5.123,5.033-8.72V141.326z"/>
			<path style="opacity:0.2;" d="M173.622,155.118l-11.939,6.896l0,0c0,3.544,3.837,5.759,6.906,3.986l0,0
				c3.115-1.799,5.033-5.123,5.033-8.72V155.118z"/>
			<path style="opacity:0.2;" d="M149.744,168.911l-11.939,6.896l0,0c0,3.544,3.837,5.759,6.906,3.986h0
				c3.114-1.799,5.033-5.123,5.033-8.72V168.911z"/>
			<path style="fill:#E0E0E0;" d="M137.804,175.808l-12.199,7.046l0,0c0,3.544,3.837,5.759,6.906,3.986l0,0
				c3.275-1.892,5.292-5.387,5.292-9.169V175.808z"/>
		</g>
		<g>
			<g>
				<path style="fill:#BA68C8;" d="M151.72,211.013c-3.096,0.339-6.66,1.329-10.14,3.129c-3.48,1.785-6.862,4.375-9.614,7.544
					c-2.752,3.169-4.842,6.88-6.122,10.577c-1.294,3.698-1.775,7.365-1.677,10.478c0.723-3.034,1.792-6.414,3.393-9.777
					c1.592-3.364,3.709-6.702,6.272-9.657c2.567-2.953,5.576-5.516,8.683-7.564C145.62,213.686,148.818,212.154,151.72,211.013z"/>
			</g>
			<g>
				<path style="fill:#BA68C8;" d="M142.378,263.362c-1.757-0.034-3.737-0.311-5.705-0.993c-1.966-0.674-3.912-1.748-5.549-3.181
					c-1.634-1.436-2.952-3.225-3.877-5.087c-0.933-1.862-1.465-3.789-1.729-5.527c-0.203,1.743-0.009,3.852,0.769,5.94
					c0.766,2.086,2.114,4.138,3.918,5.721c1.804,1.582,4.015,2.651,6.183,3.139C138.56,263.874,140.676,263.791,142.378,263.362z"/>
			</g>
			<g>
				<path style="fill:#BA68C8;" d="M157.881,231.196c0.167,2.413,0.193,5.159-0.119,8.037c-0.305,2.876-0.943,5.879-1.918,8.772
					c-0.985,2.89-2.303,5.662-3.809,8.132c-1.501,2.475-3.191,4.639-4.79,6.454c2.015-1.329,4.136-3.238,5.975-5.641
					c1.844-2.395,3.398-5.272,4.438-8.33c1.033-3.06,1.547-6.289,1.539-9.312C159.197,236.281,158.673,233.476,157.881,231.196z"/>
			</g>
			<g>
				<path style="fill:#BA68C8;" d="M126.527,220.161c-2.129,2.014-4.24,4.779-5.831,8.103c-1.6,3.314-2.672,7.174-2.947,11.113
					c-0.275,3.939,0.251,7.91,1.375,11.414c1.114,3.513,2.82,6.545,4.649,8.834c-1.165-2.693-2.268-5.841-2.962-9.276
					c-0.702-3.43-0.997-7.138-0.743-10.81c0.259-3.673,1.065-7.303,2.237-10.603C123.471,225.63,124.999,222.666,126.527,220.161z"
					/>
			</g>
			<g>
				<path style="fill:#BA68C8;" d="M164.728,221.338c-0.184-2.36-1.083-5.108-2.834-7.572c-1.731-2.465-4.306-4.633-7.335-5.863
					c-3.03-1.228-6.388-1.466-9.347-0.902c-2.973,0.549-5.532,1.895-7.308,3.46c2.129-1.044,4.706-1.853,7.495-2.063
					c2.78-0.22,5.755,0.157,8.453,1.247c2.695,1.097,5.092,2.899,6.934,4.993C162.641,216.731,163.927,219.106,164.728,221.338z"/>
			</g>
		</g>
		<g>
			<path style="fill:#FFA8A7;" d="M207.616,190.03L207.616,190.03c6.573-0.669,12.551,3.841,13.712,10.345l4.646,26.018l29.1,20.346
				l-6.503,7.909l-27.685-14.538c-3.292-1.729-5.745-4.715-6.802-8.28l-8.919-30.088L207.616,190.03z"/>
			<g>
				<path style="fill:#455A64;" d="M218.417,217.936c2.565-1.338,4.639-3.559,5.877-6.17l-2.613-11.922
					c-1.374-6.269-7.231-10.51-13.616-9.86l-0.449,0.046l-2.452,11.711l3.87,17.277
					C212.159,219.783,215.561,219.426,218.417,217.936z"/>
				<path style="fill:#455A64;" d="M218.417,217.936c-2.856,1.49-6.258,1.847-9.382,1.082l0.953,4.256
					c3.617,0.804,12.861,0.536,15.273-7.1l-0.966-4.407C223.055,214.378,220.982,216.598,218.417,217.936z"/>
				<path style="opacity:0.2;fill:#FFFFFF;" d="M218.417,217.936c2.565-1.338,4.639-3.559,5.877-6.17l-2.613-11.922
					c-1.374-6.269-7.231-10.51-13.616-9.86l-0.449,0.046l-2.452,11.711l3.87,17.277
					C212.159,219.783,215.561,219.426,218.417,217.936z"/>
				<path style="opacity:0.5;fill:#FFFFFF;" d="M218.417,217.936c-2.856,1.49-6.258,1.847-9.382,1.082l0.953,4.256
					c3.617,0.804,12.861,0.536,15.273-7.1l-0.966-4.407C223.055,214.378,220.982,216.598,218.417,217.936z"/>
			</g>
			<path style="fill:#455A64;" d="M214.058,201.187c0,0-1.155-8.846-6.442-11.157c0,0-12.631,3.786-23.119,7.765
				c-5.112,1.939-8.27,3.24-12.153,5.17c-2.384,2.065-9.21,8.193-12.422,9.848c-1.56,0.803-3.255,1.262-4.994,1.497
				c-0.008,0.001-0.015,0.002-0.023,0.003c-1.93,0.265-4.023,1.006-6.211,2.269c-9.623,5.556-17.392,19.018-17.361,30.07
				c0.02,7.245,3.4,11.633,8.429,12.248c-0.001,0.009-0.001,0.018-0.001,0.027c0.065-0.001,0.141-0.001,0.207-0.002
				c0.763,0.077,1.558,0.074,2.389-0.025c8.749-0.079,22.781-0.146,28.298-1.725C196.416,249.642,216.657,231.038,214.058,201.187z"
				/>
			<g>
				<path style="fill:#FFA8A7;" d="M189.525,197.557l3.779-6.84l15.161,10.223c-1.999,2.687-3.999,5.374-5.998,8.061
					c-2.605,1.116-5.56,1.499-8.14,0.327c-2.58-1.172-4.627-3.466-5.499-6.162C188.222,201.292,188.603,199.4,189.525,197.557z"/>
				<path style="opacity:0.2;" d="M194.724,191.674c0,8.232,6.55,12.1,10.55,13.556l3.192-4.29L194.724,191.674z"/>
			</g>
			<g>
				<g>
					<path style="fill:#263238;" d="M187.87,183.451c-0.564-3.292-1.127-6.671-0.487-9.95c0.64-3.278,2.754-6.484,5.954-7.441
						c1.151-2.767,3.923-5.007,6.774-5.931c2.851-0.925,5.896-1.009,8.892-1.077c3.313-0.076,6.66-0.138,9.901,0.553
						c3.24,0.691,6.411,2.214,8.477,4.805c2.381,2.986,3.03,7.085,2.459,10.861c-0.57,3.777-2.242,7.296-4.108,10.629
						c-6.364,0.455-12.844,1.179-19.208,1.633c-3.247,0.232-6.516,0.464-9.749,0.084
						C193.544,187.237,190.398,185.501,187.87,183.451z"/>
					<path style="fill:#FFA8A7;" d="M226.809,168.203c1.637,9.725,0.545,19.895-3.12,29.052c-0.852,2.129-1.955,4.333-3.946,5.469
						c-2.088,1.192-4.67,0.943-7.047,0.585c-3.828-0.577-7.684-1.364-11.128-3.131c-3.444-1.766-6.472-4.63-7.703-8.3
						c-2.533,0.606-5.179-0.564-6.745-2.645c-1.566-2.081-2.129-4.764-2.186-7.368c-0.036-1.667,0.306-3.635,1.804-4.369
						c1.393-0.683,3.065,0.083,4.27,1.06c1.972,1.597,3.443,3.805,4.157,6.24c1.102-4.061,2.816-7.979,3.918-12.04
						c0.433-1.596,0.968-3.338,2.362-4.229c1.705-1.091,3.926-0.465,5.891,0.022C213.329,170.031,220.915,170.038,226.809,168.203z"
						/>
					<polygon style="fill:#F28F8F;" points="214.971,180.529 219.72,188.523 214.058,189.586 					"/>
					<path style="fill:#F28F8F;" d="M208.6,192.341c1.434,0.697,2.868,1.394,4.303,2.092c-0.626,0.977-2.203,1.403-3.262,0.928
						C208.582,194.885,208.286,193.458,208.6,192.341z"/>
					<path style="opacity:0.3;" d="M208.6,192.341c1.434,0.697,2.868,1.394,4.303,2.092c-0.626,0.977-2.203,1.403-3.262,0.928
						C208.582,194.885,208.286,193.458,208.6,192.341z"/>
					<path style="fill:#F28F8F;" d="M211.135,195.501c-0.517,0.091-1.05,0.058-1.494-0.141c-0.831-0.373-1.186-1.332-1.151-2.268
						c0.611,0.003,1.223,0.202,1.696,0.59C210.731,194.128,211.065,194.801,211.135,195.501z"/>
					<path style="fill:#263238;" d="M206.771,180.847c-0.09,0.894,0.561,1.691,1.455,1.781c0.894,0.09,1.691-0.561,1.781-1.455
						c0.09-0.894-0.561-1.691-1.455-1.781C207.659,179.302,206.861,179.953,206.771,180.847z"/>
					<path style="fill:#263238;" d="M220.408,181.692c-0.09,0.894,0.561,1.691,1.455,1.781c0.894,0.09,1.691-0.561,1.781-1.455
						c0.09-0.894-0.561-1.691-1.455-1.781C221.296,180.147,220.498,180.798,220.408,181.692z"/>
					<path style="fill:#263238;" d="M222.631,175.411c1.112,0.947,2.224,1.894,3.337,2.842c0.44-0.815,0.21-1.954-0.445-2.609
						C224.868,174.988,223.447,174.972,222.631,175.411z"/>
					<path style="fill:#263238;" d="M209.334,175.19c-1.279,0.706-2.558,1.412-3.836,2.119c-0.269-0.887,0.184-1.957,0.956-2.468
						C207.226,174.329,208.622,174.597,209.334,175.19z"/>
					<g>
						<path style="fill:#455A64;" d="M229.848,171.493c-13.554,2.234-28.47,2.245-42.028,0.031
							c0.653-17.018,8.302-22.578,21.501-22.578S229.949,155.954,229.848,171.493z"/>
						<path style="fill:#455A64;" d="M229.848,171.493c0.042-6.517-1.256-11.514-3.733-15.142l-5.52-1.547
							c-2.589-0.725-5.306-0.871-7.957-0.426l-5.27,0.884c-3.684,0.618-6.518,3.595-6.952,7.306l-1.202,10.258l0,0
							C209.45,173.549,220.006,173.115,229.848,171.493z"/>
						<path style="opacity:0.29;fill:#FFFFFF;" d="M229.848,171.493c0.042-6.517-1.256-11.514-3.733-15.142l-5.52-1.547
							c-2.589-0.725-5.306-0.871-7.957-0.426l-5.27,0.884c-3.684,0.618-6.518,3.595-6.952,7.306l-1.202,10.258l0,0
							C209.45,173.549,220.006,173.115,229.848,171.493z"/>
						<path style="fill:#455A64;" d="M231.504,157.177h-2.441c-0.788,0-1.572,0.037-2.353,0.094
							c-7.133,0.52-13.92,3.38-19.277,8.184l-8.219,7.371c10.236,0.723,20.792,0.289,30.634-1.333l5.35-6.453
							C237.792,161.911,235.567,157.177,231.504,157.177z"/>
						<path style="opacity:0.2;" d="M231.504,157.177h-2.441c-0.788,0-1.572,0.037-2.353,0.094c-7.133,0.52-13.92,3.38-19.277,8.184
							l-8.219,7.371c10.236,0.723,20.792,0.289,30.634-1.333l5.35-6.453C237.792,161.911,235.567,157.177,231.504,157.177z"/>
					</g>
				</g>
			</g>
			<g>
				<g>
					<polygon style="fill:#BA68C8;" points="273.767,248.056 236.488,269.72 198.966,248.056 236.244,226.392 					"/>
				</g>
				<g style="opacity:0.3;">
					<polygon style="fill:#FFFFFF;" points="273.767,248.056 236.488,269.72 198.966,248.056 236.244,226.392 					"/>
				</g>
				<g>
					<polygon style="fill:#BA68C8;" points="273.767,248.056 273.659,285.98 236.381,307.644 236.488,269.72 					"/>
				</g>
				<g style="opacity:0.1;">
					<polygon style="fill:#FFFFFF;" points="273.767,248.056 273.659,285.98 236.381,307.644 236.488,269.72 					"/>
				</g>
				<g>
					<polygon style="fill:#BA68C8;" points="236.488,269.72 236.381,307.644 198.858,285.98 198.966,248.056 					"/>
				</g>
				<g>
					<polygon style="fill:#E0E0E0;" points="242.984,245.28 255.6,237.568 249.16,233.849 236.488,241.406 					"/>
					<polygon style="fill:#FFFFFF;" points="242.984,245.28 236.488,241.406 223.617,233.73 217.2,237.46 229.992,245.28 
						236.488,249.252 253.653,259.745 260.534,255.746 					"/>
					<polygon style="fill:#E0E0E0;" points="229.992,245.28 212.365,255.792 219.269,259.779 236.488,249.252 					"/>
					<polygon style="fill:#E0E0E0;" points="260.534,255.746 253.653,259.745 253.707,259.779 253.814,297.512 260.771,293.469 
						260.665,255.824 					"/>
					<polygon style="fill:#FFFFFF;" points="219.269,259.779 212.365,255.792 212.311,255.824 212.204,293.685 219.162,297.702 
						219.269,259.779 					"/>
					<polygon style="opacity:0.2;" points="219.269,259.779 212.365,255.792 212.311,255.824 212.204,293.685 219.162,297.702 
						219.269,259.779 					"/>
				</g>
				<polygon style="fill:#FFFFFF;" points="236.473,256.741 228.668,261.513 236.473,266.02 244.254,261.498 				"/>
			</g>
			<g>
				<path style="fill:#FFA8A7;" d="M162.673,255.43c0,0,2.906-42.355,3.512-44.97c2.336-10.072,16.938-9.353,18.326,0.892
					c0.566,4.178-6.104,44.769-6.104,44.769l24.162,25.56l4.895,4.491l4.354-0.885l9.943,0.94c0.532,0.05,0.97,0.442,1.079,0.965
					l0,0c0.134,0.643-0.266,1.277-0.905,1.433l-6.562,1.603l4.736,3.24c0.665,0.455,1.416,0.767,2.208,0.916l7.434,1.404
					c0.679,0.128,1.156,0.742,1.113,1.431l0,0c-0.034,0.54-0.381,1.009-0.888,1.198l-3.99,1.491
					c-5.229,1.953-11.05,1.539-15.949-1.136l-8.661-4.729c-1.255-0.685-2.44-1.488-3.541-2.4l-30.854-25.545
					C163.83,263.501,162.209,259.486,162.673,255.43z"/>
			</g>
			<g>
				<path style="fill:#455A64;" d="M184.118,239.198l3.089-22.973c0.899-6.688-3.88-12.805-10.586-13.551
					c-6.606-0.735-12.556,4.03-13.281,10.638l-2.576,23.47c3.362,1.92,7.101,3.182,10.946,3.643
					C175.87,240.925,180.132,240.487,184.118,239.198z"/>
				<path style="opacity:0.2;fill:#FFFFFF;" d="M184.118,239.198l3.089-22.973c0.899-6.688-3.88-12.805-10.586-13.551
					c-6.606-0.735-12.556,4.03-13.281,10.638l-2.576,23.47c3.362,1.92,7.101,3.182,10.946,3.643
					C175.87,240.925,180.132,240.487,184.118,239.198z"/>
				<path style="fill:#455A64;" d="M171.71,240.425c-3.844-0.462-7.584-1.723-10.946-3.643l-0.594,5.41
					c10.387,7.981,23.133,3.061,23.133,3.061l0.814-6.055C180.132,240.487,175.87,240.925,171.71,240.425z"/>
				<path style="opacity:0.5;fill:#FFFFFF;" d="M171.71,240.425c-3.844-0.462-7.584-1.723-10.946-3.643l-0.594,5.41
					c10.387,7.981,23.133,3.061,23.133,3.061l0.814-6.055C180.132,240.487,175.87,240.925,171.71,240.425z"/>
			</g>
		</g>
	</g>
</g>
<g id="Plants">
	<g>
		<g>
			<path style="fill:#FFFFFF;" d="M441.941,317.773l16.217,0.473l16.217-0.473c0.699,10.952-1.44,22.113-4.388,27.564l-0.012-0.002
				c-0.528,1.196-1.589,2.331-3.21,3.267c-4.785,2.763-12.518,2.763-17.272,0c-1.648-0.958-2.708-2.124-3.208-3.351
				C443.361,339.77,441.246,328.671,441.941,317.773z"/>
			<g>
				<path style="fill:#EBEBEB;" d="M446.729,311.131c-6.354,3.669-6.388,9.616-0.075,13.284c6.313,3.669,16.581,3.669,22.935,0
					c6.353-3.668,6.387-9.616,0.074-13.284C463.35,307.463,453.083,307.463,446.729,311.131z"/>
			</g>
			<g>
				<path style="fill:#E0E0E0;" d="M449.242,312.591c-4.957,2.862-4.983,7.502-0.059,10.364c4.925,2.862,12.935,2.862,17.893,0
					c4.957-2.862,4.983-7.502,0.058-10.364C462.209,309.729,454.198,309.729,449.242,312.591z"/>
			</g>
			<g style="opacity:0.15;">
				<path d="M449.242,312.591c-4.957,2.862-4.983,7.502-0.059,10.364c4.925,2.862,12.935,2.862,17.893,0
					c4.957-2.862,4.983-7.502,0.058-10.364C462.209,309.729,454.198,309.729,449.242,312.591z"/>
			</g>
		</g>
		<g>
			<path style="fill:#BA68C8;" d="M466.43,284.586c2.637-3.279,5.701-6.216,8.119-9.66c1.65-2.349,3.029-5.225,2.336-8.011
				c-0.644-2.585-3.059-4.507-5.678-4.997c-2.618-0.49-5.36,0.293-7.621,1.7c-2.262,1.407-4.1,3.399-5.76,5.483
				c-9.074,11.387-13.494,26.376-12.051,40.865c0.165,1.661,0.444,3.408,1.505,4.696c1.138,1.382,3.132,1.991,4.848,1.482
				c4.418-1.311,3.832-7.279,4.554-10.79c0.99-4.811,2.708-9.472,5.074-13.777C463.107,289.116,464.671,286.773,466.43,284.586z"/>
			<path style="opacity:0.2;fill:#FFFFFF;" d="M466.43,284.586c2.637-3.279,5.701-6.216,8.119-9.66
				c1.65-2.349,3.029-5.225,2.336-8.011c-0.644-2.585-3.059-4.507-5.678-4.997c-2.618-0.49-5.36,0.293-7.621,1.7
				c-2.262,1.407-4.1,3.399-5.76,5.483c-9.074,11.387-13.494,26.376-12.051,40.865c0.165,1.661,0.444,3.408,1.505,4.696
				c1.138,1.382,3.132,1.991,4.848,1.482c4.418-1.311,3.832-7.279,4.554-10.79c0.99-4.811,2.708-9.472,5.074-13.777
				C463.107,289.116,464.671,286.773,466.43,284.586z"/>
			<g>
				<path style="fill:#F0F0F0;" d="M451.853,311.695c0.171-0.034,0.303-0.181,0.312-0.362c0.309-7.092,2.614-31.298,19.296-45.031
					c0.165-0.135,0.188-0.38,0.053-0.544c-0.136-0.165-0.379-0.188-0.544-0.053c-16.928,13.937-19.264,38.422-19.577,45.594
					c-0.009,0.213,0.157,0.394,0.37,0.403C451.793,311.703,451.823,311.701,451.853,311.695z"/>
			</g>
			<g>
				<path style="fill:#BA68C8;" d="M449.415,312.463c0.505,2.783,2.896,6.229,5.417,7.511c2.499,1.272,5.4,1.612,8.197,1.372
					c2.847-0.245,5.612-1.061,8.32-1.973c1.337-0.45,2.824-1.058,2.967-2.715c0.075-0.874-0.317-1.721-0.946-2.333
					c-0.264-0.257-0.554-0.507-0.863-0.743c-0.63-0.481-0.334-1.481,0.456-1.536c0.796-0.055,1.587-0.144,2.371-0.293
					c1.811-0.346,3.593-1.036,4.979-2.252c1.04-0.913,1.828-2.104,2.299-3.406c0.403-1.114,0.515-2.512-0.328-3.344
					c-0.484-0.477-1.18-0.658-1.844-0.802c-0.593-0.128-1.187-0.237-1.784-0.33c-0.792-0.124-0.924-1.204-0.184-1.513l2.516-1.048
					c0.699-0.291,1.426-0.603,1.909-1.186c0.77-0.929,0.715-2.281,0.484-3.466c-0.307-1.575-0.851-3.094-1.222-4.655
					c-0.371-1.561-0.565-3.209-0.166-4.763c-4.698-0.476-9.524-0.252-14.093,0.941c-1.365,0.356-2.745,0.803-3.846,1.684
					c-1.569,1.255-1.977,3.139-1.811,5.18c0.031,0.387-0.5,0.534-0.685,0.192l-1.608-2.965c-0.484-0.893-1.58-1.23-2.5-0.799
					c-1.387,0.651-2.625,1.694-3.676,2.891c-1.133,1.291-1.712,2.993-1.573,4.705c0.188,2.316,0.592,4.661,1.172,6.908
					c0.152,0.589-0.507,1.032-1,0.676l-0.077-0.055c-0.439-0.318-0.978-0.508-1.516-0.441c-1.421,0.176-1.784,1.616-1.879,2.842
					C448.766,308.524,449.08,310.615,449.415,312.463z"/>
				<path style="opacity:0.2;" d="M449.415,312.463c0.505,2.783,2.896,6.229,5.417,7.511c2.499,1.272,5.4,1.612,8.197,1.372
					c2.847-0.245,5.612-1.061,8.32-1.973c1.337-0.45,2.824-1.058,2.967-2.715c0.075-0.874-0.317-1.721-0.946-2.333
					c-0.264-0.257-0.554-0.507-0.863-0.743c-0.63-0.481-0.334-1.481,0.456-1.536c0.796-0.055,1.587-0.144,2.371-0.293
					c1.811-0.346,3.593-1.036,4.979-2.252c1.04-0.913,1.828-2.104,2.299-3.406c0.403-1.114,0.515-2.512-0.328-3.344
					c-0.484-0.477-1.18-0.658-1.844-0.802c-0.593-0.128-1.187-0.237-1.784-0.33c-0.792-0.124-0.924-1.204-0.184-1.513l2.516-1.048
					c0.699-0.291,1.426-0.603,1.909-1.186c0.77-0.929,0.715-2.281,0.484-3.466c-0.307-1.575-0.851-3.094-1.222-4.655
					c-0.371-1.561-0.565-3.209-0.166-4.763c-4.698-0.476-9.524-0.252-14.093,0.941c-1.365,0.356-2.745,0.803-3.846,1.684
					c-1.569,1.255-1.977,3.139-1.811,5.18c0.031,0.387-0.5,0.534-0.685,0.192l-1.608-2.965c-0.484-0.893-1.58-1.23-2.5-0.799
					c-1.387,0.651-2.625,1.694-3.676,2.891c-1.133,1.291-1.712,2.993-1.573,4.705c0.188,2.316,0.592,4.661,1.172,6.908
					c0.152,0.589-0.507,1.032-1,0.676l-0.077-0.055c-0.439-0.318-0.978-0.508-1.516-0.441c-1.421,0.176-1.784,1.616-1.879,2.842
					C448.766,308.524,449.08,310.615,449.415,312.463z"/>
				<path style="opacity:0.2;fill:#FFFFFF;" d="M449.415,312.463c0.505,2.783,2.896,6.229,5.417,7.511
					c2.499,1.272,5.4,1.612,8.197,1.372c2.847-0.245,5.612-1.061,8.32-1.973c1.337-0.45,2.824-1.058,2.967-2.715
					c0.075-0.874-0.317-1.721-0.946-2.333c-0.264-0.257-0.554-0.507-0.863-0.743c-0.63-0.481-0.334-1.481,0.456-1.536
					c0.796-0.055,1.587-0.144,2.371-0.293c1.811-0.346,3.593-1.036,4.979-2.252c1.04-0.913,1.828-2.104,2.299-3.406
					c0.403-1.114,0.515-2.512-0.328-3.344c-0.484-0.477-1.18-0.658-1.844-0.802c-0.593-0.128-1.187-0.237-1.784-0.33
					c-0.792-0.124-0.924-1.204-0.184-1.513l2.516-1.048c0.699-0.291,1.426-0.603,1.909-1.186c0.77-0.929,0.715-2.281,0.484-3.466
					c-0.307-1.575-0.851-3.094-1.222-4.655c-0.371-1.561-0.565-3.209-0.166-4.763c-4.698-0.476-9.524-0.252-14.093,0.941
					c-1.365,0.356-2.745,0.803-3.846,1.684c-1.569,1.255-1.977,3.139-1.811,5.18c0.031,0.387-0.5,0.534-0.685,0.192l-1.608-2.965
					c-0.484-0.893-1.58-1.23-2.5-0.799c-1.387,0.651-2.625,1.694-3.676,2.891c-1.133,1.291-1.712,2.993-1.573,4.705
					c0.188,2.316,0.592,4.661,1.172,6.908c0.152,0.589-0.507,1.032-1,0.676l-0.077-0.055c-0.439-0.318-0.978-0.508-1.516-0.441
					c-1.421,0.176-1.784,1.616-1.879,2.842C448.766,308.524,449.08,310.615,449.415,312.463z"/>
				<path style="fill:#F0F0F0;" d="M456.888,319.587c0.02-0.099,0.993-4.815,3.79-10.985c0-0.111,0.047-0.214,0.133-0.289
					c0.088-0.191,0.174-0.381,0.265-0.574c-0.803-7.379-3.725-12.526-3.754-12.577c-0.107-0.185-0.043-0.421,0.142-0.528
					c0.185-0.104,0.421-0.043,0.528,0.142c0.029,0.049,2.717,4.784,3.701,11.691c3.209-6.434,8.327-13.96,16.228-19.459
					c0.176-0.121,0.416-0.079,0.538,0.096c0.122,0.175,0.078,0.416-0.096,0.538c-8.15,5.672-13.293,13.534-16.418,20.059
					c6.368-3.1,13.133-1.875,13.434-1.818c0.209,0.039,0.347,0.242,0.307,0.452c-0.03,0.16-0.155,0.277-0.305,0.307
					c-0.047,0.009-0.097,0.01-0.147,0.001c-0.074-0.014-7.45-1.355-13.827,2.211c-2.776,6.108-3.742,10.784-3.761,10.882
					c-0.032,0.159-0.156,0.275-0.305,0.305c-0.048,0.009-0.099,0.01-0.149,0C456.983,319.999,456.847,319.796,456.888,319.587z"/>
			</g>
		</g>
	</g>
	<g>
		<g>
			<path style="fill:#FFFFFF;" d="M87.328,350.909l-18.455,0.538l-18.454-0.538c-0.795,12.463,1.638,25.163,4.993,31.367
				l0.013-0.002c0.601,1.361,1.808,2.652,3.653,3.717c5.445,3.144,14.245,3.144,19.655,0c1.876-1.09,3.082-2.417,3.651-3.814
				C85.712,375.941,88.119,363.31,87.328,350.909z"/>
			<g>
				<path style="fill:#EBEBEB;" d="M81.879,343.351c7.231,4.174,7.269,10.942,0.086,15.117c-7.184,4.175-18.868,4.175-26.099,0
					c-7.23-4.174-7.268-10.942-0.084-15.117C62.965,339.176,74.649,339.176,81.879,343.351z"/>
			</g>
			<g>
				<path style="fill:#E0E0E0;" d="M79.02,345.012c5.641,3.257,5.671,8.537,0.067,11.794c-5.605,3.257-14.72,3.257-20.361,0
					c-5.641-3.257-5.671-8.537-0.066-11.794C64.264,341.755,73.38,341.755,79.02,345.012z"/>
			</g>
			<g style="opacity:0.15;">
				<path d="M79.02,345.012c5.641,3.257,5.671,8.537,0.067,11.794c-5.605,3.257-14.72,3.257-20.361,0
					c-5.641-3.257-5.671-8.537-0.066-11.794C64.264,341.755,73.38,341.755,79.02,345.012z"/>
			</g>
		</g>
		<g>
			<path style="fill:#BA68C8;" d="M99.215,272.16c-41.588,13.617-41.965,41.44-32.589,61.252c2.364,4.011,9.52,6.164,15.749-18.477
				l-10.924,1.401l12.73-6.452L87.487,300l-10.614,0.788l13.472-5.666C95.31,280.108,99.215,272.16,99.215,272.16z"/>
			<path style="opacity:0.2;" d="M99.215,272.16c-41.588,13.617-41.965,41.44-32.589,61.252c2.364,4.011,9.52,6.164,15.749-18.477
				l-10.924,1.401l12.73-6.452L87.487,300l-10.614,0.788l13.472-5.666C95.31,280.108,99.215,272.16,99.215,272.16z"/>
			<path style="opacity:0.2;fill:#FFFFFF;" d="M99.215,272.16c-41.588,13.617-41.965,41.44-32.589,61.252
				c2.364,4.011,9.52,6.164,15.749-18.477l-10.924,1.401l12.73-6.452L87.487,300l-10.614,0.788l13.472-5.666
				C95.31,280.108,99.215,272.16,99.215,272.16z"/>
			<path style="fill:#FFFFFF;" d="M87.452,279.118c-21.931,16.646-23.911,35.729-17.716,55.652
				C67.545,317.227,65.176,299.489,87.452,279.118z"/>
		</g>
		<g>
			<path style="fill:#BA68C8;" d="M28.775,300.423c40.994,5.772,45.968,31.621,40.528,51.63c-1.536,4.128-7.842,7.323-17.737-14.591
				l10.406-0.511l-12.927-3.894l-4.722-8.655l10.016-1.03l-13.489-3.039C33.733,307.175,28.775,300.423,28.775,300.423z"/>
			<path style="opacity:0.2;fill:#FFFFFF;" d="M28.775,300.423c40.994,5.772,45.968,31.621,40.528,51.63
				c-1.536,4.128-7.842,7.323-17.737-14.591l10.406-0.511l-12.927-3.894l-4.722-8.655l10.016-1.03l-13.489-3.039
				C33.733,307.175,28.775,300.423,28.775,300.423z"/>
			<path style="opacity:0.1;" d="M28.775,300.423c40.994,5.772,45.968,31.621,40.528,51.63c-1.536,4.128-7.842,7.323-17.737-14.591
				l10.406-0.511l-12.927-3.894l-4.722-8.655l10.016-1.03l-13.489-3.039C33.733,307.175,28.775,300.423,28.775,300.423z"/>
			<path style="fill:#FFFFFF;" d="M40.886,304.948c23.19,11.858,28.205,29.302,25.745,48.886
				C65.758,337.132,65.016,320.219,40.886,304.948z"/>
		</g>
		<g>
			<path style="fill:#BA68C8;" d="M111.213,310.109c-37.595,0.615-44.97,23.356-42.307,42c0.922,3.893,6.249,7.478,17.619-11.166
				l-9.322-1.625l12.088-2.063l5.224-7.273l-8.912-2.049l12.497-1.229C105.989,315.641,111.213,310.109,111.213,310.109z"/>
			<path style="fill:#FFFFFF;" d="M99.791,312.832c-22.229,8.092-28.701,23.253-28.676,41.18
				C73.772,339.056,76.333,323.896,99.791,312.832z"/>
			<path style="opacity:0.2;fill:#FFFFFF;" d="M111.213,310.109c-37.595,0.615-44.97,23.356-42.307,42
				c0.922,3.893,6.249,7.478,17.619-11.166l-9.322-1.625l12.088-2.063l5.224-7.273l-8.912-2.049l12.497-1.229
				C105.989,315.641,111.213,310.109,111.213,310.109z"/>
		</g>
	</g>
</g>
<g id="Character">
	<g>
		<g>
			<path style="fill:#BA68C8;" d="M328.041,272.542c-9.871,6.854-20.987,11.595-29.23,20.785
				c-15.396,17.164-15.755,44.78-3.663,64.411c12.092,19.632,34.58,31.427,57.479,34.126c24.025,2.832,49.235-3.806,68.084-18.97
				c18.848-15.164,30.84-38.856,30.831-63.047c-0.009-24.191-12.4-48.279-32.663-61.494c-18.486-12.056-45.049-15.495-63.596-1.7
				c-9.378,6.975-15.629,17.268-24.983,24.263C329.556,271.473,328.802,272.013,328.041,272.542z"/>
			<path style="opacity:0.2;" d="M328.041,272.542c-9.871,6.854-20.987,11.595-29.23,20.785
				c-15.396,17.164-15.755,44.78-3.663,64.411c12.092,19.632,34.58,31.427,57.479,34.126c24.025,2.832,49.235-3.806,68.084-18.97
				c18.848-15.164,30.84-38.856,30.831-63.047c-0.009-24.191-12.4-48.279-32.663-61.494c-18.486-12.056-45.049-15.495-63.596-1.7
				c-9.378,6.975-15.629,17.268-24.983,24.263C329.556,271.473,328.802,272.013,328.041,272.542z"/>
			<path style="opacity:0.1;fill:#FFFFFF;" d="M328.041,272.542c-9.871,6.854-20.987,11.595-29.23,20.785
				c-15.396,17.164-15.755,44.78-3.663,64.411c12.092,19.632,34.58,31.427,57.479,34.126c24.025,2.832,49.235-3.806,68.084-18.97
				c18.848-15.164,30.84-38.856,30.831-63.047c-0.009-24.191-12.4-48.279-32.663-61.494c-18.486-12.056-45.049-15.495-63.596-1.7
				c-9.378,6.975-15.629,17.268-24.983,24.263C329.556,271.473,328.802,272.013,328.041,272.542z"/>
			<path style="opacity:0.1;" d="M332.061,373.107c0.022-0.164,0.045-0.327,0.069-0.491c1.57-10.997,10.143-19.551,21.052-21.645
				c9.503-1.824,18.686-5.321,26.967-10.328c5.893-3.564,11.461-7.932,18.071-9.863c6.1-1.783,13.696-1.507,19.477,1.131
				c-5.556-5.833-15.079-8.401-22.692-5.763c5.269-8.064,9.904-16.751,11.72-26.211c1.816-9.46,0.526-19.841-5.179-27.603
				c-4.844-6.591-12.728-10.849-20.896-11.286c-8.168-0.437-16.461,2.957-21.98,8.993c-5.649,6.18-8.834,14.876-12.544,22.382
				c-2.665,5.391-5.421,10.908-9.813,15.016c-6.629,6.2-16.16,8.435-23.031,14.365c-7.792,6.724-11.152,17.476-11.187,27.768
				c-0.024,6.945,1.284,13.781,3.015,20.531c7.891,7.677,17.653,13.47,28.18,17.231C331.701,382.857,331.41,377.852,332.061,373.107
				z"/>
			<g>
				<path style="fill:#FFFFFF;" d="M438.645,306.529c-0.404-20.585-10.189-40.62-26.174-53.593
					c-9.779-7.937-21.668-13.053-34.055-14.955c-2.299,0.226-4.574,0.608-6.811,1.142c14.373,0.841,28.461,6.142,39.692,15.258
					c15.565,12.633,25.093,32.141,25.486,52.184c0.442,22.514-10.571,45.462-29.46,61.385
					c-14.803,12.481-34.466,20.755-56.079,23.733c0.461,0.062,0.922,0.126,1.383,0.18c1.943,0.229,3.894,0.39,5.848,0.495
					c19.202-3.725,36.592-11.64,50.048-22.985C427.837,353.092,439.097,329.598,438.645,306.529z"/>
			</g>
		</g>
		<g>
			<g>
				<g>
					<path style="fill:#37474F;" d="M323.345,389.664l2.473,4.902c3.496-3.234,4.13-5.845,4.13-5.845
						c-1.132-4.003-2.451-8.073-3.105-10.051c-0.337,2.756-2.219,5.13-3.012,7.819C323.526,387.527,323.392,388.589,323.345,389.664
						z"/>
					<path style="fill:#263238;" d="M323.462,394.685l2.356-0.119l-2.473-4.902C323.272,391.32,323.409,393.008,323.462,394.685z"/>
					<path style="fill:#455A64;" d="M325.256,372.878c-0.828-1.254-1.859-2.354-2.926-3.416c0.674,2.054,0.507,4.415-0.045,6.549
						c-0.735,2.842-2.068,5.507-2.733,8.367c-0.81,3.481-0.625,7.222-2.099,10.478c-1.434,3.167-4.447,5.571-7.854,6.266
						c-1.262,0.257-2.664,0.266-3.735-0.449c-0.484-0.323-0.844-0.837-1.027-1.391c-0.748,1.543-1.629,3.017-2.682,4.377
						c-1.167,1.507-2.614,3.161-2.297,5.04c0.262,1.554,1.741,2.68,3.285,3.001c1.543,0.32,3.142-0.005,4.672-0.386
						c3.283-0.818,6.547-1.919,9.35-3.815c2.802-1.896,5.125-4.669,5.933-7.954c0.389-1.584,0.418-3.216,0.365-4.859
						c-0.053-1.678-0.19-3.365-0.118-5.021c0.047-1.075,0.181-2.138,0.487-3.175c0.794-2.689,2.675-5.063,3.012-7.819
						c0.018-0.148,0.051-0.292,0.059-0.442C327.013,376.333,326.302,374.463,325.256,372.878z"/>
					<path style="opacity:0.1;" d="M325.256,372.878c-0.828-1.254-1.859-2.354-2.926-3.416c0.674,2.054,0.507,4.415-0.045,6.549
						c-0.735,2.842-2.068,5.507-2.733,8.367c-0.81,3.481-0.625,7.222-2.099,10.478c-1.434,3.167-4.447,5.571-7.854,6.266
						c-1.262,0.257-2.664,0.266-3.735-0.449c-0.484-0.323-0.844-0.837-1.027-1.391c-0.748,1.543-1.629,3.017-2.682,4.377
						c-1.167,1.507-2.614,3.161-2.297,5.04c0.262,1.554,1.741,2.68,3.285,3.001c1.543,0.32,3.142-0.005,4.672-0.386
						c3.283-0.818,6.547-1.919,9.35-3.815c2.802-1.896,5.125-4.669,5.933-7.954c0.389-1.584,0.418-3.216,0.365-4.859
						c-0.053-1.678-0.19-3.365-0.118-5.021c0.047-1.075,0.181-2.138,0.487-3.175c0.794-2.689,2.675-5.063,3.012-7.819
						c0.018-0.148,0.051-0.292,0.059-0.442C327.013,376.333,326.302,374.463,325.256,372.878z"/>
					<path style="fill:#AB6160;" d="M309.598,401.121c3.407-0.695,6.42-3.098,7.854-6.266c1.474-3.255,1.29-6.997,2.099-10.478
						c0.665-2.859,1.998-5.525,2.733-8.367c0.552-2.134,0.719-4.494,0.045-6.549c-0.281-0.28-0.564-0.559-0.848-0.835
						c-4.218,2.185-9.015,3.984-12.856,6.78c-0.047,4.922-0.096,9.87-0.938,14.719c-0.548,3.155-1.459,6.281-2.852,9.155
						c0.184,0.554,0.543,1.068,1.027,1.391C306.935,401.387,308.336,401.378,309.598,401.121z"/>
				</g>
				<path style="fill:#C48281;" d="M295.275,388.137c-0.698,4.073-3.816,12.363-3.816,12.363s14.616,0.595,14.938-0.078l4.297-6.642
					L295.275,388.137z"/>
				<path style="fill:#455A64;" d="M339.03,291.257l-37.281,20.771c-6.929,3.86-10.62,11.712-9.172,19.511l7.236,38.968
					l-5.935,18.852c5.12,6.866,16.874,7.215,16.874,7.215c6.556-13.15,11.366-18.736,15.09-29.752
					c3.724-11.017,6.207-18.619,6.207-18.619l30.962-8.462c14.474-3.956,25.147-16.306,26.828-31.216
					c0.528-4.682,0.552-7.879,0.552-7.879L339.03,291.257z"/>
				<path style="opacity:0.2;" d="M336.5,303.532c-0.009,4.12,1.497,8.226,4.169,11.362l-23.494,14.665
					c-3.86,2.416-6.719,6.144-8.051,10.5l-9.311,30.447l8.398-33.909c0.966-3.9,3.421-7.267,6.839-9.38l21.478-13.212
					C334.045,307.799,336.5,303.532,336.5,303.532z"/>
				<g>
					<path style="fill:#37474F;" d="M299.387,419.397l0.346,5.48c4.486-1.599,6.096-3.75,6.096-3.75
						c0.533-4.125,0.921-8.386,1.098-10.462c-1.393,2.401-4.057,3.844-5.844,6.005C300.394,417.502,299.853,418.426,299.387,419.397
						z"/>
					<path style="fill:#263238;" d="M297.52,424.06l2.213,0.817l-0.346-5.48C298.669,420.891,298.131,422.496,297.52,424.06z"/>
					<path style="fill:#455A64;" d="M307.744,404.714c-0.268-1.479-0.784-2.895-1.347-4.291c-0.188,2.154-1.27,4.259-2.616,6.004
						c-1.793,2.324-4.067,4.251-5.803,6.618c-2.113,2.882-3.415,6.395-6.05,8.808c-2.564,2.348-6.28,3.374-9.685,2.673
						c-1.261-0.26-2.554-0.803-3.257-1.881c-0.318-0.488-0.447-1.101-0.398-1.683c-1.295,1.125-2.684,2.134-4.187,2.97
						c-1.665,0.927-3.646,1.878-4.094,3.731c-0.37,1.532,0.547,3.149,1.84,4.05c1.293,0.902,2.891,1.231,4.447,1.482
						c3.341,0.539,6.774,0.81,10.097,0.169c3.322-0.641,6.548-2.277,8.582-4.981c0.98-1.303,1.649-2.793,2.246-4.323
						c0.611-1.564,1.148-3.169,1.866-4.663c0.466-0.971,1.007-1.894,1.696-2.728c1.787-2.161,4.451-3.604,5.844-6.005
						c0.075-0.129,0.162-0.248,0.229-0.383C308.001,408.581,308.083,406.582,307.744,404.714z"/>
					<path style="fill:#C48281;" d="M282.242,424.525c3.406,0.701,7.121-0.324,9.685-2.673c2.635-2.413,3.937-5.926,6.05-8.808
						c1.735-2.368,4.009-4.294,5.803-6.618c1.347-1.745,2.428-3.85,2.616-6.004c-0.149-0.368-0.299-0.735-0.451-1.101
						c-4.738,0.351-9.856,0.119-14.487,1.179c-1.978,4.507-3.969,9.037-6.65,13.165c-1.744,2.686-3.811,5.201-6.222,7.296
						c-0.049,0.582,0.079,1.195,0.398,1.683C279.689,423.722,280.981,424.266,282.242,424.525z"/>
				</g>
			</g>
			<g>
				<path style="fill:#263238;" d="M377.241,236.188c6.082-13.912,6.464-30.217,1.039-44.398c-1.738-4.543-4.2-9.047-8.232-11.769
					c-5.154-3.48-11.831-3.428-18.048-3.249c-3.301,0.095-6.67,0.202-9.77,1.342c-3.1,1.14-5.644,3.588-6.454,6.789
					c-4.063-0.756-8.168,2.46-9.264,6.444c-1.096,3.985,0.34,8.338,2.866,11.608c2.526,3.271,6.029,5.633,9.557,7.784
					c-2.131,1.118-3.713,3.705-4.46,5.992c-0.747,2.288-0.564,4.864,0.497,7.024c-3.749-0.096-7.569,2.656-8.732,6.221
					c-1.164,3.565-0.178,7.632,2.108,10.605c2.285,2.973,5.735,4.914,9.364,5.859c3.629,0.945,7.443,0.958,11.176,0.6
					c3.86,3.74,10.935,3.661,15.78,1.335C369.512,246.051,375.088,241.112,377.241,236.188z"/>
				<g>
					<g>
						<g>
							<path style="fill:#C48281;" d="M342.688,226.802l-0.948,0.01c-6.354,0.071-14.39,4.393-18.317,15.48l-15.261,29.556
								l17.422,7.724l9.529-27.898L342.688,226.802z"/>
						</g>
						<path style="fill:#AB6160;" d="M330.454,246.417c-1.217,3.49-1.293,7.257-1.484,10.948c-0.192,3.691-0.62,8.149-2.311,11.436
							c-1.846-1.277-4.11-1.939-6.354-1.857c-2.243,0.082-4.453,0.906-6.202,2.314c-1.258,1.013-2.192,2.406-2.825,3.971
							l14.306,6.343l9.529-27.898l4.685-15.383C335.515,238.258,332.01,241.956,330.454,246.417z"/>
					</g>
					<g>
						<path style="fill:#C48281;" d="M325.745,274.238c-1.282-3.294-4.391-5.808-7.88-6.371c-3.49-0.564-7.447,1.259-9.702,3.982
							c-1.901,2.296-1.602,5.401-0.404,8.13c1.88,4.28,7.119,6.763,11.622,5.506C323.883,284.227,327.44,278.595,325.745,274.238z"
							/>
					</g>
				</g>
				<path style="fill:#BA68C8;" d="M344.295,226.26c-6.728,1.067-10.895,18.074-13.078,24.527
					c-2.258,6.671,0.811,11.512,4.23,15.544l0,0c1.254,1.478,1.826,3.417,1.575,5.339l-7.072,26.271
					c19.304,14.332,51.666,7.385,60.44,2.705c0-11.996-3.023-21.005-5.674-26.599c-2.559-5.399-4.068-11.235-4.274-17.206
					l-0.332-9.646l2.331-16.636l-16.763-3.988l-14.77-0.658C350.908,225.913,346.484,225.913,344.295,226.26z"/>
				<path style="opacity:0.4;" d="M344.295,226.26c-6.728,1.067-10.895,18.074-13.078,24.527c-2.258,6.671,0.811,11.512,4.23,15.544
					l0,0c1.254,1.478,1.826,3.417,1.575,5.339l-7.072,26.271c19.304,14.332,51.666,7.385,60.44,2.705
					c0-11.996-3.023-21.005-5.674-26.599c-2.559-5.399-4.068-11.235-4.274-17.206l-0.332-9.646l2.331-16.636l-16.763-3.988
					l-14.77-0.658C350.908,225.913,346.484,225.913,344.295,226.26z"/>
				<g>
					<g>
						<g>
							<g style="enable-background:new    ;">
								<path style="fill:#455A64;" d="M344.139,302.155c-0.001-0.007-0.002-0.014-0.003-0.02c0-0.002-0.001-0.004-0.001-0.006
									c-0.002-0.011-0.003-0.022-0.005-0.034c-0.004-0.019-0.009-0.039-0.014-0.059c-0.005-0.018-0.011-0.037-0.018-0.057
									c-0.006-0.019-0.014-0.038-0.021-0.057c-0.008-0.019-0.016-0.038-0.025-0.058c-0.009-0.019-0.018-0.038-0.028-0.058
									c-0.009-0.019-0.02-0.039-0.031-0.06c-0.001-0.001-0.001-0.003-0.002-0.004l-11.404-21.229
									c-0.011-0.02-0.022-0.039-0.033-0.059c-0.012-0.021-0.025-0.042-0.037-0.064c-0.013-0.021-0.027-0.043-0.04-0.065
									c-0.014-0.022-0.029-0.044-0.043-0.066c-0.015-0.022-0.031-0.045-0.047-0.068c-0.016-0.023-0.033-0.046-0.049-0.069
									c-0.017-0.023-0.034-0.046-0.052-0.069c-0.017-0.022-0.034-0.044-0.051-0.066c-0.016-0.021-0.033-0.042-0.05-0.063
									c-0.015-0.019-0.031-0.038-0.047-0.057c-0.013-0.016-0.027-0.032-0.041-0.049c-0.014-0.016-0.027-0.032-0.041-0.049
									c-0.011-0.013-0.023-0.026-0.034-0.039c-0.01-0.012-0.02-0.023-0.03-0.034s-0.021-0.023-0.031-0.034
									c-0.01-0.012-0.021-0.023-0.031-0.035c-0.008-0.009-0.016-0.018-0.025-0.027c-0.008-0.008-0.016-0.017-0.023-0.025
									c-0.008-0.009-0.016-0.017-0.023-0.025c-0.008-0.008-0.016-0.017-0.024-0.025c-0.008-0.009-0.016-0.017-0.024-0.025
									c-0.007-0.008-0.015-0.015-0.022-0.023c-0.007-0.007-0.014-0.014-0.021-0.022c-0.007-0.007-0.014-0.015-0.021-0.021
									c-0.007-0.007-0.014-0.014-0.021-0.022c-0.007-0.007-0.014-0.014-0.021-0.021c-0.007-0.007-0.014-0.014-0.021-0.021
									c-0.007-0.007-0.015-0.015-0.022-0.022c-0.008-0.008-0.016-0.015-0.024-0.023c-0.008-0.008-0.016-0.016-0.024-0.023
									c-0.008-0.008-0.016-0.015-0.024-0.023c-0.008-0.008-0.016-0.015-0.024-0.023c-0.008-0.007-0.016-0.016-0.024-0.023
									c-0.013-0.012-0.025-0.024-0.038-0.036c-0.014-0.014-0.028-0.027-0.043-0.04c-0.015-0.013-0.029-0.027-0.043-0.04
									c-0.054-0.05-0.109-0.099-0.165-0.148c-0.012-0.01-0.024-0.021-0.036-0.031c-0.012-0.01-0.024-0.021-0.036-0.031
									c-0.012-0.01-0.024-0.021-0.036-0.031c-0.012-0.01-0.024-0.02-0.036-0.03c-0.008-0.007-0.016-0.013-0.024-0.02
									c-0.008-0.007-0.016-0.013-0.024-0.02c-0.008-0.007-0.016-0.013-0.023-0.019c-0.008-0.007-0.016-0.013-0.024-0.019
									c-0.008-0.006-0.016-0.013-0.024-0.019c-0.008-0.006-0.016-0.013-0.024-0.019c-0.008-0.006-0.015-0.013-0.023-0.019
									c-0.008-0.006-0.015-0.012-0.023-0.018c-0.008-0.006-0.016-0.012-0.023-0.018c-0.008-0.006-0.015-0.012-0.023-0.018
									c-0.008-0.006-0.016-0.012-0.023-0.018c-0.008-0.006-0.016-0.012-0.023-0.018c-0.008-0.007-0.017-0.013-0.025-0.019
									c-0.009-0.007-0.019-0.014-0.028-0.021c-0.009-0.007-0.019-0.014-0.028-0.021c-0.009-0.007-0.019-0.014-0.028-0.021
									c-0.009-0.007-0.019-0.014-0.029-0.021c-0.01-0.007-0.019-0.014-0.029-0.021c-0.013-0.009-0.026-0.019-0.039-0.028
									c-0.013-0.01-0.026-0.019-0.039-0.028c-0.013-0.009-0.026-0.018-0.039-0.027c-0.014-0.01-0.029-0.02-0.043-0.029
									c-0.019-0.013-0.037-0.025-0.056-0.037c-0.018-0.012-0.037-0.024-0.055-0.036c-0.021-0.014-0.042-0.027-0.063-0.041
									c-0.023-0.014-0.046-0.029-0.069-0.043c-0.024-0.015-0.047-0.029-0.071-0.043c-0.025-0.015-0.05-0.03-0.075-0.044
									c-0.014-0.008-0.029-0.017-0.044-0.025l-13.11-7.375c-0.011-0.006-0.021-0.012-0.031-0.017
									c-0.026-0.014-0.051-0.028-0.076-0.041c-0.025-0.013-0.049-0.026-0.074-0.038c-0.024-0.012-0.048-0.024-0.072-0.035
									c-0.024-0.012-0.048-0.022-0.071-0.033c-0.023-0.01-0.046-0.021-0.069-0.03c-0.024-0.01-0.047-0.019-0.07-0.028
									c-0.023-0.009-0.046-0.017-0.068-0.025c-0.024-0.008-0.048-0.016-0.071-0.023c-0.025-0.008-0.049-0.014-0.072-0.02
									c-0.017-0.004-0.032-0.007-0.048-0.01c-0.001,0-0.003-0.001-0.004-0.001c-0.007-0.001-0.014-0.003-0.021-0.004
									c-0.027-0.005-0.053-0.009-0.078-0.011c-0.033-0.003-0.064-0.004-0.092-0.002c-0.089,0.005-0.155,0.032-0.198,0.081
									l-1.564,1.79c0.009-0.011,0.042,0,0.053-0.009c-0.13,0.097-0.139,0.308,0.049,0.656l11.404,21.229
									c0.411,0.764,1.527,1.83,2.513,2.384l13.11,7.375c0.677,0.381,1.081,0.389,1.14,0.112c-0.009,0.041-0.002,0.094-0.026,0.121
									l0,0l0,0l1.564-1.79c0.02-0.023,0.035-0.051,0.044-0.083c0.006-0.022,0.01-0.046,0.011-0.072
									C344.142,302.199,344.141,302.178,344.139,302.155z M314.577,272.245c0.038,0.002,0.047-0.024,0.091-0.015
									c0.001,0,0.003,0.001,0.004,0.001c0.012,0.002,0.034,0.016,0.046,0.019C314.66,272.236,314.626,272.248,314.577,272.245z
									 M329.609,280.71c0.121,0.103,0.247,0.199,0.361,0.307l0,0C329.856,280.909,329.73,280.813,329.609,280.71z
									 M330.429,281.507c0.05,0.057,0.113,0.113,0.159,0.169c0,0,0,0,0,0C330.542,281.62,330.479,281.563,330.429,281.507z
									 M342.565,303.956c-0.007-0.112-0.044-0.249-0.138-0.424c0.082,0.154,0.129,0.283,0.144,0.388c0,0.001,0.001,0.003,0,0.004
									C342.574,303.939,342.564,303.943,342.565,303.956z"/>
							</g>
						</g>
						<path style="opacity:0.15;fill:#FFFFFF;" d="M344.139,302.155c-0.001-0.007-0.002-0.014-0.003-0.02
							c0-0.002-0.001-0.004-0.001-0.006c-0.002-0.011-0.003-0.022-0.005-0.034c-0.004-0.019-0.009-0.039-0.014-0.059
							c-0.005-0.018-0.011-0.037-0.018-0.057c-0.006-0.019-0.014-0.038-0.021-0.057c-0.008-0.019-0.016-0.038-0.025-0.058
							c-0.009-0.019-0.018-0.038-0.028-0.058c-0.009-0.019-0.02-0.039-0.031-0.06c-0.001-0.001-0.001-0.003-0.002-0.004
							l-11.404-21.229l-1.564,1.79l11.404,21.229c0.082,0.154,0.129,0.283,0.144,0.388c0,0.001,0.001,0.003,0,0.004
							c0.014,0.105-0.003,0.184-0.05,0.238l0,0l0,0l0,0l1.564-1.79c0.02-0.023,0.035-0.051,0.044-0.083
							c0.006-0.022,0.01-0.046,0.011-0.072C344.142,302.199,344.141,302.178,344.139,302.155z"/>
						<path style="opacity:0.2;fill:#FFFFFF;" d="M332.554,280.454c-0.012-0.021-0.025-0.042-0.037-0.064
							c-0.013-0.021-0.027-0.043-0.04-0.065c-0.014-0.022-0.029-0.044-0.043-0.066c-0.015-0.022-0.031-0.045-0.047-0.068
							c-0.016-0.023-0.033-0.046-0.049-0.069c-0.017-0.023-0.034-0.046-0.052-0.069c-0.017-0.022-0.034-0.044-0.051-0.066
							c-0.016-0.021-0.033-0.042-0.05-0.063c-0.015-0.019-0.031-0.038-0.047-0.057c-0.013-0.016-0.027-0.032-0.041-0.049
							c-0.014-0.016-0.027-0.032-0.041-0.049c-0.011-0.013-0.023-0.026-0.034-0.039c-0.01-0.012-0.02-0.023-0.03-0.034
							s-0.021-0.023-0.031-0.034c-0.01-0.012-0.021-0.023-0.031-0.035c-0.008-0.009-0.016-0.018-0.025-0.027
							c-0.008-0.008-0.016-0.017-0.023-0.025c-0.008-0.009-0.016-0.017-0.023-0.025c-0.008-0.008-0.016-0.017-0.024-0.025
							c-0.008-0.009-0.016-0.017-0.024-0.025c-0.007-0.008-0.015-0.015-0.022-0.023c-0.007-0.007-0.014-0.014-0.021-0.022
							c-0.007-0.007-0.014-0.015-0.021-0.021c-0.007-0.007-0.014-0.014-0.021-0.022c-0.007-0.007-0.014-0.014-0.021-0.021
							c-0.007-0.007-0.014-0.014-0.021-0.021c-0.007-0.007-0.015-0.015-0.022-0.022c-0.008-0.008-0.016-0.015-0.024-0.023
							c-0.008-0.008-0.016-0.016-0.024-0.023c-0.008-0.008-0.016-0.015-0.024-0.023c-0.008-0.008-0.016-0.015-0.024-0.023
							c-0.008-0.007-0.016-0.016-0.024-0.023c-0.013-0.012-0.025-0.024-0.038-0.036c-0.014-0.014-0.028-0.027-0.043-0.04
							c-0.015-0.013-0.029-0.027-0.043-0.04c-0.054-0.05-0.109-0.099-0.165-0.148c-0.012-0.01-0.024-0.021-0.036-0.031
							c-0.012-0.01-0.024-0.021-0.036-0.031c-0.012-0.01-0.024-0.021-0.036-0.031c-0.012-0.01-0.024-0.02-0.036-0.03
							c-0.008-0.007-0.016-0.013-0.024-0.02c-0.008-0.007-0.016-0.013-0.024-0.02c-0.008-0.007-0.016-0.013-0.023-0.019
							c-0.008-0.007-0.016-0.013-0.024-0.019c-0.008-0.006-0.016-0.013-0.024-0.019c-0.008-0.006-0.016-0.013-0.024-0.019
							c-0.008-0.006-0.015-0.013-0.023-0.019c-0.008-0.006-0.015-0.012-0.023-0.018c-0.008-0.006-0.016-0.012-0.023-0.018
							c-0.008-0.006-0.015-0.012-0.023-0.018c-0.008-0.006-0.016-0.012-0.023-0.018c-0.008-0.006-0.016-0.012-0.023-0.018
							c-0.008-0.007-0.017-0.013-0.025-0.019c-0.009-0.007-0.019-0.014-0.028-0.021c-0.009-0.007-0.019-0.014-0.028-0.021
							c-0.009-0.007-0.019-0.014-0.028-0.021c-0.009-0.007-0.019-0.014-0.029-0.021c-0.01-0.007-0.019-0.014-0.029-0.021
							c-0.013-0.009-0.026-0.019-0.039-0.028c-0.013-0.01-0.026-0.019-0.039-0.028c-0.013-0.009-0.026-0.018-0.039-0.027
							c-0.014-0.01-0.029-0.02-0.043-0.029c-0.019-0.013-0.037-0.025-0.056-0.037c-0.018-0.012-0.037-0.024-0.055-0.036
							c-0.021-0.014-0.042-0.027-0.063-0.041c-0.023-0.014-0.046-0.029-0.069-0.043c-0.024-0.015-0.047-0.029-0.071-0.043
							c-0.025-0.015-0.05-0.03-0.075-0.044c-0.014-0.008-0.029-0.017-0.044-0.025l-13.11-7.375
							c-0.011-0.006-0.021-0.012-0.031-0.017c-0.026-0.014-0.051-0.028-0.076-0.041c-0.025-0.013-0.049-0.026-0.074-0.038
							c-0.024-0.012-0.048-0.024-0.072-0.035c-0.024-0.012-0.048-0.022-0.071-0.033c-0.023-0.01-0.046-0.021-0.069-0.03
							c-0.024-0.01-0.047-0.019-0.07-0.028c-0.023-0.009-0.046-0.017-0.068-0.025c-0.024-0.008-0.048-0.016-0.071-0.023
							c-0.025-0.008-0.049-0.014-0.072-0.02c-0.017-0.004-0.032-0.007-0.048-0.01c-0.001,0-0.003-0.001-0.004-0.001
							c-0.007-0.001-0.014-0.003-0.021-0.004c-0.027-0.005-0.053-0.009-0.078-0.011c-0.033-0.003-0.064-0.004-0.092-0.002
							c-0.089,0.005-0.155,0.032-0.198,0.081l-1.564,1.79c0.069-0.079,0.202-0.101,0.389-0.063c0.001,0,0.003,0.001,0.004,0.001
							c0.188,0.039,0.431,0.137,0.721,0.3l13.11,7.375c0.242,0.137,0.495,0.306,0.744,0.495c0.001,0,0.001,0.001,0.002,0.001
							c0.248,0.189,0.494,0.398,0.721,0.615c0,0,0.001,0.001,0.001,0.001c0.228,0.217,0.438,0.44,0.618,0.658
							c0.001,0.001,0.001,0.002,0.002,0.003c0.18,0.218,0.328,0.43,0.432,0.624l1.564-1.79
							C332.576,280.493,332.565,280.474,332.554,280.454z"/>
					</g>
					<path style="fill:#C48281;" d="M388.921,236.123c-1.857-3.191-4.296-5.642-7.978-5.92c0,0-6.041,3.117-6.041,17.28
						l0.396,35.426l0.007,0.002c-0.869,0.353-1.733,0.72-2.599,1.08c-7.171,2.978-15.126,5.628-22.788,6.886
						c-3.849-3.247-9.337-4.933-14.372-4.877l1.934,3.601c-3.664,2.346-11.94-1.883-11.94-1.883
						c-0.608,5.164,2.737,10.525,7.174,13.237c4.436,2.712,46.785-1.27,55.766-7.086c5.904-3.823,4.509-40.348,4.509-40.348
						C393.401,247.445,391.984,241.386,388.921,236.123z"/>
					<path style="fill:#C48281;" d="M316.589,277.028c-0.122,1.119-0.609,3.117-0.482,4.236c0.38,3.351,1.732,6.641,4.085,9.057
						c0.505,0.519,1.072,1.007,1.756,1.241c0.685,0.234,1.511,0.168,2.041-0.325c0.563-0.523,0.666-1.365,0.712-2.132
						c0.068-1.148,0.084-2.313-0.189-3.43c-0.273-1.117-0.865-2.191-1.808-2.848c-0.688-0.479-1.513-0.708-2.294-1.011
						c-0.781-0.304-1.427-0.821-2.045-1.48L316.589,277.028z"/>
				</g>
				<g>
					<g>
						<path style="fill:#C48281;" d="M350.908,219.332v13.381c-1.312,1.238-2.565,2.657-2.688,4.425
							c-0.117,1.687,0.921,3.337,2.389,4.175c1.468,0.838,3.289,0.927,4.918,0.477c1.63-0.451,3.085-1.4,4.349-2.523
							c3.442-3.055,5.802-8.169,5.802-12.696V213.02L350.908,219.332z"/>
						<path style="fill:#AB6160;" d="M365.105,213.02c-1.394,7.364-4.264,13.741-14.198,16.032v-9.72L365.105,213.02z"/>
					</g>
					<path style="fill:#C48281;" d="M361.643,205.258c-0.116,0.891-0.202,2.674-0.02,3.554c0.181,0.88,0.596,1.73,1.272,2.321
						c0.676,0.591,1.547,0.826,2.418,0.607c-0.56-2.293,0.946-4.892,3.214-5.546c2.268-0.654,4.927,0.744,5.674,2.983
						c0.536,1.607,0.137,3.425-0.771,4.854c-0.908,1.43-2.277,2.512-3.732,3.379c-1.734,0.715-3.743-0.051-4.741-1.64
						c-4.265,5.888-11.936,10.487-19.311,10.173c-2.003-0.085-4.037-0.581-5.671-1.743c-2.867-2.039-3.206-5.276-3.69-8.466
						c-0.612-4.039-0.892-8.158-0.405-12.226c0.673-5.623,2.935-11.215,7.123-15.026
						C346.02,200.525,357.343,204.538,361.643,205.258z"/>
					<g>
						<polygon style="fill:#AB6160;" points="346.28,204.502 341.502,210.912 346.248,212.329 						"/>
						<path style="fill:#AB6160;" d="M350.668,215.175c-1.289,0.467-2.578,0.935-3.867,1.402c0.448,0.892,1.758,1.397,2.706,1.086
							C350.455,217.352,350.836,216.159,350.668,215.175z"/>
						<path style="opacity:0.3;" d="M350.668,215.175c-1.289,0.467-2.578,0.935-3.867,1.402c0.448,0.892,1.758,1.397,2.706,1.086
							C350.455,217.352,350.836,216.159,350.668,215.175z"/>
						<path style="fill:#AB6160;" d="M348.217,217.65c0.434,0.125,0.893,0.144,1.29,0.014c0.744-0.245,1.134-1.033,1.188-1.836
							c-0.523-0.052-1.064,0.063-1.503,0.352C348.685,216.512,348.339,217.058,348.217,217.65z"/>
						<path style="fill:#263238;" d="M353.264,205.51c-0.003,0.772-0.632,1.396-1.404,1.392c-0.772-0.003-1.396-0.632-1.393-1.404
							c0.003-0.772,0.632-1.396,1.404-1.392C352.644,204.109,353.267,204.738,353.264,205.51z"/>
						<path style="fill:#263238;" d="M341.526,205.008c-0.003,0.772-0.632,1.396-1.404,1.393c-0.772-0.003-1.396-0.632-1.393-1.404
							c0.003-0.772,0.632-1.396,1.404-1.393C340.906,203.608,341.53,204.236,341.526,205.008z"/>
						<path style="fill:#263238;" d="M340.189,199.438c-1.036,0.71-2.072,1.42-3.108,2.13c-0.304-0.736-0.004-1.69,0.615-2.191
							C338.314,198.875,339.531,198.989,340.189,199.438z"/>
						<path style="fill:#263238;" d="M352.163,199.32c1.03,0.719,2.06,1.438,3.091,2.156c0.309-0.734,0.018-1.69-0.596-2.197
							C354.042,198.773,352.824,198.876,352.163,199.32z"/>
					</g>
				</g>
			</g>
		</g>
	</g>
</g>
</svg>
