<?xml version="1.0" encoding="utf-8"?>
<!-- Generator: Adobe Illustrator 27.5.0, SVG Export Plug-In . SVG Version: 6.00 Build 0)  -->
<svg version="1.1" xmlns="http://www.w3.org/2000/svg" xmlns:xlink="http://www.w3.org/1999/xlink" x="0px" y="0px"
	 viewBox="0 0 500 500" style="enable-background:new 0 0 500 500;" xml:space="preserve">
<g id="Floor">
	<path style="fill:#FAFAFA;" d="M409.038,255.092c-88.41-51.043-231.282-51.043-319.117,0.001
		C2.081,306.141,2.546,388.898,90.956,439.942c88.415,51.047,231.288,51.046,319.128-0.002
		C497.919,388.896,497.454,306.139,409.038,255.092z"/>
</g>
<g id="Shadows_1_">
	<path style="fill:#F0F0F0;" d="M439.796,392.152c2.844,1.642,2.851,4.299,0.033,5.936l-11.595,6.691
		c-2.826,1.642-7.404,1.642-10.249,0L290.81,331.354c-2.836-1.638-2.859-4.294-0.033-5.936l11.595-6.691
		c2.818-1.638,7.412-1.638,10.249,0L439.796,392.152z"/>
	<path style="fill:#F0F0F0;" d="M404.125,402.695c2.844,1.642,2.852,4.299,0.033,5.936l-11.595,6.69
		c-2.826,1.642-7.404,1.642-10.248,0l-108.608-62.734c-2.836-1.638-2.859-4.294-0.033-5.936l11.595-6.691
		c2.818-1.638,7.412-1.638,10.249,0L404.125,402.695z"/>
	<path style="fill:#F0F0F0;" d="M90.221,397.757c-7.796-4.501-20.393-4.501-28.138,0c-7.745,4.501-7.704,11.798,0.091,16.299
		c7.796,4.501,20.394,4.501,28.139,0C98.058,409.555,98.017,402.258,90.221,397.757z"/>
	<path style="fill:#F0F0F0;" d="M129.287,387.203c24.075-13.9,62.981-13.9,86.9,0c23.92,13.901,23.793,36.437-0.282,50.337
		c-24.077,13.901-62.983,13.9-86.903,0C105.083,423.639,105.21,401.104,129.287,387.203z"/>
	<path style="fill:#F0F0F0;" d="M100.662,342.597l51.714-29.857c1.524-0.88,1.528-3.079,0.006-3.964l-45.578-26.487
		c-0.71-0.412-1.585-0.413-2.296-0.003l-52.863,30.521c-1.524,0.88-1.528,3.079-0.006,3.964l44.43,25.82
		C97.489,343.415,99.241,343.417,100.662,342.597z"/>
	<path style="fill:#F0F0F0;" d="M261.65,242.942c-12.202-7.045-31.92-7.044-44.042,0c-12.123,7.045-12.059,18.466,0.143,25.511
		c12.202,7.045,31.92,7.045,44.043,0C273.917,261.408,273.852,249.987,261.65,242.942z"/>
</g>
<g id="Window">
	<g>
		<g>
			<g>
				<g>
					<g style="enable-background:new    ;">
						<g>
							<polygon style="fill:#F0F0F0;" points="159.91,43.358 155.991,41.081 156.22,158.355 160.139,160.633 							"/>
						</g>
						<g>
							<polygon style="fill:#F5F5F5;" points="160.139,160.633 156.22,158.355 111.106,184.251 115.025,186.529 							"/>
						</g>
						<g>
							<path style="fill:#E0E0E0;" d="M164.662,163.21l-54.131,31.102l-0.259-127.636l54.131-31.102L164.662,163.21z
								 M115.025,186.529l45.114-25.896l-0.23-117.275l-45.114,25.896L115.025,186.529"/>
						</g>
						<g>
							<polygon style="fill:#F5F5F5;" points="164.403,35.574 160.485,33.297 106.354,64.399 110.272,66.677 							"/>
						</g>
						<g>
							<polygon style="fill:#F0F0F0;" points="110.272,66.677 106.354,64.399 106.613,192.035 110.532,194.313 							"/>
						</g>
					</g>
				</g>
			</g>
			<g>
				<polygon style="fill:#F5F5F5;" points="160.131,86.887 156.212,84.61 114.796,108.432 114.796,112.963 				"/>
				<polygon style="fill:#E0E0E0;" points="160.131,86.887 160.131,86.887 160.131,86.887 114.796,112.963 114.796,118.139 
					160.139,92.087 				"/>
				
					<rect x="111.314" y="99.925" transform="matrix(0.8668 -0.4986 0.4986 0.8668 -31.5168 81.8442)" style="fill:#E0E0E0;" width="52.299" height="0"/>
			</g>
		</g>
		<g>
			<g>
				<g>
					<g style="enable-background:new    ;">
						<g>
							<polygon style="fill:#F0F0F0;" points="90.898,83.061 86.98,80.783 87.209,198.058 91.128,200.335 							"/>
						</g>
						<g>
							<polygon style="fill:#F5F5F5;" points="91.128,200.335 87.209,198.058 42.096,223.954 46.014,226.231 							"/>
						</g>
						<g>
							<path style="fill:#E0E0E0;" d="M95.651,202.913l-54.131,31.102l-0.259-127.636l54.131-31.102L95.651,202.913z
								 M46.014,226.231l45.114-25.896l-0.23-117.275l-45.114,25.896L46.014,226.231"/>
						</g>
						<g>
							<polygon style="fill:#F5F5F5;" points="95.392,75.277 91.473,72.999 37.343,104.102 41.261,106.379 							"/>
						</g>
						<g>
							<polygon style="fill:#F0F0F0;" points="41.261,106.379 37.343,104.102 37.602,231.738 41.521,234.015 							"/>
						</g>
					</g>
				</g>
			</g>
			<g>
				<polygon style="fill:#F5F5F5;" points="91.12,126.59 87.201,124.312 45.785,148.134 45.785,152.666 				"/>
				<polygon style="fill:#E0E0E0;" points="91.12,126.59 91.12,126.59 91.12,126.59 45.785,152.666 45.785,157.841 91.128,131.789 
									"/>
				
					<rect x="42.302" y="139.628" transform="matrix(0.8668 -0.4986 0.4986 0.8668 -60.5016 52.7225)" style="fill:#E0E0E0;" width="52.299" height="0"/>
			</g>
		</g>
	</g>
</g>
<g id="Furniture">
	<g>
		<g>
			<g>
				<polygon style="fill:#E6E6E6;" points="140.866,308.973 145.283,311.54 145.269,306.431 				"/>
				<polygon style="fill:#787878;" points="145.161,281.705 145.161,281.65 145.161,281.65 145.161,281.65 				"/>
				<rect x="123.67" y="269.242" style="fill:#CFCFCF;" width="0" height="49.631"/>
				<polygon style="fill:#CFCFCF;" points="145.091,256.842 102.109,281.658 102.109,281.658 				"/>
				<path style="fill:#E6E6E6;" d="M145.269,306.431l0.014,5.109l4.601-2.656l-0.171-60.05l-52.263,30.174l0.17,60.05l4.601-2.656
					l-0.014-5.109l38.658-22.32L145.269,306.431z M102.109,281.658L102.109,281.658L102.109,281.658l42.982-24.816l0.055,19.478
					l-42.982,24.816L102.109,281.658z M102.179,306.466L102.179,306.466L102.179,306.466l42.982-24.816l0,0l0,0.055l0.055,19.418
					l-42.982,24.816L102.179,306.466z"/>
				<polygon style="fill:#E0E0E0;" points="145.216,301.123 145.161,281.705 145.161,281.65 102.179,306.466 102.179,306.466 
					102.234,325.939 				"/>
				<polygon style="fill:#E0E0E0;" points="145.146,276.32 145.091,256.842 102.109,281.658 102.109,281.658 102.164,301.136 				
					"/>
				<polygon style="fill:#E0E0E0;" points="97.451,279.008 51.824,252.493 51.994,312.543 97.621,339.058 				"/>
				<polygon style="fill:#E0E0E0;" points="97.451,279.008 149.714,248.834 104.087,222.319 51.824,252.493 				"/>
				<polygon style="fill:#E6E6E6;" points="140.866,308.973 145.283,311.54 145.269,306.431 				"/>
				<polygon style="fill:#787878;" points="145.161,281.705 145.161,281.65 145.161,281.65 145.161,281.65 				"/>
				<rect x="123.67" y="269.242" style="fill:#CFCFCF;" width="0" height="49.631"/>
				<polygon style="fill:#CFCFCF;" points="145.091,256.842 102.109,281.658 102.109,281.658 				"/>
				<polygon style="opacity:0.8;fill:#FFFFFF;" points="145.216,301.123 145.161,281.705 145.161,281.65 102.179,306.466 
					102.179,306.466 102.234,325.939 				"/>
				<polygon style="opacity:0.8;fill:#FFFFFF;" points="145.146,276.32 145.091,256.842 102.109,281.658 102.109,281.658 
					102.164,301.136 				"/>
				<polygon style="fill:#E0E0E0;" points="131.08,272.177 131.061,269.488 116.175,278.082 116.175,278.082 116.194,280.772 				
					"/>
				<polygon style="fill:#E0E0E0;" points="131.08,296.636 131.061,293.946 116.175,302.54 116.175,302.54 116.194,305.23 				"/>
				<polygon style="fill:#EBEBEB;" points="97.451,279.008 51.824,252.493 51.994,312.543 97.621,339.058 				"/>
				<polygon style="fill:#F0F0F0;" points="97.451,279.008 149.714,248.834 104.087,222.319 51.824,252.493 				"/>
			</g>
		</g>
	</g>
</g>
<g id="Lamp">
	<g>
		<path style="opacity:0.1;" d="M251.646,88.244c-0.574-1.124-1.628-2.184-3.163-3.07c-4.882-2.819-12.772-2.819-17.622,0
			c-1.525,0.886-2.566,1.946-3.128,3.07c-1.224,2.45-0.162,5.205,3.185,7.138c4.882,2.819,12.772,2.819,17.622,0
			C251.866,93.45,252.898,90.694,251.646,88.244z"/>
		<g>
			<path style="fill:#E0E0E0;" d="M252.151,254.479c-0.082,1.773-1.282,3.53-3.611,4.883c-4.851,2.819-12.74,2.819-17.622,0
				c-2.344-1.353-3.563-3.11-3.666-4.883h-0.011v3.933h0.006c0.01,1.847,1.23,3.694,3.671,5.104c4.882,2.819,12.772,2.819,17.622,0
				c2.425-1.41,3.625-3.257,3.614-5.104h0.006v-3.933H252.151z"/>
			<path style="fill:#F0F0F0;" d="M230.918,259.362c4.882,2.819,12.772,2.819,17.622,0c2.329-1.353,3.528-3.11,3.611-4.883
				c0.035-0.759-0.13-1.52-0.506-2.255c-0.574-1.124-1.628-2.183-3.163-3.07c-4.882-2.819-12.772-2.819-17.622,0
				c-1.525,0.886-2.566,1.946-3.128,3.07c-0.367,0.734-0.524,1.496-0.48,2.255C227.355,256.252,228.574,258.009,230.918,259.362z"/>
			<g>
				<rect x="229.926" y="124.553" style="fill:#E0E0E0;" width="0.368" height="32.847"/>
			</g>
			<path style="fill:#F0F0F0;" d="M231.024,157.76c0,0.504-0.409,0.913-0.913,0.913c-0.505,0-0.913-0.409-0.913-0.913
				c0-0.505,0.409-0.913,0.913-0.913C230.615,156.846,231.024,157.255,231.024,157.76z"/>
			<path style="fill:#E0E0E0;" d="M241.937,112.713h-4.473v140.471h0.002c0.002,0.331,0.219,0.663,0.657,0.916
				c0.876,0.506,2.292,0.506,3.163,0c0.435-0.253,0.649-0.584,0.647-0.916h0.003V112.713z"/>
			<path style="fill:#F0F0F0;" d="M265.426,118.757l0.041-0.003c-2.866-9.957-13.797-30.51-13.797-30.51h-0.024
				c1.252,2.45,0.22,5.205-3.105,7.138c-4.851,2.819-12.74,2.819-17.622,0c-3.347-1.932-4.41-4.688-3.185-7.138h-0.001
				c0,0-10.93,20.553-13.797,30.51l0.003,0c-1.942,4.967,0.437,10.393,7.14,14.263c10.353,5.977,27.082,5.977,37.367,0
				C265.103,129.148,267.422,123.724,265.426,118.757z"/>
			<path style="fill:#E0E0E0;" d="M251.646,88.244c-0.574-1.124-1.628-2.184-3.163-3.07c-4.882-2.819-12.772-2.819-17.622,0
				c-1.525,0.886-2.566,1.946-3.128,3.07c-1.224,2.45-0.162,5.205,3.185,7.138c4.882,2.819,12.772,2.819,17.622,0
				C251.866,93.45,252.898,90.694,251.646,88.244z"/>
		</g>
	</g>
</g>
<g id="Plant_2">
	<g>
		<path style="opacity:0.05;" d="M91.382,241.216c5.803-3.35,15.181-3.35,20.946,0c5.766,3.35,5.735,8.783-0.068,12.133
			c-5.803,3.351-15.181,3.35-20.947,0C85.548,249.999,85.578,244.567,91.382,241.216z"/>
		<g>
			<g>
				<path style="fill:#FFFFFF;" d="M86.351,220.135l15.92,0.464l15.92-0.464c0.686,10.751-1.413,21.708-4.307,27.059l-0.011-0.002
					c-0.518,1.174-1.56,2.288-3.151,3.207c-4.698,2.712-12.289,2.712-16.956,0c-1.618-0.94-2.659-2.085-3.149-3.29
					C87.744,241.729,85.668,230.832,86.351,220.135z"/>
				<g>
					<path style="fill:#EBEBEB;" d="M91.05,213.614c-6.238,3.601-6.271,9.44-0.074,13.041c6.197,3.601,16.277,3.601,22.515,0
						c6.237-3.601,6.27-9.44,0.073-13.041C107.367,210.013,97.288,210.013,91.05,213.614z"/>
				</g>
				<g>
					<path style="fill:#E0E0E0;" d="M93.517,215.047c-4.866,2.81-4.892,7.365-0.058,10.174c4.835,2.81,12.699,2.81,17.565,0
						c4.866-2.81,4.892-7.365,0.057-10.174C106.247,212.238,98.383,212.238,93.517,215.047z"/>
				</g>
				<g style="opacity:0.15;">
					<path d="M93.517,215.047c-4.866,2.81-4.892,7.365-0.058,10.174c4.835,2.81,12.699,2.81,17.565,0
						c4.866-2.81,4.892-7.365,0.057-10.174C106.247,212.238,98.383,212.238,93.517,215.047z"/>
				</g>
			</g>
			<g>
				<path style="fill:#BA68C8;" d="M103.599,220.584c-2.673,2.19-6.253,3.002-9.338,2.124c-3.077-0.876-5.584-3.414-6.544-6.617
					c1.946-0.846,3.478-2.093,5.111-3.546c-2.275-0.6-4.916-0.506-7.236,0.255c-1.254-1.913-1.575-4.667-0.546-6.9
					c2.745-1.205,5.898-1.429,8.631-0.597c-2.419-2.095-5.493-3.068-8.727-2.751c-0.318-7.824,2.096-13.407,2.096-13.407
					c5.936,0.309,11.69,2.867,13.631,4.707c0.33,2.374-0.657,6.305-0.657,6.305c2.712-1.504,2.758-4.077,2.758-4.077
					c3.714,0.929,5.302,2.783,5.882,4.197c-0.273,2.326-2.419,6.213-3.516,7.124c3.489-1.054,4.903-4.94,4.903-4.94
					C113.476,210.591,112.822,219.793,103.599,220.584z"/>
				<path style="opacity:0.2;" d="M103.599,220.584c-2.673,2.19-6.253,3.002-9.338,2.124c-3.077-0.876-5.584-3.414-6.544-6.617
					c1.946-0.846,3.478-2.093,5.111-3.546c-2.275-0.6-4.916-0.506-7.236,0.255c-1.254-1.913-1.575-4.667-0.546-6.9
					c2.745-1.205,5.898-1.429,8.631-0.597c-2.419-2.095-5.493-3.068-8.727-2.751c-0.318-7.824,2.096-13.407,2.096-13.407
					c5.936,0.309,11.69,2.867,13.631,4.707c0.33,2.374-0.657,6.305-0.657,6.305c2.712-1.504,2.758-4.077,2.758-4.077
					c3.714,0.929,5.302,2.783,5.882,4.197c-0.273,2.326-2.419,6.213-3.516,7.124c3.489-1.054,4.903-4.94,4.903-4.94
					C113.476,210.591,112.822,219.793,103.599,220.584z"/>
				<path style="opacity:0.3;fill:#FFFFFF;" d="M103.599,220.584c-2.673,2.19-6.253,3.002-9.338,2.124
					c-3.077-0.876-5.584-3.414-6.544-6.617c1.946-0.846,3.478-2.093,5.111-3.546c-2.275-0.6-4.916-0.506-7.236,0.255
					c-1.254-1.913-1.575-4.667-0.546-6.9c2.745-1.205,5.898-1.429,8.631-0.597c-2.419-2.095-5.493-3.068-8.727-2.751
					c-0.318-7.824,2.096-13.407,2.096-13.407c5.936,0.309,11.69,2.867,13.631,4.707c0.33,2.374-0.657,6.305-0.657,6.305
					c2.712-1.504,2.758-4.077,2.758-4.077c3.714,0.929,5.302,2.783,5.882,4.197c-0.273,2.326-2.419,6.213-3.516,7.124
					c3.489-1.054,4.903-4.94,4.903-4.94C113.476,210.591,112.822,219.793,103.599,220.584z"/>
				<g>
					<path style="fill:#F5F5F5;" d="M103.807,221.465c0.009,0,0.017,0,0.027-0.001c0.189-0.015,0.33-0.179,0.316-0.368
						c-0.567-7.495-4.856-19.87-15.08-30.076c-0.134-0.133-0.351-0.134-0.485,0.001c-0.134,0.134-0.134,0.351,0,0.485
						c10.091,10.073,14.323,22.264,14.88,29.642C103.479,221.328,103.629,221.465,103.807,221.465z"/>
				</g>
			</g>
			<g>
				<path style="fill:#BA68C8;" d="M101.002,224.595c2.37,1.934,5.683,2.653,8.641,1.875c2.958-0.778,5.489-3.033,6.601-5.882
					c-1.791-0.748-3.162-1.852-4.614-3.138c2.189-0.542,4.685-0.467,6.839,0.202c1.314-1.71,1.795-4.168,0.958-6.155
					c-2.532-1.059-5.508-1.24-8.146-0.482c2.421-1.88,5.397-2.769,8.451-2.507c0.802-6.997-1.141-11.969-1.141-11.969
					c-5.658,0.343-11.259,2.686-13.202,4.343c-0.457,2.115,0.229,5.601,0.229,5.601c-2.457-1.314-2.343-3.6-2.343-3.6
					c-3.544,0.857-5.144,2.515-5.772,3.772c0.114,2.057,1.886,5.486,2.857,6.286c-3.2-0.914-4.286-4.343-4.286-4.343
					C92.386,215.797,92.443,223.906,101.002,224.595z"/>
				<path style="opacity:0.3;fill:#FFFFFF;" d="M101.002,224.595c2.37,1.934,5.683,2.653,8.641,1.875
					c2.958-0.778,5.489-3.033,6.601-5.882c-1.791-0.748-3.162-1.852-4.614-3.138c2.189-0.542,4.685-0.467,6.839,0.202
					c1.314-1.71,1.795-4.168,0.958-6.155c-2.532-1.059-5.508-1.24-8.146-0.482c2.421-1.88,5.397-2.769,8.451-2.507
					c0.802-6.997-1.141-11.969-1.141-11.969c-5.658,0.343-11.259,2.686-13.202,4.343c-0.457,2.115,0.229,5.601,0.229,5.601
					c-2.457-1.314-2.343-3.6-2.343-3.6c-3.544,0.857-5.144,2.515-5.772,3.772c0.114,2.057,1.886,5.486,2.857,6.286
					c-3.2-0.914-4.286-4.343-4.286-4.343C92.386,215.797,92.443,223.906,101.002,224.595z"/>
				<g>
					<path style="fill:#FFFFFF;" d="M100.775,225.413c0.167,0,0.313-0.122,0.338-0.292c0.974-6.527,5.716-17.36,15.877-26.412
						c0.141-0.126,0.153-0.343,0.027-0.484c-0.125-0.142-0.342-0.154-0.484-0.028c-10.297,9.174-15.108,20.183-16.098,26.823
						c-0.028,0.188,0.101,0.362,0.288,0.39C100.74,225.412,100.758,225.413,100.775,225.413z"/>
				</g>
			</g>
		</g>
	</g>
</g>
<g id="Plant_1">
	<g>
		<g>
			<path style="fill:#FFFFFF;" d="M95.072,371.859l-18.874,0.55l-18.874-0.55c-0.813,12.746,1.676,25.735,5.107,32.08l0.013-0.002
				c0.614,1.392,1.849,2.713,3.736,3.802c5.569,3.215,14.569,3.215,20.102,0c1.919-1.115,3.152-2.472,3.734-3.9
				C93.42,397.461,95.881,384.542,95.072,371.859z"/>
			<g>
				<path style="fill:#EBEBEB;" d="M89.5,364.129c7.395,4.269,7.434,11.191,0.088,15.461c-7.347,4.27-19.297,4.27-26.692,0
					c-7.395-4.269-7.434-11.191-0.087-15.461C70.155,359.859,82.105,359.859,89.5,364.129z"/>
			</g>
			<g>
				<path style="fill:#E0E0E0;" d="M86.576,365.828c5.77,3.331,5.8,8.731,0.068,12.062c-5.732,3.331-15.055,3.331-20.824,0
					c-5.769-3.331-5.8-8.731-0.068-12.062C71.483,362.497,80.807,362.497,86.576,365.828z"/>
			</g>
			<g style="opacity:0.15;">
				<path d="M86.576,365.828c5.77,3.331,5.8,8.731,0.068,12.062c-5.732,3.331-15.055,3.331-20.824,0
					c-5.769-3.331-5.8-8.731-0.068-12.062C71.483,362.497,80.807,362.497,86.576,365.828z"/>
			</g>
		</g>
		<g>
			<path style="fill:#BA68C8;" d="M107.229,291.32c-42.534,13.927-42.919,42.382-33.33,62.645
				c2.418,4.102,9.737,6.305,16.107-18.897L78.834,336.5l13.02-6.599l3.382-10.109l-10.855,0.806l13.779-5.795
				C103.235,299.448,107.229,291.32,107.229,291.32z"/>
			<path style="opacity:0.2;" d="M107.229,291.32c-42.534,13.927-42.919,42.382-33.33,62.645c2.418,4.102,9.737,6.305,16.107-18.897
				L78.834,336.5l13.02-6.599l3.382-10.109l-10.855,0.806l13.779-5.795C103.235,299.448,107.229,291.32,107.229,291.32z"/>
			<path style="opacity:0.2;fill:#FFFFFF;" d="M107.229,291.32c-42.534,13.927-42.919,42.382-33.33,62.645
				c2.418,4.102,9.737,6.305,16.107-18.897L78.834,336.5l13.02-6.599l3.382-10.109l-10.855,0.806l13.779-5.795
				C103.235,299.448,107.229,291.32,107.229,291.32z"/>
			<path style="fill:#FFFFFF;" d="M95.199,298.436c-22.43,17.024-24.455,36.541-18.118,56.917
				C74.839,337.411,72.417,319.27,95.199,298.436z"/>
		</g>
		<g>
			<path style="fill:#BA68C8;" d="M35.188,320.225c41.926,5.904,47.013,32.34,41.449,52.805c-1.571,4.222-8.021,7.489-18.14-14.923
				l10.642-0.522l-13.221-3.982l-4.829-8.852l10.243-1.053l-13.795-3.108C40.259,327.131,35.188,320.225,35.188,320.225z"/>
			<path style="opacity:0.2;fill:#FFFFFF;" d="M35.188,320.225c41.926,5.904,47.013,32.34,41.449,52.805
				c-1.571,4.222-8.021,7.489-18.14-14.923l10.642-0.522l-13.221-3.982l-4.829-8.852l10.243-1.053l-13.795-3.108
				C40.259,327.131,35.188,320.225,35.188,320.225z"/>
			<path style="fill:#FFFFFF;" d="M47.574,324.853c23.718,12.128,28.847,29.968,26.331,49.997
				C73.011,357.769,72.253,340.471,47.574,324.853z"/>
		</g>
		<path style="opacity:0.1;" d="M35.188,320.225c41.926,5.904,47.013,32.34,41.449,52.805c-1.571,4.222-8.021,7.489-18.14-14.923
			l10.642-0.522l-13.221-3.982l-4.829-8.852l10.243-1.053l-13.795-3.108C40.259,327.131,35.188,320.225,35.188,320.225z"/>
		<g>
			<path style="fill:#BA68C8;" d="M119.501,330.131c-38.449,0.629-45.992,23.887-43.269,42.954c0.943,3.981,6.391,7.648,18.02-11.42
				l-9.534-1.662l12.362-2.11l5.343-7.438l-9.115-2.095l12.782-1.257C114.157,335.789,119.501,330.131,119.501,330.131z"/>
			<path style="fill:#FFFFFF;" d="M107.819,332.917c-22.734,8.277-29.354,23.782-29.328,42.116
				C81.208,359.737,83.827,344.231,107.819,332.917z"/>
			<path style="opacity:0.2;fill:#FFFFFF;" d="M119.501,330.131c-38.449,0.629-45.992,23.887-43.269,42.954
				c0.943,3.981,6.391,7.648,18.02-11.42l-9.534-1.662l12.362-2.11l5.343-7.438l-9.115-2.095l12.782-1.257
				C114.157,335.789,119.501,330.131,119.501,330.131z"/>
		</g>
	</g>
</g>
<g id="Device">
	<g>
		<path style="fill:#37474F;" d="M441.743,105.032c-1.016-2.076-2.621-3.853-4.699-5.035l-122.25-69.552
			c-0.409-0.233-1.54-0.348-1.768-0.346c-6.294-0.124-12.618,5.798-13.506,8.913l0.009,0.008c-0.186,0.382-0.312,0.804-0.312,1.274
			v264.324c0,4.201,2.254,8.08,5.904,10.16l122.256,69.668c0.153,0.087,0.311,0.132,0.469,0.189
			c0.018,0.008,0.031,0.026,0.049,0.034c7.293,3.092,15.06-3.336,15.06-10.072V110.162
			C442.955,108.348,442.514,106.607,441.743,105.032z"/>
		<g>
			<g>
				<g>
					<path style="fill:#455A64;" d="M299.53,39.021l-0.009-0.008c0.887-3.115,7.212-9.037,13.505-8.913
						c0.227-0.002,1.359,0.114,1.767,0.346l122.25,69.552c2.078,1.182,3.683,2.959,4.699,5.035c0.771,1.574,1.212,3.316,1.212,5.129
						v264.436c0,6.736-7.767,13.164-15.06,10.072c-0.018-0.008-0.031-0.026-0.049-0.034c-0.157-0.057-0.316-0.102-0.469-0.189
						l-122.255-69.668c-3.65-2.08-5.904-5.959-5.904-10.16V40.295C299.218,39.824,299.344,39.402,299.53,39.021z"/>
					<path style="fill:#BA68C8;" d="M425.902,138.112c0-2.102-1.129-4.043-2.956-5.083L309.435,68.45
						c-1.949-1.109-4.369,0.299-4.369,2.541v213.231c0,2.096,1.132,4.043,2.954,5.082l113.511,64.684
						c1.949,1.111,4.371-0.297,4.371-2.54V138.112z"/>
					<path style="opacity:0.2;" d="M425.902,138.112c0-2.102-1.129-4.043-2.956-5.083L309.435,68.45
						c-1.949-1.109-4.369,0.299-4.369,2.541v213.231c0,2.096,1.132,4.043,2.954,5.082l113.511,64.684
						c1.949,1.111,4.371-0.297,4.371-2.54V138.112z"/>
					<path style="opacity:0.3;" d="M442.955,110.162v264.436c0,6.736-7.767,13.164-15.06,10.072
						c-0.018-0.008-0.031-0.026-0.049-0.034c1.848,0.669,3.902-0.662,3.902-2.729V117.47c0-2.343-0.721-4.572-1.974-6.458
						l11.969-5.98C442.514,106.607,442.955,108.348,442.955,110.162z"/>
					<path style="opacity:0.1;fill:#FFFFFF;" d="M313.027,30.099c0.227-0.002,1.359,0.114,1.767,0.346l122.25,69.552
						c2.078,1.182,3.683,2.959,4.699,5.035l-11.969,5.98c-0.996-1.498-2.319-2.786-3.937-3.706l-122.25-69.552
						c-1.54-0.876-3.355-0.169-4.057,1.267l-0.009-0.008C300.409,35.897,306.733,29.975,313.027,30.099z"/>
					<g>
						<g>
							<g>
								<path style="fill:#263238;" d="M350.417,81.421c-0.858-0.496-1.57-0.112-1.573,0.875c-0.003,0.987,0.704,2.211,1.563,2.707
									l23.985,13.847c0.859,0.496,1.551,0.079,1.554-0.907c0.003-0.987-0.685-2.179-1.544-2.674L350.417,81.421z"/>
							</g>
							<g>
								<path style="fill:#263238;" d="M380.561,98.825c-0.859-0.496-1.552-0.101-1.554,0.885c-0.003,0.987,0.686,2.2,1.544,2.696
									c0.858,0.496,1.57,0.09,1.573-0.896C382.126,100.523,381.42,99.32,380.561,98.825z"/>
							</g>
						</g>
						<g>
							<path style="fill:#263238;" d="M365.209,79.406c-1.715-0.99-3.1-0.201-3.105,1.77c-0.006,1.971,1.37,4.396,3.085,5.386
								c1.715,0.991,3.137,0.18,3.142-1.791C368.336,82.8,366.924,80.397,365.209,79.406z"/>
						</g>
						<g>
							<path style="fill:#263238;" d="M365.2,328.351c-3.494-2.017-6.313-0.411-6.324,3.604c-0.011,4.015,2.789,8.954,6.283,10.971
								c3.494,2.017,6.389,0.367,6.401-3.648C371.57,335.263,368.693,330.368,365.2,328.351z"/>
						</g>
					</g>
				</g>
			</g>
		</g>
	</g>
</g>
<g id="Screen">
	<g>
		<path style="fill:#BA68C8;" d="M406.705,145.401c-0.136-0.375-0.292-0.742-0.467-1.099c-0.692-1.413-1.684-2.674-2.933-3.668
			c-0.416-0.332-0.861-0.634-1.333-0.902L291.008,76.601c-0.13-0.074-0.343-0.135-0.572-0.183c-0.421-0.088-0.898-0.133-1.032-0.132
			c-3.57-0.071-7.152,2.003-9.532,4.258c-1.428,1.353-2.424,2.772-2.727,3.832h0l0,0l0.008,0.007
			c-0.085,0.173-0.155,0.356-0.205,0.548c-0.05,0.193-0.078,0.395-0.078,0.609v239.925v0c0,1.907,0.512,3.74,1.437,5.333
			c0.231,0.398,0.489,0.781,0.77,1.147c0.845,1.097,1.909,2.034,3.152,2.742l110.97,63.237c0.139,0.079,0.283,0.12,0.425,0.172
			c0.017,0.008,0.028,0.024,0.045,0.031c6.619,2.807,13.67-3.028,13.67-9.142V148.958v0
			C407.339,147.724,407.113,146.526,406.705,145.401z"/>
		<g>
			<g>
				<g>
					<g>
						<path style="fill:#BA68C8;" d="M277.153,84.384l-0.008-0.008c0.806-2.828,6.546-8.203,12.259-8.09
							c0.206-0.002,1.233,0.103,1.604,0.314l110.965,63.132c1.887,1.073,3.343,2.686,4.265,4.57c0.699,1.429,1.1,3.01,1.1,4.656
							v240.026c0,6.115-7.05,11.949-13.67,9.142c-0.017-0.007-0.028-0.024-0.045-0.031c-0.143-0.052-0.286-0.092-0.425-0.172
							l-110.97-63.237c-3.313-1.888-5.359-5.409-5.359-9.222V85.541C276.87,85.114,276.983,84.73,277.153,84.384z"/>
						<path style="opacity:0.2;fill:#FFFFFF;" d="M407.339,148.958v240.026c0,6.115-7.05,11.949-13.67,9.142
							c-0.017-0.007-0.028-0.024-0.045-0.031c1.678,0.608,3.542-0.6,3.542-2.477V155.592c0-2.126-0.655-4.149-1.792-5.862
							l10.864-5.428C406.938,145.732,407.339,147.312,407.339,148.958z"/>
						<path style="opacity:0.4;fill:#FFFFFF;" d="M289.403,76.286c0.206-0.002,1.233,0.103,1.604,0.314l110.965,63.132
							c1.887,1.073,3.343,2.686,4.265,4.57l-10.864,5.428c-0.904-1.36-2.105-2.529-3.573-3.364L280.835,83.234
							c-1.398-0.795-3.045-0.154-3.683,1.15l-0.008-0.008C277.95,81.549,283.69,76.173,289.403,76.286z"/>
					</g>
					<path style="opacity:0.3;fill:#FFFFFF;" d="M277.153,84.384l-0.008-0.008c0.806-2.828,6.546-8.203,12.259-8.09
						c0.207-0.002,1.233,0.103,1.604,0.314l110.965,63.132c1.887,1.073,3.343,2.686,4.265,4.57c0.699,1.429,1.1,3.01,1.1,4.656
						v240.027c0,6.115-7.05,11.949-13.67,9.142c-0.017-0.007-0.028-0.024-0.045-0.031c-0.143-0.052-0.286-0.092-0.425-0.172
						l-110.97-63.237c-3.313-1.888-5.359-5.409-5.359-9.222V85.541C276.87,85.114,276.983,84.73,277.153,84.384z"/>
				</g>
			</g>
			<path style="opacity:0.3;fill:#FFFFFF;" d="M286.617,148.958L286.617,148.958c0-1.234-0.225-2.432-0.633-3.557
				C286.392,146.526,286.617,147.724,286.617,148.958z"/>
			<path style="fill:#BA68C8;" d="M385.779,199.109l-98.896-57.097c-0.949-0.548-1.72-0.109-1.723,0.982l-0.145,111.48
				c-0.003,1.091,0.763,2.418,1.712,2.966l98.896,57.097c0.949,0.548,1.72,0.109,1.723-0.982l0.145-111.48
				C387.494,200.984,386.728,199.657,385.779,199.109z"/>
			<g>
				<g>
					<polygon style="fill:#FFFFFF;" points="291.412,104.959 292.589,105.638 292.603,100.586 291.426,99.907 					"/>
					<polygon style="fill:#FFFFFF;" points="289.391,103.792 290.565,104.469 290.576,100.384 289.403,99.707 					"/>
					<polygon style="fill:#FFFFFF;" points="287.367,102.623 288.544,103.303 288.552,100.272 287.376,99.592 					"/>
					<polygon style="fill:#FFFFFF;" points="285.347,101.457 286.52,102.134 286.526,100.092 285.352,99.414 					"/>
					<polygon style="fill:#FFFFFF;" points="295.786,107.484 302.98,111.638 302.992,107.398 295.798,103.244 					"/>
					<polygon style="fill:#FFFFFF;" points="306.561,113.705 310.158,115.782 310.17,111.542 306.573,109.465 					"/>
				</g>
				<g>
					<polygon style="fill:#FFFFFF;" points="380.823,156.047 380.833,152.626 384.695,154.856 380.833,152.626 					"/>
					<polygon style="fill:#BA68C8;" points="380.823,156.047 384.685,158.277 384.695,154.856 380.833,152.626 					"/>
					<path style="fill:#FFFFFF;" d="M387.415,156.945l0.004-1.334l-7.293-4.211l-0.004,1.334l-0.007,2.384l-0.004,1.334l7.293,4.211
						l0.004-1.334l0.937,0.541l0.007-2.385L387.415,156.945z M384.685,158.277l-3.862-2.23l0.01-3.421l3.862,2.23L384.685,158.277z"
						/>
				</g>
				<polygon style="fill:#FFFFFF;" points="369.67,150.058 376.864,154.212 376.876,149.972 369.682,145.818 				"/>
				<polygon style="fill:#FFFFFF;" points="335.33,129.982 342.524,134.136 342.536,129.896 335.342,125.743 				"/>
			</g>
			<g>
				<polygon style="fill:#BA68C8;" points="318.503,310.244 318.49,314.467 336.934,325.115 336.946,320.892 				"/>
				<polygon style="fill:#BA68C8;" points="345.401,311.946 326.415,300.984 326.403,305.207 345.389,316.169 				"/>
				<polygon style="fill:#BA68C8;" points="286.743,288.898 310.047,302.449 310.059,298.226 286.755,284.674 				"/>
				<polygon style="fill:#BA68C8;" points="321.312,298.038 286.774,278.001 286.762,282.224 321.3,302.261 				"/>
				<polygon style="fill:#BA68C8;" points="315.144,305.391 357.201,329.673 357.213,325.45 315.156,301.168 				"/>
				<polygon style="fill:#BA68C8;" points="314.023,307.657 286.774,291.925 286.762,296.148 314.011,311.88 				"/>
				<polygon style="fill:#BA68C8;" points="350.285,318.996 383.905,338.406 383.917,334.183 350.297,314.772 				"/>
				<polygon style="fill:#BA68C8;" points="362.103,332.503 383.886,345.08 383.898,340.857 362.115,328.28 				"/>
			</g>
			<g>
				<polygon style="fill:#BA68C8;" points="286.762,310.667 328.819,334.949 328.831,330.726 286.774,306.444 				"/>
				<polygon style="fill:#BA68C8;" points="286.774,316.423 286.762,320.646 314.023,336.38 314.023,332.15 				"/>
				<polygon style="fill:#BA68C8;" points="335.057,344.294 318.445,334.703 318.445,338.933 335.045,348.517 				"/>
			</g>
			<g>
				<path style="fill:#FFFFFF;" d="M289.276,264.677c-0.646-0.373-1.292-0.463-1.786-0.181c-0.991,0.56-0.997,2.397-0.012,4.099
					l0.573,0.997l3.555,6.158l3.582-2.037l0.577-0.333c0.992-0.561,0.997-2.397,0.012-4.099c-0.491-0.85-1.136-1.505-1.781-1.878
					c-0.646-0.373-1.292-0.463-1.786-0.181l-0.581,0.327l-0.573-0.993C290.566,265.705,289.921,265.049,289.276,264.677z"/>
			</g>
			<g>
				<path style="fill:#FFFFFF;" d="M304.122,273.451c2.429,1.403,4.393,4.803,4.385,7.599c-0.003,0.917-0.221,1.652-0.597,2.18
					l0.583,2.875l-2.2-1.949c-0.648,0.052-1.398-0.128-2.199-0.591c-2.429-1.403-4.393-4.803-4.385-7.595
					C299.717,273.174,301.693,272.048,304.122,273.451z"/>
			</g>
			<g>
				<g>
					<polygon style="fill:#BA68C8;" points="341.788,183.745 346.905,193.096 354.331,195.678 357.473,205.403 364.983,210.759 
						365.845,219.904 372.708,227.508 371.202,235.175 376.743,244.283 373.023,249.733 376.7,259.447 371.126,262.138 
						372.583,271.522 365.7,271.19 364.789,279.31 357.273,275.992 354.087,282.062 346.669,276.075 341.517,279.497 
						334.933,271.439 328.321,271.878 323.204,262.527 315.783,259.948 312.641,250.223 305.131,244.867 304.269,235.722 
						297.406,228.118 298.912,220.445 293.371,211.337 297.091,205.893 293.414,196.173 298.988,193.482 297.531,184.104 
						304.414,184.436 305.326,176.316 312.841,179.634 316.028,173.564 323.44,179.548 328.592,176.126 335.181,184.187 					"/>
				</g>
				<g style="opacity:0.4;">
					<polygon style="fill:#FFFFFF;" points="341.788,183.745 346.905,193.096 354.331,195.678 357.473,205.403 364.983,210.759 
						365.845,219.904 372.708,227.508 371.202,235.175 376.743,244.283 373.023,249.733 376.7,259.447 371.126,262.138 
						372.583,271.522 365.7,271.19 364.789,279.31 357.273,275.992 354.087,282.062 346.669,276.075 341.517,279.497 
						334.933,271.439 328.321,271.878 323.204,262.527 315.783,259.948 312.641,250.223 305.131,244.867 304.269,235.722 
						297.406,228.118 298.912,220.445 293.371,211.337 297.091,205.893 293.414,196.173 298.988,193.482 297.531,184.104 
						304.414,184.436 305.326,176.316 312.841,179.634 316.028,173.564 323.44,179.548 328.592,176.126 335.181,184.187 					"/>
				</g>
				<g>
					<path style="fill:#BA68C8;" d="M335.159,191.315c17.54,10.126,31.712,34.675,31.655,54.835
						c-0.057,20.154-14.323,28.284-31.862,18.157c-17.545-10.129-31.717-34.678-31.66-54.832
						C303.349,189.315,317.615,181.185,335.159,191.315z"/>
				</g>
				<g style="opacity:0.2;">
					<path style="fill:#FFFFFF;" d="M335.159,191.315c17.54,10.126,31.712,34.675,31.655,54.835
						c-0.057,20.154-14.323,28.284-31.862,18.157c-17.545-10.129-31.717-34.678-31.66-54.832
						C303.349,189.315,317.615,181.185,335.159,191.315z"/>
				</g>
				<g>
					<path style="fill:#FFFFFF;" d="M356.759,222.97c0.769,0.444,1.233,1.893,0.542,2.138c-6.315,2.304-19.685,7.808-27.843,15.728
						c-0.504,0.491-1.265,0.444-2.027,0.005c-0.73-0.422-1.46-1.204-1.964-2.222c-4.717-9.52-9.54-17.298-12.565-21.892
						c-0.839-1.274-0.304-2.485,0.698-1.907c0.073,0.042,0.148,0.093,0.225,0.155c7.407,5.918,12.826,14.219,13.111,14.656
						c12.367-7.944,23.586-7.73,29.498-6.781C356.547,222.869,356.656,222.91,356.759,222.97z"/>
				</g>
			</g>
			<g>
				<path style="fill:#FFFFFF;" d="M293.458,126.181c3.536,2.042,6.394,6.991,6.382,11.055c-0.012,4.063-2.888,5.702-6.424,3.661
					c-3.537-2.042-6.395-6.992-6.383-11.055C287.045,125.778,289.921,124.139,293.458,126.181z"/>
			</g>
			<polygon style="fill:#FFFFFF;" points="340.219,157.922 305.681,137.885 305.669,142.108 340.207,162.145 			"/>
		</g>
	</g>
</g>
<g id="Character">
	<g>
		<g>
			<g>
				<g>
					<path style="fill:#FFA8A7;" d="M186.107,165.054l0.97,0.011c6.498,0.073,14.717,4.493,18.733,15.833l15.608,30.228l-17.818,7.9
						l-9.746-28.532L186.107,165.054z"/>
				</g>
				<path style="fill:#F28F8F;" d="M198.62,185.116c1.245,3.57,1.322,7.422,1.518,11.197c0.196,3.775,0.634,8.334,2.363,11.696
					c1.888-1.306,4.204-1.983,6.498-1.9c2.294,0.083,4.555,0.927,6.343,2.367c1.286,1.036,2.242,2.46,2.89,4.061l-14.632,6.487
					l-9.746-28.532l-4.792-15.733C193.444,176.77,197.028,180.553,198.62,185.116z"/>
			</g>
			<g>
				<path style="fill:#FFA8A7;" d="M203.436,213.569c1.311-3.369,4.49-5.939,8.059-6.516c3.569-0.577,7.617,1.288,9.923,4.072
					c1.944,2.348,1.639,5.524,0.413,8.315c-1.922,4.377-7.281,6.916-11.886,5.631C205.339,223.785,201.702,218.025,203.436,213.569z
					"/>
			</g>
		</g>
		<g>
			<g>
				<path style="fill:#FFA8A7;" d="M146.708,408.437c-0.866,1.555-2.546,2.797-4.314,2.594c-1.588-0.181-2.871-1.484-3.483-2.96
					c-0.613-1.477-0.676-3.116-0.709-4.714c-0.111-5.315,0.022-10.634,0.383-15.937c3.635,0.847,7.386,1.085,11.128,1.16
					c-0.57,4.905-1.141,9.81-1.711,14.715C147.795,405.062,147.573,406.882,146.708,408.437z"/>
				<path style="fill:#455A64;" d="M135.092,400.786c1.377-4.428,2.884-8.958,2.569-13.585c0.306,0.081,0.615,0.147,0.923,0.219
					c-0.361,5.304-0.494,10.623-0.383,15.937c0.033,1.598,0.096,3.237,0.709,4.714c0.613,1.477,1.895,2.779,3.483,2.96
					c1.768,0.202,3.449-1.039,4.314-2.594c0.866-1.555,1.087-3.375,1.293-5.142c0.57-4.905,1.141-9.81,1.711-14.715
					c0.392,0.008,0.785,0.016,1.177,0.021c-1.002,5.504-0.286,11.153,0.066,16.737c0.352,5.584,0.289,11.411-2.113,16.464
					c-0.628,1.322-1.459,2.62-2.722,3.362c-1.311,0.77-2.96,0.835-4.416,0.398c-1.456-0.437-2.738-1.335-3.841-2.383
					c-2.436-2.314-4.095-5.431-4.655-8.743C132.435,409.862,133.715,405.214,135.092,400.786z"/>
			</g>
			<g>
				<path style="fill:#455A64;" d="M193.084,396.546l-0.914,5.481c-4.351-2.072-5.75-4.403-5.75-4.403
					c-0.112-4.208-0.063-8.537-0.027-10.646c1.155,2.561,3.688,4.288,5.264,6.647C192.265,394.536,192.715,395.521,193.084,396.546z
					"/>
				<path style="fill:#455A64;" d="M194.482,401.433l-2.312,0.594l0.914-5.481C193.652,398.124,194.028,399.796,194.482,401.433z"/>
				<path style="opacity:0.2;" d="M193.084,396.546l-0.914,5.481c-4.351-2.072-5.75-4.403-5.75-4.403
					c-0.112-4.208-0.063-8.537-0.027-10.646c1.155,2.561,3.688,4.288,5.264,6.647C192.265,394.536,192.715,395.521,193.084,396.546z
					"/>
				<path style="opacity:0.3;" d="M194.482,401.433l-2.312,0.594l0.914-5.481C193.652,398.124,194.028,399.796,194.482,401.433z"/>
				<path style="fill:#455A64;" d="M186.184,380.904c0.422-1.461,1.088-2.833,1.799-4.181c-0.033,2.188,0.839,4.418,2.015,6.313
					c1.566,2.525,3.656,4.698,5.159,7.261c1.83,3.119,2.778,6.789,5.182,9.491c2.339,2.628,5.974,4.043,9.475,3.689
					c1.296-0.131,2.654-0.545,3.473-1.558c0.371-0.458,0.563-1.062,0.574-1.653c1.188,1.266,2.482,2.424,3.909,3.421
					c1.581,1.105,3.477,2.267,3.736,4.178c0.215,1.581-0.876,3.113-2.27,3.888c-1.395,0.774-3.037,0.941-4.63,1.034
					c-3.419,0.198-6.903,0.118-10.182-0.87c-3.278-0.988-6.357-2.968-8.126-5.899c-0.853-1.413-1.372-2.981-1.816-4.584
					c-0.454-1.637-0.829-3.308-1.398-4.886c-0.369-1.025-0.818-2.011-1.426-2.921c-1.576-2.359-4.109-4.086-5.264-6.647
					c-0.062-0.137-0.137-0.267-0.191-0.409C185.527,384.771,185.651,382.75,186.184,380.904z"/>
				<path style="fill:#FFA8A7;" d="M209.814,403.476c-3.501,0.355-7.135-1.061-9.475-3.689c-2.404-2.701-3.352-6.372-5.182-9.491
					c-1.503-2.563-3.594-4.736-5.159-7.261c-1.176-1.895-2.048-4.126-2.015-6.313c0.188-0.355,0.377-0.71,0.567-1.062
					c4.733,0.841,9.909,1.135,14.462,2.68c1.527,4.741,3.064,9.506,5.337,13.938c1.479,2.883,3.3,5.629,5.511,7.986
					c-0.01,0.591-0.203,1.195-0.574,1.653C212.467,402.932,211.11,403.345,209.814,403.476z"/>
			</g>
			<path style="fill:#BA68C8;" d="M196.961,206.103c0.257,4.007,0.514,8.015,0.772,12.022c9.046,37.302,6.352,93.041,6.352,93.041
				l-0.285,67.965c-2.599,1.6-5.806,2.305-8.783,1.631c-2.977-0.675-5.662-2.553-7.318-5.117
				c-1.538-16.716-9.308-42.98-6.977-63.494c-3.108-16.163-5.439-39.162-5.439-39.162l-7.615,39.784l-15.852,76.771
				c-6.993,2.953-13.21,0.932-15.23-1.787c1.627-42.345,0.933-62.706,7.46-82.288c-2.02-52.527-2.639-76.271,10.159-94.319
				l-0.158-6.814L196.961,206.103z"/>
			<path style="opacity:0.3;" d="M196.961,206.103c0.257,4.007,0.514,8.015,0.772,12.022c9.046,37.302,6.352,93.041,6.352,93.041
				l-0.285,67.965c-2.599,1.6-5.806,2.305-8.783,1.631c-2.977-0.675-5.662-2.553-7.318-5.117
				c-1.538-16.716-9.308-42.98-6.977-63.494c-3.108-16.163-5.439-39.162-5.439-39.162l-7.615,39.784l-15.852,76.771
				c-6.993,2.953-13.21,0.932-15.23-1.787c1.627-42.345,0.933-62.706,7.46-82.288c-2.02-52.527-2.639-76.271,10.159-94.319
				l-0.158-6.814L196.961,206.103z"/>
			<path style="opacity:0.2;" d="M177.016,264.127c4.682-0.898,9.255-2.826,12.974-5.81c-1.311,4.145-5.229,7.616-9.491,8.473
				l-3.999,16.579l-1.203-10.262L177.016,264.127z"/>
		</g>
		<path style="fill:#455A64;" d="M181.198,164.346l4.59,0.342c1.787,0.133,3.415,1.077,4.418,2.562l10.609,15.699
			c3.195,4.728,2.852,11.004-0.838,15.356l0,0c-1.353,1.596-1.97,3.689-1.7,5.763l3.624,35.834
			c-20.837,15.47-49.265,6.189-58.736,1.138c0.354-7.768,3.649-17.903,7.589-24.822c2.536-4.454,3.221-9.72,1.832-14.654
			l-3.036-10.777l4.342-25.633L181.198,164.346z"/>
		<g>
			<path style="fill:#263238;" d="M198.547,127.975c0.364,1.927,1.886,7.733,0.364,10.955c-0.733,1.551-1.552,2.488-1.024,4.12
				c0.562,1.737,2.843,2.575,3.157,4.373c0.253,1.446-0.887,2.709-1.582,4.002c-0.983,1.831-1.1,4.102-0.311,6.024
				c0.789,1.922,2.468,3.457,4.453,4.07c-2.574-0.162-5.372-1.572-6.795-3.722c-1.424-2.15-1.774-4.975-0.919-7.408
				c0.252-0.716,0.604-1.413,0.667-2.169c0.124-1.484-0.864-2.794-1.643-4.063c-1.69-2.754-2.57-6.068-2.096-9.265
				C193.291,131.698,195.678,129.462,198.547,127.975z"/>
			<path style="fill:#263238;" d="M198.906,131.652c0.079-3.101-0.862-6.162-2.278-8.922c-3.979-7.752-12.178-13.387-20.891-13.519
				c-4.076-0.062-8.222,1.069-11.485,3.514c-3.638,2.725-5.976,6.897-7.312,11.242c-1.272,4.136-1.712,8.634-0.501,12.788
				c1.211,4.154,4.248,7.901,8.347,9.286c2.645,0.894,5.518,0.777,8.294,0.485c5.935-0.625,11.789-2.014,17.376-4.113
				c2.103-0.791,4.23-1.403,5.664-3.19C197.867,137.046,198.834,134.451,198.906,131.652z"/>
			<g>
				<path style="fill:#FFA8A7;" d="M181.198,154.954v10.172c0,0,8.316,5.315,4.814,8.128c-6.603,5.304-20.756-8.185-20.756-8.185
					V148.14L181.198,154.954z"/>
				<path style="fill:#F28F8F;" d="M165.255,148.14c1.944,8.918,11.365,14.411,15.943,15.516v-8.702L165.255,148.14z"/>
			</g>
			<path style="fill:#FFA8A7;" d="M154.569,138.248c1.146-2.275,4.204-3.355,6.525-2.303c2.321,1.052,3.525,4.063,2.569,6.424
				c0.896,0.37,1.863,0.254,2.677-0.272c0.814-0.526,1.39-1.37,1.72-2.281c0.194-0.535,0.447-2.25,0.625-3.772
				c2.54-0.406,4.022-4.584,4.028-4.984c0.613,0.119,12.394,0.658,16.201-6.17c5.129,0.866,6.866,6.882,6.979,6.848
				c0.39,2.115,0.544,4.281,0.489,6.421c-0.113,4.422-1.055,8.777-2.337,12.996c-1.013,3.332-1.879,6.737-5.259,8.468
				c-1.927,0.986-4.175,1.199-6.329,0.978c-7.926-0.813-15.403-6.921-19.042-13.873c-1.312,1.543-3.577,2.048-5.319,1.014
				c-1.42-1.152-2.713-2.521-3.46-4.19C153.889,141.884,153.747,139.88,154.569,138.248z"/>
			<g>
				<polygon style="fill:#F28F8F;" points="185.425,138.835 189.531,146.425 184.241,147.2 				"/>
				<path style="fill:#F28F8F;" d="M179.077,149.552c1.304,0.7,2.608,1.4,3.912,2.1c-0.617,0.883-2.096,1.219-3.06,0.739
					C178.966,151.91,178.744,150.577,179.077,149.552z"/>
				<path style="opacity:0.3;" d="M179.077,149.552c1.304,0.7,2.608,1.4,3.912,2.1c-0.617,0.883-2.096,1.219-3.06,0.739
					C178.966,151.91,178.744,150.577,179.077,149.552z"/>
				<path style="fill:#F28F8F;" d="M181.31,152.577c-0.483,0.066-0.976,0.015-1.38-0.186c-0.757-0.377-1.05-1.279-0.983-2.146
					c0.566,0.025,1.126,0.233,1.551,0.61C180.986,151.289,181.271,151.926,181.31,152.577z"/>
				<path style="fill:#263238;" d="M177.809,138.825c-0.117,0.825,0.458,1.589,1.283,1.706c0.826,0.117,1.589-0.458,1.706-1.283
					c0.117-0.825-0.458-1.589-1.283-1.706C178.69,137.425,177.926,137.999,177.809,138.825z"/>
				<path style="fill:#263238;" d="M190.424,140.116c-0.117,0.825,0.458,1.589,1.283,1.706c0.826,0.117,1.589-0.458,1.706-1.283
					c0.117-0.825-0.458-1.589-1.283-1.706C191.305,138.717,190.541,139.291,190.424,140.116z"/>
				<path style="fill:#263238;" d="M192.72,134.375c0.996,0.92,1.992,1.84,2.988,2.759c0.439-0.739,0.268-1.804-0.315-2.436
					C194.811,134.066,193.493,133.997,192.72,134.375z"/>
				<path style="fill:#263238;" d="M179.949,132.384c-1.212,0.607-2.424,1.215-3.637,1.822c-0.216-0.832,0.244-1.808,0.979-2.254
					C178.027,131.507,179.311,131.807,179.949,132.384z"/>
			</g>
			<path style="fill:#263238;" d="M168.528,135.221c0.586,2.119,1.153,4.473,0.162,6.436c-0.603,1.195-1.715,2.073-2.321,3.266
				c-0.676,1.332-0.648,2.909-0.437,4.388c0.211,1.478,0.59,2.945,0.564,4.438c-0.039,2.216-1.02,4.399-2.65,5.901
				c-1.63,1.501-3.887,2.299-6.098,2.156c1.702,0.243,3.765-1.304,4.644-2.781c0.879-1.477,1.048-3.281,0.887-4.993
				c-0.161-1.712-0.626-3.378-0.933-5.069c-0.307-1.691-0.451-3.459,0.024-5.111c0.491-1.707,1.638-3.354,1.29-5.096
				c-0.189-0.946-0.81-1.777-0.912-2.736c-0.132-1.244,0.766-2.517,1.984-2.808C165.949,132.921,168.194,134.014,168.528,135.221z"
				/>
			<path style="opacity:0.3;" d="M182.156,114.801c-0.844,1.071-2.021,1.899-3.254,2.613c-4.285,2.482-9.461,3.734-14.574,3.523
				c-1.017-0.042-2.06-0.147-2.959-0.571c-1.392-0.655-2.194-1.981-2.427-3.386c1.305-2.345,3.076-4.469,5.424-6.03
				c3.128-2.08,7.103-3.042,11.011-2.99c2.327,0.031,4.612,0.437,6.786,1.133c0.526,0.589,0.909,1.256,1.061,2.008
				C183.483,112.389,183,113.731,182.156,114.801z"/>
			<path style="fill:#263238;" d="M185.201,104.864c-0.494-4.074-3.876-7.377-7.738-8.765c-3.821-1.372-8.134-1.141-11.913,0.343
				c-3.779,1.484-7.03,4.165-9.473,7.407c-1.76,2.335-3.165,5.172-2.831,8.077c0.388,3.38,3.178,6.177,6.419,7.21
				c3.242,1.033,7.023,0.801,10.175-0.121c2.18-0.637,9.154-3.438,10.898-5.296C183.013,111.297,185.594,108.099,185.201,104.864z"
				/>
		</g>
		<path style="opacity:0.2;" d="M162.521,193.567c2.161,3.104,5.403,5.44,9.032,6.506c3.629,1.066,7.619,0.857,11.116-0.585
			c-2.961,2.895-7.491,4.235-11.501,3.204C167.157,201.661,163.719,197.531,162.521,193.567z"/>
		<g>
			<g>
				<path style="fill:#E0E0E0;" d="M190.084,238.861c0.001,0.027,0.005,0.051,0.011,0.074c0.009,0.033,0.024,0.061,0.045,0.085
					l1.6,1.83v0c-0.024-0.028-0.018-0.082-0.026-0.124c0.059,0.283,0.473,0.274,1.165-0.115l13.408-7.542
					c1.009-0.567,2.151-1.657,2.57-2.439l11.663-21.712c0.191-0.357,0.183-0.572,0.049-0.671c0.012,0.009,0.045-0.002,0.054,0.009
					l-1.6-1.831c-0.044-0.05-0.112-0.078-0.202-0.083c-0.029-0.001-0.061-0.001-0.094,0.002c-0.025,0.002-0.052,0.006-0.08,0.011
					c-0.007,0.001-0.014,0.003-0.021,0.005c-0.001,0-0.003,0.001-0.005,0.001c-0.016,0.003-0.032,0.006-0.049,0.011
					c-0.023,0.006-0.048,0.012-0.073,0.02c-0.023,0.007-0.048,0.015-0.072,0.023c-0.023,0.008-0.046,0.016-0.07,0.026
					c-0.023,0.009-0.047,0.018-0.071,0.028c-0.023,0.01-0.047,0.02-0.071,0.031c-0.024,0.011-0.048,0.022-0.073,0.034
					c-0.024,0.012-0.049,0.023-0.073,0.036c-0.025,0.013-0.05,0.025-0.075,0.039c-0.025,0.014-0.051,0.027-0.077,0.042
					c-0.01,0.006-0.021,0.012-0.032,0.018l-13.409,7.542c-0.015,0.008-0.03,0.017-0.045,0.026c-0.025,0.014-0.051,0.029-0.077,0.045
					c-0.024,0.015-0.048,0.029-0.072,0.044c-0.023,0.015-0.047,0.03-0.071,0.044c-0.021,0.014-0.043,0.027-0.064,0.041
					c-0.019,0.012-0.037,0.025-0.056,0.037c-0.019,0.012-0.038,0.025-0.057,0.038c-0.015,0.01-0.029,0.02-0.044,0.03
					c-0.013,0.009-0.027,0.018-0.04,0.028c-0.013,0.01-0.027,0.019-0.04,0.029c-0.013,0.009-0.027,0.019-0.04,0.028
					c-0.01,0.008-0.02,0.015-0.03,0.022c-0.01,0.007-0.02,0.014-0.029,0.021c-0.01,0.007-0.019,0.014-0.029,0.022
					c-0.01,0.007-0.019,0.014-0.029,0.021c-0.01,0.007-0.019,0.014-0.029,0.022c-0.009,0.007-0.017,0.013-0.026,0.02
					c-0.008,0.006-0.016,0.012-0.024,0.018c-0.008,0.006-0.016,0.012-0.024,0.018c-0.008,0.006-0.016,0.012-0.024,0.018
					c-0.008,0.006-0.015,0.012-0.023,0.019c-0.008,0.006-0.016,0.012-0.024,0.019c-0.008,0.006-0.016,0.012-0.023,0.019
					c-0.008,0.006-0.016,0.013-0.025,0.019c-0.008,0.007-0.016,0.013-0.024,0.02c-0.008,0.007-0.016,0.013-0.024,0.02
					c-0.008,0.007-0.016,0.013-0.024,0.02c-0.008,0.007-0.016,0.013-0.024,0.02c-0.008,0.007-0.016,0.013-0.024,0.02
					c-0.012,0.01-0.024,0.02-0.037,0.031c-0.012,0.01-0.025,0.021-0.037,0.031c-0.012,0.011-0.025,0.021-0.037,0.032
					c-0.012,0.01-0.024,0.021-0.037,0.032c-0.057,0.05-0.114,0.1-0.169,0.151c-0.015,0.013-0.029,0.027-0.044,0.041
					c-0.015,0.014-0.029,0.027-0.044,0.041c-0.013,0.012-0.026,0.025-0.039,0.037c-0.008,0.008-0.017,0.016-0.025,0.023
					c-0.008,0.008-0.017,0.016-0.025,0.024c-0.008,0.008-0.016,0.016-0.024,0.024c-0.008,0.008-0.016,0.016-0.024,0.024
					c-0.008,0.008-0.016,0.016-0.024,0.023c-0.008,0.008-0.015,0.015-0.023,0.023c-0.007,0.007-0.015,0.015-0.022,0.022
					c-0.007,0.007-0.015,0.015-0.022,0.022c-0.008,0.007-0.014,0.015-0.021,0.022c-0.007,0.007-0.014,0.015-0.022,0.022
					c-0.007,0.007-0.014,0.014-0.021,0.022c-0.007,0.008-0.015,0.016-0.023,0.023c-0.008,0.008-0.016,0.017-0.025,0.026
					c-0.008,0.009-0.016,0.017-0.024,0.026c-0.008,0.008-0.016,0.017-0.024,0.026c-0.008,0.008-0.016,0.017-0.024,0.026
					c-0.008,0.009-0.017,0.018-0.025,0.027c-0.01,0.012-0.021,0.024-0.032,0.035c-0.01,0.012-0.021,0.023-0.031,0.035
					c-0.011,0.012-0.021,0.023-0.031,0.035c-0.012,0.013-0.023,0.027-0.035,0.04c-0.014,0.016-0.029,0.033-0.042,0.05
					c-0.014,0.017-0.028,0.033-0.042,0.05c-0.016,0.019-0.032,0.039-0.048,0.058c-0.018,0.021-0.035,0.043-0.051,0.064
					c-0.018,0.022-0.035,0.045-0.052,0.067c-0.018,0.024-0.036,0.047-0.053,0.071c-0.017,0.023-0.034,0.047-0.05,0.07
					c-0.016,0.023-0.033,0.046-0.048,0.069c-0.015,0.023-0.03,0.045-0.044,0.068c-0.014,0.022-0.028,0.044-0.041,0.066
					c-0.013,0.022-0.026,0.044-0.038,0.065c-0.011,0.02-0.022,0.04-0.033,0.06l-11.663,21.712c-0.001,0.001-0.001,0.002-0.002,0.004
					c-0.011,0.021-0.022,0.041-0.032,0.061c-0.01,0.021-0.02,0.04-0.028,0.06c-0.009,0.02-0.017,0.04-0.025,0.059
					c-0.008,0.02-0.016,0.04-0.022,0.059c-0.007,0.02-0.013,0.039-0.018,0.058c-0.006,0.021-0.011,0.041-0.015,0.061
					c-0.002,0.012-0.004,0.023-0.005,0.035c0,0.002-0.001,0.004-0.001,0.006c-0.001,0.007-0.002,0.014-0.003,0.021
					C190.084,238.819,190.083,238.84,190.084,238.861z M220.176,208.211c0.013-0.003,0.035-0.017,0.047-0.02
					c0.001-0.001,0.003-0.001,0.004-0.001c0.045-0.009,0.054,0.017,0.093,0.015C220.27,208.208,220.235,208.197,220.176,208.211z
					 M204.577,217.177L204.577,217.177c0.117-0.111,0.245-0.209,0.369-0.315C204.822,216.968,204.693,217.066,204.577,217.177z
					 M203.945,217.851c0.047-0.057,0.111-0.115,0.163-0.173C204.056,217.736,203.992,217.794,203.945,217.851
					C203.944,217.851,203.944,217.851,203.945,217.851z M191.689,240.605c0-0.001,0.001-0.003,0.001-0.004
					c0.003-0.02,0.022-0.052,0.027-0.074c-0.008,0.037-0.019,0.077-0.021,0.11C191.696,240.625,191.687,240.62,191.689,240.605z"/>
				<path style="opacity:0.2;" d="M190.084,238.861c0.001,0.027,0.005,0.051,0.011,0.074c0.009,0.033,0.024,0.061,0.045,0.085
					l1.6,1.83v0c-0.024-0.028-0.018-0.082-0.026-0.124c0.059,0.283,0.473,0.274,1.165-0.115l13.408-7.542
					c1.009-0.567,2.151-1.657,2.57-2.439l11.663-21.712c0.191-0.357,0.183-0.572,0.049-0.671c0.012,0.009,0.045-0.002,0.054,0.009
					l-1.6-1.831c-0.044-0.05-0.112-0.078-0.202-0.083c-0.029-0.001-0.061-0.001-0.094,0.002c-0.025,0.002-0.052,0.006-0.08,0.011
					c-0.007,0.001-0.014,0.003-0.021,0.005c-0.001,0-0.003,0.001-0.005,0.001c-0.016,0.003-0.032,0.006-0.049,0.011
					c-0.023,0.006-0.048,0.012-0.073,0.02c-0.023,0.007-0.048,0.015-0.072,0.023c-0.023,0.008-0.046,0.016-0.07,0.026
					c-0.023,0.009-0.047,0.018-0.071,0.028c-0.023,0.01-0.047,0.02-0.071,0.031c-0.024,0.011-0.048,0.022-0.073,0.034
					c-0.024,0.012-0.049,0.023-0.073,0.036c-0.025,0.013-0.05,0.025-0.075,0.039c-0.025,0.014-0.051,0.027-0.077,0.042
					c-0.01,0.006-0.021,0.012-0.032,0.018l-13.409,7.542c-0.015,0.008-0.03,0.017-0.045,0.026c-0.025,0.014-0.051,0.029-0.077,0.045
					c-0.024,0.015-0.048,0.029-0.072,0.044c-0.023,0.015-0.047,0.03-0.071,0.044c-0.021,0.014-0.043,0.027-0.064,0.041
					c-0.019,0.012-0.037,0.025-0.056,0.037c-0.019,0.012-0.038,0.025-0.057,0.038c-0.015,0.01-0.029,0.02-0.044,0.03
					c-0.013,0.009-0.027,0.018-0.04,0.028c-0.013,0.01-0.027,0.019-0.04,0.029c-0.013,0.009-0.027,0.019-0.04,0.028
					c-0.01,0.008-0.02,0.015-0.03,0.022c-0.01,0.007-0.02,0.014-0.029,0.021c-0.01,0.007-0.019,0.014-0.029,0.022
					c-0.01,0.007-0.019,0.014-0.029,0.021c-0.01,0.007-0.019,0.014-0.029,0.022c-0.009,0.007-0.017,0.013-0.026,0.02
					c-0.008,0.006-0.016,0.012-0.024,0.018c-0.008,0.006-0.016,0.012-0.024,0.018c-0.008,0.006-0.016,0.012-0.024,0.018
					c-0.008,0.006-0.015,0.012-0.023,0.019c-0.008,0.006-0.016,0.012-0.024,0.019c-0.008,0.006-0.016,0.012-0.023,0.019
					c-0.008,0.006-0.016,0.013-0.025,0.019c-0.008,0.007-0.016,0.013-0.024,0.02c-0.008,0.007-0.016,0.013-0.024,0.02
					c-0.008,0.007-0.016,0.013-0.024,0.02c-0.008,0.007-0.016,0.013-0.024,0.02c-0.008,0.007-0.016,0.013-0.024,0.02
					c-0.012,0.01-0.024,0.02-0.037,0.031c-0.012,0.01-0.025,0.021-0.037,0.031c-0.012,0.011-0.025,0.021-0.037,0.032
					c-0.012,0.01-0.024,0.021-0.037,0.032c-0.057,0.05-0.114,0.1-0.169,0.151c-0.015,0.013-0.029,0.027-0.044,0.041
					c-0.015,0.014-0.029,0.027-0.044,0.041c-0.013,0.012-0.026,0.025-0.039,0.037c-0.008,0.008-0.017,0.016-0.025,0.023
					c-0.008,0.008-0.017,0.016-0.025,0.024c-0.008,0.008-0.016,0.016-0.024,0.024c-0.008,0.008-0.016,0.016-0.024,0.024
					c-0.008,0.008-0.016,0.016-0.024,0.023c-0.008,0.008-0.015,0.015-0.023,0.023c-0.007,0.007-0.015,0.015-0.022,0.022
					c-0.007,0.007-0.015,0.015-0.022,0.022c-0.008,0.007-0.014,0.015-0.021,0.022c-0.007,0.007-0.014,0.015-0.022,0.022
					c-0.007,0.007-0.014,0.014-0.021,0.022c-0.007,0.008-0.015,0.016-0.023,0.023c-0.008,0.008-0.016,0.017-0.025,0.026
					c-0.008,0.009-0.016,0.017-0.024,0.026c-0.008,0.008-0.016,0.017-0.024,0.026c-0.008,0.008-0.016,0.017-0.024,0.026
					c-0.008,0.009-0.017,0.018-0.025,0.027c-0.01,0.012-0.021,0.024-0.032,0.035c-0.01,0.012-0.021,0.023-0.031,0.035
					c-0.011,0.012-0.021,0.023-0.031,0.035c-0.012,0.013-0.023,0.027-0.035,0.04c-0.014,0.016-0.029,0.033-0.042,0.05
					c-0.014,0.017-0.028,0.033-0.042,0.05c-0.016,0.019-0.032,0.039-0.048,0.058c-0.018,0.021-0.035,0.043-0.051,0.064
					c-0.018,0.022-0.035,0.045-0.052,0.067c-0.018,0.024-0.036,0.047-0.053,0.071c-0.017,0.023-0.034,0.047-0.05,0.07
					c-0.016,0.023-0.033,0.046-0.048,0.069c-0.015,0.023-0.03,0.045-0.044,0.068c-0.014,0.022-0.028,0.044-0.041,0.066
					c-0.013,0.022-0.026,0.044-0.038,0.065c-0.011,0.02-0.022,0.04-0.033,0.06l-11.663,21.712c-0.001,0.001-0.001,0.002-0.002,0.004
					c-0.011,0.021-0.022,0.041-0.032,0.061c-0.01,0.021-0.02,0.04-0.028,0.06c-0.009,0.02-0.017,0.04-0.025,0.059
					c-0.008,0.02-0.016,0.04-0.022,0.059c-0.007,0.02-0.013,0.039-0.018,0.058c-0.006,0.021-0.011,0.041-0.015,0.061
					c-0.002,0.012-0.004,0.023-0.005,0.035c0,0.002-0.001,0.004-0.001,0.006c-0.001,0.007-0.002,0.014-0.003,0.021
					C190.084,238.819,190.083,238.84,190.084,238.861z M220.176,208.211c0.013-0.003,0.035-0.017,0.047-0.02
					c0.001-0.001,0.003-0.001,0.004-0.001c0.045-0.009,0.054,0.017,0.093,0.015C220.27,208.208,220.235,208.197,220.176,208.211z
					 M204.577,217.177L204.577,217.177c0.117-0.111,0.245-0.209,0.369-0.315C204.822,216.968,204.693,217.066,204.577,217.177z
					 M203.945,217.851c0.047-0.057,0.111-0.115,0.163-0.173C204.056,217.736,203.992,217.794,203.945,217.851
					C203.944,217.851,203.944,217.851,203.945,217.851z M191.689,240.605c0-0.001,0.001-0.003,0.001-0.004
					c0.003-0.02,0.022-0.052,0.027-0.074c-0.008,0.037-0.019,0.077-0.021,0.11C191.696,240.625,191.687,240.62,191.689,240.605z"/>
				<path style="opacity:0.15;fill:#FFFFFF;" d="M190.086,238.796c0.001-0.007,0.002-0.014,0.003-0.021
					c0-0.002,0.001-0.004,0.001-0.006c0.002-0.012,0.003-0.023,0.005-0.035c0.004-0.019,0.009-0.039,0.015-0.061
					c0.005-0.019,0.011-0.038,0.018-0.058c0.007-0.019,0.014-0.038,0.022-0.059c0.008-0.019,0.016-0.039,0.025-0.059
					c0.009-0.02,0.018-0.039,0.028-0.06c0.01-0.02,0.02-0.04,0.032-0.061c0.001-0.002,0.001-0.003,0.002-0.004l11.663-21.712
					l1.6,1.83l-11.663,21.712c-0.084,0.157-0.132,0.289-0.148,0.397c0,0.001-0.001,0.003-0.001,0.004
					c-0.015,0.107,0.003,0.189,0.051,0.244l0,0l0,0l0,0l-1.6-1.83c-0.021-0.024-0.036-0.052-0.045-0.085
					c-0.007-0.022-0.01-0.047-0.011-0.074C190.083,238.84,190.084,238.819,190.086,238.796z"/>
				<path style="opacity:0.2;fill:#FFFFFF;" d="M201.934,216.601c0.012-0.021,0.025-0.043,0.038-0.065
					c0.014-0.022,0.027-0.044,0.041-0.066c0.014-0.023,0.029-0.045,0.044-0.068c0.015-0.023,0.032-0.046,0.048-0.069
					c0.016-0.023,0.033-0.047,0.05-0.07c0.017-0.023,0.035-0.047,0.053-0.071c0.017-0.022,0.034-0.045,0.052-0.067
					c0.017-0.021,0.034-0.043,0.051-0.064c0.016-0.019,0.032-0.039,0.048-0.058c0.014-0.017,0.028-0.033,0.042-0.05
					c0.014-0.016,0.028-0.033,0.042-0.05c0.011-0.013,0.023-0.026,0.035-0.04c0.01-0.012,0.021-0.023,0.031-0.035
					c0.01-0.012,0.021-0.023,0.031-0.035c0.011-0.012,0.021-0.024,0.032-0.035c0.008-0.009,0.017-0.018,0.025-0.027
					c0.008-0.009,0.016-0.017,0.024-0.026c0.008-0.009,0.016-0.017,0.024-0.026c0.008-0.009,0.016-0.017,0.024-0.026
					c0.008-0.009,0.016-0.017,0.025-0.026c0.008-0.008,0.015-0.016,0.023-0.023c0.007-0.007,0.014-0.015,0.021-0.022
					c0.007-0.007,0.014-0.015,0.022-0.022c0.007-0.007,0.014-0.015,0.022-0.022c0.007-0.007,0.014-0.015,0.022-0.022
					c0.007-0.007,0.015-0.015,0.022-0.022c0.007-0.008,0.015-0.015,0.023-0.023c0.008-0.008,0.016-0.016,0.024-0.023
					c0.008-0.008,0.016-0.016,0.024-0.024c0.008-0.008,0.016-0.016,0.024-0.024c0.008-0.008,0.016-0.016,0.025-0.024
					c0.008-0.008,0.016-0.016,0.025-0.023c0.013-0.012,0.026-0.025,0.039-0.037c0.014-0.014,0.029-0.027,0.044-0.041
					c0.015-0.013,0.03-0.027,0.044-0.041c0.055-0.051,0.112-0.102,0.169-0.151c0.012-0.011,0.024-0.021,0.037-0.032
					c0.012-0.011,0.025-0.021,0.037-0.032c0.012-0.01,0.025-0.021,0.037-0.031c0.012-0.01,0.025-0.021,0.037-0.031
					c0.008-0.007,0.016-0.013,0.024-0.02c0.008-0.007,0.016-0.013,0.024-0.02c0.008-0.007,0.016-0.013,0.024-0.02
					c0.008-0.007,0.016-0.013,0.024-0.02c0.008-0.007,0.016-0.013,0.024-0.02c0.008-0.007,0.016-0.013,0.025-0.019
					c0.008-0.007,0.016-0.013,0.023-0.019c0.008-0.006,0.016-0.012,0.024-0.019c0.008-0.006,0.016-0.012,0.024-0.019
					c0.008-0.006,0.016-0.012,0.024-0.018c0.008-0.006,0.016-0.012,0.024-0.018c0.008-0.006,0.016-0.012,0.024-0.018
					c0.009-0.007,0.017-0.013,0.026-0.02c0.009-0.007,0.019-0.015,0.029-0.022c0.01-0.007,0.019-0.014,0.029-0.021
					c0.01-0.007,0.019-0.014,0.029-0.022c0.01-0.007,0.019-0.014,0.029-0.021c0.01-0.007,0.02-0.014,0.03-0.022
					c0.013-0.01,0.027-0.019,0.04-0.028c0.013-0.01,0.027-0.019,0.04-0.029c0.013-0.009,0.027-0.019,0.04-0.028
					c0.015-0.01,0.029-0.02,0.044-0.03c0.019-0.013,0.038-0.026,0.057-0.038c0.019-0.013,0.038-0.025,0.056-0.037
					c0.021-0.014,0.043-0.028,0.064-0.041c0.023-0.015,0.047-0.03,0.07-0.044c0.024-0.015,0.049-0.029,0.073-0.044
					c0.026-0.015,0.051-0.03,0.076-0.045c0.015-0.009,0.03-0.017,0.045-0.026l13.409-7.542c0.011-0.006,0.022-0.012,0.032-0.018
					c0.026-0.014,0.052-0.028,0.077-0.042c0.025-0.014,0.051-0.026,0.075-0.039c0.025-0.012,0.049-0.024,0.073-0.036
					c0.025-0.012,0.049-0.023,0.073-0.034c0.024-0.011,0.048-0.021,0.071-0.031c0.024-0.01,0.048-0.02,0.071-0.028
					c0.024-0.009,0.047-0.018,0.07-0.026c0.025-0.008,0.049-0.016,0.072-0.023c0.025-0.008,0.05-0.014,0.073-0.02
					c0.017-0.005,0.033-0.007,0.049-0.011c0.002-0.001,0.003-0.001,0.005-0.001c0.007-0.001,0.014-0.003,0.021-0.005
					c0.028-0.005,0.055-0.009,0.08-0.011c0.033-0.003,0.065-0.004,0.094-0.002c0.091,0.005,0.159,0.033,0.202,0.083l1.6,1.831
					c-0.071-0.081-0.206-0.103-0.398-0.065c-0.001,0-0.003,0.001-0.004,0.001c-0.192,0.039-0.44,0.14-0.737,0.307l-13.408,7.542
					c-0.248,0.14-0.506,0.313-0.761,0.506c-0.001,0-0.001,0.001-0.002,0.001c-0.254,0.194-0.505,0.408-0.738,0.629
					c0,0-0.001,0.001-0.001,0.001c-0.233,0.222-0.448,0.45-0.632,0.673c-0.001,0.001-0.001,0.002-0.002,0.003
					c-0.184,0.223-0.336,0.44-0.442,0.638l-1.6-1.83C201.911,216.641,201.922,216.621,201.934,216.601z"/>
			</g>
			<path style="fill:#FFA8A7;" d="M143.472,175.089c1.103-8.024,6.653-9.652,10.418-9.936c0,0,4.732,3.242,4.732,17.728
				l-0.406,36.231l-0.007,0.002c0.889,0.361,1.773,0.737,2.658,1.104c7.334,3.046,15.47,5.756,23.306,7.042
				c3.936-3.321,9.549-5.046,14.699-4.988l-1.978,3.683c3.748,2.399,12.211-1.926,12.211-1.926
				c0.621,5.282-2.799,10.764-7.337,13.539c-4.537,2.774-47.849-1.299-57.034-7.247
				C138.697,226.411,141.134,192.091,143.472,175.089z"/>
			<path style="fill:#FFA8A7;" d="M218.262,213.098c0.125,1.145,0.623,3.188,0.493,4.332c-0.389,3.428-1.771,6.791-4.178,9.263
				c-0.516,0.53-1.096,1.03-1.796,1.269c-0.7,0.239-1.545,0.172-2.088-0.332c-0.576-0.535-0.682-1.396-0.728-2.181
				c-0.069-1.174-0.086-2.366,0.193-3.508c0.279-1.142,0.884-2.241,1.849-2.913c0.703-0.49,1.547-0.724,2.346-1.034
				c0.799-0.311,1.459-0.84,2.091-1.514L218.262,213.098z"/>
		</g>
	</g>
</g>
<g id="Speech_bubble">
	<g>
		<g>
			<g>
				<path style="fill:#BA68C8;" d="M221.175,129.086l27.286-15.654c2.39-1.371,8.047,0.487,8.047,4.329
					c0-1.365-1.475-2.219-2.658-1.54l-27.286,15.654c-0.919,0.527-1.614,1.318-2.076,2.232l-5.297-3.009
					C219.654,130.275,220.328,129.572,221.175,129.086z"/>
				<path style="fill:#BA68C8;" d="M224.488,134.107c-0.37,0.732-0.6,1.539-0.6,2.388v20.262c0,1.363,1.473,2.218,2.656,1.541
					c-3.997,2.284-8.044-0.757-8.044-4.331v-20.261c0-0.931,0.25-1.823,0.691-2.607L224.488,134.107z"/>
			</g>
			<path style="opacity:0.4;fill:#FFFFFF;" d="M221.175,129.086l27.286-15.654c2.39-1.371,8.047,0.487,8.047,4.329
				c0-1.365-1.475-2.219-2.658-1.54l-27.286,15.654c-0.919,0.527-1.614,1.318-2.076,2.232l-5.297-3.009
				C219.654,130.275,220.328,129.572,221.175,129.086z"/>
			<path style="opacity:0.2;fill:#FFFFFF;" d="M224.488,134.107c-0.37,0.732-0.6,1.539-0.6,2.388v20.262
				c0,1.363,1.473,2.218,2.656,1.541c-3.997,2.284-8.044-0.757-8.044-4.331v-20.261c0-0.931,0.25-1.823,0.691-2.607L224.488,134.107
				z"/>
			<g>
				<path style="fill:#BA68C8;" d="M253.85,116.222l-27.286,15.654c-1.655,0.95-2.675,2.712-2.675,4.62v20.262
					c0,1.363,1.473,2.218,2.656,1.541l27.281-15.589c1.659-0.948,2.683-2.713,2.683-4.624v-20.323
					C256.508,116.397,255.033,115.543,253.85,116.222z"/>
				<path style="fill:#BA68C8;" d="M217.32,146.835l6.56,1.225v-8.411l-6.786,6.415C216.826,146.317,216.958,146.767,217.32,146.835
					z"/>
			</g>
			<path style="fill:#BA68C8;" d="M223.88,139.649l-5.38-3.084l-6.778,6.487c-0.22,0.207-0.177,0.568,0.086,0.718l5.364,3.007
				L223.88,139.649z"/>
			<path style="opacity:0.2;fill:#FFFFFF;" d="M223.88,139.649l-5.38-3.084l-6.778,6.487c-0.22,0.207-0.177,0.568,0.086,0.718
				l5.364,3.007L223.88,139.649z"/>
		</g>
		<g>
			<path style="fill:#FFFFFF;" d="M249.7,122.774c0.675-0.39,1.144,0.373,0.535,1.346c-3.42,5.465-8.009,13.418-11.481,21.721
				c-0.394,0.944-1.047,1.681-1.705,2.061c-0.619,0.357-1.242,0.398-1.658-0.005c-1.833-1.775-3.85-3.191-5.279-4.098
				c-0.518-0.329-0.091-1.542,0.579-1.929c0.084-0.049,0.172-0.084,0.263-0.103c3.143-0.65,5.883-0.187,6.027-0.163
				c3.448-7.256,8.462-13.912,12.327-18.486C249.441,122.959,249.574,122.847,249.7,122.774z"/>
		</g>
	</g>
</g>
</svg>
