<?xml version="1.0" encoding="utf-8"?>
<!-- Generator: Adobe Illustrator 27.5.0, SVG Export Plug-In . SVG Version: 6.00 Build 0)  -->
<svg version="1.1" xmlns="http://www.w3.org/2000/svg" xmlns:xlink="http://www.w3.org/1999/xlink" x="0px" y="0px"
	 viewBox="0 0 500 500" style="enable-background:new 0 0 500 500;" xml:space="preserve">
<g id="Background_Complete">
	<g>
		<rect y="382.398" style="fill:#EBEBEB;" width="500" height="0.25"/>
		<rect x="416.779" y="398.494" style="fill:#EBEBEB;" width="33.122" height="0.25"/>
		<rect x="322.527" y="401.208" style="fill:#EBEBEB;" width="8.693" height="0.25"/>
		<rect x="396.586" y="389.208" style="fill:#EBEBEB;" width="19.192" height="0.25"/>
		<rect x="52.459" y="390.888" style="fill:#EBEBEB;" width="43.193" height="0.25"/>
		<rect x="104.556" y="390.888" style="fill:#EBEBEB;" width="6.333" height="0.25"/>
		<rect x="131.471" y="395.111" style="fill:#EBEBEB;" width="93.676" height="0.25"/>
		<path style="fill:#EBEBEB;" d="M237.014,337.8H43.915c-3.147,0-5.708-2.561-5.708-5.708V60.66c0-3.147,2.561-5.708,5.708-5.708
			h193.099c3.146,0,5.707,2.561,5.707,5.708v271.432C242.721,335.239,240.16,337.8,237.014,337.8z M43.915,55.203
			c-3.01,0-5.458,2.448-5.458,5.458v271.432c0,3.01,2.448,5.458,5.458,5.458h193.099c3.009,0,5.457-2.448,5.457-5.458V60.66
			c0-3.009-2.448-5.458-5.457-5.458H43.915z"/>
		<path style="fill:#EBEBEB;" d="M453.31,337.8H260.212c-3.147,0-5.707-2.561-5.707-5.708V60.66c0-3.147,2.561-5.708,5.707-5.708
			H453.31c3.148,0,5.708,2.561,5.708,5.708v271.432C459.019,335.239,456.458,337.8,453.31,337.8z M260.212,55.203
			c-3.009,0-5.457,2.448-5.457,5.458v271.432c0,3.01,2.448,5.458,5.457,5.458H453.31c3.01,0,5.458-2.448,5.458-5.458V60.66
			c0-3.009-2.448-5.458-5.458-5.458H260.212z"/>
	</g>
	<g>
		<g>
			<rect x="336.711" y="237.515" style="fill:#FAFAFA;" width="22.297" height="9.486"/>
			<rect x="309.729" y="237.515" style="fill:#FAFAFA;" width="22.298" height="9.486"/>
			<rect x="282.748" y="237.515" style="fill:#FAFAFA;" width="22.297" height="9.486"/>
			<rect x="350.202" y="250.721" style="fill:#FAFAFA;" width="22.298" height="9.486"/>
			<rect x="323.22" y="250.721" style="fill:#FAFAFA;" width="22.297" height="9.486"/>
			<rect x="296.239" y="250.721" style="fill:#FAFAFA;" width="22.297" height="9.486"/>
			<rect x="269.257" y="250.721" style="fill:#FAFAFA;" width="22.298" height="9.486"/>
			<rect x="393.694" y="263.928" style="fill:#FAFAFA;" width="22.297" height="9.486"/>
			<rect x="366.713" y="263.928" style="fill:#FAFAFA;" width="22.298" height="9.486"/>
			<rect x="309.729" y="263.928" style="fill:#FAFAFA;" width="22.298" height="9.486"/>
			<rect x="282.748" y="263.928" style="fill:#FAFAFA;" width="22.297" height="9.486"/>
			<rect x="255.767" y="263.928" style="fill:#FAFAFA;" width="22.297" height="9.486"/>
			<rect x="380.203" y="277.134" style="fill:#FAFAFA;" width="22.297" height="9.486"/>
			<rect x="323.22" y="277.134" style="fill:#FAFAFA;" width="22.297" height="9.486"/>
			<rect x="296.239" y="277.134" style="fill:#FAFAFA;" width="22.297" height="9.486"/>
			<rect x="269.257" y="277.134" style="fill:#FAFAFA;" width="22.298" height="9.486"/>
			<rect x="164.012" y="102.962" style="fill:#FAFAFA;" width="22.298" height="9.486"/>
			<rect x="137.031" y="102.962" style="fill:#FAFAFA;" width="22.298" height="9.486"/>
			<rect x="177.503" y="116.169" style="fill:#FAFAFA;" width="22.297" height="9.486"/>
			<rect x="150.522" y="116.169" style="fill:#FAFAFA;" width="22.297" height="9.486"/>
			<rect x="96.559" y="116.169" style="fill:#FAFAFA;" width="22.297" height="9.486"/>
			<rect x="69.577" y="116.169" style="fill:#FAFAFA;" width="22.297" height="9.486"/>
			<rect x="137.031" y="129.375" style="fill:#FAFAFA;" width="22.298" height="9.486"/>
			<rect x="382.645" y="180.264" style="fill:#FAFAFA;" width="22.298" height="9.486"/>
			<rect x="335.662" y="180.264" style="fill:#FAFAFA;" width="22.298" height="9.486"/>
			<rect x="396.136" y="193.47" style="fill:#FAFAFA;" width="22.297" height="9.486"/>
			<rect x="369.154" y="193.47" style="fill:#FAFAFA;" width="22.297" height="9.486"/>
			<rect x="138.935" y="166.936" style="fill:#FAFAFA;" width="22.298" height="9.486"/>
			<rect x="81.946" y="166.936" style="fill:#FAFAFA;" width="22.298" height="9.486"/>
			<rect x="152.426" y="180.142" style="fill:#FAFAFA;" width="22.297" height="9.486"/>
			<rect x="115.438" y="180.142" style="fill:#FAFAFA;" width="22.297" height="9.486"/>
			<rect x="382.645" y="206.676" style="fill:#FAFAFA;" width="22.298" height="9.486"/>
			<rect x="335.662" y="206.676" style="fill:#FAFAFA;" width="22.298" height="9.486"/>
			<rect x="83.068" y="129.375" style="fill:#FAFAFA;" width="22.297" height="9.486"/>
			<rect x="398.988" y="103.319" style="fill:#FAFAFA;" width="22.297" height="9.486"/>
			<rect x="372.007" y="103.319" style="fill:#FAFAFA;" width="22.297" height="9.486"/>
			<rect x="385.497" y="116.525" style="fill:#FAFAFA;" width="22.297" height="9.486"/>
			<rect x="278.119" y="103.528" style="fill:#FAFAFA;" width="22.298" height="9.486"/>
			<rect x="251.138" y="103.528" style="fill:#FAFAFA;" width="22.297" height="9.486"/>
			<rect x="291.61" y="116.734" style="fill:#FAFAFA;" width="22.298" height="9.486"/>
			<rect x="264.629" y="116.734" style="fill:#FAFAFA;" width="22.297" height="9.486"/>
			<rect x="237.647" y="116.734" style="fill:#FAFAFA;" width="22.297" height="9.486"/>
			<rect x="305.101" y="129.941" style="fill:#FAFAFA;" width="22.297" height="9.486"/>
			<rect x="278.119" y="129.941" style="fill:#FAFAFA;" width="22.298" height="9.486"/>
			<rect x="251.138" y="129.941" style="fill:#FAFAFA;" width="22.297" height="9.486"/>
			<rect x="291.61" y="143.148" style="fill:#FAFAFA;" width="22.298" height="9.486"/>
			<rect x="264.629" y="143.148" style="fill:#FAFAFA;" width="22.297" height="9.486"/>
			<rect x="110.256" y="233.928" style="fill:#FAFAFA;" width="22.297" height="9.486"/>
			<rect x="83.274" y="233.928" style="fill:#FAFAFA;" width="22.297" height="9.486"/>
			<rect x="187.715" y="235.133" style="fill:#FAFAFA;" width="22.298" height="9.486"/>
			<rect x="123.746" y="247.134" style="fill:#FAFAFA;" width="22.297" height="9.486"/>
			<rect x="96.765" y="247.134" style="fill:#FAFAFA;" width="22.297" height="9.486"/>
			<rect x="201.206" y="248.34" style="fill:#FAFAFA;" width="22.297" height="9.486"/>
			<rect x="174.225" y="248.34" style="fill:#FAFAFA;" width="22.297" height="9.486"/>
			<rect x="245.823" y="205.642" style="fill:#FAFAFA;" width="22.298" height="9.486"/>
			<rect x="105.93" y="199.356" style="fill:#FAFAFA;" width="22.298" height="9.486"/>
			<rect x="215.413" y="158.806" style="fill:#FAFAFA;" width="22.298" height="9.486"/>
			<rect x="232.332" y="192.436" style="fill:#FAFAFA;" width="22.297" height="9.486"/>
			<rect x="259.314" y="192.436" style="fill:#FAFAFA;" width="22.297" height="9.486"/>
			<rect x="360.604" y="372.733" style="fill:#FAFAFA;" width="22.298" height="9.486"/>
			<rect x="374.095" y="359.526" style="fill:#FAFAFA;" width="22.297" height="9.486"/>
			<rect x="110.256" y="260.34" style="fill:#FAFAFA;" width="22.297" height="9.486"/>
			<rect x="83.274" y="260.34" style="fill:#FAFAFA;" width="22.297" height="9.486"/>
			<rect x="123.746" y="273.547" style="fill:#FAFAFA;" width="22.297" height="9.486"/>
			<rect x="96.765" y="273.547" style="fill:#FAFAFA;" width="22.297" height="9.486"/>
			<rect x="152.598" y="310.081" style="fill:#FAFAFA;" width="22.297" height="9.486"/>
			<rect x="125.616" y="310.081" style="fill:#FAFAFA;" width="22.297" height="9.486"/>
			<rect x="98.634" y="310.081" style="fill:#FAFAFA;" width="22.297" height="9.486"/>
			<rect x="71.653" y="310.081" style="fill:#FAFAFA;" width="22.297" height="9.486"/>
			<rect x="166.088" y="323.288" style="fill:#FAFAFA;" width="22.298" height="9.486"/>
			<rect x="139.107" y="323.288" style="fill:#FAFAFA;" width="22.297" height="9.486"/>
			<rect x="85.144" y="323.288" style="fill:#FAFAFA;" width="22.297" height="9.486"/>
			<rect x="179.579" y="336.494" style="fill:#FAFAFA;" width="22.297" height="9.486"/>
			<rect x="152.598" y="336.494" style="fill:#FAFAFA;" width="22.297" height="9.486"/>
			<rect x="125.616" y="336.494" style="fill:#FAFAFA;" width="22.297" height="9.486"/>
			<rect x="166.088" y="349.701" style="fill:#FAFAFA;" width="22.298" height="9.486"/>
			<rect x="139.107" y="349.701" style="fill:#FAFAFA;" width="22.297" height="9.486"/>
			<rect x="112.125" y="349.701" style="fill:#FAFAFA;" width="22.297" height="9.486"/>
			<rect x="335.135" y="309.472" style="fill:#FAFAFA;" width="22.297" height="9.486"/>
			<rect x="278.151" y="309.472" style="fill:#FAFAFA;" width="22.297" height="9.486"/>
			<rect x="251.17" y="309.472" style="fill:#FAFAFA;" width="22.297" height="9.486"/>
			<rect x="348.625" y="322.678" style="fill:#FAFAFA;" width="22.298" height="9.486"/>
			<rect x="291.642" y="322.678" style="fill:#FAFAFA;" width="22.297" height="9.486"/>
			<rect x="264.66" y="322.678" style="fill:#FAFAFA;" width="22.298" height="9.486"/>
			<rect x="237.679" y="322.678" style="fill:#FAFAFA;" width="22.297" height="9.486"/>
			<rect x="362.116" y="335.885" style="fill:#FAFAFA;" width="22.297" height="9.486"/>
			<rect x="335.135" y="335.885" style="fill:#FAFAFA;" width="22.297" height="9.486"/>
			<rect x="278.151" y="335.885" style="fill:#FAFAFA;" width="22.297" height="9.486"/>
			<rect x="251.17" y="335.885" style="fill:#FAFAFA;" width="22.297" height="9.486"/>
			<rect x="318.623" y="349.091" style="fill:#FAFAFA;" width="22.298" height="9.486"/>
			<rect x="291.642" y="349.091" style="fill:#FAFAFA;" width="22.297" height="9.486"/>
			<rect x="264.66" y="349.091" style="fill:#FAFAFA;" width="22.298" height="9.486"/>
			<rect x="237.679" y="349.091" style="fill:#FAFAFA;" width="22.297" height="9.486"/>
		</g>
		<g>
			
				<rect x="309.031" y="155.113" transform="matrix(-1 -1.224647e-16 1.224647e-16 -1 714.378 420.4003)" style="fill:#E0E0E0;" width="96.317" height="110.175"/>
			
				<rect x="309.21" y="155.113" transform="matrix(-1 -1.224647e-16 1.224647e-16 -1 711.0322 420.4003)" style="fill:#E0E0E0;" width="92.613" height="110.175"/>
			
				<rect x="306.029" y="155.113" transform="matrix(-1 -1.224647e-16 1.224647e-16 -1 708.3743 420.4003)" style="fill:#F0F0F0;" width="96.317" height="110.175"/>
			
				<rect x="310.399" y="158.627" transform="matrix(-1 -1.224647e-16 1.224647e-16 -1 708.539 418.8523)" style="fill:#FFFFFF;" width="87.74" height="101.599"/>
			
				<rect x="310.399" y="158.627" transform="matrix(-1 -1.224647e-16 1.224647e-16 -1 623.5385 418.8523)" style="fill:#E0E0E0;" width="2.74" height="101.599"/>
			
				<rect x="354.245" y="190.289" transform="matrix(6.123234e-17 -1 1 6.123234e-17 122.5575 588.6713)" style="fill:#E0E0E0;" width="2.74" height="85.536"/>
			
				<rect x="310.399" y="227.087" transform="matrix(-1 -1.224647e-16 1.224647e-16 -1 710.0085 458.7745)" style="fill:#F0F0F0;" width="89.21" height="4.6"/>
		</g>
		<g>
			
				<rect x="105.903" y="155.113" transform="matrix(-1 -1.224647e-16 1.224647e-16 -1 308.1223 420.4003)" style="fill:#E0E0E0;" width="96.317" height="110.175"/>
			
				<rect x="106.082" y="155.113" transform="matrix(-1 -1.224647e-16 1.224647e-16 -1 304.7764 420.4003)" style="fill:#E0E0E0;" width="92.613" height="110.175"/>
			
				<rect x="102.901" y="155.113" transform="matrix(-1 -1.224647e-16 1.224647e-16 -1 302.1185 420.4003)" style="fill:#F0F0F0;" width="96.317" height="110.175"/>
			
				<rect x="107.271" y="158.627" transform="matrix(-1 -1.224647e-16 1.224647e-16 -1 302.2832 418.8523)" style="fill:#FFFFFF;" width="87.74" height="101.599"/>
			
				<rect x="107.271" y="158.627" transform="matrix(-1 -1.224647e-16 1.224647e-16 -1 217.2827 418.8523)" style="fill:#E0E0E0;" width="2.74" height="101.599"/>
			
				<rect x="151.117" y="190.289" transform="matrix(6.123234e-17 -1 1 6.123234e-17 -80.5704 385.5434)" style="fill:#E0E0E0;" width="2.74" height="85.536"/>
			
				<rect x="107.271" y="227.087" transform="matrix(-1 -1.224647e-16 1.224647e-16 -1 303.7527 458.7745)" style="fill:#F0F0F0;" width="89.21" height="4.6"/>
		</g>
	</g>
</g>
<g id="Background_Simple" style="display:none;">
	<g style="display:inline;">
		<path style="fill:#407BFF;" d="M300.266,210.1c-65.923-16.651-87.125-156.452-186.112-78.413
			c-70.226,55.365-29.873,187.069,57.395,170.28c52.821-10.162,44.707-10.991,88.935,13.487
			c44.82,24.805,94.413,36.827,143.456-9.166c25.38-23.801,36.104-81.003,12.276-110.143
			C386.415,159.701,340.539,220.272,300.266,210.1z"/>
		<path style="opacity:0.9;fill:#FFFFFF;" d="M300.266,210.1c-65.923-16.651-87.125-156.452-186.112-78.413
			c-70.226,55.365-29.873,187.069,57.395,170.28c52.821-10.162,44.707-10.991,88.935,13.487
			c44.82,24.805,94.413,36.827,143.456-9.166c25.38-23.801,36.104-81.003,12.276-110.143
			C386.415,159.701,340.539,220.272,300.266,210.1z"/>
	</g>
</g>
<g id="Shadow_1_">
	<ellipse id="_x3C_Path_x3E__359_" style="fill:#F5F5F5;" cx="250" cy="416.238" rx="193.889" ry="11.323"/>
</g>
<g id="Plant">
	<g>
		<path style="fill:#263238;" d="M89.382,390.415c0,0-1.388-10.175-7.895-11.288c-6.506-1.113-4.545-6.033-6.24-7.937
			c-1.695-1.904-6.122,3.714-2.33,9.156c3.793,5.443,0.692,3.732,2.33,8.793C76.886,394.2,89.977,398.848,89.382,390.415z"/>
		<path style="opacity:0.2;fill:#FFFFFF;enable-background:new    ;" d="M89.382,390.415c0,0-1.388-10.175-7.895-11.288
			c-6.506-1.113-4.545-6.033-6.24-7.937c-1.695-1.904-6.122,3.714-2.33,9.156c3.793,5.443,0.692,3.732,2.33,8.793
			C76.886,394.2,89.977,398.848,89.382,390.415z"/>
		
			<path style="fill:none;stroke:#263238;stroke-width:0.9024;stroke-linecap:round;stroke-linejoin:round;stroke-miterlimit:10;" d="
			M89.111,397.021c0,0-4.987-10.365-2.369-27.28c2.618-16.915,12.451-23.48,3.904-42.092c-8.547-18.612-18.314-31.884-13.429-45.091
			"/>
		<path style="fill:#263238;" d="M85.355,394.987c0,0-4.206-6.338,1.865-9.596c6.07-3.258,7.286-0.635,11.042-2.978
			c3.756-2.343,6.601-8.021,7.242-4.388c0.64,3.632-3.698,5.705-2.163,7.366C104.874,387.053,93.131,397.844,85.355,394.987z"/>
		<g>
			<path style="fill:#263238;" d="M75.435,287.852c0,0-4.098-12.454,5.22-12.715C89.974,274.876,79.702,286.524,75.435,287.852z"/>
			<path style="fill:#263238;" d="M83.529,297.426c0,0,2.777-11.324,9.392-8.936C99.535,290.879,90.121,297.635,83.529,297.426z"/>
			<path style="fill:#263238;" d="M72.308,298.407c0,0,0.997-9.037-6.022-9.216C59.267,289.012,62.391,296.948,72.308,298.407z"/>
			<path style="fill:#263238;" d="M76.977,316.842c0,0-9.42-8.397-12.807-2.148C60.782,320.943,71.275,322.245,76.977,316.842z"/>
			<path style="fill:#263238;" d="M93.643,315.352c0,0,1.771-13.947,9.38-9.572C110.632,310.154,100.271,316.746,93.643,315.352z"/>
			<path style="fill:#263238;" d="M100.338,335.32c0,0-5.616-14.092,4.82-12.504C115.595,324.403,107.705,331.9,100.338,335.32z"/>
			<path style="fill:#263238;" d="M84.323,340.348c0,0-8.816-10.385-15.552-7.092C62.033,336.55,67.539,346.874,84.323,340.348z"/>
			<path style="fill:#263238;" d="M92.322,363.357c0,0,7.51-16.676,14.188-11.056C113.187,357.922,102.25,366.323,92.322,363.357z"
				/>
			<path style="fill:#263238;" d="M81.409,362.381c0,0,1.984-12.936-5.451-11.896C68.523,351.525,70.476,359.439,81.409,362.381z"/>
			<g style="opacity:0.2;enable-background:new    ;">
				<path style="fill:#FFFFFF;" d="M75.435,287.852c0,0-4.098-12.454,5.22-12.715C89.974,274.876,79.702,286.524,75.435,287.852z"/>
				<path style="fill:#FFFFFF;" d="M83.529,297.426c0,0,2.777-11.324,9.392-8.936C99.535,290.879,90.121,297.635,83.529,297.426z"/>
				<path style="fill:#FFFFFF;" d="M72.308,298.407c0,0,0.997-9.037-6.022-9.216C59.267,289.012,62.391,296.948,72.308,298.407z"/>
				<path style="fill:#FFFFFF;" d="M76.977,316.842c0,0-9.42-8.397-12.807-2.148C60.782,320.943,71.275,322.245,76.977,316.842z"/>
				<path style="fill:#FFFFFF;" d="M93.643,315.352c0,0,1.771-13.947,9.38-9.572C110.632,310.154,100.271,316.746,93.643,315.352z"
					/>
				<path style="fill:#FFFFFF;" d="M100.338,335.32c0,0-5.616-14.092,4.82-12.504C115.595,324.403,107.705,331.9,100.338,335.32z"/>
				<path style="fill:#FFFFFF;" d="M84.323,340.348c0,0-8.816-10.385-15.552-7.092C62.033,336.55,67.539,346.874,84.323,340.348z"/>
				<path style="fill:#FFFFFF;" d="M92.322,363.357c0,0,7.51-16.676,14.188-11.056C113.187,357.922,102.25,366.323,92.322,363.357z"
					/>
				<path style="fill:#FFFFFF;" d="M81.409,362.381c0,0,1.984-12.936-5.451-11.896C68.523,351.525,70.476,359.439,81.409,362.381z"
					/>
			</g>
		</g>
		
			<path style="fill:none;stroke:#263238;stroke-width:0.9024;stroke-linecap:round;stroke-linejoin:round;stroke-miterlimit:10;" d="
			M69.972,295.444c0,0,4.009,5.957,9.494,9.028c0,0,3.628-7,6.458-8.697"/>
		
			<path style="fill:none;stroke:#263238;stroke-width:0.9024;stroke-linecap:round;stroke-linejoin:round;stroke-miterlimit:10;" d="
			M69.744,316.007c0,0,10.194-0.328,18.263,5.771c0,0,4.48-7.594,10.358-11.055"/>
		
			<path style="fill:none;stroke:#263238;stroke-width:0.9024;stroke-linecap:round;stroke-linejoin:round;stroke-miterlimit:10;" d="
			M103.411,328.647c0,0-4.376,11.518-9.964,15.999c0,0-11.58-6.713-20.084-6.881"/>
		
			<path style="fill:none;stroke:#263238;stroke-width:0.9024;stroke-linecap:round;stroke-linejoin:round;stroke-miterlimit:10;" d="
			M76.818,354.681c0,0,5.722,11.169,9.99,13.61c0,0,3.989-5.626,12.619-8.217"/>
		<path style="fill:#263238;" d="M86.001,393.475c0,0-3.606-5.74-7.679-6.557c-4.073-0.817-5.828-5.508-7.331-2.687
			C69.488,387.053,73.633,396.407,86.001,393.475z"/>
		<g>
			<polygon style="fill:#407BFF;" points="71.309,416.006 101.386,416.006 103.399,391.717 69.296,391.717 			"/>
			<polygon style="fill:#407BFF;" points="68.594,396.319 104.101,396.319 104.556,391.172 68.14,391.172 			"/>
			<polygon style="opacity:0.3;fill:#FFFFFF;" points="68.594,396.319 104.101,396.319 104.556,391.172 68.14,391.172 			"/>
		</g>
	</g>
</g>
<g id="Text">
	<g>
		<g>
			<g>
				<path style="fill:#407BFF;" d="M128.348,248.019c0.114-0.116,0.237-0.217,0.375-0.294l18.051-35.671l-8.298,1.608l-7.273,14.247
					c0.043,0.015,0.086,0.025,0.126,0.049c0.276,0.17,0.335,0.571,0.161,0.831c-0.167,0.25-0.305,0.519-0.45,0.782
					c0.127,0.083,0.246,0.178,0.381,0.249c0.209,0.111,0.291,0.404,0.246,0.618c-0.049,0.233-0.232,0.418-0.467,0.465
					c-0.082,0.017-0.164,0.035-0.245,0.058c-0.005,0.001-0.027,0.008-0.045,0.013c-0.019,0.007-0.05,0.017-0.056,0.019
					c-0.136,0.052-0.268,0.114-0.394,0.187c-0.029,0.017-0.057,0.035-0.086,0.052c-0.007,0.004-0.005,0.003-0.01,0.006
					c-0.05,0.036-0.1,0.072-0.148,0.111c-0.106,0.085-0.207,0.176-0.303,0.273c-0.055,0.056-0.109,0.113-0.162,0.171
					c-0.002,0.003-0.001,0.001-0.005,0.006c-0.023,0.028-0.046,0.055-0.07,0.083c-0.095,0.116-0.186,0.234-0.274,0.355
					c-0.199,0.271-0.387,0.55-0.575,0.829c-0.094,0.139-0.233,0.222-0.383,0.248l-10.652,20.868l1.043,5.378l4.733-0.918
					c0.176-0.44,0.388-0.873,0.739-1.199c0.158-0.146,0.336-0.269,0.518-0.386c0.001-0.038-0.002-0.074,0-0.112
					c0.116-2.434,1.121-4.72,2.304-6.815c-0.125-0.188-0.149-0.446-0.016-0.671c0.17-0.287,0.219-0.618,0.175-0.946
					C127.203,247.868,128.035,247.611,128.348,248.019z"/>
				<path style="fill:#407BFF;" d="M159.46,244.832c-0.014,0.146-0.051,0.292-0.115,0.433c-0.277,0.602-0.809,1.007-1.378,1.32
					c-0.12,0.172-0.244,0.342-0.361,0.516c-0.066,0.098-0.158,0.157-0.257,0.2c-0.029,0.094-0.065,0.186-0.092,0.282
					c-0.09,0.322-0.469,0.456-0.763,0.367c-0.323-0.098-0.451-0.462-0.367-0.763c0.099-0.354,0.227-0.7,0.378-1.036l-0.568,0.11
					c-0.329,0.064-0.626-0.158-0.702-0.474c-0.011-0.045-0.002-0.089-0.001-0.134l-0.341,0.066l-2.264-11.679l-7.222,1.4
					l2.264,11.679l-17.875,3.465c-0.121,0.063-0.228,0.146-0.346,0.215c0.01,0.029,0.021,0.058,0.031,0.087
					c0.117,0.316,0.038,0.632-0.27,0.803c-0.236,0.13-0.596,0.038-0.748-0.194c-0.339,0.283-0.642,0.602-0.916,0.945
					c0.209-0.054,0.429-0.002,0.596,0.173c0.214,0.223,0.194,0.654-0.055,0.845c-0.164,0.126-0.32,0.262-0.476,0.399
					c0.128,0.195,0.13,0.466,0.004,0.665c0.006-0.007,0.002-0.005-0.002,0.005c-0.001,0.001,0,0.002-0.001,0.003
					c-0.006,0.01-0.012,0.02-0.018,0.03c-0.01,0.026-0.018,0.053-0.026,0.079c-0.001,0.008-0.003,0.017-0.003,0.025
					c-0.004,0.036-0.007,0.073-0.008,0.109c-0.006,0.146,0.008,0.294-0.009,0.439c-0.032,0.273-0.134,0.518-0.333,0.711
					c-0.206,0.2-0.493,0.299-0.768,0.355c-0.022,0.004-0.042-0.002-0.064-0.001c0.023,0.297,0.062,0.592,0.127,0.883
					c0.141,0.273,0.237,0.56,0.318,0.856l21.894-4.244l2.562,13.215l7.452-1.445l-2.562-13.215l10.219-1.981l-1.281-6.607
					L159.46,244.832z"/>
			</g>
			<g>
				<path style="fill:#407BFF;" d="M202.802,208.833c-0.163,0.137-0.327,0.273-0.486,0.413c-0.226,0.2-0.447,0.405-0.66,0.619
					c-0.076,0.077-0.173,0.208-0.269,0.291c-0.015,0.019-0.033,0.036-0.051,0.049c-0.047,0.057-0.095,0.114-0.141,0.172
					c-0.396,0.493-1.011,0.703-1.595,0.409c-0.579-0.292-0.792-0.917-0.624-1.524c0.098-0.353,0.195-0.706,0.289-1.06
					c-0.035-0.049-0.087-0.083-0.113-0.141c-0.083-0.153-0.122-0.315-0.117-0.486c-0.024-0.165-0.005-0.327,0.057-0.485
					c0.035-0.122,0.084-0.243,0.14-0.359c-0.206-0.205-0.396-0.433-0.543-0.73c-0.013-0.026-0.018-0.057-0.031-0.084
					c-4.108-2.186-8.791-2.852-13.659-1.908c-12.6,2.443-20.038,14.248-16.642,31.766c3.396,17.518,14.705,25.689,27.306,23.246
					c1.155-0.224,2.267-0.529,3.332-0.91c0.344-0.497,0.694-0.99,1.033-1.491c0.582-0.861,1.646-0.584,2.091,0.078
					c8.471-4.721,12.87-15.186,10.109-29.427C210.622,218.984,207.24,212.803,202.802,208.833z M194.337,252.182
					c-8.452,1.638-15.631-4.145-18.297-17.898c-2.666-13.753,1.833-21.8,10.284-23.438c4.618-0.895,8.868,0.475,12.202,4.179
					c0.14-0.1,0.298-0.178,0.475-0.221c0.653-0.157,1.349,0.346,1.467,0.991c0.118,0.647,0.115,1.282,0.048,1.912
					c1.755,2.828,3.144,6.493,4.028,11.053C207.211,242.511,202.712,250.558,194.337,252.182z"/>
			</g>
			<g>
				<path style="fill:#407BFF;" d="M257.55,225.818l-2.264-11.679l-7.222,1.4l2.264,11.679l-20.668,4.006l19.771-39.069
					l-8.298,1.609l-7.43,14.556c-0.073,1.811-0.429,3.584-1.089,5.312c-0.217,0.57-0.963,0.436-1.13-0.002
					c-0.282,1.535-0.851,3.002-2.063,4.063c-0.183,0.16-0.384,0.171-0.559,0.108l-8.414,16.484l1.042,5.378l12.436-2.411
					c0.945-0.923,2.562-1.395,3.655-1.653c1.169-0.276,2.367-0.423,3.566-0.474c0.897-0.038,1.82-0.027,2.693,0.205l7.537-1.461
					l2.562,13.215l7.453-1.445l-2.562-13.215l10.219-1.981l-1.281-6.607L257.55,225.818z"/>
			</g>
		</g>
		<g>
			<g>
				<path style="fill:#407BFF;" d="M120.099,193.813l-1.178-6.079l12.195-2.364l-0.916-4.728l-12.195,2.364l-1.105-5.703
					l13.809-2.677l-0.946-4.878l-19.851,3.848l1.699,8.764c0.297,0.163,0.57,0.365,0.789,0.629c0.388,0.468,0.59,1.058,0.653,1.658
					c0.131,1.255-0.182,2.545,0.042,3.758c0.046,0.247-0.055,0.43-0.207,0.549l2.115,10.91l20.339-3.942l-0.946-4.878
					L120.099,193.813z"/>
			</g>
			<g>
				<path style="fill:#407BFF;" d="M155.924,183.17c3.032-2.058,4.448-5.201,3.842-8.975c-0.101,0.105-0.224,0.184-0.38,0.193
					c-0.213,0.012-0.49-0.108-0.571-0.326c-0.116-0.313-0.237-0.641-0.27-0.976c-0.005-0.045-0.001-0.09-0.004-0.135
					c-0.182-0.243-0.326-0.501-0.388-0.803c-0.068-0.329,0.161-0.627,0.474-0.702c0.129-0.031,0.249,0.006,0.36,0.066
					c-1.91-4.276-6.506-6.169-12.524-5.002l-11.37,2.204l1.537,7.927c0.108,0.05,0.208,0.129,0.273,0.27
					c0.918,1.98,1.616,4.078,1.774,6.266c0.023,0.324-0.125,0.634-0.474,0.702c-0.054,0.01-0.113,0.003-0.171-0.004l2.153,11.107
					l6.079-1.178l-1.418-7.317l5.591-1.084l6.484,6.335l6.529-1.266L155.924,183.17z M148.862,180.685l-4.953,0.96l-1.775-9.156
					l4.953-0.96c3.715-0.72,5.919,0.605,6.479,3.494C154.118,177.875,152.577,179.965,148.862,180.685z"/>
			</g>
			<g>
				<path style="fill:#407BFF;" d="M183.508,177.823c3.131-2.125,4.559-5.4,3.796-9.34c-1.142-5.892-6.238-8.68-13.255-7.32
					l-11.37,2.204l5.092,26.267l6.079-1.178l-1.418-7.317l5.591-1.084l6.484,6.335l6.529-1.266L183.508,177.823z M176.447,175.338
					l-4.953,0.96l-1.775-9.156l4.953-0.96c0.31-0.06,0.606-0.1,0.893-0.13c0.062-0.051,0.12-0.11,0.184-0.159
					c0.022-0.151,0.048-0.303,0.103-0.44c0.146-0.365,0.46-0.578,0.854-0.576c0.358,0.002,0.702,0.188,1.011,0.349
					c0.053-0.061,0.115-0.116,0.19-0.155c0.01-0.186,0.024-0.372,0.072-0.566c0.08-0.315,0.479-0.467,0.764-0.367
					c0.324,0.114,0.446,0.45,0.367,0.763c-0.117,0.46,0.104,0.872,0.059,1.343c-0.012,0.124-0.057,0.222-0.101,0.321
					c1.099,0.6,1.8,1.656,2.082,3.111C181.703,172.528,180.161,174.617,176.447,175.338z"/>
			</g>
			<g>
				<path style="fill:#407BFF;" d="M212.279,156.09c-0.104,0.022-0.208,0.047-0.311,0.077c-0.073,0.028-0.144,0.061-0.211,0.1
					c-0.027,0.022-0.055,0.042-0.079,0.068l0.009-0.01c-0.09,0.105-0.204,0.179-0.34,0.211c-0.155,0.037-0.317-0.01-0.449-0.092
					c-0.128-0.078-0.225-0.238-0.253-0.382c-0.029-0.149,0.005-0.324,0.092-0.449c0.024-0.035,0.057-0.057,0.084-0.088
					c-2.398-0.781-5.097-0.969-7.924-0.422c-8.293,1.608-13.252,8.565-11.739,16.37c1.513,7.805,8.712,12.405,17.005,10.798
					c8.256-1.6,13.259-8.527,11.739-16.369C219.011,161.305,216.15,157.85,212.279,156.09z M207.16,177.093
					c-4.691,0.909-8.88-1.822-9.848-6.813c-0.967-4.991,1.898-9.089,6.589-9.998c1.181-0.229,2.33-0.224,3.403-0.012
					c0.042-0.136,0.081-0.275,0.133-0.401c0.116-0.283,0.386-0.441,0.688-0.383c0.252,0.049,0.391,0.23,0.446,0.451
					c0.116-0.034,0.233-0.056,0.35-0.087c0.079-0.247,0.16-0.494,0.23-0.744c0.04-0.141,0.078-0.283,0.113-0.425
					c0.018-0.07,0.035-0.14,0.051-0.211c0.005-0.022,0.01-0.045,0.015-0.067c0-0.004,0,0.002,0-0.003
					c0.02-0.119,0.044-0.238,0.056-0.358c0.004-0.044,0.006-0.088,0.008-0.132c-0.062-0.403,0.359-0.879,0.786-0.671
					c0.395,0.192,0.791,0.384,1.186,0.576c0.265,0.129,0.516,0.448,0.367,0.763c-0.071,0.15-0.135,0.302-0.184,0.46
					c-0.017,0.054-0.03,0.109-0.046,0.163c-0.005,0.023-0.007,0.028-0.009,0.036c-0.005,0.025-0.009,0.05-0.013,0.076
					c-0.038,0.236-0.048,0.476-0.048,0.715c-0.002,0.574,0.004,1.137-0.1,1.703c0.054,0.124,0.07,0.264,0.018,0.414
					c-0.023,0.065-0.063,0.125-0.11,0.18c1.227,1.181,2.125,2.792,2.509,4.771C214.716,172.085,211.851,176.184,207.16,177.093z"/>
			</g>
			<g>
				<path style="fill:#407BFF;" d="M246.661,157.746c-0.033-0.012-0.07-0.015-0.103-0.029c-0.212-0.09-0.486-0.205-0.647-0.38
					c-0.096,0.15-0.194,0.3-0.311,0.44c-0.208,0.249-0.541,0.357-0.831,0.161c-0.249-0.168-0.368-0.583-0.161-0.831
					c0.646-0.776,0.906-1.741,1.081-2.735c-1.991-4.059-6.507-5.835-12.378-4.697l-11.37,2.204l5.092,26.267l6.079-1.178
					l-1.419-7.317l5.591-1.084l6.484,6.335l6.529-1.266l-7.528-7.301C245.697,164.348,247.111,161.348,246.661,157.746z
					 M235.708,163.85l-4.953,0.96l-1.775-9.156l4.953-0.96c3.715-0.72,5.919,0.605,6.479,3.495
					C240.964,161.04,239.423,163.13,235.708,163.85z"/>
			</g>
		</g>
		<g>
			<path style="fill:#407BFF;" d="M280.466,208.419l-1.514,0.293c-0.626,0.121-0.893-0.626-0.509-1.038
				c0.019-0.021,0.04-0.036,0.06-0.056c-0.434,0.187-0.865,0.383-1.31,0.547c-0.051,0.652-0.041,1.305-0.021,1.958l9.864,50.887
				l-36.535,7.082c0.02,0.066,0.033,0.137,0.027,0.217c-0.023,0.297-0.326,0.612-0.644,0.551c-0.596-0.114-1.193-0.221-1.794-0.3
				l-48.38,9.378c-0.01,0.078-0.035,0.158-0.081,0.238c-0.18,0.31-0.388,0.602-0.612,0.883c0.02,0.186,0.01,0.375-0.056,0.533
				c-0.455,1.092-0.79,2.233-1.454,3.226c-0.188,0.281-0.477,0.451-0.799,0.528c-0.212,0.051-0.429,0.021-0.632-0.05
				c-0.229,0.498-0.391,1.017-0.496,1.553l77.516-15.026c0.028-0.031,0.047-0.067,0.076-0.097c0.897-0.929,2.149-1.227,3.395-1.212
				c0.464-0.514,0.981-0.971,1.558-1.295c0.548-0.308,1.211-0.45,1.792-0.15c0.408,0.211,0.659,0.579,0.836,0.989
				c0.755-0.101,1.525-0.142,2.296-0.163l11.022-2.137l-10.744-55.424C282.233,209.919,281.228,209.289,280.466,208.419z"/>
			<path style="fill:#407BFF;" d="M180.255,135.906c0.122,0.03,0.243,0.05,0.365,0.073l7.231-1.402
				c0.797-0.352,1.584-0.719,2.364-1.051c1.472-0.627,3.008-1.18,4.62-1.267c0.978-0.053,1.913,0.111,2.805,0.421l62.184-12.054
				l5.766,29.746c0.259-0.377,0.977-0.381,1.091,0.201c0.26,1.33,0.597,2.675,0.54,4.041c-0.028,0.668-0.189,1.293-0.445,1.875
				l9.815,50.632c0.591-0.218,1.173-0.459,1.746-0.717c0.198-0.665,0.467-1.406,1.114-1.738c0.421-0.216,0.884-0.202,1.335-0.099
				c0.251-0.55,0.413-1.146,0.506-1.633c0.125-0.65,0.206-1.375,0.192-2.095l-0.398-2.052c-0.045-0.105-0.086-0.212-0.14-0.312
				c-0.1-0.185-0.087-0.356-0.017-0.497l-10.316-53.216c-0.06,0.016-0.121,0.03-0.184,0.031c-0.736,0.011-1.468-0.213-1.869-0.87
				c-0.338-0.553-0.323-1.266-0.247-1.887c0.092-0.75,0.286-1.484,0.432-2.225c0.133-0.675,0.256-1.423,0.147-2.025
				c-0.05-0.273,0.074-0.475,0.255-0.589l-4.576-23.605l-89.655,17.379c-1.741,0.838-3.513,1.602-5.482,1.429
				c-0.219-0.019-0.36-0.133-0.443-0.28l-44.491,8.624c-0.046,0.233-0.24,0.434-0.475,0.48l-2.337,0.453
				c-0.022,0.349-0.106,0.701-0.305,0.989c-0.02,0.133-0.087,0.286-0.192,0.367c-0.157,0.121-0.301,0.26-0.445,0.395
				c-0.268,0.252-0.524,0.522-0.804,0.761c-0.102,0.087-0.212,0.158-0.345,0.184c-0.212,0.041-0.42-0.04-0.567-0.193
				c-0.114-0.119-0.153-0.286-0.147-0.445c0.002-0.057,0.017-0.114,0.038-0.168c-0.362-0.013-0.724-0.049-1.07-0.094
				c-0.333-0.043-0.562-0.305-0.551-0.643c0.01-0.312,0.333-0.591,0.643-0.551c0.377,0.049,0.756,0.087,1.136,0.093
				c0.093,0.001,0.186,0.001,0.278-0.002c0.009,0,0.021,0.001,0.031,0.002c-0.006-0.001-0.006-0.001-0.013-0.002
				c0.039,0.007,0.092-0.008,0.131-0.012c0.016-0.002,0.032-0.007,0.048-0.009c-0.304-0.026-0.544-0.208-0.755-0.415
				c-0.023-0.023-0.038-0.05-0.055-0.075l-25.76,4.993c0.117-0.001,0.235,0.021,0.342,0.087c0.273,0.168,0.339,0.573,0.161,0.831
				c-0.197,0.286-0.449,0.516-0.691,0.76c-0.02,0.02-0.047,0.058-0.071,0.074c0.008-0.006,0.004-0.005,0.011-0.009
				c0-0.001,0.001-0.002,0.002-0.003c0.043-0.054,0.065-0.045-0.002,0.003c-0.042,0.053-0.077,0.109-0.114,0.166
				c-0.014,0.036-0.029,0.072-0.041,0.11c-0.009,0.028-0.02,0.062-0.026,0.094c-0.003,0.021-0.007,0.042-0.01,0.063
				c-0.064,0.445-0.537,0.704-0.932,0.45c-0.006-0.004-0.016-0.01-0.027-0.016c-0.006-0.003-0.013-0.006-0.019-0.008
				c-0.054-0.022-0.109-0.041-0.165-0.06c-0.065-0.021-0.132-0.039-0.198-0.058c-0.006,0.278-0.057,0.551-0.214,0.799
				c-0.116,0.185-0.321,0.258-0.523,0.247c-0.11,0.561-0.281,1.106-0.561,1.609c-0.296,0.532-0.718,0.952-1.201,1.299
				c0.012,0.012,0.033,0.02,0.043,0.033c0.097,0.131,0.179,0.27,0.242,0.416l38.3-7.424c0.014-0.02,0.03-0.039,0.044-0.059
				c0.179-0.253,0.37-0.523,0.624-0.706c0.353-0.254,0.739-0.322,1.16-0.215c0.314,0.08,0.603,0.26,0.867,0.458l49.594-9.613
				C179.715,135.974,179.954,135.831,180.255,135.906z"/>
			<path style="fill:#407BFF;" d="M113.572,294.635l-8.984-46.349c-0.157,0.179-0.407,0.251-0.648,0.178
				c-0.306-0.093-0.475-0.469-0.367-0.763c0.148-0.403,0.361-0.861,0.666-1.213l-11.806-60.906c-0.037-0.064-0.078-0.124-0.112-0.19
				c-0.251-0.49-0.404-1.019-0.51-1.558c-0.209-0.005-0.417-0.006-0.625,0.024c-0.41,0.06-0.706-0.235-0.711-0.634
				c-0.014-1.141,0.295-2.291,0.862-3.29l-4.777-24.643c-0.078-0.133-0.149-0.269-0.215-0.41c-0.072-0.153-0.153-0.3-0.234-0.447
				c-0.193-0.014-0.37-0.102-0.471-0.306c-0.137-0.278-0.027-0.676,0.271-0.803c0.288-0.123,0.442-0.211,0.663-0.428
				c0.102-0.101,0.283-0.38,0.338-0.522c0.168-0.429,0.227-0.851,0.243-1.321c-0.141-0.209-0.268-0.427-0.316-0.679
				c-0.065-0.338,0.006-0.671,0.091-0.997c0.022-0.086,0.071-0.156,0.131-0.216c-0.036-0.38-0.067-0.761-0.087-1.143l-7.649,1.483
				l21.831,112.622c0.211-0.105,0.466-0.092,0.652,0.156c0.48,0.639,0.97,1.408,0.865,2.247c-0.022,0.174-0.075,0.331-0.137,0.483
				c0.191,0.157,0.31,0.432,0.199,0.66c-0.292,0.598-0.384,1.201-0.269,1.857c0.105,0.601,0.322,1.174,0.512,1.751
				c0.334,1.012,0.462,2.005,0.139,2.959l5.704,29.428l1.62-0.314c0.92-0.292,1.843-0.564,2.78-0.729
				c-0.024-0.137-0.014-0.278,0.088-0.4c0.216-0.257,0.475-0.534,0.762-0.783c-0.021-0.103-0.026-0.211,0.004-0.317
				c0.192-0.666,0.541-1.336,1.111-1.755c0.505-0.371,1.112-0.542,1.737-0.495c1.219,0.093,2.267,0.892,2.941,1.876
				c1.642-0.406,3.415-0.972,4.965-0.187l62.156-12.049c0.026-0.16,0.05-0.319,0.097-0.479c0.238-0.81,0.751-1.522,1.371-2.086
				c0.201-0.183,0.483-0.178,0.702-0.049c0.024-0.034,0.042-0.071,0.075-0.102c0.224-0.214,0.653-0.193,0.845,0.055
				c0.08,0.103,0.162,0.204,0.251,0.3c0.035,0.037,0.07,0.073,0.106,0.108c0.007,0.006,0.003,0.004,0.008,0.008
				c0.005,0.004,0.002,0.001,0.009,0.007c0.059,0.047,0.121,0.09,0.186,0.129c0.007,0.004,0.021,0.012,0.035,0.019
				c0.013,0.006,0.025,0.012,0.033,0.015c0.073,0.032,0.143,0.067,0.215,0.101c-0.174-0.582-0.227-1.197-0.027-1.785
				c0.226-0.665,0.757-1.167,1.385-1.457c-0.205-0.32-0.128-0.836,0.358-0.93c0.657-0.127,0.912,0.739,0.476,1.067
				c0.022,0.028,0.048,0.049,0.066,0.082c0.149,0.27,0.019,0.682-0.27,0.803c-0.079,0.033-0.157,0.068-0.232,0.108
				c-0.041,0.021-0.082,0.047-0.124,0.072c0.028-0.012,0.028-0.001-0.047,0.029c-0.023,0.017-0.047,0.035-0.07,0.053
				c-0.054,0.043-0.105,0.089-0.154,0.138c-0.008,0.008-0.017,0.019-0.025,0.029c0.009-0.012,0.015-0.02,0.031-0.042
				c-0.018,0.024-0.039,0.047-0.058,0.071c-0.037,0.048-0.072,0.097-0.103,0.148c-0.013,0.021-0.025,0.043-0.038,0.064
				c-0.023,0.053-0.046,0.106-0.065,0.161c-0.001,0.003-0.001,0.005-0.002,0.008c0.207-0.263,0.428-0.509,0.691-0.697
				c0.173-0.124,0.36-0.221,0.553-0.298c0.492-1.077,0.95-2.172,1.41-3.252L113.572,294.635z"/>
		</g>
	</g>
</g>
<g id="Speech_bubble">
	<g>
		<g>
			<path style="fill:#407BFF;" d="M193.768,316.663h42.737c4.886,0,8.846,3.961,8.846,8.846v14.996c0,4.885-3.961,8.846-8.846,8.846
				h-28.4l-12.981,13.898l7.031-13.898h-8.387c-4.885,0-8.846-3.96-8.846-8.846v-14.996
				C184.922,320.624,188.882,316.663,193.768,316.663z"/>
			<path style="opacity:0.7;fill:#FFFFFF;" d="M193.768,316.663h42.737c4.886,0,8.846,3.961,8.846,8.846v14.996
				c0,4.885-3.961,8.846-8.846,8.846h-28.4l-12.981,13.898l7.031-13.898h-8.387c-4.885,0-8.846-3.96-8.846-8.846v-14.996
				C184.922,320.624,188.882,316.663,193.768,316.663z"/>
		</g>
		<g>
			<path style="fill:#407BFF;" d="M195.858,332.185c0-2.793,2.153-4.878,5.083-4.878c2.902,0,5.056,2.071,5.056,4.878
				c0,2.808-2.153,4.878-5.056,4.878C198.012,337.063,195.858,334.978,195.858,332.185z M204.634,332.185
				c0-2.112-1.58-3.665-3.692-3.665c-2.14,0-3.72,1.553-3.72,3.665s1.58,3.666,3.72,3.666
				C203.054,335.851,204.634,334.297,204.634,332.185z"/>
			<path style="fill:#407BFF;" d="M207.222,333.343c0-2.152,1.594-3.679,3.761-3.679c2.166,0,3.747,1.526,3.747,3.679
				c0,2.153-1.581,3.692-3.747,3.692C208.815,337.035,207.222,335.496,207.222,333.343z M213.407,333.343
				c0-1.54-1.035-2.534-2.425-2.534c-1.39,0-2.439,0.994-2.439,2.534c0,1.54,1.05,2.548,2.439,2.548
				C212.372,335.891,213.407,334.883,213.407,333.343z"/>
			<path style="fill:#407BFF;" d="M224.02,333.343c0,2.222-1.539,3.692-3.651,3.692c-1.022,0-1.922-0.395-2.521-1.171v3.733h-1.308
				v-9.865h1.254v1.145c0.586-0.805,1.512-1.213,2.575-1.213C222.481,329.664,224.02,331.136,224.02,333.343z M222.699,333.343
				c0-1.526-1.05-2.534-2.439-2.534c-1.376,0-2.425,1.008-2.425,2.534c0,1.54,1.049,2.548,2.425,2.548
				C221.649,335.891,222.699,334.883,222.699,333.343z"/>
			<path style="fill:#407BFF;" d="M224.919,336.19l0.545-1.035c0.613,0.435,1.594,0.749,2.534,0.749c1.213,0,1.717-0.367,1.717-0.98
				c0-1.622-4.564-0.219-4.564-3.094c0-1.294,1.158-2.166,3.011-2.166c0.94,0,2.004,0.245,2.63,0.654l-0.559,1.035
				c-0.653-0.423-1.376-0.572-2.084-0.572c-1.146,0-1.704,0.423-1.704,0.995c0,1.703,4.579,0.313,4.579,3.12
				c0,1.308-1.199,2.139-3.121,2.139C226.703,337.035,225.519,336.668,224.919,336.19z"/>
			<path style="fill:#407BFF;" d="M232.357,336.163c0-0.49,0.382-0.872,0.899-0.872c0.504,0,0.872,0.382,0.872,0.872
				c0,0.478-0.368,0.872-0.872,0.872C232.739,337.035,232.357,336.641,232.357,336.163z M232.48,327.416h1.539l-0.259,6.526h-1.035
				L232.48,327.416z"/>
		</g>
	</g>
</g>
<g id="Character_2">
	<g>
		<g>
			<path style="fill:#263238;" d="M442.947,160.78c0,3.26-17.83,6.06-43.37,7.29c-0.68,0.03-1.36,0.06-2.05,0.1
				c-0.91,0.03-1.83,0.07-2.76,0.11c-3.83,0.15-7.81,0.26-11.91,0.35c-0.61,0-1.22,0.01-1.84,0.03c-0.35,0-0.7,0.01-1.05,0.01
				c-3.15,0.05-6.37,0.07-9.64,0.07c-5.92,0-11.67-0.08-17.18-0.22c-1.35-0.04-2.69-0.08-4.01-0.13
				c-10.05-0.33-19.17-0.9-26.85-1.64c-15.07-1.46-24.58-3.59-24.58-5.97c0-3.59,21.6-6.61,51.31-7.61
				c0.77-0.03,1.55-0.05,2.33-0.08c2.07-0.06,4.17-0.11,6.31-0.15c2.57-0.05,5.19-0.08,7.84-0.1c0.2,0,0.39-0.01,0.58-0.01
				c0.01,0,0.01,0,0.01,0c1.4-0.01,2.82-0.01,4.24-0.01c7.48,0,14.7,0.12,21.49,0.36c1.09,0.03,2.16,0.07,3.22,0.11
				c1.42,0.06,2.81,0.12,4.19,0.18c0,0,0,0,0.01,0c0.36,0.02,0.73,0.04,1.09,0.06c0.94,0.04,1.87,0.09,2.79,0.14
				C426.747,154.99,442.947,157.67,442.947,160.78z"/>
			<path style="opacity:0.4;fill:#FFFFFF;" d="M442.947,160.78c0,3.26-17.83,6.06-43.37,7.29c-0.68,0.03-1.36,0.06-2.05,0.1
				c-0.91,0.03-1.83,0.07-2.76,0.11c-3.83,0.15-7.81,0.26-11.91,0.35c-0.61,0-1.22,0.01-1.84,0.03c-0.35,0-0.7,0.01-1.05,0.01
				c-3.15,0.05-6.37,0.07-9.64,0.07c-5.92,0-11.67-0.08-17.18-0.22c-1.35-0.04-2.69-0.08-4.01-0.13
				c-10.05-0.33-19.17-0.9-26.85-1.64c-15.07-1.46-24.58-3.59-24.58-5.97c0-1.06,1.89-2.08,5.32-3c4.26,1.15,10.91,2.16,19.26,2.97
				c7.68,0.74,16.8,1.31,26.85,1.64c1.32,0.05,2.66,0.09,4.01,0.13c5.51,0.14,11.26,0.22,17.18,0.22c3.27,0,6.49-0.02,9.64-0.07
				c0.35,0,0.7-0.01,1.05-0.01c0.62-0.02,1.23-0.03,1.84-0.03c4.1-0.09,8.08-0.2,11.91-0.35c0.93-0.04,1.85-0.08,2.76-0.11
				c0.69-0.04,1.37-0.07,2.05-0.1c17.23-0.83,30.94-2.37,38.05-4.29C441.057,158.71,442.947,159.71,442.947,160.78z"/>
		</g>
		<g>
			<path style="fill:#FFB573;" d="M365.497,152.84c-0.07,1.16-0.5,2.3-1.28,3.25c-0.83,0.99-1.54,1.76-2.35,2.59
				c-0.48,0.49-0.96,0.98-1.45,1.44c-0.32,0.33-0.65,0.64-0.98,0.94c-1.67,1.54-3.44,2.99-5.36,4.36c-0.11,0.08-0.22,0.15-0.33,0.23
				c-0.29,0.2-0.58,0.39-0.87,0.58c-1.17,0.77-2.4,1.51-3.74,2.16c-0.48,0.24-0.97,0.47-1.48,0.69c-1.17,0.52-2.66,0.97-3.69,1.24
				c-1.12,0.3-2.19,0.56-3.25,0.78c-1.49,0.33-2.96,0.63-4.43,0.9c-2.73,0.53-5.45,0.98-8.19,1.4c-2.33,0.35-4.66,0.68-7,0.96
				c-1.88,0.23-3.76,0.43-5.66,0.59c-0.21,0.02-0.43,0.01-0.63-0.02c-0.5-0.07-0.97-0.27-1.35-0.57c-0.59-0.47-1-1.17-1.07-1.98
				c-0.01-0.13-0.01-0.26,0-0.38c0.05-1.13,0.79-2.13,1.85-2.5l0.01-0.01c0.08-0.03,0.16-0.06,0.24-0.08
				c2.59-0.93,5.19-1.81,7.8-2.66c1.32-0.43,2.63-0.86,3.95-1.28c3.99-1.3,8.01-2.52,11.89-3.81c0.97-0.32,1.93-0.65,2.82-0.97
				c0.98-0.34,1.48-0.6,2.2-1.01c0.45-0.26,0.9-0.55,1.36-0.86c0.96-0.64,1.94-1.38,2.91-2.19c1.32-1.09,2.64-2.29,3.93-3.54
				c2.07-0.06,4.17-0.11,6.31-0.15C360.227,152.89,362.847,152.86,365.497,152.84z"/>
			<path style="fill:#407BFF;" d="M365.617,156.88c-0.07,0.21-0.15,0.41-0.23,0.61c-0.08,0.2-0.17,0.4-0.27,0.6
				c-0.09,0.2-0.19,0.39-0.3,0.57c-0.11,0.19-0.22,0.38-0.33,0.57c-0.01,0.02-0.02,0.03-0.03,0.05c-0.23,0.35-0.47,0.69-0.72,1.02
				c-0.27,0.35-0.55,0.69-0.85,1.01c-0.09,0.1-0.19,0.21-0.28,0.31c-0.44,0.47-0.9,0.91-1.38,1.32c-0.16,0.15-0.33,0.29-0.5,0.42
				c-0.06,0.06-0.13,0.12-0.19,0.16c-0.01,0.01-0.02,0.02-0.04,0.03v0.01c-1.77,1.43-3.58,2.5-4.8,3.15
				c-0.22,0.11-0.43,0.22-0.61,0.31c-0.01,0-0.02,0.01-0.03,0.01c-0.25,0.13-0.46,0.23-0.6,0.3c-0.15,0.06-0.23,0.1-0.23,0.1
				l-0.73-0.64l-0.62-0.56l-1.4-1.24l-6.97-6.17l-0.53-0.47c0,0,2.14-2.39,5.04-5.18c0.77-0.03,1.55-0.05,2.33-0.08
				c2.07-0.06,4.17-0.11,6.31-0.15c2.57-0.05,5.19-0.08,7.84-0.1c0.2,0,0.39-0.01,0.58-0.01
				C366.207,154.11,366.097,155.47,365.617,156.88z"/>
			<path style="opacity:0.7;fill:#FFFFFF;" d="M365.627,156.88c-0.07,0.21-0.15,0.41-0.24,0.61c-0.08,0.2-0.17,0.4-0.27,0.6
				c-0.09,0.2-0.19,0.39-0.3,0.57c-0.11,0.19-0.22,0.38-0.33,0.57c-0.01,0.02-0.02,0.03-0.03,0.05c-0.23,0.35-0.47,0.69-0.72,1.02
				c-0.27,0.35-0.55,0.69-0.85,1.01c-0.09,0.1-0.19,0.21-0.28,0.31c-0.44,0.47-0.9,0.91-1.38,1.32c-0.16,0.15-0.33,0.29-0.5,0.42
				c-0.06,0.06-0.13,0.12-0.19,0.16c-0.01,0.02-0.03,0.03-0.04,0.04c-1.77,1.43-3.58,2.5-4.8,3.15c-0.22,0.11-0.43,0.22-0.61,0.31
				c-0.01,0-0.02,0.01-0.03,0.01c-0.25,0.13-0.46,0.23-0.6,0.3c-0.15,0.06-0.23,0.1-0.23,0.1l-0.73-0.64l-0.62-0.56l-1.4-1.24
				l-6.97-6.17l-0.53-0.47c0,0,2.14-2.39,5.04-5.18c0.77-0.03,1.55-0.05,2.33-0.08c2.07-0.06,4.17-0.11,6.31-0.15
				c2.57-0.05,5.19-0.08,7.84-0.1c0.2,0,0.39-0.01,0.58-0.01c0.01,0,0.01,0,0.01,0C366.217,154.11,366.107,155.48,365.627,156.88z"
				/>
			<path style="opacity:0.1;" d="M360.496,163.561c-3.08,2.49-6.27,3.87-6.27,3.87l-2.75-2.44
				c2.014-6.639,7.555-10.946,7.555-10.946C360.25,156.325,360.646,161.171,360.496,163.561z"/>
			<g>
				<path style="fill:#EBB376;" d="M315.283,169.531l-9.294-1.418l0.074,8.219c0,0,6.357,1.904,9.723-2.413L315.283,169.531z"/>
				<polygon style="fill:#EBB376;" points="299.674,170.327 301.196,176.441 306.063,176.332 305.989,168.113 				"/>
			</g>
			<path style="fill:#407BFF;" d="M399.227,153.47c-0.08,0.21-0.17,0.42-0.25,0.64c-0.24,0.61-0.47,1.23-0.69,1.85
				c-0.14,0.38-0.27,0.76-0.4,1.15c-0.14,0.39-0.27,0.78-0.39,1.17c-0.37,1.16-0.73,2.33-1.08,3.52c-0.01,0.06-0.03,0.13-0.05,0.19
				c-0.373,1.321-0.712,2.669-1.049,4.017c-0.014,0.054-0.028,0.109-0.041,0.163c-0.17,0.7-0.35,1.4-0.51,2.11
				c-0.08,0.32-0.15,0.63-0.22,0.95c-0.27,1.23-0.53,2.47-0.77,3.7c0,0.01,0,0.01-0.01,0.01c-0.09,0.46-0.18,0.92-0.26,1.37
				c-0.1,0.48-0.19,0.96-0.27,1.43c-0.02,0.1-0.04,0.2-0.05,0.3c-0.05,0.26-0.1,0.52-0.14,0.78c-0.13,0.73-0.25,1.45-0.37,2.16
				c-0.02,0.11-0.03,0.21-0.05,0.32c-0.04,0.25-0.08,0.5-0.12,0.75c-0.24,1.46-0.45,2.89-0.64,4.28c-0.02,0.08-0.03,0.16-0.04,0.24
				c-0.21,1.53-0.39,3.01-0.55,4.43c-0.07,0.59-0.14,1.17-0.2,1.74c-0.09,0.8-0.17,1.57-0.24,2.32c-0.06,0.55-0.11,1.09-0.16,1.61
				c-0.05,0.49-0.09,0.97-0.13,1.43c-0.04,0.47-0.08,0.92-0.12,1.35c-0.1,1.22-0.18,2.32-0.25,3.27c-0.03,0.42-0.05,0.8-0.08,1.16
				c-0.08,1.33-0.12,2.26-0.14,2.68c-0.01,0.17-0.01,0.26-0.01,0.26l-17.73-1.63l-0.26-0.02l-2.98-0.28l-4.51-0.42h-0.01l-5.42-0.5
				l-1.31-0.12l-6.63-0.61c-0.03-0.63-0.06-1.24-0.07-1.86v-0.02c-0.01-0.17-0.02-0.34-0.02-0.51c-0.19-5.46-0.09-10.47,0.2-15.04
				c0.16-2.37,0.37-4.63,0.62-6.77c0.36-3.08,0.81-5.91,1.32-8.52c0.11-0.59,0.23-1.17,0.35-1.73v-0.01
				c0.08-0.39,0.16-0.76,0.25-1.13c0.77-3.4,1.62-6.35,2.48-8.88v-0.01c0.48-1.4,0.96-2.67,1.43-3.82c2.57-0.05,5.19-0.08,7.84-0.1
				c0.2,0,0.39-0.01,0.58-0.01c0.01,0,0.01,0,0.01,0c1.4-0.01,2.82-0.01,4.24-0.01c7.48,0,14.7,0.12,21.49,0.36
				c1.09,0.03,2.16,0.07,3.22,0.11C396.457,153.35,397.847,153.41,399.227,153.47z"/>
			<path style="opacity:0.7;fill:#FFFFFF;" d="M399.227,153.47c-0.08,0.21-0.17,0.42-0.25,0.64c-0.24,0.61-0.47,1.23-0.69,1.85
				c-0.14,0.38-0.27,0.76-0.4,1.15c-0.14,0.39-0.27,0.78-0.39,1.17c-0.01,0.02-0.02,0.05-0.03,0.07c-0.37,1.14-0.71,2.28-1.05,3.45
				c-0.01,0.06-0.03,0.13-0.05,0.19c-0.48,1.7-0.93,3.43-1.35,5.17c-0.09,0.37-0.17,0.75-0.25,1.12c-0.08,0.32-0.15,0.63-0.22,0.95
				c-0.27,1.23-0.53,2.47-0.77,3.7c-0.1,0.46-0.19,0.92-0.27,1.38c-0.09,0.47-0.18,0.95-0.26,1.42c-0.03,0.1-0.04,0.21-0.06,0.31
				c-0.05,0.26-0.1,0.52-0.14,0.78c-0.13,0.73-0.25,1.45-0.37,2.16c-0.02,0.11-0.03,0.21-0.05,0.32c-0.04,0.25-0.08,0.5-0.12,0.75
				c-0.23,1.46-0.45,2.89-0.64,4.28c-0.02,0.08-0.03,0.16-0.04,0.24c-0.21,1.53-0.39,3.01-0.55,4.43c-0.07,0.59-0.14,1.17-0.2,1.74
				c-0.09,0.8-0.17,1.57-0.24,2.32c-0.06,0.55-0.11,1.09-0.16,1.61c-0.05,0.49-0.09,0.97-0.13,1.43c-0.04,0.47-0.08,0.92-0.12,1.35
				c-0.1,1.22-0.18,2.32-0.25,3.27c-0.03,0.42-0.05,0.8-0.08,1.16c-0.08,1.33-0.12,2.26-0.14,2.68c-0.01,0.17-0.01,0.26-0.01,0.26
				l-17.73-1.63l-0.26-0.02l-2.98-0.28l-4.51-0.42h-0.01l-5.42-0.5l-1.31-0.12l-6.63-0.61c-0.03-0.63-0.06-1.24-0.07-1.86v-0.02
				c-0.01-0.17-0.02-0.34-0.02-0.51c-0.19-5.46-0.09-10.47,0.2-15.04c0.16-2.37,0.37-4.63,0.62-6.77c0.36-3.08,0.81-5.91,1.32-8.52
				c0.11-0.59,0.23-1.17,0.35-1.73v-0.01c0.08-0.39,0.16-0.76,0.25-1.13c0.77-3.4,1.62-6.35,2.48-8.88v-0.01
				c0.48-1.4,0.96-2.67,1.43-3.82c2.57-0.05,5.19-0.08,7.84-0.1c0.2,0,0.39-0.01,0.58-0.01c0.01,0,0.01,0,0.01,0
				c1.4-0.01,2.82-0.01,4.24-0.01c7.48,0,14.7,0.12,21.49,0.36c1.09,0.03,2.16,0.07,3.22,0.11
				C396.457,153.35,397.847,153.41,399.227,153.47z"/>
			<path d="M303.503,286.203c0,0,12.518-5.166,12.929-10.351c0.04-0.509,0.424-0.885,0.965-0.852l9.547,0.584
				c0.446,0.027,0.865,0.323,1.044,0.736l3.822,8.827l-2.645,0.362l-1.119-1.206l-0.968,1.492
				c-14.354,1.964-20.578,2.659-23.542,2.153C302.95,286.736,303.503,286.203,303.503,286.203z"/>
			<path style="fill:#263238;" d="M362.087,234.265c-0.55-0.12-0.852-0.203-0.852-0.203l-45.009-5.626l13.381,47.653l-13.628,1.299
				c0,0-31.082-59.951-18.377-68.601c12.704-8.65,52.076,0.903,52.076,0.903l1.548-11.869l39.158,2.916
				C396.69,239.868,367.493,235.404,362.087,234.265z"/>
			<path d="M349.123,371.933c0,0,13.48-1.291,15.385-6.131c0.187-0.475,0.663-0.723,1.172-0.533l8.962,3.342
				c0.418,0.156,0.733,0.561,0.784,1.009l1.082,9.558l-2.635-0.425l-0.719-1.48l-1.361,1.145
				c-14.303-2.307-20.459-3.457-23.147-4.805C348.439,372.281,349.123,371.933,349.123,371.933z"/>
			<g>
				<path style="fill:#263238;" d="M390.794,214.92c0,0,0,0,0.001,0.01c-0.055,0.239-1.683,7.744-3.819,18.488
					c-0.116,0.614-0.241,1.248-0.365,1.882c-1,5.112-2.096,10.856-3.178,16.851c-1.327,7.292-2.63,14.952-3.731,22.271
					c-1.587,10.584-2.747,20.457-2.911,27.512c-0.525,23.162-1.487,68.884-1.487,68.884l-12.477-1.961
					c0,0-6.892-48.756-6.809-72.372c0.057-15.008,3.783-45.903,6.317-65.124c1.287-9.865,2.263-16.657,2.263-16.657l14.129,0.122
					L390.794,214.92z"/>
			</g>
			<g>
				<g>
					<polygon style="fill:#263238;" points="389.806,204.553 390.636,204.617 390.604,201.915 389.867,201.858 					"/>
					<polygon style="fill:#263238;" points="359.031,202.161 375.733,203.459 375.808,200.771 359.172,199.485 					"/>
					<polygon style="fill:#263238;" points="357.883,199.386 350.821,198.84 350.568,201.504 357.717,202.059 					"/>
					<polygon style="fill:#263238;" points="388.578,201.758 377.092,200.871 377.044,203.561 388.491,204.451 					"/>
				</g>
				<g style="opacity:0.2;">
					<polygon style="fill:#FFFFFF;" points="389.806,204.553 390.636,204.617 390.604,201.915 389.867,201.858 					"/>
					<polygon style="fill:#FFFFFF;" points="359.031,202.161 375.733,203.459 375.808,200.771 359.172,199.485 					"/>
					<polygon style="fill:#FFFFFF;" points="357.883,199.386 350.821,198.84 350.568,201.504 357.717,202.059 					"/>
					<polygon style="fill:#FFFFFF;" points="388.578,201.758 377.092,200.871 377.044,203.561 388.491,204.451 					"/>
				</g>
				<g>
					<path style="fill:none;stroke:#FFFFFF;stroke-width:0.7259;stroke-miterlimit:10;" d="M364.254,200.386l-0.065,1.632
						c-0.01,0.259,0.184,0.481,0.442,0.506l4.165,0.389c0.282,0.026,0.527-0.192,0.534-0.475l0.04-1.7
						c0.006-0.259-0.192-0.478-0.451-0.498l-4.14-0.32C364.504,199.898,364.265,200.11,364.254,200.386z"/>
					
						<line style="fill:none;stroke:#FFFFFF;stroke-width:0.7259;stroke-linecap:round;stroke-linejoin:round;stroke-miterlimit:10;" x1="367.509" y1="201.417" x2="368.78" y2="201.538"/>
				</g>
			</g>
			<path style="opacity:0.1;" d="M396.366,161.991c-0.48,1.7-0.93,3.43-1.35,5.17c-0.16,0.69-0.32,1.38-0.47,2.07
				c-0.75,3.39-1.39,6.79-1.92,10.07c-0.04,0.25-0.08,0.5-0.12,0.75c-6.87,2.21-14.01,0.69-13.77-5.93
				c0.33-8.87,7.89-13.02,7.89-13.02C389.946,159.281,393.526,160.021,396.366,161.991z"/>
		</g>
		<g>
			<g>
				<polygon style="fill:#263238;" points="329.16,416.006 338.409,416.006 308.333,178.305 299.083,178.305 				"/>
				<polygon style="opacity:0.4;fill:#FFFFFF;" points="329.16,416.006 338.409,416.006 308.333,178.305 299.083,178.305 				"/>
				<g>
					<path style="fill:#263238;" d="M309.824,213.54h29.403c0.698,0,1.342-0.457,1.693-1.201l1.868-3.958h-36.525l1.868,3.958
						C308.482,213.082,309.127,213.54,309.824,213.54z"/>
					<path style="opacity:0.4;fill:#FFFFFF;" d="M309.824,213.54h29.403c0.698,0,1.342-0.457,1.693-1.201l1.868-3.958h-36.525
						l1.868,3.958C308.482,213.082,309.127,213.54,309.824,213.54z"/>
					<path style="fill:#263238;" d="M306.76,210.264h35.531c1.056,0,1.913-0.856,1.913-1.913v-0.422
						c0-1.056-0.856-1.913-1.913-1.913H306.76c-1.056,0-1.913,0.856-1.913,1.913v0.422
						C304.848,209.408,305.704,210.264,306.76,210.264z"/>
					<path style="opacity:0.1;fill:#FFFFFF;" d="M306.76,210.264h35.531c1.056,0,1.913-0.856,1.913-1.913v-0.422
						c0-1.056-0.856-1.913-1.913-1.913H306.76c-1.056,0-1.913,0.856-1.913,1.913v0.422
						C304.848,209.408,305.704,210.264,306.76,210.264z"/>
				</g>
				<g>
					<path style="fill:#263238;" d="M315.187,247.515h29.403c0.698,0,1.343-0.457,1.693-1.201l1.868-3.958h-36.525l1.868,3.958
						C313.845,247.058,314.49,247.515,315.187,247.515z"/>
					<path style="opacity:0.4;fill:#FFFFFF;" d="M315.187,247.515h29.403c0.698,0,1.343-0.457,1.693-1.201l1.868-3.958h-36.525
						l1.868,3.958C313.845,247.058,314.49,247.515,315.187,247.515z"/>
					<path style="fill:#263238;" d="M312.123,244.24h35.531c1.056,0,1.913-0.856,1.913-1.913v-0.422
						c0-1.056-0.856-1.913-1.913-1.913h-35.531c-1.056,0-1.912,0.856-1.912,1.913v0.422
						C310.211,243.383,311.067,244.24,312.123,244.24z"/>
					<path style="opacity:0.1;fill:#FFFFFF;" d="M312.123,244.24h35.531c1.056,0,1.913-0.856,1.913-1.913v-0.422
						c0-1.056-0.856-1.913-1.913-1.913h-35.531c-1.056,0-1.912,0.856-1.912,1.913v0.422
						C310.211,243.383,311.067,244.24,312.123,244.24z"/>
				</g>
				<g>
					<path style="fill:#263238;" d="M320.55,292.494h29.403c0.698,0,1.342-0.457,1.693-1.201l1.868-3.958h-36.525l1.868,3.958
						C319.208,292.037,319.853,292.494,320.55,292.494z"/>
					<path style="opacity:0.4;fill:#FFFFFF;" d="M320.55,292.494h29.403c0.698,0,1.342-0.457,1.693-1.201l1.868-3.958h-36.525
						l1.868,3.958C319.208,292.037,319.853,292.494,320.55,292.494z"/>
					<path style="fill:#263238;" d="M317.486,289.219h35.531c1.056,0,1.913-0.856,1.913-1.913v-0.422
						c0-1.056-0.856-1.913-1.913-1.913h-35.531c-1.056,0-1.913,0.856-1.913,1.913v0.422
						C315.573,288.363,316.43,289.219,317.486,289.219z"/>
					<path style="opacity:0.1;fill:#FFFFFF;" d="M317.486,289.219h35.531c1.056,0,1.913-0.856,1.913-1.913v-0.422
						c0-1.056-0.856-1.913-1.913-1.913h-35.531c-1.056,0-1.913,0.856-1.913,1.913v0.422
						C315.573,288.363,316.43,289.219,317.486,289.219z"/>
				</g>
				<g>
					<path style="fill:#263238;" d="M325.913,337.473h29.403c0.698,0,1.342-0.457,1.693-1.201l1.868-3.958h-36.525l1.868,3.958
						C324.57,337.016,325.216,337.473,325.913,337.473z"/>
					<path style="opacity:0.4;fill:#FFFFFF;" d="M325.913,337.473h29.403c0.698,0,1.342-0.457,1.693-1.201l1.868-3.958h-36.525
						l1.868,3.958C324.57,337.016,325.216,337.473,325.913,337.473z"/>
					<path style="fill:#263238;" d="M322.849,334.198h35.531c1.056,0,1.913-0.856,1.913-1.913v-0.422
						c0-1.056-0.856-1.913-1.913-1.913h-35.531c-1.056,0-1.913,0.856-1.913,1.913v0.422
						C320.936,333.342,321.793,334.198,322.849,334.198z"/>
					<path style="opacity:0.1;fill:#FFFFFF;" d="M322.849,334.198h35.531c1.056,0,1.913-0.856,1.913-1.913v-0.422
						c0-1.056-0.856-1.913-1.913-1.913h-35.531c-1.056,0-1.913,0.856-1.913,1.913v0.422
						C320.936,333.342,321.793,334.198,322.849,334.198z"/>
				</g>
				<g>
					<path style="fill:#263238;" d="M331.276,382.452h29.403c0.698,0,1.342-0.457,1.693-1.201l1.868-3.958h-36.525l1.868,3.958
						C329.933,381.995,330.578,382.452,331.276,382.452z"/>
					<path style="opacity:0.4;fill:#FFFFFF;" d="M331.276,382.452h29.403c0.698,0,1.342-0.457,1.693-1.201l1.868-3.958h-36.525
						l1.868,3.958C329.933,381.995,330.578,382.452,331.276,382.452z"/>
					<path style="fill:#263238;" d="M328.212,379.177h35.531c1.056,0,1.913-0.856,1.913-1.913v-0.422
						c0-1.056-0.856-1.913-1.913-1.913h-35.531c-1.056,0-1.913,0.856-1.913,1.913v0.422
						C326.299,378.321,327.155,379.177,328.212,379.177z"/>
					<path style="opacity:0.1;fill:#FFFFFF;" d="M328.212,379.177h35.531c1.056,0,1.913-0.856,1.913-1.913v-0.422
						c0-1.056-0.856-1.913-1.913-1.913h-35.531c-1.056,0-1.913,0.856-1.913,1.913v0.422
						C326.299,378.321,327.155,379.177,328.212,379.177z"/>
				</g>
				<polygon style="fill:#263238;" points="364.866,416.006 374.116,416.006 344.04,178.305 334.79,178.305 				"/>
				<polygon style="opacity:0.7;fill:#FFFFFF;" points="364.866,416.006 374.116,416.006 344.04,178.305 334.79,178.305 				"/>
			</g>
			<g>
				<polygon style="fill:#263238;" points="267.757,416.006 258.507,416.006 288.584,178.305 297.833,178.305 				"/>
				<polygon style="opacity:0.4;fill:#FFFFFF;" points="267.757,416.006 258.507,416.006 288.584,178.305 297.833,178.305 				"/>
				<g>
					<path style="fill:#263238;" d="M322.799,213.54h-29.403c-0.698,0-1.342-0.457-1.693-1.201l-1.868-3.958h36.525l-1.868,3.958
						C324.142,213.082,323.497,213.54,322.799,213.54z"/>
					<path style="opacity:0.5;fill:#FFFFFF;" d="M322.799,213.54h-29.403c-0.698,0-1.342-0.457-1.693-1.201l-1.868-3.958h36.525
						l-1.868,3.958C324.142,213.082,323.497,213.54,322.799,213.54z"/>
					<path style="fill:#263238;" d="M325.863,210.264h-35.531c-1.056,0-1.913-0.856-1.913-1.913v-0.422
						c0-1.056,0.856-1.913,1.913-1.913h35.531c1.056,0,1.913,0.856,1.913,1.913v0.422
						C327.776,209.408,326.92,210.264,325.863,210.264z"/>
					<path style="opacity:0.2;fill:#FFFFFF;" d="M325.863,210.264h-35.531c-1.056,0-1.913-0.856-1.913-1.913v-0.422
						c0-1.056,0.856-1.913,1.913-1.913h35.531c1.056,0,1.913,0.856,1.913,1.913v0.422
						C327.776,209.408,326.92,210.264,325.863,210.264z"/>
				</g>
				<g>
					<path style="fill:#263238;" d="M317.436,247.515h-29.403c-0.698,0-1.342-0.457-1.693-1.201l-1.868-3.958h36.525l-1.868,3.958
						C318.779,247.058,318.134,247.515,317.436,247.515z"/>
					<path style="opacity:0.5;fill:#FFFFFF;" d="M317.436,247.515h-29.403c-0.698,0-1.342-0.457-1.693-1.201l-1.868-3.958h36.525
						l-1.868,3.958C318.779,247.058,318.134,247.515,317.436,247.515z"/>
					<path style="fill:#263238;" d="M320.5,244.24H284.97c-1.056,0-1.913-0.856-1.913-1.913v-0.422c0-1.056,0.856-1.913,1.913-1.913
						H320.5c1.056,0,1.913,0.856,1.913,1.913v0.422C322.413,243.383,321.557,244.24,320.5,244.24z"/>
					<path style="opacity:0.2;fill:#FFFFFF;" d="M320.5,244.24H284.97c-1.056,0-1.913-0.856-1.913-1.913v-0.422
						c0-1.056,0.856-1.913,1.913-1.913H320.5c1.056,0,1.913,0.856,1.913,1.913v0.422C322.413,243.383,321.557,244.24,320.5,244.24z"
						/>
				</g>
				<g>
					<path style="fill:#263238;" d="M312.073,292.494h-29.403c-0.698,0-1.342-0.457-1.693-1.201l-1.868-3.958h36.525l-1.868,3.958
						C313.416,292.037,312.771,292.494,312.073,292.494z"/>
					<path style="opacity:0.5;fill:#FFFFFF;" d="M312.073,292.494h-29.403c-0.698,0-1.342-0.457-1.693-1.201l-1.868-3.958h36.525
						l-1.868,3.958C313.416,292.037,312.771,292.494,312.073,292.494z"/>
					<path style="fill:#263238;" d="M315.138,289.219h-35.531c-1.056,0-1.913-0.856-1.913-1.913v-0.422
						c0-1.056,0.856-1.913,1.913-1.913h35.531c1.056,0,1.913,0.856,1.913,1.913v0.422
						C317.05,288.363,316.194,289.219,315.138,289.219z"/>
					<path style="opacity:0.2;fill:#FFFFFF;" d="M315.138,289.219h-35.531c-1.056,0-1.913-0.856-1.913-1.913v-0.422
						c0-1.056,0.856-1.913,1.913-1.913h35.531c1.056,0,1.913,0.856,1.913,1.913v0.422
						C317.05,288.363,316.194,289.219,315.138,289.219z"/>
				</g>
				<g>
					<path style="fill:#263238;" d="M306.711,337.473h-29.403c-0.698,0-1.342-0.457-1.693-1.201l-1.868-3.958h36.525l-1.868,3.958
						C308.053,337.016,307.408,337.473,306.711,337.473z"/>
					<path style="opacity:0.5;fill:#FFFFFF;" d="M306.711,337.473h-29.403c-0.698,0-1.342-0.457-1.693-1.201l-1.868-3.958h36.525
						l-1.868,3.958C308.053,337.016,307.408,337.473,306.711,337.473z"/>
					<path style="fill:#263238;" d="M309.775,334.198h-35.531c-1.056,0-1.913-0.856-1.913-1.913v-0.422
						c0-1.056,0.856-1.913,1.913-1.913h35.531c1.056,0,1.913,0.856,1.913,1.913v0.422
						C311.687,333.342,310.831,334.198,309.775,334.198z"/>
					<path style="opacity:0.2;fill:#FFFFFF;" d="M309.775,334.198h-35.531c-1.056,0-1.913-0.856-1.913-1.913v-0.422
						c0-1.056,0.856-1.913,1.913-1.913h35.531c1.056,0,1.913,0.856,1.913,1.913v0.422
						C311.687,333.342,310.831,334.198,309.775,334.198z"/>
				</g>
				<g>
					<path style="fill:#263238;" d="M301.348,382.452h-29.403c-0.698,0-1.343-0.457-1.693-1.201l-1.868-3.958h36.525l-1.868,3.958
						C302.69,381.995,302.045,382.452,301.348,382.452z"/>
					<path style="opacity:0.5;fill:#FFFFFF;" d="M301.348,382.452h-29.403c-0.698,0-1.343-0.457-1.693-1.201l-1.868-3.958h36.525
						l-1.868,3.958C302.69,381.995,302.045,382.452,301.348,382.452z"/>
					<path style="fill:#263238;" d="M304.412,379.177h-35.531c-1.056,0-1.913-0.856-1.913-1.913v-0.422
						c0-1.056,0.856-1.913,1.913-1.913h35.531c1.056,0,1.913,0.856,1.913,1.913v0.422
						C306.324,378.321,305.468,379.177,304.412,379.177z"/>
					<path style="opacity:0.2;fill:#FFFFFF;" d="M304.412,379.177h-35.531c-1.056,0-1.913-0.856-1.913-1.913v-0.422
						c0-1.056,0.856-1.913,1.913-1.913h35.531c1.056,0,1.913,0.856,1.913,1.913v0.422
						C306.324,378.321,305.468,379.177,304.412,379.177z"/>
				</g>
				<polygon style="fill:#263238;" points="303.464,416.006 294.214,416.006 324.29,178.305 333.54,178.305 				"/>
				<polygon style="opacity:0.7;fill:#FFFFFF;" points="303.464,416.006 294.214,416.006 324.29,178.305 333.54,178.305 				"/>
				<g>
					<path style="fill:#263238;" d="M345.522,179.518h-58.617c-0.698,0-1.342-0.457-1.693-1.201l-1.868-3.958h65.74l-1.868,3.958
						C346.864,179.061,346.219,179.518,345.522,179.518z"/>
					<path style="opacity:0.5;fill:#FFFFFF;" d="M345.522,179.518h-58.617c-0.698,0-1.342-0.457-1.693-1.201l-1.868-3.958h65.74
						l-1.868,3.958C346.864,179.061,346.219,179.518,345.522,179.518z"/>
					<path style="fill:#263238;" d="M348.586,176.243H283.84c-1.056,0-1.913-0.856-1.913-1.913v-0.422
						c0-1.056,0.856-1.913,1.913-1.913h64.746c1.056,0,1.913,0.856,1.913,1.913v0.422
						C350.499,175.386,349.642,176.243,348.586,176.243z"/>
					<path style="opacity:0.2;fill:#FFFFFF;" d="M348.586,176.243H283.84c-1.056,0-1.913-0.856-1.913-1.913v-0.422
						c0-1.056,0.856-1.913,1.913-1.913h64.746c1.056,0,1.913,0.856,1.913,1.913v0.422
						C350.499,175.386,349.642,176.243,348.586,176.243z"/>
				</g>
			</g>
		</g>
		<g>
			<g>
				<path style="fill:#EBB376;" d="M349.618,178.527l-7.686-5.414l-3.599,7.389c0,0,4.84,4.54,9.779,2.177L349.618,178.527z"/>
				<polygon style="fill:#EBB376;" points="335.293,172.277 333.929,178.427 338.333,180.501 341.933,173.112 				"/>
			</g>
			<path style="fill:#FFB573;" d="M402.187,161.43c-1.51,2.33-3.05,4.56-4.66,6.74c-1.21,1.61-2.45,3.2-3.75,4.76
				c0,0.01,0,0.01-0.01,0.01c-0.39,0.48-0.79,0.95-1.19,1.42c-0.79,0.91-1.59,1.82-2.43,2.72c-1.04,1.12-2.13,2.22-3.3,3.3
				c-0.22,0.2-0.44,0.4-0.67,0.6h-0.02c-0.86,0.79-1.74,1.53-2.75,2.27c-1.29,0.91-2.65,1.83-4.65,2.59c-0.5,0.2-1,0.34-1.51,0.46
				c-0.49,0.12-0.91,0.18-1.36,0.26c-0.84,0.11-1.63,0.18-2.39,0.2c-1.51,0.05-2.92,0.01-4.31-0.07c-2.76-0.15-5.42-0.52-8.05-0.91
				c-3.36-0.53-6.66-1.19-9.93-1.97c-1.21-0.28-2.41-0.59-3.61-0.91c-0.64-0.17-1.27-0.35-1.91-0.53c-1.29-0.36-2.11-1.57-2.03-2.86
				c0.01-0.2,0.05-0.4,0.1-0.6c0.3-1.1,1.22-1.86,2.28-2.01c0.17-0.03,0.34-0.05,0.51-0.04l0.05,0.01c0.23,0.01,0.47,0.02,0.7,0.02
				c1.51,0.05,3.02,0.11,4.53,0.15c3.37,0.12,6.73,0.21,10.04,0.26c2.51,0.05,5.02,0.02,7.41-0.08c1.2-0.05,2.37-0.15,3.43-0.3
				c1.05-0.14,2.04-0.36,2.3-0.57c0.4-0.2,1.19-0.75,1.94-1.41c0.6-0.52,1.23-1.1,1.85-1.73c0.18-0.17,0.35-0.35,0.52-0.53
				c0.35-0.36,0.69-0.74,1.02-1.12c0.86-0.94,1.69-1.92,2.52-2.93c0.37-0.46,0.75-0.92,1.12-1.39c1.8-2.27,3.59-4.66,5.32-7.07
				c1.18-1.63,2.34-3.28,3.46-4.9l0.06-0.1c0.58-0.84,1.35-1.48,2.22-1.88c1.42,0.06,2.81,0.12,4.19,0.18c0,0,0,0,0.01,0
				c0.36,0.02,0.73,0.04,1.09,0.06c0.11,0.06,0.22,0.13,0.33,0.21C403.167,155.47,403.827,158.89,402.187,161.43z"/>
			<path style="fill:#407BFF;" d="M399.577,168.07c-1.56,2.31-3.64,4.86-6.33,7.66c-0.01,0-0.01,0-0.01,0.01
				c-0.62,0.64-1.28,1.3-1.97,1.97l-1.12-0.63l-9.81-5.52l-0.91-0.51c0,0,0.64-0.95,1.59-2.39c1.19-1.8,2.88-4.37,4.45-6.79
				c1.22-1.9,2.36-3.71,3.11-4.99c0.95-1.6,2.07-2.8,3.24-3.7c1.09,0.03,2.16,0.07,3.22,0.11c1.42,0.06,2.81,0.12,4.19,0.18
				c0,0,0,0,0.01,0c0.36,0.02,0.73,0.04,1.09,0.06c0.94,0.04,1.87,0.09,2.79,0.14C404.377,156.66,404.097,161.39,399.577,168.07z"/>
			<path style="opacity:0.7;fill:#FFFFFF;" d="M399.577,168.07c-1.56,2.31-3.64,4.86-6.33,7.66c-0.01,0-0.01,0-0.01,0.01
				c-0.62,0.64-1.28,1.3-1.97,1.97l-1.12-0.63l-9.81-5.52l-0.91-0.51c0,0,0.64-0.95,1.59-2.39c1.19-1.8,2.88-4.37,4.45-6.79
				c1.22-1.9,2.36-3.71,3.11-4.99c0.95-1.6,2.07-2.8,3.24-3.7c1.09,0.03,2.16,0.07,3.22,0.11c1.42,0.06,2.81,0.12,4.19,0.18
				c0,0,0,0,0.01,0c0.36,0.02,0.73,0.04,1.09,0.06c0.94,0.04,1.87,0.09,2.79,0.14C404.377,156.66,404.097,161.39,399.577,168.07z"/>
		</g>
	</g>
</g>
<g id="Character_1">
	<g>
		<g>
			<path style="fill:#263238;" d="M253.341,415.836c0,0.06-0.01,0.11-0.02,0.17c0,0.03-0.01,0.05-0.02,0.08
				c-0.01,0.05-0.03,0.1-0.05,0.15c-0.03,0.06-0.06,0.13-0.11,0.19c-0.04,0.07-0.09,0.13-0.15,0.2c-0.32,0.36-0.88,0.72-1.64,1.07
				c-0.15,0.07-0.32,0.14-0.49,0.21c-0.48,0.2-1.02,0.39-1.63,0.58c-0.38,0.12-0.78,0.23-1.21,0.35
				c-7.01,1.89-20.45,3.41-37.36,4.25c-0.66,0.03-1.32,0.07-1.98,0.1c-1.08,0.05-2.17,0.09-3.28,0.14
				c-1.11,0.04-2.23,0.08-3.37,0.12c-0.77,0.03-1.55,0.05-2.33,0.08c-1.85,0.05-3.72,0.1-5.62,0.13c-0.23,0.01-0.46,0.02-0.69,0.02
				c-0.43,0.01-0.86,0.02-1.29,0.02c-0.42,0.01-0.83,0.02-1.25,0.02c-1.75,0.03-3.52,0.05-5.3,0.06c-0.2,0-0.39,0.01-0.58,0.01
				c-0.01,0-0.01,0-0.01,0c-1.4,0.01-2.82,0.01-4.24,0.01c-5.84,0-11.53-0.07-16.97-0.22c-0.01,0-0.01,0-0.01,0
				c-0.81-0.02-1.62-0.05-2.42-0.08c-0.7-0.01-1.4-0.04-2.09-0.06c-1.09-0.03-2.16-0.07-3.22-0.11c-1.42-0.06-2.81-0.12-4.19-0.18
				c0,0,0,0-0.01,0c-0.36-0.02-0.73-0.04-1.09-0.06c-0.94-0.04-1.87-0.09-2.79-0.14c-4.59-0.26-8.9-0.56-12.86-0.92
				c-9.48-0.84-16.99-1.93-21.65-3.19c-0.14-0.04-0.27-0.07-0.4-0.11c-0.15-0.04-0.3-0.08-0.44-0.13c-0.75-0.22-1.4-0.45-1.97-0.67
				c-0.21-0.09-0.41-0.17-0.59-0.26c-0.33-0.16-0.62-0.31-0.87-0.47c-0.1-0.06-0.19-0.12-0.27-0.19c-0.08-0.06-0.15-0.11-0.22-0.17
				c-0.08-0.07-0.15-0.14-0.21-0.21c-0.06-0.06-0.11-0.13-0.15-0.19c-0.08-0.12-0.13-0.23-0.16-0.35c-0.01-0.03-0.02-0.07-0.03-0.11
				c-0.01-0.05-0.01-0.09-0.01-0.14c0-3.26,17.83-6.06,43.37-7.29c0.68-0.03,1.36-0.06,2.05-0.1c0.91-0.03,1.83-0.07,2.76-0.11
				c1.39-0.05,2.8-0.1,4.24-0.15c0.75-0.02,1.52-0.05,2.29-0.07c1.77-0.05,3.56-0.09,5.38-0.13h0.29c0.51,0,1.03-0.01,1.55-0.03
				c0.35,0,0.7-0.01,1.05-0.01c1.58-0.03,3.17-0.04,4.78-0.05h0.01c0.15,0,0.31-0.01,0.46,0h0.01c1.45-0.02,2.91-0.02,4.38-0.02
				c5.92,0,11.67,0.08,17.18,0.22c1.35,0.04,2.69,0.08,4.01,0.13c0.57,0.02,1.14,0.04,1.7,0.06h0.02c0.05,0,0.1,0,0.15,0.01
				c0.63,0.02,1.24,0.04,1.86,0.07c0.41,0.01,0.81,0.03,1.22,0.05c1.07,0.04,2.12,0.09,3.16,0.14h0.01c1,0.05,1.99,0.1,2.97,0.15
				c5.72,0.31,11.02,0.7,15.76,1.16C243.831,411.326,253.341,413.456,253.341,415.836z"/>
			<path style="opacity:0.4;fill:#FFFFFF;" d="M108.103,415.839c0-3.26,17.83-6.06,43.37-7.29c0.68-0.03,1.36-0.06,2.05-0.1
				c0.91-0.03,1.83-0.07,2.76-0.11c3.83-0.15,7.81-0.26,11.91-0.35c0.61,0,1.22-0.01,1.84-0.03c0.35,0,0.7-0.01,1.05-0.01
				c3.15-0.05,6.37-0.07,9.64-0.07c5.92,0,11.67,0.08,17.18,0.22c1.35,0.04,2.69,0.08,4.01,0.13c10.05,0.33,19.17,0.9,26.85,1.64
				c15.07,1.46,24.58,3.59,24.58,5.97c0,1.06-1.89,2.08-5.32,3c-4.26-1.15-10.91-2.16-19.26-2.97c-7.68-0.74-16.8-1.31-26.85-1.64
				c-1.32-0.05-2.66-0.09-4.01-0.13c-5.51-0.14-11.26-0.22-17.18-0.22c-3.27,0-6.49,0.02-9.64,0.07c-0.35,0-0.7,0.01-1.05,0.01
				c-0.62,0.02-1.23,0.03-1.84,0.03c-4.1,0.09-8.08,0.2-11.91,0.35c-0.93,0.04-1.85,0.08-2.76,0.11c-0.69,0.04-1.37,0.07-2.05,0.1
				c-17.23,0.83-30.94,2.37-38.05,4.29C109.993,417.909,108.103,416.909,108.103,415.839z"/>
		</g>
		<g>
			<g>
				<path style="fill:#FFB573;" d="M174.611,412.146c-0.55,0.66-1.06,1.23-1.57,1.78c-0.26,0.27-0.51,0.54-0.78,0.81
					c-0.48,0.49-0.95,0.97-1.44,1.44c-0.32,0.32-0.65,0.63-0.98,0.94c-1.67,1.54-3.45,3-5.37,4.36c-0.11,0.07-0.21,0.15-0.32,0.22
					c-0.28,0.2-0.57,0.39-0.87,0.59h-0.01c-0.63,0.42-1.28,0.83-1.95,1.21c-0.7-0.01-1.4-0.04-2.09-0.06
					c-1.09-0.03-2.16-0.07-3.22-0.11c-1.42-0.06-2.81-0.12-4.19-0.18c0,0,0,0-0.01,0c-0.36-0.02-0.73-0.04-1.09-0.06
					c-0.94-0.04-1.87-0.09-2.79-0.14c-4.59-0.26-8.9-0.56-12.86-0.92c0.52-0.17,1.04-0.33,1.56-0.5c3.99-1.3,8.02-2.52,11.9-3.8
					c0.97-0.33,1.93-0.65,2.82-0.98c0.98-0.34,1.48-0.6,2.2-1.01c0.44-0.26,0.9-0.55,1.36-0.86c0.24-0.16,0.49-0.33,0.74-0.52h0.01
					c0.72-0.51,1.44-1.08,2.15-1.67c1.44-1.18,2.85-2.48,4.25-3.83c0.25-0.25,0.5-0.49,0.75-0.74c0.45-0.43,0.89-0.86,1.32-1.31
					l1.96-2.03l0.12-0.13c1.27-1.32,3.03-1.89,4.72-1.7c1.18,0.13,2.33,0.64,3.25,1.53c0.98,0.95,1.55,2.16,1.68,3.42h0.01
					C176.041,409.376,175.621,410.926,174.611,412.146z"/>
				<path style="fill:#407BFF;" d="M172.367,400.668c-5.575-0.126-17.99,13.741-17.99,13.741l10.25,9.077
					c0,0,9.154-3.956,11.396-10.549C178.264,406.343,172.367,400.668,172.367,400.668z"/>
				<path style="opacity:0.7;fill:#FFFFFF;" d="M176.027,412.938c-0.93,2.7-3,4.96-5.13,6.68c-3.08,2.49-6.27,3.87-6.27,3.87
					l-2.75-2.44l-7.5-6.64c0,0,12.41-13.87,17.99-13.74C172.367,400.668,178.266,406.348,176.027,412.938z"/>
				<path style="opacity:0.1;" d="M170.896,419.618c-3.08,2.49-6.27,3.87-6.27,3.87l-2.75-2.44
					c2.014-6.639,7.555-10.946,7.555-10.946C170.651,412.382,171.046,417.228,170.896,419.618z"/>
				<path style="fill:#407BFF;" d="M210.911,406.516c0,0.01,0,0.01,0,0.02c-0.01,0-0.01,0-0.01,0v0.01
					c-0.06,0.13-0.12,0.25-0.17,0.38c-0.16,0.35-0.31,0.7-0.46,1.06c-0.09,0.19-0.17,0.37-0.24,0.57c-0.02,0.04-0.04,0.08-0.05,0.12
					c-0.07,0.15-0.14,0.3-0.19,0.46c-0.17,0.4-0.33,0.81-0.49,1.23c-0.2,0.52-0.39,1.05-0.58,1.58c-0.02,0.02-0.02,0.05-0.03,0.07
					c-0.14,0.38-0.27,0.76-0.4,1.15c-0.14,0.39-0.27,0.78-0.39,1.17c-0.02,0.04-0.03,0.08-0.04,0.12c-0.12,0.36-0.24,0.72-0.35,1.08
					c-0.23,0.76-0.46,1.52-0.68,2.3c-0.02,0.07-0.04,0.14-0.06,0.21c-0.48,1.7-0.93,3.43-1.35,5.17c-0.01,0.04-0.02,0.07-0.02,0.11
					c-1.11,0.04-2.23,0.08-3.37,0.12c-0.77,0.03-1.55,0.05-2.33,0.08c-1.85,0.05-3.72,0.1-5.62,0.13c-0.23,0.01-0.46,0.02-0.69,0.02
					c-0.43,0.01-0.86,0.02-1.29,0.02c-0.42,0.01-0.83,0.02-1.25,0.02c-1.75,0.03-3.52,0.05-5.3,0.06c-0.2,0-0.39,0.01-0.58,0.01
					c-0.01,0-0.01,0-0.01,0c-1.4,0.01-2.82,0.01-4.24,0.01c-5.84,0-11.53-0.07-16.97-0.22c-0.01,0-0.01,0-0.01,0
					c0.05-0.25,0.1-0.5,0.15-0.74v-0.01c0.04-0.16,0.07-0.31,0.11-0.46c0.03-0.15,0.06-0.3,0.1-0.45c0.02-0.08,0.04-0.15,0.05-0.22
					c0.45-1.97,0.92-3.79,1.4-5.47c0.18-0.58,0.34-1.13,0.51-1.68c0.06-0.17,0.11-0.34,0.17-0.51v-0.01
					c0.13-0.41,0.26-0.8,0.39-1.18c0-0.01,0-0.01,0.01-0.01v-0.01c0.07-0.21,0.14-0.41,0.21-0.61c0-0.01,0-0.01,0-0.01
					c0.11-0.31,0.22-0.62,0.33-0.91c0.12-0.35,0.25-0.69,0.37-1.01c0.11-0.29,0.22-0.57,0.33-0.84c0-0.01,0-0.01,0-0.01
					c0.21-0.51,0.41-0.99,0.6-1.45c0.46-1.1,0.91-2.06,1.33-2.91c0.08-0.14,0.15-0.29,0.22-0.43c0.15-0.29,0.29-0.55,0.42-0.81
					c0.18-0.32,0.34-0.62,0.49-0.89c0.03-0.05,0.06-0.09,0.08-0.14c0.17-0.31,0.34-0.59,0.49-0.83c0.15-0.24,0.28-0.44,0.39-0.62
					c0.27-0.4,0.43-0.63,0.47-0.68v-0.01c0,0,0,0,0.01,0c0,0,4.16-0.45,8.93-0.29c0.63,0.01,1.27,0.05,1.92,0.09
					c0.59,0.04,1.24,0.1,1.92,0.18c1.43,0.16,3.02,0.38,4.67,0.65c1.04,0.17,2.09,0.35,3.14,0.54c1.05,0.19,2.09,0.38,3.09,0.58
					c0.18,0.03,0.35,0.07,0.53,0.11c0.01,0,0.01,0,0.01,0c0.79,0.15,1.56,0.31,2.27,0.46c0.49,0.1,0.97,0.21,1.46,0.33
					c0.25,0.06,0.49,0.11,0.73,0.18c0.24,0.06,0.48,0.12,0.73,0.18c0.91,0.23,1.81,0.48,2.66,0.72c0.28,0.08,0.56,0.17,0.83,0.25
					c0.54,0.16,1.06,0.32,1.55,0.48c0.49,0.15,0.94,0.3,1.36,0.44c1.55,0.51,2.58,0.89,2.73,0.94
					C210.901,406.506,210.911,406.506,210.911,406.516z"/>
				<path style="opacity:0.7;fill:#FFFFFF;" d="M210.921,406.516l-0.01,0.02c-0.01,0-0.01,0-0.01,0v0.01
					c-0.06,0.13-0.12,0.25-0.17,0.38c-0.16,0.35-0.32,0.7-0.46,1.06c-0.09,0.19-0.17,0.38-0.24,0.57h-0.01
					c-0.02,0.04-0.03,0.08-0.04,0.12c-0.07,0.15-0.14,0.3-0.19,0.46c-0.17,0.4-0.33,0.81-0.49,1.23c-0.2,0.52-0.4,1.05-0.58,1.58
					c-0.02,0.02-0.02,0.05-0.03,0.07c-0.14,0.38-0.27,0.76-0.4,1.15c-0.14,0.39-0.27,0.78-0.39,1.17c-0.01,0.02-0.02,0.05-0.03,0.07
					c-0.01,0.02-0.01,0.03-0.01,0.05c-0.12,0.36-0.24,0.72-0.35,1.08c-0.23,0.76-0.46,1.52-0.68,2.3c-0.02,0.07-0.04,0.14-0.06,0.21
					c-0.48,1.7-0.93,3.43-1.35,5.17c-0.01,0.04-0.02,0.07-0.02,0.11c-1.11,0.04-2.23,0.08-3.37,0.12c-0.77,0.03-1.55,0.05-2.33,0.08
					c-1.85,0.05-3.72,0.1-5.62,0.13c-0.23,0.01-0.46,0.02-0.69,0.02c-0.43,0.01-0.86,0.02-1.29,0.02c-0.42,0.01-0.83,0.02-1.25,0.02
					c-1.75,0.03-3.52,0.05-5.3,0.06c-0.2,0-0.39,0.01-0.58,0.01c-0.01,0-0.01,0-0.01,0c-1.4,0.01-2.82,0.01-4.24,0.01
					c-5.84,0-11.53-0.07-16.97-0.22c0.05-0.25,0.1-0.49,0.15-0.73v-0.01c0.07-0.32,0.13-0.62,0.2-0.92
					c0.02-0.08,0.04-0.15,0.05-0.22c0.45-1.97,0.92-3.79,1.4-5.47c0.18-0.58,0.34-1.13,0.51-1.68c0.06-0.17,0.11-0.34,0.17-0.51
					v-0.01c0.13-0.41,0.26-0.8,0.39-1.18c0-0.01,0-0.01,0.01-0.01v-0.01c0.07-0.21,0.14-0.41,0.21-0.61c0-0.01,0-0.01,0-0.01
					c0.11-0.31,0.22-0.62,0.33-0.91c0.12-0.35,0.25-0.69,0.37-1.01c0.11-0.29,0.22-0.57,0.33-0.84c0-0.01,0-0.01,0-0.01
					c0.21-0.51,0.41-0.99,0.6-1.45h0.01c0.46-1.1,0.91-2.06,1.32-2.91c0.08-0.14,0.15-0.29,0.22-0.43c0.15-0.29,0.29-0.55,0.42-0.81
					c0.18-0.32,0.34-0.62,0.49-0.89c0.03-0.05,0.06-0.09,0.08-0.14c0.18-0.31,0.35-0.59,0.49-0.83c0.15-0.24,0.28-0.44,0.39-0.62
					c0.27-0.4,0.43-0.63,0.47-0.68c0.01-0.01,0.01-0.01,0.01-0.01s4.16-0.45,8.93-0.29c0.63,0.01,1.27,0.05,1.92,0.09
					c0.59,0.04,1.24,0.1,1.92,0.18c1.43,0.16,3.02,0.38,4.67,0.65c1.04,0.17,2.09,0.35,3.14,0.54c1.05,0.19,2.09,0.38,3.09,0.58
					c0.18,0.03,0.35,0.07,0.53,0.11c0.01,0,0.01,0,0.01,0c0.79,0.15,1.56,0.31,2.27,0.46c0.49,0.1,0.97,0.21,1.46,0.33
					c0.25,0.06,0.49,0.11,0.73,0.18c0.25,0.05,0.49,0.11,0.73,0.17c0.91,0.23,1.81,0.48,2.66,0.73c0.28,0.08,0.56,0.17,0.83,0.25
					c0.54,0.16,1.06,0.32,1.55,0.48c0.49,0.15,0.94,0.3,1.36,0.44c1.55,0.51,2.58,0.89,2.73,0.94c0,0,0.01,0,0.01,0.01
					C210.921,406.516,210.921,406.516,210.921,406.516z"/>
				<g>
					<path style="fill:#EBB376;" d="M192.827,388.452c0,0,0.315,10.636,1.326,12.215c1.011,1.579,4.658,2.311,4.658,2.311
						s-8.772,4.361-12.87,3.546c-4.098-0.814-6.075-6.179-6.075-6.179s2.867,0.116,3.56-0.28c0.692-0.396-0.544-7.435-0.544-7.435
						L192.827,388.452z"/>
					<path style="opacity:0.2;" d="M183.722,395.276c0,0-0.358,0.525-0.358,0.515c-0.22-1.65-0.48-3.16-0.48-3.16l9.94-4.18
						c0,0,0.26,8.57,1.04,11.47C189.805,400.342,185.101,397.362,183.722,395.276z"/>
				</g>
				<g>
					<path style="fill:#263238;" d="M189.432,370.584c2.719,1.415,6.612,6.016,2.344,7.526
						C187.509,379.62,184.759,368.153,189.432,370.584z"/>
					<path style="fill:#EBB376;" d="M177.338,388.277c2.689,3.023,4.696,5.447,6.801,7.149c1.817,1.468,3.71,2.39,6.189,2.693
						c8.056,0.997,13.18-7.515,9.956-14.546c-0.353-0.766-0.77-1.556-1.258-2.348c-3.502-5.784-10.252-11.851-16.934-9.872
						C174.601,373.568,172.34,382.658,177.338,388.277z"/>
					<path style="fill:#263238;" d="M180.631,387.805l0.324,1.175c0,0,0.979,3.484,3.184,6.446c1.817,1.468,3.71,2.39,6.189,2.693
						c8.056,0.997,13.18-7.515,9.956-14.546c-0.353-0.766-0.77-1.556-1.258-2.348c0,0,0.605,2.812,0.081,4.125
						c0,0-3.004-0.767-4.472,0.461c0,0-3.187-0.87-5.887,2.497C188.747,388.308,184.694,391.154,180.631,387.805z"/>
					<path style="opacity:0.5;fill:#FFFFFF;" d="M180.631,387.805l0.324,1.175c0,0,0.979,3.484,3.184,6.446
						c1.817,1.468,3.71,2.39,6.189,2.693c8.056,0.997,13.18-7.515,9.956-14.546c-0.353-0.766-0.77-1.556-1.258-2.348
						c0,0,0.605,2.812,0.081,4.125c0,0-3.004-0.767-4.472,0.461c0,0-3.187-0.87-5.887,2.497
						C188.747,388.308,184.694,391.154,180.631,387.805z"/>
					<path style="fill:#263238;" d="M168.967,384.537c-3.627-3.043-0.187-7.453,3.611-8.956c0.498-0.197,0.832-0.486,1.041-0.823
						l4.508,6.928c-0.412,0.197-0.818,0.383-1.204,0.532c0,0,5.263,4.667,4.752,9.305
						C174.307,393.558,167.207,389.773,168.967,384.537z"/>
					<path style="fill:#EBB376;" d="M178.925,394.999c1.662,1.149,3.701,1.416,5.331,1.075c0.189-0.04,0.367-0.089,0.523-0.145
						l0.009-0.011c1.518-1.426-2.982-6.457-3.212-6.717c-0.011-0.009-0.011-0.009-0.011-0.009c-1.021-0.25-2.051-0.195-2.894,0.4
						C176.692,390.974,177.022,393.682,178.925,394.999z"/>
					<path style="fill:#263238;" d="M187.555,382.799c0.378,0.482,0.937,0.669,1.25,0.419c0.313-0.25,0.26-0.844-0.117-1.325
						c-0.378-0.482-0.938-0.669-1.25-0.419C187.125,381.724,187.177,382.318,187.555,382.799z"/>
					<path style="fill:#263238;" d="M192.965,378.47c0.378,0.482,0.937,0.669,1.25,0.419c0.313-0.25,0.26-0.844-0.117-1.326
						c-0.378-0.482-0.938-0.669-1.25-0.419C192.535,377.396,192.588,377.989,192.965,378.47z"/>
					<path style="fill:#D58745;" d="M191.433,380.086c0,0,3.213,1.783,5.441,2.114c-0.246,1.421-1.971,2.208-1.971,2.208
						L191.433,380.086z"/>
					<path style="fill:#263238;" d="M185.411,379.076c-0.109,0.061-0.184,0.178-0.185,0.314c-0.017,1.612-1.121,2.345-1.132,2.352
						c-0.167,0.108-0.216,0.332-0.11,0.499c0.106,0.167,0.328,0.215,0.494,0.108c0.059-0.038,1.443-0.957,1.463-2.956
						c0.002-0.2-0.157-0.362-0.354-0.363C185.523,379.03,185.463,379.047,185.411,379.076z"/>
					<path style="fill:#263238;" d="M193.852,374.556c0.055-0.041,0.098-0.098,0.123-0.168c0.066-0.188-0.03-0.395-0.217-0.462
						c-1.868-0.671-3.183,0.333-3.248,0.37c-0.157,0.121-0.188,0.348-0.068,0.507c0.119,0.158,0.342,0.189,0.499,0.07
						c0.053-0.044,1.076-0.804,2.575-0.266C193.634,374.65,193.759,374.626,193.852,374.556z"/>
					<g>
						<path style="fill:#263238;" d="M194.844,390.99c0.184-0.07,0.373-0.163,0.562-0.256l0.489-3.942c0,0-0.234-0.007-0.601,0.012
							c-1.247,0.033-4.013,0.276-4.748,1.692c-0.064,0.131-0.131,0.305-0.187,0.511c-0.143,0.562-0.187,1.339,0.132,1.921
							C190.942,391.772,192.143,392.208,194.844,390.99z"/>
						<path style="fill:#FFFFFF;" d="M190.36,389.007l4.807-1.74l0.128-0.463c-1.247,0.033-4.013,0.276-4.748,1.692
							C190.482,388.627,190.415,388.801,190.36,389.007z"/>
						<path style="fill:#DE5753;" d="M194.844,390.99c-0.848-1.395-3.086-0.677-4.353-0.062
							C190.942,391.772,192.143,392.208,194.844,390.99z"/>
					</g>
					<path style="fill:#263238;" d="M168.967,384.537c-1.475-1.134-3.642-4.211-0.742-7.406c2.9-3.194,6.336-4.777,4.716-7.099
						c-1.62-2.323,1.246-4.297,3.264-2.778c0,0,4.754-7.776,8.131-1.805c0,0,3.313-2.278,5.34,0.168
						c2.027,2.446,2.457,5.069-0.214,6.009c-2.671,0.94-2.925,1.223-2.462,2.769c0.463,1.547-1.859,2.833-1.859,2.833
						s1.436-0.919,0.623-2.028c0,0-0.191,1.972-2.782,2.786c-2.591,0.814-1.393,3.335-1.393,3.335s-1.384,0.542-1.691-1.437
						c0,0-1.08,4.415-3.945,5.513C173.087,386.495,171.198,386.252,168.967,384.537z"/>
				</g>
				<path style="opacity:0.1;" d="M206.771,418.046c-0.48,1.7-0.93,3.43-1.35,5.17c-0.01,0.04-0.02,0.07-0.02,0.11
					c-1.11,0.04-2.23,0.08-3.37,0.12c-0.77,0.03-1.55,0.05-2.33,0.08c-1.85,0.05-3.72,0.1-5.62,0.13c-0.23,0.01-0.46,0.02-0.69,0.02
					c-0.43,0.01-0.86,0.02-1.29,0.02c-0.42,0.01-0.83,0.02-1.25,0.02c1.52-2.91,3.7-4.82,5.02-5.79c0.7-0.52,1.16-0.77,1.16-0.77
					c0.88-0.48,1.78-0.78,2.67-0.93C202.191,415.816,204.681,416.596,206.771,418.046z"/>
			</g>
			<g>
				<path style="fill:#FFB573;" d="M213.481,414.736c-0.05,0.95-0.34,1.9-0.89,2.75c-1.27,1.96-2.56,3.86-3.91,5.7
					c-1.08,0.05-2.17,0.09-3.28,0.14c-1.11,0.04-2.23,0.08-3.37,0.12c-0.77,0.03-1.55,0.05-2.33,0.08c-1.85,0.05-3.72,0.1-5.62,0.13
					c0.11-0.12,0.2-0.24,0.3-0.36c1.8-2.27,3.59-4.66,5.32-7.07c0.49-0.67,0.97-1.35,1.44-2.03c0.69-0.96,1.35-1.92,2.01-2.87
					l0.07-0.1c1.49-2.16,4.22-2.95,6.57-2.09c0.44,0.16,0.87,0.38,1.27,0.66C212.731,410.946,213.581,412.846,213.481,414.736z"/>
				<path style="fill:#407BFF;" d="M214.051,414.766c-0.32,2.3-1.34,5.06-3.39,8.32c-0.66,0.03-1.32,0.07-1.98,0.1
					c-1.08,0.05-2.17,0.09-3.28,0.14c-1.11,0.04-2.23,0.08-3.37,0.12c-0.77,0.03-1.55,0.05-2.33,0.08c-1.85,0.05-3.72,0.1-5.62,0.13
					c-0.23,0.01-0.46,0.02-0.69,0.02c-0.43,0.01-0.86,0.02-1.29,0.02c1.11-1.68,2.48-3.78,3.77-5.77c0.88-1.38,1.72-2.7,2.4-3.82
					c0.26-0.42,0.5-0.82,0.71-1.17c1.32-2.23,2.98-3.69,4.64-4.65h0.01c3.64-2.09,7.27-1.74,7.27-1.74c0.77,0.5,1.52,1.21,2.1,2.16
					C213.901,410.156,214.411,412.166,214.051,414.766z"/>
				<path style="opacity:0.7;fill:#FFFFFF;" d="M214.051,414.766c-0.32,2.3-1.34,5.06-3.39,8.32c-0.66,0.03-1.32,0.07-1.98,0.1
					c-1.08,0.05-2.17,0.09-3.28,0.14c-1.11,0.04-2.23,0.08-3.37,0.12c-0.77,0.03-1.55,0.05-2.33,0.08c-1.85,0.05-3.72,0.1-5.62,0.13
					c-0.23,0.01-0.46,0.02-0.69,0.02c-0.43,0.01-0.86,0.02-1.29,0.02c1.11-1.68,2.48-3.78,3.77-5.77c0.88-1.38,1.72-2.7,2.4-3.82
					c0.26-0.42,0.5-0.82,0.71-1.17c1.32-2.23,2.98-3.69,4.64-4.65h0.01c3.64-2.09,7.27-1.74,7.27-1.74c0.77,0.5,1.52,1.21,2.1,2.16
					C213.901,410.156,214.411,412.166,214.051,414.766z"/>
			</g>
		</g>
	</g>
</g>
</svg>
