<?xml version="1.0" encoding="utf-8"?>
<!-- Generator: Adobe Illustrator 27.5.0, SVG Export Plug-In . SVG Version: 6.00 Build 0)  -->
<svg version="1.1" xmlns="http://www.w3.org/2000/svg" xmlns:xlink="http://www.w3.org/1999/xlink" x="0px" y="0px"
	 viewBox="0 0 500 500" style="enable-background:new 0 0 500 500;" xml:space="preserve">
<g id="Background_Complete">
	<g>
		<rect y="382.398" style="fill:#EBEBEB;" width="500" height="0.25"/>
		<rect x="416.779" y="398.494" style="fill:#EBEBEB;" width="33.122" height="0.25"/>
		<rect x="322.527" y="401.208" style="fill:#EBEBEB;" width="8.693" height="0.25"/>
		<rect x="396.586" y="389.208" style="fill:#EBEBEB;" width="19.192" height="0.25"/>
		<rect x="52.459" y="390.888" style="fill:#EBEBEB;" width="43.193" height="0.25"/>
		<rect x="104.556" y="390.888" style="fill:#EBEBEB;" width="6.333" height="0.25"/>
		<rect x="131.471" y="395.111" style="fill:#EBEBEB;" width="93.676" height="0.25"/>
		<path style="fill:#EBEBEB;" d="M237.014,337.8H43.915c-3.147,0-5.708-2.561-5.708-5.708V60.66c0-3.147,2.561-5.708,5.708-5.708
			h193.099c3.146,0,5.707,2.561,5.707,5.708v271.432C242.721,335.239,240.16,337.8,237.014,337.8z M43.915,55.203
			c-3.01,0-5.458,2.448-5.458,5.458v271.432c0,3.01,2.448,5.458,5.458,5.458h193.099c3.009,0,5.457-2.448,5.457-5.458V60.66
			c0-3.009-2.448-5.458-5.457-5.458H43.915z"/>
		<path style="fill:#EBEBEB;" d="M453.31,337.8H260.212c-3.147,0-5.707-2.561-5.707-5.708V60.66c0-3.147,2.561-5.708,5.707-5.708
			H453.31c3.148,0,5.708,2.561,5.708,5.708v271.432C459.019,335.239,456.458,337.8,453.31,337.8z M260.212,55.203
			c-3.009,0-5.457,2.448-5.457,5.458v271.432c0,3.01,2.448,5.458,5.457,5.458H453.31c3.01,0,5.458-2.448,5.458-5.458V60.66
			c0-3.009-2.448-5.458-5.458-5.458H260.212z"/>
	</g>
	<g>
		<g>
			<path style="fill:#E0E0E0;" d="M174,146V80.851V80v-9H59v1v2v299h15V92.067l54.183-6.077l0.24,0.256l0.247-0.311l26.918-3.019
				l0.303,0.332l0.32-0.402L171,81.187V146h-16v8h34v-8H174z M96.558,76.232l9.019,9.274L86.96,87.594L96.558,76.232z
				 M84.421,85.952L75.66,74h18.856L84.421,85.952z M98.572,74h18.403l-8.881,9.791L98.572,74z M171,75.255v2.913l-2.339,0.262
				L171,75.255z M166.057,76.907L163.374,74h4.824L166.057,76.907z M159.417,74l-3.684,4.628L151.503,74H159.417z M147.553,74
				l-4.451,5.585L138.218,74H147.553z M134.31,74l-6.076,7.658L121.056,74H134.31z M74,76.811l8.289,11.308L74,89.048V76.811z
				 M111.157,84.88l7.861-8.667l6.604,7.045L111.157,84.88z M136.281,76.343l4.555,5.209l-9.537,1.07L136.281,76.343z
				 M145.817,80.993l3.732-4.684l3.536,3.868L145.817,80.993z M161.417,76.303l2.458,2.664l-5.026,0.564L161.417,76.303z"/>
			<path style="fill:#E0E0E0;" d="M140,161h-21v-10h-3v10H96v-19h-4v209h52V148h-4V161z M116,177H96v-11h20V177z M140,177h-21v-11
				h21V177z"/>
		</g>
		<g>
			<polygon style="fill:#EBEBEB;" points="452.97,382.003 452.97,330.838 448.595,330.838 448.595,306.46 442.2,306.46 
				442.2,221.697 432.955,221.697 432.955,210.76 413.217,201.554 413.217,190.526 410.483,190.526 410.483,221.697 
				406.655,221.697 406.655,306.46 402.827,306.46 402.827,261.891 392.436,261.891 392.436,238.923 389.537,238.923 
				389.537,306.46 381.646,306.46 381.646,280.758 376.45,280.758 376.45,274.195 364.42,274.195 364.42,251.774 357.832,251.774 
				357.832,235.915 349.733,235.915 349.733,212.811 346.842,212.811 346.842,235.915 338.744,235.915 338.744,251.774 
				332.155,251.774 332.155,274.195 320.124,274.195 320.124,280.758 314.929,280.758 314.929,306.46 308.768,306.46 
				308.768,274.195 296.737,274.195 296.737,204.745 292.909,204.745 292.909,197.089 267.207,197.089 267.207,204.745 
				261.738,204.745 261.738,255.055 239.864,255.055 239.864,259.977 231.661,259.977 231.661,263.805 239.864,263.805 
				239.864,283.492 216.896,283.492 216.896,217.869 211.974,217.869 211.974,203.924 201.311,203.924 201.311,154.434 
				198.303,154.434 198.303,203.924 190.647,203.924 190.647,217.869 145.763,217.869 145.763,213.279 143.029,213.279 
				143.029,244.45 139.201,244.45 139.201,244.997 136.902,244.997 136.902,276.168 133.074,276.168 133.074,284.644 
				124.983,284.644 124.983,261.676 122.083,261.676 122.083,316.361 118.856,316.361 118.856,293.394 115.956,293.394 
				115.956,329.212 114.192,329.212 114.192,303.51 108.997,303.51 108.997,296.948 96.966,296.948 96.966,274.527 90.378,274.527 
				90.378,258.668 82.279,258.668 82.279,235.564 79.389,235.564 79.389,258.668 71.29,258.668 71.29,274.527 64.702,274.527 
				64.702,296.948 52.671,296.948 52.671,303.51 47.476,303.51 47.476,328.666 46.543,328.666 46.543,329.212 43.971,329.212 
				43.971,382.003 			"/>
			<g>
				<rect x="170.807" y="220.936" style="fill:#F5F5F5;" width="3.099" height="3.099"/>
				<rect x="170.807" y="226.131" style="fill:#F5F5F5;" width="3.099" height="3.099"/>
				<rect x="170.807" y="246.911" style="fill:#F5F5F5;" width="3.099" height="3.099"/>
				<rect x="170.807" y="252.106" style="fill:#F5F5F5;" width="3.099" height="3.099"/>
				<rect x="170.807" y="257.301" style="fill:#F5F5F5;" width="3.099" height="3.099"/>
				<rect x="170.807" y="272.887" style="fill:#F5F5F5;" width="3.099" height="3.099"/>
				<rect x="170.807" y="278.082" style="fill:#F5F5F5;" width="3.099" height="3.099"/>
				<rect x="175.728" y="241.716" style="fill:#F5F5F5;" width="3.099" height="3.099"/>
				<rect x="175.728" y="246.911" style="fill:#F5F5F5;" width="3.099" height="3.099"/>
				<rect x="175.728" y="252.106" style="fill:#F5F5F5;" width="3.099" height="3.099"/>
				<rect x="175.728" y="257.301" style="fill:#F5F5F5;" width="3.099" height="3.099"/>
				<rect x="175.728" y="262.497" style="fill:#F5F5F5;" width="3.099" height="3.099"/>
				<rect x="175.728" y="272.887" style="fill:#F5F5F5;" width="3.099" height="3.099"/>
				<rect x="175.728" y="278.082" style="fill:#F5F5F5;" width="3.099" height="3.099"/>
				<rect x="180.65" y="220.936" style="fill:#F5F5F5;" width="3.099" height="3.099"/>
				<rect x="180.65" y="226.131" style="fill:#F5F5F5;" width="3.099" height="3.099"/>
				<rect x="180.65" y="231.326" style="fill:#F5F5F5;" width="3.099" height="3.099"/>
				<rect x="180.65" y="236.521" style="fill:#F5F5F5;" width="3.099" height="3.099"/>
				<rect x="180.65" y="241.716" style="fill:#F5F5F5;" width="3.099" height="3.099"/>
				<rect x="180.65" y="246.911" style="fill:#F5F5F5;" width="3.099" height="3.099"/>
				<rect x="180.65" y="252.106" style="fill:#F5F5F5;" width="3.099" height="3.099"/>
				<rect x="180.65" y="257.301" style="fill:#F5F5F5;" width="3.099" height="3.099"/>
				<rect x="180.65" y="262.497" style="fill:#F5F5F5;" width="3.099" height="3.099"/>
				<rect x="180.65" y="267.692" style="fill:#F5F5F5;" width="3.099" height="3.099"/>
				<rect x="180.65" y="278.082" style="fill:#F5F5F5;" width="3.099" height="3.099"/>
				<rect x="185.572" y="220.936" style="fill:#F5F5F5;" width="3.099" height="3.099"/>
				<rect x="185.572" y="226.131" style="fill:#F5F5F5;" width="3.099" height="3.099"/>
				<rect x="185.572" y="231.326" style="fill:#F5F5F5;" width="3.099" height="3.099"/>
				<rect x="185.572" y="236.521" style="fill:#F5F5F5;" width="3.099" height="3.099"/>
				<rect x="185.572" y="241.716" style="fill:#F5F5F5;" width="3.099" height="3.099"/>
				<rect x="185.572" y="246.911" style="fill:#F5F5F5;" width="3.099" height="3.099"/>
				<rect x="185.572" y="252.106" style="fill:#F5F5F5;" width="3.099" height="3.099"/>
				<rect x="185.572" y="298.862" style="fill:#F5F5F5;" width="3.099" height="3.099"/>
				<rect x="190.493" y="220.936" style="fill:#F5F5F5;" width="3.099" height="3.099"/>
				<rect x="190.493" y="226.131" style="fill:#F5F5F5;" width="3.099" height="3.099"/>
				<rect x="190.493" y="231.326" style="fill:#F5F5F5;" width="3.099" height="3.099"/>
				<rect x="190.493" y="236.521" style="fill:#F5F5F5;" width="3.099" height="3.099"/>
				<rect x="190.493" y="241.716" style="fill:#F5F5F5;" width="3.099" height="3.099"/>
				<rect x="190.493" y="246.911" style="fill:#F5F5F5;" width="3.099" height="3.099"/>
				<rect x="190.493" y="252.106" style="fill:#F5F5F5;" width="3.099" height="3.099"/>
				<rect x="190.493" y="257.301" style="fill:#F5F5F5;" width="3.099" height="3.099"/>
				<rect x="190.493" y="288.472" style="fill:#F5F5F5;" width="3.099" height="3.099"/>
				<rect x="190.493" y="293.667" style="fill:#F5F5F5;" width="3.099" height="3.099"/>
				<rect x="190.493" y="298.862" style="fill:#F5F5F5;" width="3.099" height="3.099"/>
				<rect x="190.493" y="304.057" style="fill:#F5F5F5;" width="3.099" height="3.099"/>
				<rect x="190.493" y="324.838" style="fill:#F5F5F5;" width="3.099" height="3.099"/>
				<rect x="195.415" y="220.936" style="fill:#F5F5F5;" width="3.099" height="3.099"/>
				<rect x="195.415" y="226.131" style="fill:#F5F5F5;" width="3.099" height="3.099"/>
				<rect x="195.415" y="231.326" style="fill:#F5F5F5;" width="3.099" height="3.099"/>
				<rect x="195.415" y="236.521" style="fill:#F5F5F5;" width="3.099" height="3.099"/>
				<rect x="195.415" y="241.716" style="fill:#F5F5F5;" width="3.099" height="3.099"/>
				<rect x="195.415" y="246.911" style="fill:#F5F5F5;" width="3.099" height="3.099"/>
				<rect x="195.415" y="252.106" style="fill:#F5F5F5;" width="3.099" height="3.099"/>
				<rect x="195.415" y="257.301" style="fill:#F5F5F5;" width="3.099" height="3.099"/>
				<rect x="195.415" y="262.497" style="fill:#F5F5F5;" width="3.099" height="3.099"/>
				<rect x="195.415" y="267.692" style="fill:#F5F5F5;" width="3.099" height="3.099"/>
				<rect x="195.415" y="283.277" style="fill:#F5F5F5;" width="3.099" height="3.099"/>
				<rect x="195.415" y="288.472" style="fill:#F5F5F5;" width="3.099" height="3.099"/>
				<rect x="195.415" y="293.667" style="fill:#F5F5F5;" width="3.099" height="3.099"/>
				<rect x="195.415" y="298.862" style="fill:#F5F5F5;" width="3.099" height="3.099"/>
				<rect x="195.415" y="304.057" style="fill:#F5F5F5;" width="3.099" height="3.099"/>
				<rect x="195.415" y="324.838" style="fill:#F5F5F5;" width="3.099" height="3.099"/>
				<rect x="200.337" y="220.936" style="fill:#F5F5F5;" width="3.099" height="3.099"/>
				<rect x="200.337" y="226.131" style="fill:#F5F5F5;" width="3.099" height="3.099"/>
				<rect x="200.337" y="231.326" style="fill:#F5F5F5;" width="3.099" height="3.099"/>
				<rect x="200.337" y="236.521" style="fill:#F5F5F5;" width="3.099" height="3.099"/>
				<rect x="200.337" y="241.716" style="fill:#F5F5F5;" width="3.099" height="3.099"/>
				<rect x="200.337" y="246.911" style="fill:#F5F5F5;" width="3.099" height="3.099"/>
				<rect x="200.337" y="252.106" style="fill:#F5F5F5;" width="3.099" height="3.099"/>
				<rect x="200.337" y="257.301" style="fill:#F5F5F5;" width="3.099" height="3.099"/>
				<rect x="200.337" y="262.497" style="fill:#F5F5F5;" width="3.099" height="3.099"/>
				<rect x="200.337" y="267.692" style="fill:#F5F5F5;" width="3.099" height="3.099"/>
				<rect x="200.337" y="272.887" style="fill:#F5F5F5;" width="3.099" height="3.099"/>
				<rect x="200.337" y="278.082" style="fill:#F5F5F5;" width="3.099" height="3.099"/>
				<rect x="200.337" y="283.277" style="fill:#F5F5F5;" width="3.099" height="3.099"/>
				<rect x="200.337" y="288.472" style="fill:#F5F5F5;" width="3.099" height="3.099"/>
				<rect x="200.337" y="293.667" style="fill:#F5F5F5;" width="3.099" height="3.099"/>
				<rect x="200.337" y="298.862" style="fill:#F5F5F5;" width="3.099" height="3.099"/>
				<rect x="200.337" y="304.057" style="fill:#F5F5F5;" width="3.099" height="3.099"/>
				<rect x="200.337" y="309.253" style="fill:#F5F5F5;" width="3.099" height="3.099"/>
				<rect x="205.258" y="220.936" style="fill:#F5F5F5;" width="3.099" height="3.099"/>
				<rect x="205.258" y="226.131" style="fill:#F5F5F5;" width="3.099" height="3.099"/>
				<rect x="205.258" y="231.326" style="fill:#F5F5F5;" width="3.099" height="3.099"/>
				<rect x="205.258" y="236.521" style="fill:#F5F5F5;" width="3.099" height="3.099"/>
				<rect x="205.258" y="241.716" style="fill:#F5F5F5;" width="3.099" height="3.099"/>
				<rect x="205.258" y="246.911" style="fill:#F5F5F5;" width="3.099" height="3.099"/>
				<rect x="205.258" y="252.106" style="fill:#F5F5F5;" width="3.099" height="3.099"/>
				<rect x="205.258" y="257.301" style="fill:#F5F5F5;" width="3.099" height="3.099"/>
				<rect x="205.258" y="262.497" style="fill:#F5F5F5;" width="3.099" height="3.099"/>
				<rect x="205.258" y="267.692" style="fill:#F5F5F5;" width="3.099" height="3.099"/>
				<rect x="205.258" y="283.277" style="fill:#F5F5F5;" width="3.099" height="3.099"/>
				<rect x="205.258" y="288.472" style="fill:#F5F5F5;" width="3.099" height="3.099"/>
				<rect x="205.258" y="293.667" style="fill:#F5F5F5;" width="3.099" height="3.099"/>
				<rect x="205.258" y="298.862" style="fill:#F5F5F5;" width="3.099" height="3.099"/>
				<rect x="210.18" y="220.936" style="fill:#F5F5F5;" width="3.099" height="3.099"/>
				<rect x="210.18" y="226.131" style="fill:#F5F5F5;" width="3.099" height="3.099"/>
				<rect x="210.18" y="231.326" style="fill:#F5F5F5;" width="3.099" height="3.099"/>
				<rect x="210.18" y="236.521" style="fill:#F5F5F5;" width="3.099" height="3.099"/>
				<rect x="210.18" y="241.716" style="fill:#F5F5F5;" width="3.099" height="3.099"/>
				<rect x="210.18" y="246.911" style="fill:#F5F5F5;" width="3.099" height="3.099"/>
				<rect x="210.18" y="252.106" style="fill:#F5F5F5;" width="3.099" height="3.099"/>
				<rect x="210.18" y="257.301" style="fill:#F5F5F5;" width="3.099" height="3.099"/>
				<rect x="210.18" y="262.497" style="fill:#F5F5F5;" width="3.099" height="3.099"/>
				<rect x="210.18" y="267.692" style="fill:#F5F5F5;" width="3.099" height="3.099"/>
				<rect x="210.18" y="283.277" style="fill:#F5F5F5;" width="3.099" height="3.099"/>
				<rect x="210.18" y="288.472" style="fill:#F5F5F5;" width="3.099" height="3.099"/>
				<rect x="210.18" y="293.667" style="fill:#F5F5F5;" width="3.099" height="3.099"/>
				<rect x="265.595" y="207.447" style="fill:#F5F5F5;" width="3.099" height="3.099"/>
				<rect x="265.595" y="212.642" style="fill:#F5F5F5;" width="3.099" height="3.099"/>
				<rect x="265.595" y="217.837" style="fill:#F5F5F5;" width="3.099" height="3.099"/>
				<rect x="265.595" y="223.032" style="fill:#F5F5F5;" width="3.099" height="3.099"/>
				<rect x="265.595" y="228.227" style="fill:#F5F5F5;" width="3.099" height="3.099"/>
				<rect x="265.595" y="233.422" style="fill:#F5F5F5;" width="3.099" height="3.099"/>
				<rect x="265.595" y="238.617" style="fill:#F5F5F5;" width="3.099" height="3.099"/>
				<rect x="265.595" y="243.812" style="fill:#F5F5F5;" width="3.099" height="3.099"/>
				<rect x="265.595" y="259.398" style="fill:#F5F5F5;" width="3.099" height="3.099"/>
				<rect x="265.595" y="264.593" style="fill:#F5F5F5;" width="3.099" height="3.099"/>
				<rect x="270.516" y="207.447" style="fill:#F5F5F5;" width="3.099" height="3.099"/>
				<rect x="270.516" y="212.642" style="fill:#F5F5F5;" width="3.099" height="3.099"/>
				<rect x="270.516" y="217.837" style="fill:#F5F5F5;" width="3.099" height="3.099"/>
				<rect x="270.516" y="223.032" style="fill:#F5F5F5;" width="3.099" height="3.099"/>
				<rect x="270.516" y="228.227" style="fill:#F5F5F5;" width="3.099" height="3.099"/>
				<rect x="270.516" y="233.422" style="fill:#F5F5F5;" width="3.099" height="3.099"/>
				<rect x="270.516" y="238.617" style="fill:#F5F5F5;" width="3.099" height="3.099"/>
				<rect x="270.516" y="243.812" style="fill:#F5F5F5;" width="3.099" height="3.099"/>
				<rect x="270.516" y="264.593" style="fill:#F5F5F5;" width="3.099" height="3.099"/>
				<rect x="275.438" y="207.447" style="fill:#F5F5F5;" width="3.099" height="3.099"/>
				<rect x="275.438" y="212.642" style="fill:#F5F5F5;" width="3.099" height="3.099"/>
				<rect x="275.438" y="217.837" style="fill:#F5F5F5;" width="3.099" height="3.099"/>
				<rect x="275.438" y="223.032" style="fill:#F5F5F5;" width="3.099" height="3.099"/>
				<rect x="275.438" y="228.227" style="fill:#F5F5F5;" width="3.099" height="3.099"/>
				<rect x="275.438" y="233.422" style="fill:#F5F5F5;" width="3.099" height="3.099"/>
				<rect x="275.438" y="238.617" style="fill:#F5F5F5;" width="3.099" height="3.099"/>
				<rect x="275.438" y="243.812" style="fill:#F5F5F5;" width="3.099" height="3.099"/>
				<rect x="280.36" y="207.447" style="fill:#F5F5F5;" width="3.099" height="3.099"/>
				<rect x="280.36" y="212.642" style="fill:#F5F5F5;" width="3.099" height="3.099"/>
				<rect x="280.36" y="217.837" style="fill:#F5F5F5;" width="3.099" height="3.099"/>
				<rect x="280.36" y="223.032" style="fill:#F5F5F5;" width="3.099" height="3.099"/>
				<rect x="280.36" y="228.227" style="fill:#F5F5F5;" width="3.099" height="3.099"/>
				<rect x="280.36" y="233.422" style="fill:#F5F5F5;" width="3.099" height="3.099"/>
				<rect x="280.36" y="243.812" style="fill:#F5F5F5;" width="3.099" height="3.099"/>
				<rect x="280.36" y="249.008" style="fill:#F5F5F5;" width="3.099" height="3.099"/>
				<rect x="280.36" y="264.593" style="fill:#F5F5F5;" width="3.099" height="3.099"/>
				<rect x="280.36" y="269.788" style="fill:#F5F5F5;" width="3.099" height="3.099"/>
				<rect x="280.36" y="274.983" style="fill:#F5F5F5;" width="3.099" height="3.099"/>
				<rect x="280.36" y="280.178" style="fill:#F5F5F5;" width="3.099" height="3.099"/>
				<rect x="280.36" y="285.373" style="fill:#F5F5F5;" width="3.099" height="3.099"/>
				<rect x="280.36" y="290.569" style="fill:#F5F5F5;" width="3.099" height="3.099"/>
				<rect x="280.36" y="295.764" style="fill:#F5F5F5;" width="3.099" height="3.099"/>
				<rect x="285.281" y="207.447" style="fill:#F5F5F5;" width="3.099" height="3.099"/>
				<rect x="285.281" y="212.642" style="fill:#F5F5F5;" width="3.099" height="3.099"/>
				<rect x="285.281" y="217.837" style="fill:#F5F5F5;" width="3.099" height="3.099"/>
				<rect x="285.281" y="223.032" style="fill:#F5F5F5;" width="3.099" height="3.099"/>
				<rect x="285.281" y="228.227" style="fill:#F5F5F5;" width="3.099" height="3.099"/>
				<rect x="285.281" y="233.422" style="fill:#F5F5F5;" width="3.099" height="3.099"/>
				<rect x="285.281" y="249.008" style="fill:#F5F5F5;" width="3.099" height="3.099"/>
				<rect x="285.281" y="254.203" style="fill:#F5F5F5;" width="3.099" height="3.099"/>
				<rect x="285.281" y="259.398" style="fill:#F5F5F5;" width="3.099" height="3.099"/>
				<rect x="285.281" y="264.593" style="fill:#F5F5F5;" width="3.099" height="3.099"/>
				<rect x="285.281" y="269.788" style="fill:#F5F5F5;" width="3.099" height="3.099"/>
				<rect x="285.281" y="274.983" style="fill:#F5F5F5;" width="3.099" height="3.099"/>
				<rect x="285.281" y="280.178" style="fill:#F5F5F5;" width="3.099" height="3.099"/>
				<rect x="285.281" y="285.373" style="fill:#F5F5F5;" width="3.099" height="3.099"/>
				<rect x="285.281" y="290.569" style="fill:#F5F5F5;" width="3.099" height="3.099"/>
				<rect x="285.281" y="295.764" style="fill:#F5F5F5;" width="3.099" height="3.099"/>
				<rect x="285.281" y="300.959" style="fill:#F5F5F5;" width="3.099" height="3.099"/>
				<rect x="285.281" y="311.349" style="fill:#F5F5F5;" width="3.099" height="3.099"/>
				<rect x="290.203" y="207.447" style="fill:#F5F5F5;" width="3.099" height="3.099"/>
				<rect x="290.203" y="212.642" style="fill:#F5F5F5;" width="3.099" height="3.099"/>
				<rect x="290.203" y="217.837" style="fill:#F5F5F5;" width="3.099" height="3.099"/>
				<rect x="290.203" y="223.032" style="fill:#F5F5F5;" width="3.099" height="3.099"/>
				<rect x="290.203" y="228.227" style="fill:#F5F5F5;" width="3.099" height="3.099"/>
				<rect x="290.203" y="233.422" style="fill:#F5F5F5;" width="3.099" height="3.099"/>
				<rect x="290.203" y="249.008" style="fill:#F5F5F5;" width="3.099" height="3.099"/>
				<rect x="290.203" y="254.203" style="fill:#F5F5F5;" width="3.099" height="3.099"/>
				<rect x="290.203" y="259.398" style="fill:#F5F5F5;" width="3.099" height="3.099"/>
				<rect x="290.203" y="264.593" style="fill:#F5F5F5;" width="3.099" height="3.099"/>
				<rect x="290.203" y="280.178" style="fill:#F5F5F5;" width="3.099" height="3.099"/>
				<rect x="290.203" y="285.373" style="fill:#F5F5F5;" width="3.099" height="3.099"/>
				<rect x="290.203" y="290.569" style="fill:#F5F5F5;" width="3.099" height="3.099"/>
				<rect x="290.203" y="295.764" style="fill:#F5F5F5;" width="3.099" height="3.099"/>
				<rect x="290.203" y="300.959" style="fill:#F5F5F5;" width="3.099" height="3.099"/>
				<rect x="290.203" y="311.349" style="fill:#F5F5F5;" width="3.099" height="3.099"/>
				<rect x="290.203" y="316.544" style="fill:#F5F5F5;" width="3.099" height="3.099"/>
				<rect x="334.863" y="255.752" style="fill:#F5F5F5;" width="3.099" height="3.099"/>
				<rect x="334.863" y="260.947" style="fill:#F5F5F5;" width="3.099" height="3.099"/>
				<rect x="334.863" y="266.142" style="fill:#F5F5F5;" width="3.099" height="3.099"/>
				<rect x="334.863" y="271.337" style="fill:#F5F5F5;" width="3.099" height="3.099"/>
				<rect x="334.863" y="276.533" style="fill:#F5F5F5;" width="3.099" height="3.099"/>
				<rect x="334.863" y="281.728" style="fill:#F5F5F5;" width="3.099" height="3.099"/>
				<rect x="334.863" y="286.923" style="fill:#F5F5F5;" width="3.099" height="3.099"/>
				<rect x="334.863" y="302.508" style="fill:#F5F5F5;" width="3.099" height="3.099"/>
				<rect x="334.863" y="307.703" style="fill:#F5F5F5;" width="3.099" height="3.099"/>
				<rect x="334.863" y="312.898" style="fill:#F5F5F5;" width="3.099" height="3.099"/>
				<rect x="339.785" y="255.752" style="fill:#F5F5F5;" width="3.099" height="3.099"/>
				<rect x="339.785" y="260.947" style="fill:#F5F5F5;" width="3.099" height="3.099"/>
				<rect x="339.785" y="266.142" style="fill:#F5F5F5;" width="3.099" height="3.099"/>
				<rect x="339.785" y="271.337" style="fill:#F5F5F5;" width="3.099" height="3.099"/>
				<rect x="339.785" y="276.533" style="fill:#F5F5F5;" width="3.099" height="3.099"/>
				<rect x="339.785" y="281.728" style="fill:#F5F5F5;" width="3.099" height="3.099"/>
				<rect x="339.785" y="286.923" style="fill:#F5F5F5;" width="3.099" height="3.099"/>
				<rect x="344.707" y="255.752" style="fill:#F5F5F5;" width="3.099" height="3.099"/>
				<rect x="344.707" y="260.947" style="fill:#F5F5F5;" width="3.099" height="3.099"/>
				<rect x="344.707" y="266.142" style="fill:#F5F5F5;" width="3.099" height="3.099"/>
				<rect x="344.707" y="271.337" style="fill:#F5F5F5;" width="3.099" height="3.099"/>
				<rect x="344.707" y="276.533" style="fill:#F5F5F5;" width="3.099" height="3.099"/>
				<rect x="344.707" y="281.728" style="fill:#F5F5F5;" width="3.099" height="3.099"/>
				<rect x="344.707" y="286.923" style="fill:#F5F5F5;" width="3.099" height="3.099"/>
				<rect x="349.628" y="255.752" style="fill:#F5F5F5;" width="3.099" height="3.099"/>
				<rect x="349.628" y="260.947" style="fill:#F5F5F5;" width="3.099" height="3.099"/>
				<rect x="349.628" y="266.142" style="fill:#F5F5F5;" width="3.099" height="3.099"/>
				<rect x="349.628" y="271.337" style="fill:#F5F5F5;" width="3.099" height="3.099"/>
				<rect x="349.628" y="276.533" style="fill:#F5F5F5;" width="3.099" height="3.099"/>
				<rect x="349.628" y="281.728" style="fill:#F5F5F5;" width="3.099" height="3.099"/>
				<rect x="349.628" y="286.923" style="fill:#F5F5F5;" width="3.099" height="3.099"/>
				<rect x="349.628" y="292.118" style="fill:#F5F5F5;" width="3.099" height="3.099"/>
				<rect x="349.628" y="297.313" style="fill:#F5F5F5;" width="3.099" height="3.099"/>
				<rect x="349.628" y="302.508" style="fill:#F5F5F5;" width="3.099" height="3.099"/>
				<rect x="349.628" y="307.703" style="fill:#F5F5F5;" width="3.099" height="3.099"/>
				<rect x="354.55" y="255.752" style="fill:#F5F5F5;" width="3.099" height="3.099"/>
				<rect x="354.55" y="260.947" style="fill:#F5F5F5;" width="3.099" height="3.099"/>
				<rect x="354.55" y="266.142" style="fill:#F5F5F5;" width="3.099" height="3.099"/>
				<rect x="354.55" y="271.337" style="fill:#F5F5F5;" width="3.099" height="3.099"/>
				<rect x="354.55" y="276.533" style="fill:#F5F5F5;" width="3.099" height="3.099"/>
				<rect x="354.55" y="281.728" style="fill:#F5F5F5;" width="3.099" height="3.099"/>
				<rect x="354.55" y="286.923" style="fill:#F5F5F5;" width="3.099" height="3.099"/>
				<rect x="354.55" y="292.118" style="fill:#F5F5F5;" width="3.099" height="3.099"/>
				<rect x="354.55" y="297.313" style="fill:#F5F5F5;" width="3.099" height="3.099"/>
				<rect x="354.55" y="302.508" style="fill:#F5F5F5;" width="3.099" height="3.099"/>
				<rect x="354.55" y="307.703" style="fill:#F5F5F5;" width="3.099" height="3.099"/>
				<rect x="354.55" y="312.898" style="fill:#F5F5F5;" width="3.099" height="3.099"/>
				<rect x="354.55" y="328.484" style="fill:#F5F5F5;" width="3.099" height="3.099"/>
				<rect x="354.55" y="333.679" style="fill:#F5F5F5;" width="3.099" height="3.099"/>
				<rect x="359.471" y="255.752" style="fill:#F5F5F5;" width="3.099" height="3.099"/>
				<rect x="359.471" y="260.947" style="fill:#F5F5F5;" width="3.099" height="3.099"/>
				<rect x="359.471" y="266.142" style="fill:#F5F5F5;" width="3.099" height="3.099"/>
				<rect x="359.471" y="281.728" style="fill:#F5F5F5;" width="3.099" height="3.099"/>
				<rect x="359.471" y="286.923" style="fill:#F5F5F5;" width="3.099" height="3.099"/>
				<rect x="359.471" y="292.118" style="fill:#F5F5F5;" width="3.099" height="3.099"/>
				<rect x="359.471" y="297.313" style="fill:#F5F5F5;" width="3.099" height="3.099"/>
				<rect x="359.471" y="302.508" style="fill:#F5F5F5;" width="3.099" height="3.099"/>
				<rect x="359.471" y="307.703" style="fill:#F5F5F5;" width="3.099" height="3.099"/>
				<rect x="359.471" y="312.898" style="fill:#F5F5F5;" width="3.099" height="3.099"/>
				<rect x="359.471" y="328.484" style="fill:#F5F5F5;" width="3.099" height="3.099"/>
				<rect x="359.471" y="333.679" style="fill:#F5F5F5;" width="3.099" height="3.099"/>
				<rect x="359.471" y="338.874" style="fill:#F5F5F5;" width="3.099" height="3.099"/>
				<rect x="411.058" y="224.581" style="fill:#F5F5F5;" width="3.099" height="3.099"/>
				<rect x="411.058" y="229.777" style="fill:#F5F5F5;" width="3.099" height="3.099"/>
				<rect x="411.058" y="234.972" style="fill:#F5F5F5;" width="3.099" height="3.099"/>
				<rect x="411.058" y="240.167" style="fill:#F5F5F5;" width="3.099" height="3.099"/>
				<rect x="411.058" y="245.362" style="fill:#F5F5F5;" width="3.099" height="3.099"/>
				<rect x="411.058" y="250.557" style="fill:#F5F5F5;" width="3.099" height="3.099"/>
				<rect x="411.058" y="255.752" style="fill:#F5F5F5;" width="3.099" height="3.099"/>
				<rect x="411.058" y="260.947" style="fill:#F5F5F5;" width="3.099" height="3.099"/>
				<rect x="411.058" y="266.142" style="fill:#F5F5F5;" width="3.099" height="3.099"/>
				<rect x="411.058" y="271.337" style="fill:#F5F5F5;" width="3.099" height="3.099"/>
				<rect x="411.058" y="276.533" style="fill:#F5F5F5;" width="3.099" height="3.099"/>
				<rect x="411.058" y="281.728" style="fill:#F5F5F5;" width="3.099" height="3.099"/>
				<rect x="411.058" y="286.923" style="fill:#F5F5F5;" width="3.099" height="3.099"/>
				<rect x="411.058" y="292.118" style="fill:#F5F5F5;" width="3.099" height="3.099"/>
				<rect x="411.058" y="297.313" style="fill:#F5F5F5;" width="3.099" height="3.099"/>
				<rect x="411.058" y="302.508" style="fill:#F5F5F5;" width="3.099" height="3.099"/>
				<rect x="411.058" y="307.703" style="fill:#F5F5F5;" width="3.099" height="3.099"/>
				<rect x="411.058" y="312.898" style="fill:#F5F5F5;" width="3.099" height="3.099"/>
				<rect x="411.058" y="318.094" style="fill:#F5F5F5;" width="3.099" height="3.099"/>
				<rect x="411.058" y="323.289" style="fill:#F5F5F5;" width="3.099" height="3.099"/>
				<rect x="411.058" y="328.484" style="fill:#F5F5F5;" width="3.099" height="3.099"/>
				<rect x="411.058" y="333.679" style="fill:#F5F5F5;" width="3.099" height="3.099"/>
				<rect x="411.058" y="338.874" style="fill:#F5F5F5;" width="3.099" height="3.099"/>
				<rect x="415.98" y="224.581" style="fill:#F5F5F5;" width="3.099" height="3.099"/>
				<rect x="415.98" y="229.777" style="fill:#F5F5F5;" width="3.099" height="3.099"/>
				<rect x="415.98" y="234.972" style="fill:#F5F5F5;" width="3.099" height="3.099"/>
				<rect x="415.98" y="240.167" style="fill:#F5F5F5;" width="3.099" height="3.099"/>
				<rect x="415.98" y="245.362" style="fill:#F5F5F5;" width="3.099" height="3.099"/>
				<rect x="415.98" y="250.557" style="fill:#F5F5F5;" width="3.099" height="3.099"/>
				<rect x="415.98" y="255.752" style="fill:#F5F5F5;" width="3.099" height="3.099"/>
				<rect x="415.98" y="260.947" style="fill:#F5F5F5;" width="3.099" height="3.099"/>
				<rect x="415.98" y="266.142" style="fill:#F5F5F5;" width="3.099" height="3.099"/>
				<rect x="415.98" y="271.337" style="fill:#F5F5F5;" width="3.099" height="3.099"/>
				<rect x="415.98" y="276.533" style="fill:#F5F5F5;" width="3.099" height="3.099"/>
				<rect x="415.98" y="281.728" style="fill:#F5F5F5;" width="3.099" height="3.099"/>
				<rect x="415.98" y="286.923" style="fill:#F5F5F5;" width="3.099" height="3.099"/>
				<rect x="415.98" y="292.118" style="fill:#F5F5F5;" width="3.099" height="3.099"/>
				<rect x="415.98" y="297.313" style="fill:#F5F5F5;" width="3.099" height="3.099"/>
				<rect x="415.98" y="302.508" style="fill:#F5F5F5;" width="3.099" height="3.099"/>
				<rect x="415.98" y="307.703" style="fill:#F5F5F5;" width="3.099" height="3.099"/>
				<rect x="415.98" y="312.898" style="fill:#F5F5F5;" width="3.099" height="3.099"/>
				<rect x="415.98" y="318.094" style="fill:#F5F5F5;" width="3.099" height="3.099"/>
				<rect x="420.901" y="224.581" style="fill:#F5F5F5;" width="3.099" height="3.099"/>
				<rect x="420.901" y="229.777" style="fill:#F5F5F5;" width="3.099" height="3.099"/>
				<rect x="420.901" y="234.972" style="fill:#F5F5F5;" width="3.099" height="3.099"/>
				<rect x="420.901" y="240.167" style="fill:#F5F5F5;" width="3.099" height="3.099"/>
				<rect x="420.901" y="245.362" style="fill:#F5F5F5;" width="3.099" height="3.099"/>
				<rect x="420.901" y="250.557" style="fill:#F5F5F5;" width="3.099" height="3.099"/>
				<rect x="420.901" y="255.752" style="fill:#F5F5F5;" width="3.099" height="3.099"/>
				<rect x="420.901" y="260.947" style="fill:#F5F5F5;" width="3.099" height="3.099"/>
				<rect x="420.901" y="266.142" style="fill:#F5F5F5;" width="3.099" height="3.099"/>
				<rect x="420.901" y="271.337" style="fill:#F5F5F5;" width="3.099" height="3.099"/>
				<rect x="420.901" y="276.533" style="fill:#F5F5F5;" width="3.099" height="3.099"/>
				<rect x="420.901" y="281.728" style="fill:#F5F5F5;" width="3.099" height="3.099"/>
				<rect x="420.901" y="286.923" style="fill:#F5F5F5;" width="3.099" height="3.099"/>
				<rect x="420.901" y="292.118" style="fill:#F5F5F5;" width="3.099" height="3.099"/>
				<rect x="420.901" y="297.313" style="fill:#F5F5F5;" width="3.099" height="3.099"/>
				<rect x="420.901" y="302.508" style="fill:#F5F5F5;" width="3.099" height="3.099"/>
				<rect x="420.901" y="307.703" style="fill:#F5F5F5;" width="3.099" height="3.099"/>
				<rect x="420.901" y="312.898" style="fill:#F5F5F5;" width="3.099" height="3.099"/>
				<rect x="420.901" y="318.094" style="fill:#F5F5F5;" width="3.099" height="3.099"/>
				<rect x="425.823" y="224.581" style="fill:#F5F5F5;" width="3.099" height="3.099"/>
				<rect x="425.823" y="229.777" style="fill:#F5F5F5;" width="3.099" height="3.099"/>
				<rect x="425.823" y="234.972" style="fill:#F5F5F5;" width="3.099" height="3.099"/>
				<rect x="425.823" y="240.167" style="fill:#F5F5F5;" width="3.099" height="3.099"/>
				<rect x="425.823" y="245.362" style="fill:#F5F5F5;" width="3.099" height="3.099"/>
				<rect x="425.823" y="250.557" style="fill:#F5F5F5;" width="3.099" height="3.099"/>
				<rect x="425.823" y="255.752" style="fill:#F5F5F5;" width="3.099" height="3.099"/>
				<rect x="425.823" y="260.947" style="fill:#F5F5F5;" width="3.099" height="3.099"/>
				<rect x="425.823" y="266.142" style="fill:#F5F5F5;" width="3.099" height="3.099"/>
				<rect x="425.823" y="271.337" style="fill:#F5F5F5;" width="3.099" height="3.099"/>
				<rect x="425.823" y="276.533" style="fill:#F5F5F5;" width="3.099" height="3.099"/>
				<rect x="425.823" y="281.728" style="fill:#F5F5F5;" width="3.099" height="3.099"/>
				<rect x="425.823" y="286.923" style="fill:#F5F5F5;" width="3.099" height="3.099"/>
				<rect x="425.823" y="292.118" style="fill:#F5F5F5;" width="3.099" height="3.099"/>
				<rect x="425.823" y="297.313" style="fill:#F5F5F5;" width="3.099" height="3.099"/>
				<rect x="430.745" y="224.581" style="fill:#F5F5F5;" width="3.099" height="3.099"/>
				<rect x="430.745" y="229.777" style="fill:#F5F5F5;" width="3.099" height="3.099"/>
				<rect x="430.745" y="234.972" style="fill:#F5F5F5;" width="3.099" height="3.099"/>
				<rect x="430.745" y="240.167" style="fill:#F5F5F5;" width="3.099" height="3.099"/>
				<rect x="430.745" y="245.362" style="fill:#F5F5F5;" width="3.099" height="3.099"/>
				<rect x="430.745" y="250.557" style="fill:#F5F5F5;" width="3.099" height="3.099"/>
				<rect x="430.745" y="255.752" style="fill:#F5F5F5;" width="3.099" height="3.099"/>
				<rect x="430.745" y="260.947" style="fill:#F5F5F5;" width="3.099" height="3.099"/>
				<rect x="430.745" y="266.142" style="fill:#F5F5F5;" width="3.099" height="3.099"/>
				<rect x="430.745" y="271.337" style="fill:#F5F5F5;" width="3.099" height="3.099"/>
				<rect x="430.745" y="276.533" style="fill:#F5F5F5;" width="3.099" height="3.099"/>
				<rect x="430.745" y="281.728" style="fill:#F5F5F5;" width="3.099" height="3.099"/>
				<rect x="430.745" y="286.923" style="fill:#F5F5F5;" width="3.099" height="3.099"/>
				<rect x="435.667" y="224.581" style="fill:#F5F5F5;" width="3.099" height="3.099"/>
				<rect x="435.667" y="229.777" style="fill:#F5F5F5;" width="3.099" height="3.099"/>
				<rect x="435.667" y="234.972" style="fill:#F5F5F5;" width="3.099" height="3.099"/>
				<rect x="435.667" y="240.167" style="fill:#F5F5F5;" width="3.099" height="3.099"/>
				<rect x="435.667" y="245.362" style="fill:#F5F5F5;" width="3.099" height="3.099"/>
				<rect x="435.667" y="250.557" style="fill:#F5F5F5;" width="3.099" height="3.099"/>
				<rect x="435.667" y="255.752" style="fill:#F5F5F5;" width="3.099" height="3.099"/>
				<rect x="435.667" y="260.947" style="fill:#F5F5F5;" width="3.099" height="3.099"/>
				<rect x="435.667" y="266.142" style="fill:#F5F5F5;" width="3.099" height="3.099"/>
				<rect x="435.667" y="271.337" style="fill:#F5F5F5;" width="3.099" height="3.099"/>
				<rect x="435.667" y="276.533" style="fill:#F5F5F5;" width="3.099" height="3.099"/>
				<rect x="435.667" y="281.728" style="fill:#F5F5F5;" width="3.099" height="3.099"/>
				<rect x="74.013" y="262.497" style="fill:#F5F5F5;" width="3.099" height="3.099"/>
				<rect x="74.013" y="267.692" style="fill:#F5F5F5;" width="3.099" height="3.099"/>
				<rect x="74.013" y="272.887" style="fill:#F5F5F5;" width="3.099" height="3.099"/>
				<rect x="74.013" y="278.082" style="fill:#F5F5F5;" width="3.099" height="3.099"/>
				<rect x="74.013" y="283.277" style="fill:#F5F5F5;" width="3.099" height="3.099"/>
				<rect x="74.013" y="288.472" style="fill:#F5F5F5;" width="3.099" height="3.099"/>
				<rect x="74.013" y="293.667" style="fill:#F5F5F5;" width="3.099" height="3.099"/>
				<rect x="74.013" y="298.862" style="fill:#F5F5F5;" width="3.099" height="3.099"/>
				<rect x="74.013" y="304.057" style="fill:#F5F5F5;" width="3.099" height="3.099"/>
				<rect x="74.013" y="309.253" style="fill:#F5F5F5;" width="3.099" height="3.099"/>
				<rect x="74.013" y="314.448" style="fill:#F5F5F5;" width="3.099" height="3.099"/>
				<rect x="74.013" y="319.643" style="fill:#F5F5F5;" width="3.099" height="3.099"/>
				<rect x="74.013" y="324.838" style="fill:#F5F5F5;" width="3.099" height="3.099"/>
				<rect x="74.013" y="330.033" style="fill:#F5F5F5;" width="3.099" height="3.099"/>
				<rect x="74.013" y="335.228" style="fill:#F5F5F5;" width="3.099" height="3.099"/>
				<rect x="74.013" y="340.423" style="fill:#F5F5F5;" width="3.099" height="3.099"/>
				<rect x="74.013" y="345.618" style="fill:#F5F5F5;" width="3.099" height="3.099"/>
				<rect x="74.013" y="350.814" style="fill:#F5F5F5;" width="3.099" height="3.099"/>
				<rect x="74.013" y="356.009" style="fill:#F5F5F5;" width="3.099" height="3.099"/>
				<rect x="74.013" y="361.204" style="fill:#F5F5F5;" width="3.099" height="3.099"/>
				<rect x="78.935" y="262.497" style="fill:#F5F5F5;" width="3.099" height="3.099"/>
				<rect x="78.935" y="267.692" style="fill:#F5F5F5;" width="3.099" height="3.099"/>
				<rect x="78.935" y="272.887" style="fill:#F5F5F5;" width="3.099" height="3.099"/>
				<rect x="78.935" y="278.082" style="fill:#F5F5F5;" width="3.099" height="3.099"/>
				<rect x="78.935" y="283.277" style="fill:#F5F5F5;" width="3.099" height="3.099"/>
				<rect x="78.935" y="288.472" style="fill:#F5F5F5;" width="3.099" height="3.099"/>
				<rect x="78.935" y="293.667" style="fill:#F5F5F5;" width="3.099" height="3.099"/>
				<rect x="78.935" y="298.862" style="fill:#F5F5F5;" width="3.099" height="3.099"/>
				<rect x="78.935" y="304.057" style="fill:#F5F5F5;" width="3.099" height="3.099"/>
				<rect x="78.935" y="309.253" style="fill:#F5F5F5;" width="3.099" height="3.099"/>
				<rect x="78.935" y="314.448" style="fill:#F5F5F5;" width="3.099" height="3.099"/>
				<rect x="78.935" y="319.643" style="fill:#F5F5F5;" width="3.099" height="3.099"/>
				<rect x="78.935" y="324.838" style="fill:#F5F5F5;" width="3.099" height="3.099"/>
				<rect x="78.935" y="330.033" style="fill:#F5F5F5;" width="3.099" height="3.099"/>
				<rect x="78.935" y="335.228" style="fill:#F5F5F5;" width="3.099" height="3.099"/>
				<rect x="78.935" y="340.423" style="fill:#F5F5F5;" width="3.099" height="3.099"/>
				<rect x="78.935" y="345.618" style="fill:#F5F5F5;" width="3.099" height="3.099"/>
				<rect x="78.935" y="350.814" style="fill:#F5F5F5;" width="3.099" height="3.099"/>
				<rect x="83.857" y="262.497" style="fill:#F5F5F5;" width="3.099" height="3.099"/>
				<rect x="83.857" y="267.692" style="fill:#F5F5F5;" width="3.099" height="3.099"/>
				<rect x="83.857" y="272.887" style="fill:#F5F5F5;" width="3.099" height="3.099"/>
				<rect x="83.857" y="278.082" style="fill:#F5F5F5;" width="3.099" height="3.099"/>
				<rect x="83.857" y="283.277" style="fill:#F5F5F5;" width="3.099" height="3.099"/>
				<rect x="83.857" y="288.472" style="fill:#F5F5F5;" width="3.099" height="3.099"/>
				<rect x="83.857" y="293.667" style="fill:#F5F5F5;" width="3.099" height="3.099"/>
				<rect x="83.857" y="298.862" style="fill:#F5F5F5;" width="3.099" height="3.099"/>
				<rect x="83.857" y="304.057" style="fill:#F5F5F5;" width="3.099" height="3.099"/>
				<rect x="83.857" y="309.253" style="fill:#F5F5F5;" width="3.099" height="3.099"/>
				<rect x="83.857" y="314.448" style="fill:#F5F5F5;" width="3.099" height="3.099"/>
				<rect x="83.857" y="319.643" style="fill:#F5F5F5;" width="3.099" height="3.099"/>
				<rect x="83.857" y="324.838" style="fill:#F5F5F5;" width="3.099" height="3.099"/>
				<rect x="83.857" y="330.033" style="fill:#F5F5F5;" width="3.099" height="3.099"/>
				<rect x="83.857" y="335.228" style="fill:#F5F5F5;" width="3.099" height="3.099"/>
				<rect x="83.857" y="340.423" style="fill:#F5F5F5;" width="3.099" height="3.099"/>
				<rect x="83.857" y="345.618" style="fill:#F5F5F5;" width="3.099" height="3.099"/>
				<rect x="83.857" y="350.814" style="fill:#F5F5F5;" width="3.099" height="3.099"/>
				<rect x="55.602" y="300.412" style="fill:#F5F5F5;" width="3.099" height="3.099"/>
				<rect x="55.602" y="305.607" style="fill:#F5F5F5;" width="3.099" height="3.099"/>
				<rect x="55.602" y="310.802" style="fill:#F5F5F5;" width="3.099" height="3.099"/>
				<rect x="55.602" y="315.997" style="fill:#F5F5F5;" width="3.099" height="3.099"/>
				<rect x="55.602" y="321.192" style="fill:#F5F5F5;" width="3.099" height="3.099"/>
				<rect x="55.602" y="326.388" style="fill:#F5F5F5;" width="3.099" height="3.099"/>
				<rect x="55.602" y="331.583" style="fill:#F5F5F5;" width="3.099" height="3.099"/>
				<rect x="55.602" y="336.778" style="fill:#F5F5F5;" width="3.099" height="3.099"/>
				<rect x="55.602" y="341.973" style="fill:#F5F5F5;" width="3.099" height="3.099"/>
				<rect x="55.602" y="347.168" style="fill:#F5F5F5;" width="3.099" height="3.099"/>
				<rect x="55.602" y="352.363" style="fill:#F5F5F5;" width="3.099" height="3.099"/>
				<rect x="55.602" y="357.558" style="fill:#F5F5F5;" width="3.099" height="3.099"/>
				<rect x="55.602" y="362.753" style="fill:#F5F5F5;" width="3.099" height="3.099"/>
				<rect x="60.524" y="300.412" style="fill:#F5F5F5;" width="3.099" height="3.099"/>
				<rect x="60.524" y="305.607" style="fill:#F5F5F5;" width="3.099" height="3.099"/>
				<rect x="60.524" y="310.802" style="fill:#F5F5F5;" width="3.099" height="3.099"/>
				<rect x="60.524" y="315.997" style="fill:#F5F5F5;" width="3.099" height="3.099"/>
				<rect x="60.524" y="321.192" style="fill:#F5F5F5;" width="3.099" height="3.099"/>
				<rect x="60.524" y="326.388" style="fill:#F5F5F5;" width="3.099" height="3.099"/>
				<rect x="60.524" y="331.583" style="fill:#F5F5F5;" width="3.099" height="3.099"/>
				<rect x="60.524" y="336.778" style="fill:#F5F5F5;" width="3.099" height="3.099"/>
				<rect x="60.524" y="341.973" style="fill:#F5F5F5;" width="3.099" height="3.099"/>
				<rect x="60.524" y="347.168" style="fill:#F5F5F5;" width="3.099" height="3.099"/>
				<rect x="60.524" y="352.363" style="fill:#F5F5F5;" width="3.099" height="3.099"/>
				<rect x="60.524" y="357.558" style="fill:#F5F5F5;" width="3.099" height="3.099"/>
				<rect x="60.524" y="362.753" style="fill:#F5F5F5;" width="3.099" height="3.099"/>
				<rect x="65.446" y="300.412" style="fill:#F5F5F5;" width="3.099" height="3.099"/>
				<rect x="65.446" y="305.607" style="fill:#F5F5F5;" width="3.099" height="3.099"/>
				<rect x="65.446" y="310.802" style="fill:#F5F5F5;" width="3.099" height="3.099"/>
				<rect x="65.446" y="315.997" style="fill:#F5F5F5;" width="3.099" height="3.099"/>
				<rect x="65.446" y="321.192" style="fill:#F5F5F5;" width="3.099" height="3.099"/>
				<rect x="65.446" y="326.388" style="fill:#F5F5F5;" width="3.099" height="3.099"/>
				<rect x="65.446" y="331.583" style="fill:#F5F5F5;" width="3.099" height="3.099"/>
				<rect x="65.446" y="336.778" style="fill:#F5F5F5;" width="3.099" height="3.099"/>
				<rect x="65.446" y="341.973" style="fill:#F5F5F5;" width="3.099" height="3.099"/>
				<rect x="65.446" y="347.168" style="fill:#F5F5F5;" width="3.099" height="3.099"/>
				<rect x="65.446" y="352.363" style="fill:#F5F5F5;" width="3.099" height="3.099"/>
				<rect x="65.446" y="357.558" style="fill:#F5F5F5;" width="3.099" height="3.099"/>
				<rect x="65.446" y="362.753" style="fill:#F5F5F5;" width="3.099" height="3.099"/>
				<rect x="65.446" y="367.948" style="fill:#F5F5F5;" width="3.099" height="3.099"/>
				<rect x="92.788" y="301.961" style="fill:#F5F5F5;" width="3.099" height="3.099"/>
				<rect x="92.788" y="307.156" style="fill:#F5F5F5;" width="3.099" height="3.099"/>
				<rect x="92.788" y="312.352" style="fill:#F5F5F5;" width="3.099" height="3.099"/>
				<rect x="92.788" y="317.547" style="fill:#F5F5F5;" width="3.099" height="3.099"/>
				<rect x="92.788" y="322.742" style="fill:#F5F5F5;" width="3.099" height="3.099"/>
				<rect x="92.788" y="327.937" style="fill:#F5F5F5;" width="3.099" height="3.099"/>
				<rect x="92.788" y="333.132" style="fill:#F5F5F5;" width="3.099" height="3.099"/>
				<rect x="92.788" y="338.327" style="fill:#F5F5F5;" width="3.099" height="3.099"/>
				<rect x="92.788" y="343.522" style="fill:#F5F5F5;" width="3.099" height="3.099"/>
				<rect x="92.788" y="348.717" style="fill:#F5F5F5;" width="3.099" height="3.099"/>
				<rect x="92.788" y="364.303" style="fill:#F5F5F5;" width="3.099" height="3.099"/>
				<rect x="97.71" y="301.961" style="fill:#F5F5F5;" width="3.099" height="3.099"/>
				<rect x="97.71" y="307.156" style="fill:#F5F5F5;" width="3.099" height="3.099"/>
				<rect x="97.71" y="312.352" style="fill:#F5F5F5;" width="3.099" height="3.099"/>
				<rect x="97.71" y="317.547" style="fill:#F5F5F5;" width="3.099" height="3.099"/>
				<rect x="97.71" y="322.742" style="fill:#F5F5F5;" width="3.099" height="3.099"/>
				<rect x="97.71" y="327.937" style="fill:#F5F5F5;" width="3.099" height="3.099"/>
				<rect x="97.71" y="333.132" style="fill:#F5F5F5;" width="3.099" height="3.099"/>
				<rect x="97.71" y="338.327" style="fill:#F5F5F5;" width="3.099" height="3.099"/>
				<rect x="97.71" y="343.522" style="fill:#F5F5F5;" width="3.099" height="3.099"/>
				<rect x="97.71" y="359.108" style="fill:#F5F5F5;" width="3.099" height="3.099"/>
				<rect x="97.71" y="364.303" style="fill:#F5F5F5;" width="3.099" height="3.099"/>
				<rect x="102.632" y="301.961" style="fill:#F5F5F5;" width="3.099" height="3.099"/>
				<rect x="102.632" y="307.156" style="fill:#F5F5F5;" width="3.099" height="3.099"/>
				<rect x="102.632" y="312.352" style="fill:#F5F5F5;" width="3.099" height="3.099"/>
				<rect x="102.632" y="317.547" style="fill:#F5F5F5;" width="3.099" height="3.099"/>
				<rect x="102.632" y="322.742" style="fill:#F5F5F5;" width="3.099" height="3.099"/>
				<rect x="102.632" y="327.937" style="fill:#F5F5F5;" width="3.099" height="3.099"/>
				<rect x="102.632" y="333.132" style="fill:#F5F5F5;" width="3.099" height="3.099"/>
				<rect x="102.632" y="338.327" style="fill:#F5F5F5;" width="3.099" height="3.099"/>
				<rect x="102.632" y="353.913" style="fill:#F5F5F5;" width="3.099" height="3.099"/>
				<rect x="102.632" y="359.108" style="fill:#F5F5F5;" width="3.099" height="3.099"/>
				<rect x="102.632" y="364.303" style="fill:#F5F5F5;" width="3.099" height="3.099"/>
				<rect x="148.386" y="223.032" style="fill:#F5F5F5;" width="3.099" height="3.099"/>
				<rect x="148.386" y="228.227" style="fill:#F5F5F5;" width="3.099" height="3.099"/>
				<rect x="148.386" y="233.422" style="fill:#F5F5F5;" width="3.099" height="3.099"/>
				<rect x="148.386" y="238.617" style="fill:#F5F5F5;" width="3.099" height="3.099"/>
				<rect x="148.386" y="243.812" style="fill:#F5F5F5;" width="3.099" height="3.099"/>
				<rect x="148.386" y="249.008" style="fill:#F5F5F5;" width="3.099" height="3.099"/>
				<rect x="148.386" y="254.203" style="fill:#F5F5F5;" width="3.099" height="3.099"/>
				<rect x="148.386" y="259.398" style="fill:#F5F5F5;" width="3.099" height="3.099"/>
				<rect x="148.386" y="264.593" style="fill:#F5F5F5;" width="3.099" height="3.099"/>
				<rect x="148.386" y="269.788" style="fill:#F5F5F5;" width="3.099" height="3.099"/>
				<rect x="148.386" y="274.983" style="fill:#F5F5F5;" width="3.099" height="3.099"/>
				<rect x="148.386" y="280.178" style="fill:#F5F5F5;" width="3.099" height="3.099"/>
				<rect x="148.386" y="285.373" style="fill:#F5F5F5;" width="3.099" height="3.099"/>
				<rect x="148.386" y="290.569" style="fill:#F5F5F5;" width="3.099" height="3.099"/>
				<rect x="148.386" y="295.764" style="fill:#F5F5F5;" width="3.099" height="3.099"/>
				<rect x="148.386" y="300.959" style="fill:#F5F5F5;" width="3.099" height="3.099"/>
				<rect x="148.386" y="306.154" style="fill:#F5F5F5;" width="3.099" height="3.099"/>
				<rect x="148.386" y="316.544" style="fill:#F5F5F5;" width="3.099" height="3.099"/>
				<rect x="148.386" y="321.739" style="fill:#F5F5F5;" width="3.099" height="3.099"/>
				<rect x="148.386" y="326.934" style="fill:#F5F5F5;" width="3.099" height="3.099"/>
				<rect x="148.386" y="332.129" style="fill:#F5F5F5;" width="3.099" height="3.099"/>
				<rect x="148.386" y="337.325" style="fill:#F5F5F5;" width="3.099" height="3.099"/>
				<rect x="153.307" y="223.032" style="fill:#F5F5F5;" width="3.099" height="3.099"/>
				<rect x="153.307" y="228.227" style="fill:#F5F5F5;" width="3.099" height="3.099"/>
				<rect x="153.307" y="233.422" style="fill:#F5F5F5;" width="3.099" height="3.099"/>
				<rect x="153.307" y="238.617" style="fill:#F5F5F5;" width="3.099" height="3.099"/>
				<rect x="153.307" y="243.812" style="fill:#F5F5F5;" width="3.099" height="3.099"/>
				<rect x="153.307" y="249.008" style="fill:#F5F5F5;" width="3.099" height="3.099"/>
				<rect x="153.307" y="254.203" style="fill:#F5F5F5;" width="3.099" height="3.099"/>
				<rect x="153.307" y="259.398" style="fill:#F5F5F5;" width="3.099" height="3.099"/>
				<rect x="153.307" y="264.593" style="fill:#F5F5F5;" width="3.099" height="3.099"/>
				<rect x="153.307" y="269.788" style="fill:#F5F5F5;" width="3.099" height="3.099"/>
				<rect x="153.307" y="274.983" style="fill:#F5F5F5;" width="3.099" height="3.099"/>
				<rect x="153.307" y="280.178" style="fill:#F5F5F5;" width="3.099" height="3.099"/>
				<rect x="153.307" y="285.373" style="fill:#F5F5F5;" width="3.099" height="3.099"/>
				<rect x="153.307" y="290.569" style="fill:#F5F5F5;" width="3.099" height="3.099"/>
				<rect x="153.307" y="295.764" style="fill:#F5F5F5;" width="3.099" height="3.099"/>
				<rect x="153.307" y="300.959" style="fill:#F5F5F5;" width="3.099" height="3.099"/>
				<rect x="153.307" y="332.129" style="fill:#F5F5F5;" width="3.099" height="3.099"/>
				<rect x="153.307" y="337.325" style="fill:#F5F5F5;" width="3.099" height="3.099"/>
				<rect x="158.229" y="223.032" style="fill:#F5F5F5;" width="3.099" height="3.099"/>
				<rect x="158.229" y="228.227" style="fill:#F5F5F5;" width="3.099" height="3.099"/>
				<rect x="158.229" y="233.422" style="fill:#F5F5F5;" width="3.099" height="3.099"/>
				<rect x="158.229" y="238.617" style="fill:#F5F5F5;" width="3.099" height="3.099"/>
				<rect x="158.229" y="243.812" style="fill:#F5F5F5;" width="3.099" height="3.099"/>
				<rect x="158.229" y="249.008" style="fill:#F5F5F5;" width="3.099" height="3.099"/>
				<rect x="158.229" y="254.203" style="fill:#F5F5F5;" width="3.099" height="3.099"/>
				<rect x="158.229" y="259.398" style="fill:#F5F5F5;" width="3.099" height="3.099"/>
				<rect x="158.229" y="264.593" style="fill:#F5F5F5;" width="3.099" height="3.099"/>
				<rect x="158.229" y="269.788" style="fill:#F5F5F5;" width="3.099" height="3.099"/>
				<rect x="158.229" y="274.983" style="fill:#F5F5F5;" width="3.099" height="3.099"/>
				<rect x="158.229" y="280.178" style="fill:#F5F5F5;" width="3.099" height="3.099"/>
				<rect x="158.229" y="285.373" style="fill:#F5F5F5;" width="3.099" height="3.099"/>
				<rect x="158.229" y="290.569" style="fill:#F5F5F5;" width="3.099" height="3.099"/>
				<rect x="158.229" y="295.764" style="fill:#F5F5F5;" width="3.099" height="3.099"/>
				<rect x="158.229" y="300.959" style="fill:#F5F5F5;" width="3.099" height="3.099"/>
				<rect x="158.229" y="311.349" style="fill:#F5F5F5;" width="3.099" height="3.099"/>
				<rect x="158.229" y="316.544" style="fill:#F5F5F5;" width="3.099" height="3.099"/>
				<rect x="158.229" y="321.739" style="fill:#F5F5F5;" width="3.099" height="3.099"/>
				<rect x="158.229" y="326.934" style="fill:#F5F5F5;" width="3.099" height="3.099"/>
				<rect x="158.229" y="337.325" style="fill:#F5F5F5;" width="3.099" height="3.099"/>
				<rect x="130.521" y="288.472" style="fill:#F5F5F5;" width="3.099" height="3.099"/>
				<rect x="130.521" y="293.667" style="fill:#F5F5F5;" width="3.099" height="3.099"/>
				<rect x="130.521" y="298.862" style="fill:#F5F5F5;" width="3.099" height="3.099"/>
				<rect x="130.521" y="304.057" style="fill:#F5F5F5;" width="3.099" height="3.099"/>
				<rect x="130.521" y="309.253" style="fill:#F5F5F5;" width="3.099" height="3.099"/>
				<rect x="130.521" y="314.448" style="fill:#F5F5F5;" width="3.099" height="3.099"/>
				<rect x="130.521" y="319.643" style="fill:#F5F5F5;" width="3.099" height="3.099"/>
				<rect x="130.521" y="330.033" style="fill:#F5F5F5;" width="3.099" height="3.099"/>
				<rect x="130.521" y="335.228" style="fill:#F5F5F5;" width="3.099" height="3.099"/>
				<rect x="130.521" y="340.423" style="fill:#F5F5F5;" width="3.099" height="3.099"/>
				<rect x="130.521" y="345.618" style="fill:#F5F5F5;" width="3.099" height="3.099"/>
				<rect x="130.521" y="350.814" style="fill:#F5F5F5;" width="3.099" height="3.099"/>
				<rect x="130.521" y="356.009" style="fill:#F5F5F5;" width="3.099" height="3.099"/>
				<rect x="130.521" y="361.204" style="fill:#F5F5F5;" width="3.099" height="3.099"/>
				<rect x="130.521" y="366.399" style="fill:#F5F5F5;" width="3.099" height="3.099"/>
				<rect x="135.443" y="288.472" style="fill:#F5F5F5;" width="3.099" height="3.099"/>
				<rect x="135.443" y="293.667" style="fill:#F5F5F5;" width="3.099" height="3.099"/>
				<rect x="135.443" y="298.862" style="fill:#F5F5F5;" width="3.099" height="3.099"/>
				<rect x="135.443" y="304.057" style="fill:#F5F5F5;" width="3.099" height="3.099"/>
				<rect x="135.443" y="309.253" style="fill:#F5F5F5;" width="3.099" height="3.099"/>
				<rect x="135.443" y="314.448" style="fill:#F5F5F5;" width="3.099" height="3.099"/>
				<rect x="135.443" y="330.033" style="fill:#F5F5F5;" width="3.099" height="3.099"/>
				<rect x="135.443" y="335.228" style="fill:#F5F5F5;" width="3.099" height="3.099"/>
				<rect x="135.443" y="340.423" style="fill:#F5F5F5;" width="3.099" height="3.099"/>
				<rect x="135.443" y="345.618" style="fill:#F5F5F5;" width="3.099" height="3.099"/>
				<rect x="135.443" y="350.814" style="fill:#F5F5F5;" width="3.099" height="3.099"/>
				<rect x="135.443" y="356.009" style="fill:#F5F5F5;" width="3.099" height="3.099"/>
				<rect x="135.443" y="361.204" style="fill:#F5F5F5;" width="3.099" height="3.099"/>
				<rect x="135.443" y="366.399" style="fill:#F5F5F5;" width="3.099" height="3.099"/>
				<rect x="140.365" y="288.472" style="fill:#F5F5F5;" width="3.099" height="3.099"/>
				<rect x="140.365" y="293.667" style="fill:#F5F5F5;" width="3.099" height="3.099"/>
				<rect x="140.365" y="298.862" style="fill:#F5F5F5;" width="3.099" height="3.099"/>
				<rect x="140.365" y="304.057" style="fill:#F5F5F5;" width="3.099" height="3.099"/>
				<rect x="140.365" y="309.253" style="fill:#F5F5F5;" width="3.099" height="3.099"/>
				<rect x="140.365" y="314.448" style="fill:#F5F5F5;" width="3.099" height="3.099"/>
				<rect x="140.365" y="324.838" style="fill:#F5F5F5;" width="3.099" height="3.099"/>
				<rect x="140.365" y="330.033" style="fill:#F5F5F5;" width="3.099" height="3.099"/>
				<rect x="140.365" y="335.228" style="fill:#F5F5F5;" width="3.099" height="3.099"/>
				<rect x="140.365" y="340.423" style="fill:#F5F5F5;" width="3.099" height="3.099"/>
				<rect x="140.365" y="345.618" style="fill:#F5F5F5;" width="3.099" height="3.099"/>
				<rect x="140.365" y="350.814" style="fill:#F5F5F5;" width="3.099" height="3.099"/>
				<rect x="140.365" y="356.009" style="fill:#F5F5F5;" width="3.099" height="3.099"/>
				<rect x="140.365" y="361.204" style="fill:#F5F5F5;" width="3.099" height="3.099"/>
				<rect x="140.365" y="366.399" style="fill:#F5F5F5;" width="3.099" height="3.099"/>
				<rect x="244.085" y="259.398" style="fill:#F5F5F5;" width="3.099" height="3.099"/>
				<rect x="244.085" y="264.593" style="fill:#F5F5F5;" width="3.099" height="3.099"/>
				<rect x="244.085" y="269.788" style="fill:#F5F5F5;" width="3.099" height="3.099"/>
				<rect x="244.085" y="274.983" style="fill:#F5F5F5;" width="3.099" height="3.099"/>
				<rect x="244.085" y="280.178" style="fill:#F5F5F5;" width="3.099" height="3.099"/>
				<rect x="244.085" y="285.373" style="fill:#F5F5F5;" width="3.099" height="3.099"/>
				<rect x="244.085" y="290.569" style="fill:#F5F5F5;" width="3.099" height="3.099"/>
				<rect x="244.085" y="295.764" style="fill:#F5F5F5;" width="3.099" height="3.099"/>
				<rect x="244.085" y="300.959" style="fill:#F5F5F5;" width="3.099" height="3.099"/>
				<rect x="244.085" y="306.154" style="fill:#F5F5F5;" width="3.099" height="3.099"/>
				<rect x="244.085" y="311.349" style="fill:#F5F5F5;" width="3.099" height="3.099"/>
				<rect x="244.085" y="316.544" style="fill:#F5F5F5;" width="3.099" height="3.099"/>
				<rect x="244.085" y="321.739" style="fill:#F5F5F5;" width="3.099" height="3.099"/>
				<rect x="244.085" y="332.129" style="fill:#F5F5F5;" width="3.099" height="3.099"/>
				<rect x="244.085" y="337.325" style="fill:#F5F5F5;" width="3.099" height="3.099"/>
				<rect x="244.085" y="342.52" style="fill:#F5F5F5;" width="3.099" height="3.099"/>
				<rect x="244.085" y="347.715" style="fill:#F5F5F5;" width="3.099" height="3.099"/>
				<rect x="244.085" y="358.105" style="fill:#F5F5F5;" width="3.099" height="3.099"/>
				<rect x="244.085" y="363.3" style="fill:#F5F5F5;" width="3.099" height="3.099"/>
				<rect x="244.085" y="368.495" style="fill:#F5F5F5;" width="3.099" height="3.099"/>
				<rect x="249.007" y="259.398" style="fill:#F5F5F5;" width="3.099" height="3.099"/>
				<rect x="249.007" y="264.593" style="fill:#F5F5F5;" width="3.099" height="3.099"/>
				<rect x="249.007" y="269.788" style="fill:#F5F5F5;" width="3.099" height="3.099"/>
				<rect x="249.007" y="274.983" style="fill:#F5F5F5;" width="3.099" height="3.099"/>
				<rect x="249.007" y="280.178" style="fill:#F5F5F5;" width="3.099" height="3.099"/>
				<rect x="249.007" y="285.373" style="fill:#F5F5F5;" width="3.099" height="3.099"/>
				<rect x="249.007" y="290.569" style="fill:#F5F5F5;" width="3.099" height="3.099"/>
				<rect x="249.007" y="295.764" style="fill:#F5F5F5;" width="3.099" height="3.099"/>
				<rect x="249.007" y="300.959" style="fill:#F5F5F5;" width="3.099" height="3.099"/>
				<rect x="249.007" y="306.154" style="fill:#F5F5F5;" width="3.099" height="3.099"/>
				<rect x="249.007" y="311.349" style="fill:#F5F5F5;" width="3.099" height="3.099"/>
				<rect x="249.007" y="316.544" style="fill:#F5F5F5;" width="3.099" height="3.099"/>
				<rect x="249.007" y="321.739" style="fill:#F5F5F5;" width="3.099" height="3.099"/>
				<rect x="249.007" y="337.325" style="fill:#F5F5F5;" width="3.099" height="3.099"/>
				<rect x="249.007" y="342.52" style="fill:#F5F5F5;" width="3.099" height="3.099"/>
				<rect x="249.007" y="352.91" style="fill:#F5F5F5;" width="3.099" height="3.099"/>
				<rect x="249.007" y="358.105" style="fill:#F5F5F5;" width="3.099" height="3.099"/>
				<rect x="249.007" y="363.3" style="fill:#F5F5F5;" width="3.099" height="3.099"/>
				<rect x="249.007" y="368.495" style="fill:#F5F5F5;" width="3.099" height="3.099"/>
				<rect x="253.929" y="259.398" style="fill:#F5F5F5;" width="3.099" height="3.099"/>
				<rect x="253.929" y="264.593" style="fill:#F5F5F5;" width="3.099" height="3.099"/>
				<rect x="253.929" y="269.788" style="fill:#F5F5F5;" width="3.099" height="3.099"/>
				<rect x="253.929" y="274.983" style="fill:#F5F5F5;" width="3.099" height="3.099"/>
				<rect x="253.929" y="280.178" style="fill:#F5F5F5;" width="3.099" height="3.099"/>
				<rect x="253.929" y="285.373" style="fill:#F5F5F5;" width="3.099" height="3.099"/>
				<rect x="253.929" y="290.569" style="fill:#F5F5F5;" width="3.099" height="3.099"/>
				<rect x="253.929" y="295.764" style="fill:#F5F5F5;" width="3.099" height="3.099"/>
				<rect x="253.929" y="300.959" style="fill:#F5F5F5;" width="3.099" height="3.099"/>
				<rect x="253.929" y="306.154" style="fill:#F5F5F5;" width="3.099" height="3.099"/>
				<rect x="253.929" y="311.349" style="fill:#F5F5F5;" width="3.099" height="3.099"/>
				<rect x="253.929" y="316.544" style="fill:#F5F5F5;" width="3.099" height="3.099"/>
				<rect x="253.929" y="321.739" style="fill:#F5F5F5;" width="3.099" height="3.099"/>
				<rect x="253.929" y="326.934" style="fill:#F5F5F5;" width="3.099" height="3.099"/>
				<rect x="253.929" y="337.325" style="fill:#F5F5F5;" width="3.099" height="3.099"/>
				<rect x="253.929" y="347.715" style="fill:#F5F5F5;" width="3.099" height="3.099"/>
				<rect x="253.929" y="352.91" style="fill:#F5F5F5;" width="3.099" height="3.099"/>
				<rect x="253.929" y="358.105" style="fill:#F5F5F5;" width="3.099" height="3.099"/>
				<rect x="253.929" y="363.3" style="fill:#F5F5F5;" width="3.099" height="3.099"/>
				<rect x="253.929" y="368.495" style="fill:#F5F5F5;" width="3.099" height="3.099"/>
				<rect x="224.034" y="289.019" style="fill:#F5F5F5;" width="3.099" height="3.099"/>
				<rect x="224.034" y="294.214" style="fill:#F5F5F5;" width="3.099" height="3.099"/>
				<rect x="224.034" y="299.409" style="fill:#F5F5F5;" width="3.099" height="3.099"/>
				<rect x="224.034" y="304.604" style="fill:#F5F5F5;" width="3.099" height="3.099"/>
				<rect x="224.034" y="309.8" style="fill:#F5F5F5;" width="3.099" height="3.099"/>
				<rect x="224.034" y="314.995" style="fill:#F5F5F5;" width="3.099" height="3.099"/>
				<rect x="224.034" y="330.58" style="fill:#F5F5F5;" width="3.099" height="3.099"/>
				<rect x="224.034" y="335.775" style="fill:#F5F5F5;" width="3.099" height="3.099"/>
				<rect x="224.034" y="340.97" style="fill:#F5F5F5;" width="3.099" height="3.099"/>
				<rect x="224.034" y="346.165" style="fill:#F5F5F5;" width="3.099" height="3.099"/>
				<rect x="224.034" y="351.361" style="fill:#F5F5F5;" width="3.099" height="3.099"/>
				<rect x="224.034" y="356.556" style="fill:#F5F5F5;" width="3.099" height="3.099"/>
				<rect x="224.034" y="361.751" style="fill:#F5F5F5;" width="3.099" height="3.099"/>
				<rect x="228.955" y="289.019" style="fill:#F5F5F5;" width="3.099" height="3.099"/>
				<rect x="228.955" y="294.214" style="fill:#F5F5F5;" width="3.099" height="3.099"/>
				<rect x="228.955" y="299.409" style="fill:#F5F5F5;" width="3.099" height="3.099"/>
				<rect x="228.955" y="304.604" style="fill:#F5F5F5;" width="3.099" height="3.099"/>
				<rect x="228.955" y="309.8" style="fill:#F5F5F5;" width="3.099" height="3.099"/>
				<rect x="228.955" y="314.995" style="fill:#F5F5F5;" width="3.099" height="3.099"/>
				<rect x="228.955" y="330.58" style="fill:#F5F5F5;" width="3.099" height="3.099"/>
				<rect x="228.955" y="335.775" style="fill:#F5F5F5;" width="3.099" height="3.099"/>
				<rect x="228.955" y="340.97" style="fill:#F5F5F5;" width="3.099" height="3.099"/>
				<rect x="228.955" y="346.165" style="fill:#F5F5F5;" width="3.099" height="3.099"/>
				<rect x="228.955" y="351.361" style="fill:#F5F5F5;" width="3.099" height="3.099"/>
				<rect x="228.955" y="356.556" style="fill:#F5F5F5;" width="3.099" height="3.099"/>
				<rect x="228.955" y="366.946" style="fill:#F5F5F5;" width="3.099" height="3.099"/>
				<rect x="392.465" y="266.142" style="fill:#F5F5F5;" width="3.099" height="3.099"/>
				<rect x="392.465" y="271.337" style="fill:#F5F5F5;" width="3.099" height="3.099"/>
				<rect x="392.465" y="276.533" style="fill:#F5F5F5;" width="3.099" height="3.099"/>
				<rect x="392.465" y="281.728" style="fill:#F5F5F5;" width="3.099" height="3.099"/>
				<rect x="392.465" y="286.923" style="fill:#F5F5F5;" width="3.099" height="3.099"/>
				<rect x="392.465" y="292.118" style="fill:#F5F5F5;" width="3.099" height="3.099"/>
				<rect x="392.465" y="297.313" style="fill:#F5F5F5;" width="3.099" height="3.099"/>
				<rect x="392.465" y="302.508" style="fill:#F5F5F5;" width="3.099" height="3.099"/>
				<rect x="392.465" y="307.703" style="fill:#F5F5F5;" width="3.099" height="3.099"/>
				<rect x="392.465" y="312.898" style="fill:#F5F5F5;" width="3.099" height="3.099"/>
				<rect x="392.465" y="318.094" style="fill:#F5F5F5;" width="3.099" height="3.099"/>
				<rect x="392.465" y="328.484" style="fill:#F5F5F5;" width="3.099" height="3.099"/>
				<rect x="392.465" y="333.679" style="fill:#F5F5F5;" width="3.099" height="3.099"/>
				<rect x="392.465" y="338.874" style="fill:#F5F5F5;" width="3.099" height="3.099"/>
				<rect x="392.465" y="344.069" style="fill:#F5F5F5;" width="3.099" height="3.099"/>
				<rect x="392.465" y="349.264" style="fill:#F5F5F5;" width="3.099" height="3.099"/>
				<rect x="392.465" y="354.459" style="fill:#F5F5F5;" width="3.099" height="3.099"/>
				<rect x="392.465" y="359.655" style="fill:#F5F5F5;" width="3.099" height="3.099"/>
				<rect x="392.465" y="364.85" style="fill:#F5F5F5;" width="3.099" height="3.099"/>
				<rect x="397.387" y="266.142" style="fill:#F5F5F5;" width="3.099" height="3.099"/>
				<rect x="397.387" y="271.337" style="fill:#F5F5F5;" width="3.099" height="3.099"/>
				<rect x="397.387" y="276.533" style="fill:#F5F5F5;" width="3.099" height="3.099"/>
				<rect x="397.387" y="281.728" style="fill:#F5F5F5;" width="3.099" height="3.099"/>
				<rect x="397.387" y="286.923" style="fill:#F5F5F5;" width="3.099" height="3.099"/>
				<rect x="397.387" y="292.118" style="fill:#F5F5F5;" width="3.099" height="3.099"/>
				<rect x="397.387" y="297.313" style="fill:#F5F5F5;" width="3.099" height="3.099"/>
				<rect x="397.387" y="302.508" style="fill:#F5F5F5;" width="3.099" height="3.099"/>
				<rect x="397.387" y="307.703" style="fill:#F5F5F5;" width="3.099" height="3.099"/>
				<rect x="397.387" y="312.898" style="fill:#F5F5F5;" width="3.099" height="3.099"/>
				<rect x="397.387" y="318.094" style="fill:#F5F5F5;" width="3.099" height="3.099"/>
				<rect x="397.387" y="323.289" style="fill:#F5F5F5;" width="3.099" height="3.099"/>
				<rect x="397.387" y="328.484" style="fill:#F5F5F5;" width="3.099" height="3.099"/>
				<rect x="397.387" y="333.679" style="fill:#F5F5F5;" width="3.099" height="3.099"/>
				<rect x="397.387" y="338.874" style="fill:#F5F5F5;" width="3.099" height="3.099"/>
				<rect x="397.387" y="344.069" style="fill:#F5F5F5;" width="3.099" height="3.099"/>
				<rect x="397.387" y="349.264" style="fill:#F5F5F5;" width="3.099" height="3.099"/>
				<rect x="397.387" y="354.459" style="fill:#F5F5F5;" width="3.099" height="3.099"/>
				<rect x="397.387" y="359.655" style="fill:#F5F5F5;" width="3.099" height="3.099"/>
				<rect x="397.387" y="364.85" style="fill:#F5F5F5;" width="3.099" height="3.099"/>
				<rect x="368.221" y="286.376" style="fill:#F5F5F5;" width="3.099" height="3.099"/>
				<rect x="368.221" y="291.571" style="fill:#F5F5F5;" width="3.099" height="3.099"/>
				<rect x="368.221" y="296.766" style="fill:#F5F5F5;" width="3.099" height="3.099"/>
				<rect x="368.221" y="301.961" style="fill:#F5F5F5;" width="3.099" height="3.099"/>
				<rect x="368.221" y="307.156" style="fill:#F5F5F5;" width="3.099" height="3.099"/>
				<rect x="368.221" y="312.352" style="fill:#F5F5F5;" width="3.099" height="3.099"/>
				<rect x="368.221" y="317.547" style="fill:#F5F5F5;" width="3.099" height="3.099"/>
				<rect x="368.221" y="322.742" style="fill:#F5F5F5;" width="3.099" height="3.099"/>
				<rect x="368.221" y="327.937" style="fill:#F5F5F5;" width="3.099" height="3.099"/>
				<rect x="368.221" y="333.132" style="fill:#F5F5F5;" width="3.099" height="3.099"/>
				<rect x="373.143" y="286.376" style="fill:#F5F5F5;" width="3.099" height="3.099"/>
				<rect x="373.143" y="291.571" style="fill:#F5F5F5;" width="3.099" height="3.099"/>
				<rect x="373.143" y="296.766" style="fill:#F5F5F5;" width="3.099" height="3.099"/>
				<rect x="373.143" y="301.961" style="fill:#F5F5F5;" width="3.099" height="3.099"/>
				<rect x="373.143" y="307.156" style="fill:#F5F5F5;" width="3.099" height="3.099"/>
				<rect x="373.143" y="312.352" style="fill:#F5F5F5;" width="3.099" height="3.099"/>
				<rect x="373.143" y="317.547" style="fill:#F5F5F5;" width="3.099" height="3.099"/>
				<rect x="373.143" y="322.742" style="fill:#F5F5F5;" width="3.099" height="3.099"/>
				<rect x="373.143" y="327.937" style="fill:#F5F5F5;" width="3.099" height="3.099"/>
			</g>
		</g>
	</g>
</g>
<g id="Background_Simple" style="display:none;">
	<g style="display:inline;">
		<path style="fill:#F66A75;" d="M119.687,107.472c94.823-55.251,140.565,27.584,156.368,89.916
			c15.802,62.332,119.667,4.003,140.994,73.19c17.031,55.249-60.93,133.643-205.629,84.643S51.62,147.132,119.687,107.472z"/>
		<path style="opacity:0.9;fill:#FFFFFF;enable-background:new    ;" d="M119.687,107.472
			c94.823-55.251,140.565,27.584,156.368,89.916c15.802,62.332,119.667,4.003,140.994,73.19
			c17.031,55.249-60.93,133.643-205.629,84.643S51.62,147.132,119.687,107.472z"/>
	</g>
</g>
<g id="Shadow_1_">
	<ellipse id="_x3C_Path_x3E__359_" style="fill:#F5F5F5;" cx="250" cy="416.238" rx="193.889" ry="11.323"/>
</g>
<g id="Mark">
	<g>
		<polygon style="fill:#F66A75;" points="422.16,408.929 408.318,340 403.348,340 389.173,408.929 379,415.156 379,417 432,417 
			432,415.156 		"/>
		<rect x="379.333" y="415.156" style="opacity:0.2;enable-background:new    ;" width="53" height="2.321"/>
		<polygon style="opacity:0.2;enable-background:new    ;" points="408.318,340.406 403.349,340.406 389.34,409.132 
			422.327,409.132 		"/>
		<polygon style="opacity:0.6;fill:#FFFFFF;enable-background:new    ;" points="419.29,394 392.47,394 397.3,370 414.41,370 
			419.2,393.54 		"/>
	</g>
</g>
<g id="Character">
	<g id="_x3C_Group_x3E__19_">
		<path style="fill:#B97964;" d="M283.167,172.7l-8.833,3.3c-0.667-0.5,2.667-30.5,2.667-30.5l-5.364-0.793
			c0,0-9.053,31.164-5.969,37.46c4,8.167,21.667,0,21.667,0L283.167,172.7z"/>
		<g>
			
				<rect x="319.843" y="33.733" transform="matrix(-0.224 0.9746 -0.9746 -0.224 553.65 -131.1173)" style="fill:#F66A75;" width="18.362" height="242.24"/>
			
				<rect x="319.843" y="33.733" transform="matrix(-0.224 0.9746 -0.9746 -0.224 553.65 -131.1173)" style="opacity:0.6;fill:#FFFFFF;enable-background:new    ;" width="18.362" height="242.24"/>
			
				<rect x="327.557" y="33.733" transform="matrix(-0.224 0.9746 -0.9746 -0.224 553.653 -131.1149)" style="opacity:0.2;enable-background:new    ;" width="2.932" height="242.24"/>
			<path style="fill:#F66A75;" d="M218.994,129.561L218.994,129.561c0.891-3.877-0.363-7.934-3.286-10.632l-0.4-0.369l-2.033-0.467
				c-0.391-0.09-0.781,0.154-0.87,0.545l-4.109,17.873c-0.09,0.391,0.154,0.781,0.545,0.87l2.033,0.467l0.522-0.158
				C215.203,136.54,218.103,133.437,218.994,129.561z"/>
			<path style="opacity:0.2;enable-background:new    ;" d="M218.994,129.561L218.994,129.561c0.891-3.877-0.363-7.934-3.286-10.632
				l-0.4-0.369l-2.033-0.467c-0.391-0.09-0.781,0.154-0.87,0.545l-4.109,17.873c-0.09,0.391,0.154,0.781,0.545,0.87l2.033,0.467
				l0.522-0.158C215.203,136.54,218.103,133.437,218.994,129.561z"/>
			<path style="fill:#F66A75;" d="M260.795,144.331l11.743-51.086l-4.322-0.994l-12.388,53.89c-0.117,0.508,0.201,1.015,0.709,1.132
				l0,0c0.264,0.061,0.541,0.005,0.761-0.152l3.126-2.233C260.612,144.754,260.744,144.556,260.795,144.331z"/>
			<path style="fill:#F66A75;" d="M307.202,154.998l11.743-51.086l-4.322-0.993l-12.388,53.89c-0.117,0.508,0.201,1.015,0.709,1.132
				l0,0c0.264,0.061,0.541,0.005,0.761-0.152l3.126-2.233C307.018,155.421,307.15,155.223,307.202,154.998z"/>
			<path style="fill:#F66A75;" d="M353.608,165.666l11.743-51.086l-4.322-0.994l-12.387,53.89c-0.117,0.508,0.2,1.015,0.709,1.132
				l0,0c0.264,0.061,0.54,0.005,0.761-0.152l3.126-2.233C353.425,166.089,353.557,165.891,353.608,165.666z"/>
			<path style="fill:#F66A75;" d="M400.015,176.333l11.743-51.086l-4.322-0.993l-12.388,53.89c-0.117,0.508,0.201,1.015,0.709,1.132
				l0,0c0.264,0.061,0.54,0.005,0.761-0.152l3.126-2.233C399.831,176.756,399.963,176.558,400.015,176.333z"/>
			
				<rect x="328.765" y="-5.08" transform="matrix(-0.224 0.9746 -0.9746 -0.224 526.7446 -187.3199)" style="fill:#F66A75;" width="18.362" height="242.24"/>
			
				<rect x="328.765" y="-5.08" transform="matrix(-0.224 0.9746 -0.9746 -0.224 526.7446 -187.3199)" style="opacity:0.7;fill:#FFFFFF;enable-background:new    ;" width="18.362" height="242.24"/>
			
				<rect x="336.479" y="-5.08" transform="matrix(-0.224 0.9746 -0.9746 -0.224 526.7474 -187.3182)" style="opacity:0.2;enable-background:new    ;" width="2.932" height="242.24"/>
			<path style="fill:#F66A75;" d="M214.389,133.663l12.105-52.663l-4.322-0.994l-12.75,55.466c-0.117,0.508,0.201,1.015,0.709,1.132
				l0,0c0.264,0.061,0.541,0.005,0.761-0.152l3.126-2.233C214.205,134.086,214.337,133.888,214.389,133.663z"/>
			<path style="fill:#F66A75;" d="M227.916,90.748L227.916,90.748c0.891-3.877-0.363-7.934-3.286-10.632l-0.4-0.369l-2.033-0.467
				c-0.391-0.09-0.781,0.154-0.87,0.545l-4.109,17.873c-0.09,0.391,0.154,0.781,0.545,0.87l2.033,0.467l0.522-0.158
				C224.125,97.727,227.025,94.625,227.916,90.748z"/>
			<path style="opacity:0.1;fill:#FFFFFF;enable-background:new    ;" d="M227.916,90.748L227.916,90.748
				c0.891-3.877-0.363-7.934-3.286-10.632l-0.4-0.369l-2.033-0.467c-0.391-0.09-0.781,0.154-0.87,0.545l-4.109,17.873
				c-0.09,0.391,0.154,0.781,0.545,0.87l2.033,0.467l0.522-0.158C224.125,97.727,227.025,94.625,227.916,90.748z"/>
		</g>
		<path style="fill:#263238;" d="M312.25,180c-0.38-0.06-0.92-0.06-1.59-0.02c-2.51,0.16-6.86,0.97-11.46,1.95
			c-8.58,1.81-18.03,4.24-18.03,4.24L277,174c0,0,27.67-16,32.16-14.69C309.16,159.31,316.67,180.67,312.25,180z"/>
		<path style="fill:#B97964;" d="M375.75,192.455c0,0,7.417,8.545,6.583,19.545c-0.833,11-28.773,27.971-28.773,27.971L350,234.5
			c0,0,22.25-18.75,22.75-22.5s-4.625-12-4.625-12L375.75,192.455z"/>
		<g>
			<path style="fill:#F66A75;" d="M351.03,232.578c0,0,4.549,6.102,4.326,6.881c-0.222,0.779-3.893,3.07-3.893,3.07
				s0.619,3.638,0.619,4.305c0,1.63-2.917,3.669-3.667,3.167c-2.689-1.802-3.667-6.669-4.167-8.897
				C343.75,238.875,349.685,231.907,351.03,232.578z"/>
			<path style="opacity:0.7;fill:#FFFFFF;enable-background:new    ;" d="M351.03,232.578c0,0,4.549,6.102,4.326,6.881
				c-0.222,0.779-3.893,3.07-3.893,3.07s0.619,3.638,0.619,4.305c0,1.63-2.917,3.669-3.667,3.167
				c-2.689-1.802-3.667-6.669-4.167-8.897C343.75,238.875,349.685,231.907,351.03,232.578z"/>
		</g>
		<polygon style="fill:#B97964;" points="310.481,410.028 302.368,410.885 300.846,393.388 308.958,392.531 		"/>
		<polygon style="fill:#B97964;" points="350.96,409.437 343.1,409.437 342.45,391.227 350.32,391.227 		"/>
		<path style="fill:#263238;" d="M342.01,408.527h9.55c0.322,0.002,0.6,0.226,0.67,0.54l1.55,7c0.133,0.627-0.268,1.242-0.895,1.375
			c-0.084,0.018-0.169,0.026-0.255,0.025c-3.09-0.05-5.34-0.24-9.22-0.24c-2.39,0-9.6,0.25-12.9,0.25c-3.3,0-3.73-3.26-2.38-3.56
			c6.06-1.32,10.62-3.15,12.56-4.89C341.05,408.697,341.522,408.518,342.01,408.527z"/>
		<path style="fill:#F66A75;" d="M339.41,409.907c-0.534,0.043-1.067-0.098-1.51-0.4c-0.295-0.243-0.443-0.622-0.39-1
			c-0.006-0.221,0.12-0.425,0.32-0.52c0.87-0.45,3.41,1.11,3.69,1.29c0.066,0.034,0.103,0.107,0.09,0.18
			c-0.01,0.077-0.065,0.14-0.14,0.16C340.796,409.789,340.105,409.887,339.41,409.907z M338.24,408.277
			c-0.083-0.007-0.167,0.01-0.24,0.05c-0.05,0-0.11,0.07-0.12,0.22c-0.032,0.251,0.062,0.501,0.25,0.67
			c0.882,0.4,1.883,0.45,2.8,0.14C340.111,408.828,339.198,408.462,338.24,408.277z"/>
		<path style="fill:#F66A75;" d="M341.42,409.627h-0.09c-0.81-0.44-2.38-2.17-2.22-3c0.057-0.286,0.309-0.491,0.6-0.49
			c0.286-0.038,0.573,0.05,0.79,0.24c0.91,0.74,1.1,3,1.11,3.11c0.001,0.068-0.033,0.133-0.09,0.17
			C341.484,409.658,341.449,409.647,341.42,409.627z M339.84,406.437h-0.09c-0.24,0-0.26,0.14-0.27,0.19
			c-0.1,0.51,0.9,1.82,1.71,2.43c-0.053-0.896-0.377-1.754-0.93-2.46C340.144,406.495,339.995,406.438,339.84,406.437z"/>
		<path style="fill:#263238;" d="M301.51,408.277h9.55c0.322,0.002,0.6,0.226,0.67,0.54l1.55,7c0.133,0.627-0.268,1.242-0.895,1.375
			c-0.084,0.018-0.169,0.026-0.255,0.025c-3.09-0.05-5.34-0.24-9.22-0.24c-2.39,0-9.6,0.25-12.9,0.25c-3.3,0-3.73-3.26-2.38-3.56
			c6.06-1.32,10.62-3.15,12.56-4.89C300.55,408.447,301.022,408.268,301.51,408.277z"/>
		<path style="fill:#F66A75;" d="M298.91,409.657c-0.534,0.043-1.067-0.098-1.51-0.4c-0.295-0.243-0.443-0.622-0.39-1
			c-0.006-0.221,0.12-0.425,0.32-0.52c0.87-0.45,3.41,1.11,3.69,1.29c0.066,0.034,0.103,0.107,0.09,0.18
			c-0.01,0.077-0.065,0.14-0.14,0.16C300.296,409.539,299.605,409.637,298.91,409.657z M297.74,408.027
			c-0.083-0.007-0.167,0.01-0.24,0.05c-0.05,0-0.11,0.07-0.12,0.22c-0.032,0.251,0.062,0.501,0.25,0.67
			c0.882,0.4,1.883,0.45,2.8,0.14C299.611,408.578,298.698,408.212,297.74,408.027z"/>
		<path style="fill:#F66A75;" d="M300.92,409.377h-0.09c-0.81-0.44-2.38-2.17-2.22-3c0.057-0.286,0.309-0.491,0.6-0.49
			c0.286-0.038,0.573,0.05,0.79,0.24c0.91,0.74,1.1,3,1.11,3.11c0.001,0.068-0.033,0.133-0.09,0.17
			C300.984,409.408,300.949,409.397,300.92,409.377z M299.34,406.187h-0.09c-0.24,0-0.26,0.14-0.27,0.19
			c-0.1,0.51,0.9,1.82,1.71,2.43c-0.053-0.896-0.377-1.754-0.93-2.46C299.644,406.245,299.495,406.188,299.34,406.187z"/>
		<polygon style="opacity:0.2;enable-background:new    ;" points="308.958,392.531 300.846,393.388 301.638,402.413 
			309.751,401.556 		"/>
		<polygon style="opacity:0.2;enable-background:new    ;" points="350.32,391.237 342.45,391.237 342.79,400.627 350.66,400.627 		
			"/>
		<path style="fill:#F66A75;" d="M347.075,231.5h-41.724c-3.967,21.663-16.385,98.323-7.476,166.628L312,396.376
			c0,0-1.308-90.677,11.164-124.2c1.434,17.941,3.138,37.03,4.617,47.187c3.63,25,11.4,79.636,11.4,79.636h14.38
			c0,0-2.94-52.297-4.3-76.867C347.774,295.459,347.132,236.978,347.075,231.5z"/>
		<path style="opacity:0.2;enable-background:new    ;" d="M323.16,272.18c-1.84,4.94-3.37,11.11-4.66,18.05
			c-1.167-15.965,3.5-32.897,3.5-32.897L323.16,272.18z"/>
		<g>
			<polygon style="fill:#F66A75;" points="296.259,401.419 313.742,398.818 313.207,393.976 295.021,396.364 			"/>
			<polygon style="opacity:0.6;fill:#FFFFFF;enable-background:new    ;" points="296.259,401.419 313.742,398.818 313.207,393.976 
				295.021,396.364 			"/>
		</g>
		<g>
			<polygon style="fill:#F66A75;" points="337.45,399.117 354.41,399.117 354.41,394.047 336.81,393.717 			"/>
			<polygon style="opacity:0.6;fill:#FFFFFF;enable-background:new    ;" points="337.45,399.117 354.41,399.117 354.41,394.047 
				336.81,393.717 			"/>
		</g>
		<polygon style="fill:#263238;" points="305,232 347,232 347,237 304.465,236.483 		"/>
		<rect x="332" y="229.75" style="fill:#F66A75;" width="1.5" height="8.875"/>
		<rect x="310.75" y="229.75" style="fill:#F66A75;" width="1.5" height="8.875"/>
		<path style="opacity:0.2;enable-background:new    ;" d="M310.66,179.98c-2.51,0.16-6.86,0.97-11.46,1.95
			c1.55-6.7,9.8-12.18,9.8-12.18L310.66,179.98z"/>
		<rect x="316.375" y="231.125" style="fill:#FFFFFF;" width="7.768" height="5.597"/>
		<path style="fill:#263238;" d="M355.47,163.05c0,0-1.27,6.38-2.82,15.65c-0.7,4.21-1.46,9.01-2.19,14.09
			c-1.88,13.12-3.54,28.05-3.39,39.21H305c0,0-2.73-46.89,4.16-72.69C309.16,159.31,335.7,158.06,355.47,163.05z"/>
		<path style="fill:#B97964;" d="M340.38,160.25c-3.83,3.48-13.213,2.193-13.213,2.193s-5.857-1.603-4.627-3.433
			c3.45-0.57,5.12-2.18,5.81-4.24c0.4-1.2,0.46-2.55,0.35-3.94c-0.05-0.73-0.16-1.47-0.29-2.2l11.6-8.59
			C338.49,145.71,336.63,156.14,340.38,160.25z"/>
		<path style="opacity:0.2;enable-background:new    ;" d="M337.33,145.5c-0.46,6.96-6.18,8.88-8.98,9.27
			c0.4-1.2,0.46-2.55,0.35-3.94L337.33,145.5z"/>
		<g>
			<path style="fill:#263238;" d="M338.67,155.833l-11.088,5l-0.65-4.008l-4.077,1.434c-1.463,0.515-2.382,1.966-2.221,3.509
				l0.46,4.399l5.626-3.079l2.803,3.965l13.319-6.415L338.67,155.833z"/>
			<path style="opacity:0.2;fill:#FFFFFF;enable-background:new    ;" d="M338.67,155.833l-11.088,5l-0.65-4.008l-4.077,1.434
				c-1.463,0.515-2.382,1.966-2.221,3.509l0.46,4.399l5.626-3.079l2.803,3.965l13.319-6.415L338.67,155.833z"/>
		</g>
		<path style="fill:#F66A75;" d="M351.16,162.078c0,0-9.813,32.977-1.146,38.926c0,0-1.2,27.139-2.937,30.973
			c0,0-22.407,1.345-42.074,0.011c0,0-1.668-12.728-1.335-30.944c0,0,3.166-3.971,3.166-6.971S308.663,167,314.665,159H318
			c0,0-4.833,9.833-4.167,18.5c0,0,14.667,2.5,25.333,1c0,0,3.167-11.667,6.667-17.5L351.16,162.078z"/>
		<path style="opacity:0.2;enable-background:new    ;" d="M312.25,203H337c0,0,1.5,20.331-15.524,19
			C308.472,220.983,312.25,203,312.25,203z"/>
		<g>
			<path style="fill:#263238;" d="M320.483,121.702c0,0-3.311,10.445,1.721,15.456c5.032,5.01,8.168-14.911,8.168-14.911
				L320.483,121.702z"/>
			<path style="fill:#B97964;" d="M338.882,146.343c-0.418,0.663-0.922,1.292-1.527,1.916c-3.379,3.527-8.037,3.857-11.745,2.008
				c-2.385-1.185-4.373-3.28-5.383-6c-0.137-0.356-0.25-0.728-0.352-1.108c-0.218-0.864-0.404-1.805-0.522-2.795
				c-0.913-6.936,0.61-16.162,7.257-18.962c5.396-2.319,11.665,0.176,13.982,5.582c0.67,1.533,0.953,3.207,0.851,4.882
				C341.147,138.449,341.211,142.741,338.882,146.343z"/>
			<path style="opacity:0.1;enable-background:new    ;" d="M338.882,146.343c-0.418,0.663-0.922,1.292-1.527,1.916
				c-3.379,3.527-8.037,3.857-11.745,2.008c-2.385-1.185-4.373-3.28-5.383-6c-0.137-0.356-0.25-0.728-0.352-1.108
				c-0.218-0.864-0.404-1.805-0.522-2.795c1.067,0.553,2.703,1.286,3.783,1.243c1.721-0.063,2.553,0.756,2.553,0.756
				c2.517-1.517,6.578-1.597,8.453-2.061c1.875-0.464,2.357-7.707,2.357-7.707l2.383,2.612
				C339.911,139.935,339.799,143.602,338.882,146.343z"/>
			<path style="fill:#263238;" d="M329.655,134.196c0.052,0.628-0.316,1.15-0.737,1.155c-0.421,0.005-0.755-0.509-0.767-1.14
				c-0.012-0.631,0.326-1.151,0.737-1.155C329.299,133.051,329.642,133.555,329.655,134.196z"/>
			<path style="fill:#263238;" d="M322.489,134.289c0.052,0.628-0.326,1.151-0.737,1.155c-0.411,0.004-0.755-0.509-0.767-1.14
				c-0.012-0.631,0.326-1.151,0.737-1.155C322.133,133.145,322.479,133.688,322.489,134.289z"/>
			<path style="fill:#A24E3F;" d="M324.77,134.571c-0.729,1.949-1.725,3.787-2.958,5.463c0.89,0.619,2.008,0.813,3.054,0.529
				L324.77,134.571z"/>
			<path style="fill:#263238;" d="M331.849,131.846c-0.137,0.021-0.276-0.032-0.363-0.14c-0.563-0.761-1.452-1.212-2.399-1.216
				c-0.204,0.018-0.383-0.133-0.4-0.337c-0.017-0.203,0.134-0.383,0.337-0.4c0,0,0.001,0,0.002,0
				c1.197-0.025,2.332,0.531,3.044,1.493c0.13,0.158,0.108,0.391-0.05,0.521c-0.002,0.002-0.005,0.004-0.007,0.006
				C331.962,131.806,331.907,131.83,331.849,131.846z"/>
			<path style="fill:#263238;" d="M325.938,143.833L325.938,143.833c1.845,0.255,3.698-0.405,4.966-1.77
				c0.068-0.085,0.056-0.208-0.027-0.278c-0.078-0.07-0.199-0.063-0.268,0.016c-0.003,0.004-0.007,0.008-0.009,0.011
				c-1.198,1.238-2.91,1.839-4.618,1.622c-0.104-0.017-0.201,0.053-0.218,0.157c-0.001,0.007-0.002,0.014-0.002,0.021
				c-0.017,0.104,0.053,0.201,0.157,0.218C325.924,143.832,325.931,143.833,325.938,143.833z"/>
			<path style="fill:#263238;" d="M319.377,131.858c-0.069,0.029-0.146,0.035-0.219,0.018c-0.186-0.084-0.269-0.303-0.185-0.489
				c0.001-0.003,0.002-0.005,0.003-0.007c0.486-1.098,1.475-1.892,2.653-2.127c0.202-0.028,0.389,0.113,0.417,0.315
				c0,0,0,0.001,0,0.001c0.023,0.202-0.116,0.385-0.316,0.418l0,0c-0.924,0.212-1.694,0.849-2.075,1.718
				C319.589,131.794,319.488,131.85,319.377,131.858z"/>
			<path style="fill:#263238;" d="M335.605,122.227l-0.538,3.416c1.104,0.639,1.739,1.931,1.173,3.265
				c-1.207,2.847,0.274,7.378,2.426,9.24c0,0,0.112-1.248,1.156-0.915c1.044,0.333,0.528,6.832-1.637,9.866
				c0,0,3.209-2.701,5.203-9.473c1.844-6.263,2.229-11.523,1.015-14.013L335.605,122.227z"/>
			<path style="fill:#263238;" d="M344.248,124.599c0,0,3.469-5.359-5.873-8.179c-9.342-2.82-15.84,1.191-15.84,1.191
				s-6.074,7.26,2.023,8.445C332.47,127.213,344.248,124.599,344.248,124.599z"/>
			<path style="fill:#B97964;" d="M345.632,138.315c-0.841,1.773-2.35,3.14-4.198,3.801c-2.452,0.859-3.844-1.297-3.309-3.702
				c0.496-2.132,2.357-5.219,4.891-5.014C345.551,133.606,346.636,136.126,345.632,138.315z"/>
			<g>
				<g>
					<path style="fill:#263238;" d="M340.433,125.349c0,0-2.727,25.891-15.872,24.181l1.577,1.074c0,0,11.822,1.688,16.02-24.983
						L340.433,125.349z"/>
					<path style="opacity:0.2;enable-background:new    ;" d="M340.433,125.349c0,0-2.727,25.891-15.872,24.181l1.577,1.074
						c0,0,11.822,1.688,16.02-24.983L340.433,125.349z"/>
				</g>
				<path style="fill:#F66A75;" d="M346.763,127.529c-3.879-0.955-16.513,1.106-22.455,0.849c-5.932-0.256-7.865-1.228-8.836-2.069
					c-1.069-0.927,2.585-1.952,2.585-1.952s0.468-8.956,7.855-13.118c0.002-0.01,0.002-0.01,0.012-0.008
					c1.922-1.084,4.319-1.841,7.284-2.032c2.251-0.152,4.144,0.106,5.729,0.649c8.927,3.035,8.241,15.044,8.241,15.044
					S350.653,128.476,346.763,127.529z"/>
				<path style="opacity:0.2;enable-background:new    ;" d="M346.763,127.529c-3.879-0.955-16.513,1.106-22.455,0.849
					c-5.932-0.256-7.865-1.228-8.836-2.069c-1.069-0.927,2.585-1.952,2.585-1.952s3.711,2.538,7.508,1.82
					c3.798-0.718,14.756-3.711,21.613-1.285C347.178,124.892,350.653,128.476,346.763,127.529z"/>
				<path style="opacity:0.2;enable-background:new    ;" d="M338.937,109.848c-3.791,0.608-6.972,4.096-8.437,7.358
					c-1.937,4.331-8.713,9.177-7.844-0.395c0.229-2.485,1.504-4.278,3.256-5.572c0.002-0.01,0.002-0.01,0.012-0.008
					c1.922-1.084,4.319-1.841,7.284-2.032C335.46,109.047,337.353,109.304,338.937,109.848z"/>
			</g>
		</g>
		<g>
			<polygon style="fill:#263238;" points="284.366,187.245 277.794,171.945 274.93,174.025 280.234,188.041 			"/>
			<polygon style="opacity:0.2;fill:#FFFFFF;enable-background:new    ;" points="284.366,187.245 277.794,171.945 274.93,174.025 
				280.234,188.041 			"/>
		</g>
		<g>
			<path style="fill:#F66A75;" d="M272.539,132.448c0,0-0.372,2.81,0.795,3.098c1.167,0.287,5.295,1.388,6.314,1.338
				c1.019-0.051,1.686-3.987,1.686-4.436S273.41,129.563,272.539,132.448z"/>
			<path style="opacity:0.7;fill:#FFFFFF;enable-background:new    ;" d="M272.539,132.448c0,0-0.372,2.81,0.795,3.098
				c1.167,0.287,5.295,1.388,6.314,1.338c1.019-0.051,1.686-3.987,1.686-4.436S273.41,129.563,272.539,132.448z"/>
		</g>
		<path style="opacity:0.2;enable-background:new    ;" d="M352.65,178.7c-0.7,4.21-1.46,9.01-2.19,14.09
			c-3.3-6.07-0.67-16.17-0.67-16.17L352.65,178.7z"/>
		<path style="fill:#263238;" d="M355.472,163.051c0,0,5.903,1.949,26.861,36.28l-12.083,7.419c0,0-15.125-20.725-19.09-21.75
			C351.16,185,346.188,167.875,355.472,163.051z"/>
		<g>
			<polygon style="fill:#263238;" points="381.745,197.171 368.125,206.75 370.75,209.125 383.375,201.05 			"/>
			<polygon style="opacity:0.2;fill:#FFFFFF;enable-background:new    ;" points="381.745,197.171 368.125,206.75 370.75,209.125 
				383.375,201.05 			"/>
		</g>
	</g>
</g>
<g id="Sign">
	<g>
		<g>
			<polygon style="fill:#263238;" points="54.823,417.477 62.046,417.477 78.715,266.644 71.492,266.644 			"/>
			<polygon style="opacity:0.1;fill:#FFFFFF;enable-background:new    ;" points="74.13,308.075 68.34,360.302 62.05,417 54.82,417 
				61.11,360.265 67.45,303 67.46,303 			"/>
			<polygon style="fill:#263238;" points="174.006,417.477 181.229,417.477 197.899,266.644 190.676,266.644 			"/>
			<polygon style="opacity:0.1;fill:#FFFFFF;enable-background:new    ;" points="184.22,390.23 181.23,417 174.01,417 
				177.55,385.12 			"/>
			<polygon style="fill:#263238;" points="61.111,360.582 187.566,360.582 204.865,204.056 78.409,204.056 			"/>
			<polygon style="opacity:0.1;fill:#FFFFFF;enable-background:new    ;" points="144.25,361 61.11,361 67.46,303.36 74.13,308.465 
							"/>
		</g>
		<g>
			<g>
				<polygon style="fill:#263238;" points="228.865,417.477 221.642,417.477 204.972,266.644 212.195,266.644 				"/>
				<polygon style="opacity:0.2;fill:#FFFFFF;enable-background:new    ;" points="228.865,417.477 221.642,417.477 
					204.972,266.644 212.195,266.644 				"/>
			</g>
			<g>
				<polygon style="fill:#263238;" points="109.682,417.477 102.458,417.477 85.789,266.644 93.012,266.644 				"/>
				<polygon style="opacity:0.2;fill:#FFFFFF;enable-background:new    ;" points="109.682,417.477 102.458,417.477 85.789,266.644 
					93.012,266.644 				"/>
			</g>
			<g>
				<polygon style="fill:#F66A75;" points="222.577,360.582 96.121,360.582 78.823,204.056 205.278,204.056 				"/>
				<polygon style="opacity:0.6;fill:#FFFFFF;enable-background:new    ;" points="222.577,360.582 96.121,360.582 78.823,204.056 
					205.278,204.056 				"/>
			</g>
			<g>
				<polygon style="fill:#F66A75;" points="205.242,204 206.789,218 80.382,218 78.835,204 				"/>
				<polygon style="opacity:0.2;fill:#FFFFFF;enable-background:new    ;" points="205.242,204 206.789,218 80.382,218 78.835,204 
									"/>
				<g>
					<polygon style="fill:#263238;" points="90.42,204 87.706,217.93 87.696,218 83.479,218 83.49,217.93 86.203,204 					"/>
					<polygon style="fill:#263238;" points="103.665,204 100.952,217.93 100.942,218 96.725,218 96.735,217.93 99.449,204 					"/>
					<polygon style="fill:#263238;" points="116.911,204 114.198,217.93 114.187,218 109.971,218 109.981,217.93 112.694,204 					
						"/>
					<polygon style="fill:#263238;" points="130.156,204 127.443,217.93 127.433,218 123.225,218 123.236,217.93 125.949,204 					
						"/>
					<polygon style="fill:#263238;" points="143.411,204 140.698,217.93 140.688,218 136.471,218 136.481,217.93 139.195,204 					
						"/>
					<polygon style="fill:#263238;" points="156.656,204 153.943,217.93 153.933,218 149.717,218 149.727,217.93 152.44,204 					
						"/>
					<polygon style="fill:#263238;" points="169.902,204 167.189,217.93 167.178,218 162.971,218 162.981,217.93 165.695,204 					
						"/>
					<polygon style="fill:#263238;" points="183.157,204 180.444,217.93 180.433,218 176.217,218 176.227,217.93 178.94,204 					
						"/>
					<polygon style="fill:#263238;" points="196.402,204 193.689,217.93 193.679,218 189.462,218 189.473,217.93 192.186,204 					
						"/>
					<polygon style="fill:#263238;" points="205.42,205.61 206.789,218 202.735,218 					"/>
				</g>
			</g>
			<g>
				<polygon style="fill:#F66A75;" points="96.186,361 94.639,347 221.046,347 222.593,361 				"/>
				<polygon style="opacity:0.2;fill:#FFFFFF;enable-background:new    ;" points="96.186,361 94.639,347 221.046,347 222.593,361 
									"/>
				<g>
					<polygon style="fill:#263238;" points="211.009,361 213.722,347.07 213.732,347 217.949,347 217.938,347.07 215.225,361 					
						"/>
					<polygon style="fill:#263238;" points="197.763,361 200.476,347.07 200.486,347 204.703,347 204.693,347.07 201.98,361 					
						"/>
					<polygon style="fill:#263238;" points="184.518,361 187.231,347.07 187.241,347 191.458,347 191.447,347.07 188.734,361 					
						"/>
					<polygon style="fill:#263238;" points="171.272,361 173.985,347.07 173.995,347 178.203,347 178.193,347.07 175.479,361 					
						"/>
					<polygon style="fill:#263238;" points="158.017,361 160.73,347.07 160.741,347 164.957,347 164.947,347.07 162.234,361 					
						"/>
					<polygon style="fill:#263238;" points="144.772,361 147.485,347.07 147.495,347 151.712,347 151.701,347.07 148.988,361 					
						"/>
					<polygon style="fill:#263238;" points="131.526,361 134.239,347.07 134.25,347 138.457,347 138.447,347.07 135.734,361 					
						"/>
					<polygon style="fill:#263238;" points="118.271,361 120.984,347.07 120.995,347 125.211,347 125.201,347.07 122.488,361 					
						"/>
					<polygon style="fill:#263238;" points="105.026,361 107.739,347.07 107.749,347 111.966,347 111.955,347.07 109.242,361 					
						"/>
					<polygon style="fill:#263238;" points="96.008,359.39 94.639,347 98.693,347 					"/>
				</g>
			</g>
			<g>
				<g>
					<g>
						<polygon style="fill:#F66A75;" points="127.625,260.156 117.282,284.559 119.862,313.63 105.821,335 108.831,335 
							124.348,315.872 126.527,297.127 139.547,315.996 138.193,335 141.335,335 144.653,311.863 132.962,287.461 141.785,270.971 
													"/>
					</g>
					<g>
						<path style="fill:#F66A75;" d="M133.335,267.044c0,0,2.052-10.653,6.225-11.669c1.48-0.36,6.701,4.68,6.665,8.232
							c-0.035,3.552-11.271,5.556-11.271,5.556L133.335,267.044z"/>
					</g>
					<g>
						<path style="fill:#F66A75;" d="M127.625,260.156c0,0-12.69-0.999-14.459-0.481c-1.769,0.518-0.438,13.514-0.438,13.514
							l2.105,0.574c0,0-0.129-10.708,0.512-10.701c0.64,0.008,11.562,3.152,11.562,3.152L127.625,260.156z"/>
					</g>
					<g>
						<path style="fill:#F66A75;" d="M141.785,270.936c1.436,1.059-2.995,19.113-2.995,19.113l4.35,9.461l-1.036,0.632
							c0,0-6.27-7.992-7.022-9.75c-1.48-3.463,1.241-15.274,1.241-15.274L141.785,270.936z"/>
					</g>
					<g>
						<polygon style="fill:#F66A75;" points="161.373,317.297 162.427,315.819 99.665,258.787 98.612,260.265 						"/>
					</g>
					<g>
						<path style="fill:#F66A75;" d="M162.179,312.059l-3.723,4.667c0,0,5.245,5.667,9.596,5.333
							C168.052,322.059,167.964,317.892,162.179,312.059z"/>
					</g>
					<g>
						<path style="fill:#F66A75;" d="M142.221,298.676c0,0,3.637,1.074,3.483,2.05c-0.153,0.976-0.709,2.5-1.336,2.583
							c-0.627,0.083-2.265-3.167-2.265-3.167L142.221,298.676z"/>
					</g>
					<g>
						<path style="fill:#F66A75;" d="M112.902,272.033c0,0-0.58,1.692,1.287,3.609c1.867,1.917,2.684,0,2.684,0L112.902,272.033z"/>
					</g>
				</g>
				<path style="fill:#F66A75;" d="M100.536,335h107.446l-5.884-2.804c0,0-5.731-9.902-8.839-12.152
					c-3.108-2.25-9.368-7.618-11.385-7.951c-2.017-0.333-2.763-4.351-4.718-4.351c-1.955,0-11.664,14.339-11.664,14.339
					s-1.732,2.648-3.84,3.648c-2.108,1-5.657,6.469-5.657,6.469S124.128,333,100.536,335z"/>
			</g>
			<g style="opacity:0.2;enable-background:new    ;">
				<g>
					<g>
						<polygon points="127.625,260.156 117.282,284.559 119.862,313.63 105.821,335 108.831,335 124.348,315.872 126.527,297.127 
							139.547,315.996 138.193,335 141.335,335 144.653,311.863 132.962,287.461 141.785,270.971 						"/>
					</g>
					<g>
						<path d="M133.335,267.044c0,0,2.052-10.653,6.225-11.669c1.48-0.36,6.701,4.68,6.665,8.232
							c-0.035,3.552-11.271,5.556-11.271,5.556L133.335,267.044z"/>
					</g>
					<g>
						<path d="M127.625,260.156c0,0-12.69-0.999-14.459-0.481c-1.769,0.518-0.438,13.514-0.438,13.514l2.105,0.574
							c0,0-0.129-10.708,0.512-10.701c0.64,0.008,11.562,3.152,11.562,3.152L127.625,260.156z"/>
					</g>
					<g>
						<path d="M141.785,270.936c1.436,1.059-2.995,19.113-2.995,19.113l4.35,9.461l-1.036,0.632c0,0-6.27-7.992-7.022-9.75
							c-1.48-3.463,1.241-15.274,1.241-15.274L141.785,270.936z"/>
					</g>
					<g>
						<polygon points="161.373,317.297 162.427,315.819 99.665,258.787 98.612,260.265 						"/>
					</g>
					<g>
						<path d="M162.179,312.059l-3.723,4.667c0,0,5.245,5.667,9.596,5.333C168.052,322.059,167.964,317.892,162.179,312.059z"/>
					</g>
					<g>
						<path d="M142.221,298.676c0,0,3.637,1.074,3.483,2.05c-0.153,0.976-0.709,2.5-1.336,2.583
							c-0.627,0.083-2.265-3.167-2.265-3.167L142.221,298.676z"/>
					</g>
					<g>
						<path d="M112.902,272.033c0,0-0.58,1.692,1.287,3.609c1.867,1.917,2.684,0,2.684,0L112.902,272.033z"/>
					</g>
				</g>
				<path d="M100.536,335h107.446l-5.884-2.804c0,0-5.731-9.902-8.839-12.152c-3.108-2.25-9.368-7.618-11.385-7.951
					c-2.017-0.333-2.763-4.351-4.718-4.351c-1.955,0-11.664,14.339-11.664,14.339s-1.732,2.648-3.84,3.648
					c-2.108,1-5.657,6.469-5.657,6.469S124.128,333,100.536,335z"/>
			</g>
		</g>
	</g>
</g>
<g id="Tools">
	<g>
		<polygon style="fill:#F66A75;" points="260.375,388 250.5,400.685 246.955,400.153 257.375,388 		"/>
		<polygon style="opacity:0.3;enable-background:new    ;" points="260.375,388 250.5,400.685 246.955,400.153 257.375,388 		"/>
		<polygon style="fill:#F66A75;" points="257.375,376 247.5,388.685 243.955,388.153 254.375,376 		"/>
		<polygon style="opacity:0.3;enable-background:new    ;" points="257.375,376 247.5,388.685 243.955,388.153 254.375,376 		"/>
		<polygon style="fill:#F66A75;" points="228.975,369.498 186.303,369.498 196.309,395.932 238.982,395.932 		"/>
		<polygon style="opacity:0.3;enable-background:new    ;" points="228.975,369.498 186.303,369.498 196.309,395.932 
			238.982,395.932 		"/>
		<g>
			<rect x="194.308" y="385.926" style="fill:#F66A75;" width="67.793" height="3.408"/>
			<rect x="194.308" y="385.926" style="opacity:0.2;enable-background:new    ;" width="26.022" height="3.408"/>
		</g>
		<g>
			<rect x="190.305" y="375.919" style="fill:#F66A75;" width="67.793" height="3.408"/>
			<rect x="190.305" y="375.919" style="opacity:0.2;enable-background:new    ;" width="26.022" height="3.408"/>
		</g>
		<polygon style="fill:#F66A75;" points="186.373,369.683 184.003,372.429 193.005,396 196.518,396 		"/>
		<g>
			<path style="fill:#F66A75;" d="M279.189,383.498l4.581,1.138c-0.274-2.129-1.981-4.716-4.601-5.367
				c-2.972-0.739-5.958,0.977-7.071,3.752c-0.387,0.964-0.499,1.939-0.31,2.992l-27.611,16.618c-3.239-2.719-7.068-0.676-8.65,1.541
				l4.565,1.112c1.072,0.266,1.717,1.338,1.451,2.41c-0.266,1.072-1.355,1.718-2.427,1.452l-4.583-1.142
				c0.275,2.129,1.98,4.714,4.6,5.365c2.972,0.739,6.054-0.817,7.167-3.592c0.387-0.964,0.595-1.779,0.406-2.832l27.611-16.618
				c2.723,1.863,6.971,0.515,8.553-1.702l-4.613-1.192c-1.072-0.266-1.741-1.378-1.475-2.45
				C277.048,383.912,278.117,383.232,279.189,383.498z"/>
			<path style="opacity:0.6;fill:#FFFFFF;enable-background:new    ;" d="M279.189,383.498l4.581,1.138
				c-0.274-2.129-1.981-4.716-4.601-5.367c-2.972-0.739-5.958,0.977-7.071,3.752c-0.387,0.964-0.499,1.939-0.31,2.992
				l-27.611,16.618c-3.239-2.719-7.068-0.676-8.65,1.541l4.565,1.112c1.072,0.266,1.717,1.338,1.451,2.41
				c-0.266,1.072-1.355,1.718-2.427,1.452l-4.583-1.142c0.275,2.129,1.98,4.714,4.6,5.365c2.972,0.739,6.054-0.817,7.167-3.592
				c0.387-0.964,0.595-1.779,0.406-2.832l27.611-16.618c2.723,1.863,6.971,0.515,8.553-1.702l-4.613-1.192
				c-1.072-0.266-1.741-1.378-1.475-2.45C277.048,383.912,278.117,383.232,279.189,383.498z"/>
		</g>
		<rect x="196.309" y="395.932" style="fill:#F66A75;" width="73.797" height="21.545"/>
		<rect x="196.309" y="395.932" style="opacity:0.2;enable-background:new    ;" width="29.024" height="21.545"/>
		<g>
			<path style="fill:#F66A75;" d="M170.392,412.022l-3.333-3.342c-0.865,1.965-0.742,5.061,1.165,6.973
				c2.163,2.169,5.605,2.243,7.993,0.443c0.829-0.625,1.429-1.402,1.812-2.401l32.226,0.044c1.367,4.002,5.701,4.232,8.201,3.151
				l-3.333-3.311c-0.78-0.782-0.778-2.033,0.004-2.813c0.782-0.78,2.048-0.771,2.828,0.012l3.333,3.346
				c0.865-1.965,0.742-5.059-1.165-6.971c-2.162-2.169-5.605-2.429-7.992-0.629c-0.829,0.625-1.429,1.215-1.812,2.215l-32.226-0.044
				c-1.368-3.002-5.701-4.044-8.201-2.964l3.333,3.405c0.78,0.782,0.778,2.08-0.004,2.86
				C172.438,412.775,171.172,412.804,170.392,412.022z"/>
			<path style="opacity:0.6;fill:#FFFFFF;enable-background:new    ;" d="M170.392,412.022l-3.333-3.342
				c-0.865,1.965-0.742,5.061,1.165,6.973c2.163,2.169,5.605,2.243,7.993,0.443c0.829-0.625,1.429-1.402,1.812-2.401l32.226,0.044
				c1.367,4.002,5.701,4.232,8.201,3.151l-3.333-3.311c-0.78-0.782-0.778-2.033,0.004-2.813c0.782-0.78,2.048-0.771,2.828,0.012
				l3.333,3.346c0.865-1.965,0.742-5.059-1.165-6.971c-2.162-2.169-5.605-2.429-7.992-0.629c-0.829,0.625-1.429,1.215-1.812,2.215
				l-32.226-0.044c-1.368-3.002-5.701-4.044-8.201-2.964l3.333,3.405c0.78,0.782,0.778,2.08-0.004,2.86
				C172.438,412.775,171.172,412.804,170.392,412.022z"/>
		</g>
	</g>
</g>
</svg>
