<?xml version="1.0" encoding="utf-8"?>
<!-- Generator: Adobe Illustrator 27.5.0, SVG Export Plug-In . SVG Version: 6.00 Build 0)  -->
<svg version="1.1" xmlns="http://www.w3.org/2000/svg" xmlns:xlink="http://www.w3.org/1999/xlink" x="0px" y="0px"
	 viewBox="0 0 500 500" style="enable-background:new 0 0 500 500;" xml:space="preserve">
<g id="Background_Complete">
	<g>
		<g>
			<rect y="382.398" style="fill:#EBEBEB;" width="500" height="0.25"/>
			<path style="fill:#EBEBEB;" d="M237.014,337.8H43.915c-3.147,0-5.708-2.561-5.708-5.708V60.66c0-3.147,2.561-5.708,5.708-5.708
				h193.099c3.146,0,5.707,2.561,5.707,5.708v271.432C242.721,335.239,240.16,337.8,237.014,337.8z M43.915,55.203
				c-3.01,0-5.458,2.448-5.458,5.458v271.432c0,3.01,2.448,5.458,5.458,5.458h193.099c3.009,0,5.457-2.448,5.457-5.458V60.66
				c0-3.009-2.448-5.458-5.457-5.458H43.915z"/>
			<path style="fill:#EBEBEB;" d="M453.31,337.8H260.212c-3.147,0-5.707-2.561-5.707-5.708V60.66c0-3.147,2.561-5.708,5.707-5.708
				H453.31c3.148,0,5.708,2.561,5.708,5.708v271.432C459.019,335.239,456.458,337.8,453.31,337.8z M260.212,55.203
				c-3.009,0-5.457,2.448-5.457,5.458v271.432c0,3.01,2.448,5.458,5.457,5.458H453.31c3.01,0,5.458-2.448,5.458-5.458V60.66
				c0-3.009-2.448-5.458-5.458-5.458H260.212z"/>
		</g>
		<g>
			<rect x="423.904" y="398.494" style="fill:#EBEBEB;" width="25.997" height="0.25"/>
			<rect x="311" y="401.208" style="fill:#EBEBEB;" width="45.027" height="0.25"/>
			<rect x="362.111" y="389.208" style="fill:#EBEBEB;" width="60.792" height="0.25"/>
			<rect x="52.459" y="390.888" style="fill:#EBEBEB;" width="19.235" height="0.25"/>
			<rect x="80.597" y="390.888" style="fill:#EBEBEB;" width="55.292" height="0.25"/>
			<rect x="169.667" y="395.111" style="fill:#EBEBEB;" width="74.467" height="0.25"/>
		</g>
	</g>
	<g>
		<g>
			<rect x="80.597" y="152.946" style="fill:#F5F5F5;" width="101.706" height="229.452"/>
			<rect x="90.143" y="161.002" style="fill:#E6E6E6;" width="82.612" height="213.341"/>
			<g>
				<rect x="95.826" y="171.002" style="fill:#FAFAFA;" width="71.247" height="4.879"/>
				<rect x="95.826" y="182.088" style="fill:#FAFAFA;" width="71.247" height="4.879"/>
				<rect x="95.826" y="193.174" style="fill:#FAFAFA;" width="71.247" height="4.879"/>
				<rect x="95.826" y="204.26" style="fill:#FAFAFA;" width="71.247" height="4.879"/>
				<rect x="95.826" y="215.346" style="fill:#FAFAFA;" width="71.247" height="4.879"/>
				<rect x="95.826" y="226.432" style="fill:#FAFAFA;" width="71.247" height="4.879"/>
				<rect x="95.826" y="237.518" style="fill:#FAFAFA;" width="71.247" height="4.879"/>
				<rect x="95.826" y="248.604" style="fill:#FAFAFA;" width="71.247" height="4.879"/>
				<rect x="95.826" y="259.69" style="fill:#FAFAFA;" width="71.247" height="4.879"/>
				<rect x="95.826" y="270.776" style="fill:#FAFAFA;" width="71.247" height="4.879"/>
				<rect x="95.826" y="281.862" style="fill:#FAFAFA;" width="71.247" height="4.879"/>
				<rect x="95.826" y="292.948" style="fill:#FAFAFA;" width="71.247" height="4.879"/>
				<rect x="95.826" y="304.034" style="fill:#FAFAFA;" width="71.247" height="4.879"/>
				<rect x="95.826" y="315.12" style="fill:#FAFAFA;" width="71.247" height="4.879"/>
				<rect x="95.826" y="326.206" style="fill:#FAFAFA;" width="71.247" height="4.879"/>
				<rect x="95.826" y="337.292" style="fill:#FAFAFA;" width="71.247" height="4.879"/>
				<rect x="95.826" y="348.378" style="fill:#FAFAFA;" width="71.247" height="4.879"/>
				<rect x="95.826" y="359.464" style="fill:#FAFAFA;" width="71.247" height="4.879"/>
			</g>
			
				<rect x="52.459" y="152.946" transform="matrix(-1 -1.224647e-16 1.224647e-16 -1 133.0558 535.3445)" style="fill:#E6E6E6;" width="28.138" height="229.452"/>
			<rect x="88.511" y="149" style="fill:#F0F0F0;" width="79.822" height="3.946"/>
			
				<rect x="66.428" y="149" transform="matrix(-1 -1.224647e-16 1.224647e-16 -1 154.9395 301.9461)" style="fill:#E0E0E0;" width="22.083" height="3.946"/>
			<ellipse style="fill:#F5F5F5;" cx="75.548" cy="162.39" rx="3.048" ry="7.444"/>
			<path style="fill:#F5F5F5;" d="M53.459,162.39c0,4.111,0.923,7.444,2.062,7.444c1.139,0,2.062-3.333,2.062-7.444
				c0-4.111-0.923-7.444-2.062-7.444C54.382,154.946,53.459,158.279,53.459,162.39z"/>
			<ellipse style="fill:#F5F5F5;" cx="75.548" cy="372.955" rx="3.048" ry="7.444"/>
			<path style="fill:#F5F5F5;" d="M53.459,372.955c0,4.111,0.923,7.444,2.062,7.444c1.139,0,2.062-3.333,2.062-7.444
				s-0.923-7.444-2.062-7.444C54.382,365.511,53.459,368.844,53.459,372.955z"/>
		</g>
		<g>
			<rect x="292.637" y="204.125" style="fill:#F5F5F5;" width="79.02" height="178.274"/>
			<rect x="300.054" y="210.384" style="fill:#E6E6E6;" width="64.186" height="165.756"/>
			<g>
				<rect x="304.469" y="218.153" style="fill:#FAFAFA;" width="55.356" height="3.791"/>
				<rect x="304.469" y="226.766" style="fill:#FAFAFA;" width="55.356" height="3.791"/>
				<rect x="304.469" y="235.38" style="fill:#FAFAFA;" width="55.356" height="3.791"/>
				<rect x="304.469" y="243.993" style="fill:#FAFAFA;" width="55.356" height="3.791"/>
				<rect x="304.469" y="252.606" style="fill:#FAFAFA;" width="55.356" height="3.791"/>
				<rect x="304.469" y="261.22" style="fill:#FAFAFA;" width="55.356" height="3.791"/>
				<rect x="304.469" y="269.833" style="fill:#FAFAFA;" width="55.356" height="3.791"/>
				<rect x="304.469" y="278.446" style="fill:#FAFAFA;" width="55.356" height="3.791"/>
				<rect x="304.469" y="287.059" style="fill:#FAFAFA;" width="55.356" height="3.791"/>
				<rect x="304.469" y="295.673" style="fill:#FAFAFA;" width="55.356" height="3.791"/>
				<rect x="304.469" y="304.286" style="fill:#FAFAFA;" width="55.356" height="3.791"/>
				<rect x="304.469" y="312.899" style="fill:#FAFAFA;" width="55.356" height="3.791"/>
				<rect x="304.469" y="321.513" style="fill:#FAFAFA;" width="55.356" height="3.791"/>
				<rect x="304.469" y="330.126" style="fill:#FAFAFA;" width="55.356" height="3.791"/>
				<rect x="304.469" y="338.739" style="fill:#FAFAFA;" width="55.356" height="3.791"/>
				<rect x="304.469" y="347.353" style="fill:#FAFAFA;" width="55.356" height="3.791"/>
				<rect x="304.469" y="355.966" style="fill:#FAFAFA;" width="55.356" height="3.791"/>
				<rect x="304.469" y="364.579" style="fill:#FAFAFA;" width="55.356" height="3.791"/>
			</g>
			
				<rect x="270.775" y="204.125" transform="matrix(-1 -1.224647e-16 1.224647e-16 -1 563.4118 586.5232)" style="fill:#E6E6E6;" width="21.862" height="178.274"/>
			<rect x="298.786" y="201.059" style="fill:#F0F0F0;" width="62.018" height="3.066"/>
			
				<rect x="281.628" y="201.059" transform="matrix(-1 -1.224647e-16 1.224647e-16 -1 580.4145 405.1836)" style="fill:#E0E0E0;" width="17.158" height="3.066"/>
			<path style="fill:#F5F5F5;" d="M286.346,211.462c0,3.194,1.06,5.783,2.368,5.783c1.308,0,2.368-2.589,2.368-5.783
				c0-3.194-1.06-5.783-2.368-5.783C287.406,205.679,286.346,208.268,286.346,211.462z"/>
			<path style="fill:#F5F5F5;" d="M271.552,211.462c0,3.194,0.717,5.783,1.602,5.783c0.885,0,1.602-2.589,1.602-5.783
				c0-3.194-0.717-5.783-1.602-5.783C272.269,205.679,271.552,208.268,271.552,211.462z"/>
			<path style="fill:#F5F5F5;" d="M286.346,375.061c0,3.194,1.06,5.783,2.368,5.783c1.308,0,2.368-2.589,2.368-5.783
				c0-3.194-1.06-5.783-2.368-5.783C287.406,369.278,286.346,371.867,286.346,375.061z"/>
			<path style="fill:#F5F5F5;" d="M271.552,375.061c0,3.194,0.717,5.783,1.602,5.783c0.885,0,1.602-2.589,1.602-5.783
				c0-3.194-0.717-5.783-1.602-5.783C272.269,369.278,271.552,371.867,271.552,375.061z"/>
		</g>
		<path style="fill:#E0E0E0;" d="M288.715,211.962h-46.63c-6.426,0-11.654-5.229-11.654-11.654v-15.712
			c0-5.875-4.78-10.654-10.655-10.654h-37.473v-1h37.473c6.427,0,11.655,5.229,11.655,11.654v15.712
			c0,5.875,4.779,10.654,10.654,10.654h46.63V211.962z"/>
		<path style="fill:#E0E0E0;" d="M273.154,375.561h-14.11c-6.427,0-11.655-5.228-11.655-11.655v-91.532
			c0-5.875-4.779-10.654-10.654-10.654h-54.432v-1h54.432c6.426,0,11.654,5.229,11.654,11.654v91.532
			c0,5.875,4.78,10.655,10.655,10.655h14.11V375.561z"/>
		<g>
			<g>
				<rect x="378.845" y="98.714" style="fill:#F0F0F0;" width="52.792" height="5.4"/>
				
					<rect x="364.24" y="98.714" transform="matrix(-1 -1.224647e-16 1.224647e-16 -1 743.0853 202.8275)" style="fill:#E0E0E0;" width="14.605" height="5.4"/>
			</g>
			<g>
				<rect x="378.845" y="85.486" style="fill:#F0F0F0;" width="52.792" height="5.4"/>
				
					<rect x="364.24" y="85.486" transform="matrix(-1 -1.224647e-16 1.224647e-16 -1 743.0853 176.3727)" style="fill:#E0E0E0;" width="14.605" height="5.4"/>
			</g>
			<g>
				<rect x="378.845" y="72.259" style="fill:#F0F0F0;" width="52.792" height="5.4"/>
				
					<rect x="364.24" y="72.259" transform="matrix(-1 -1.224647e-16 1.224647e-16 -1 743.0853 149.9179)" style="fill:#E0E0E0;" width="14.605" height="5.4"/>
			</g>
			<g>
				<rect x="378.845" y="59.031" style="fill:#F0F0F0;" width="52.792" height="5.401"/>
				
					<rect x="364.24" y="59.031" transform="matrix(-1 -1.224647e-16 1.224647e-16 -1 743.0853 123.4632)" style="fill:#E0E0E0;" width="14.605" height="5.401"/>
			</g>
			<g style="opacity:0.4;">
				<rect x="381.825" y="45.586" style="fill:#F0F0F0;" width="44.552" height="53.127"/>
				
					<rect x="369.5" y="45.586" transform="matrix(-1 -1.224647e-16 1.224647e-16 -1 751.325 144.2998)" style="fill:#E0E0E0;" width="12.326" height="53.127"/>
			</g>
		</g>
		<g>
			<g>
				<rect x="256.834" y="186.539" style="fill:#F0F0F0;" width="38.547" height="3.943"/>
				
					<rect x="246.169" y="186.539" transform="matrix(-1 -1.224647e-16 1.224647e-16 -1 503.0029 377.0215)" style="fill:#E0E0E0;" width="10.665" height="3.943"/>
			</g>
			<g>
				<rect x="256.834" y="176.881" style="fill:#F0F0F0;" width="38.547" height="3.943"/>
				
					<rect x="246.169" y="176.881" transform="matrix(-1 -1.224647e-16 1.224647e-16 -1 503.0029 357.7049)" style="fill:#E0E0E0;" width="10.665" height="3.943"/>
			</g>
			<g>
				<rect x="256.834" y="167.223" style="fill:#F0F0F0;" width="38.547" height="3.943"/>
				
					<rect x="246.169" y="167.223" transform="matrix(-1 -1.224647e-16 1.224647e-16 -1 503.0029 338.3883)" style="fill:#E0E0E0;" width="10.665" height="3.943"/>
			</g>
			<g>
				<rect x="256.834" y="157.564" style="fill:#F0F0F0;" width="38.547" height="3.943"/>
				
					<rect x="246.169" y="157.564" transform="matrix(-1 -1.224647e-16 1.224647e-16 -1 503.0029 319.0716)" style="fill:#E0E0E0;" width="10.665" height="3.943"/>
			</g>
			<g style="opacity:0.4;">
				<rect x="259.01" y="147.747" style="fill:#F0F0F0;" width="32.531" height="38.792"/>
				
					<rect x="250.01" y="147.747" transform="matrix(-1 -1.224647e-16 1.224647e-16 -1 509.0193 334.286)" style="fill:#E0E0E0;" width="9" height="38.792"/>
			</g>
		</g>
		<g>
			<g>
				<rect x="423.098" y="311.548" style="fill:#F0F0F0;" width="49.68" height="5.082"/>
				
					<rect x="409.354" y="311.548" transform="matrix(-1 -1.224647e-16 1.224647e-16 -1 832.4523 628.1782)" style="fill:#E0E0E0;" width="13.744" height="5.082"/>
			</g>
			<g>
				<rect x="423.098" y="299.1" style="fill:#F0F0F0;" width="49.68" height="5.082"/>
				
					<rect x="409.354" y="299.1" transform="matrix(-1 -1.224647e-16 1.224647e-16 -1 832.4523 603.283)" style="fill:#E0E0E0;" width="13.744" height="5.082"/>
			</g>
			<g>
				<rect x="423.098" y="286.653" style="fill:#F0F0F0;" width="49.68" height="5.082"/>
				
					<rect x="409.354" y="286.653" transform="matrix(-1 -1.224647e-16 1.224647e-16 -1 832.4523 578.3878)" style="fill:#E0E0E0;" width="13.744" height="5.082"/>
			</g>
			<g>
				<rect x="423.098" y="274.205" style="fill:#F0F0F0;" width="49.68" height="5.082"/>
				
					<rect x="409.354" y="274.205" transform="matrix(-1 -1.224647e-16 1.224647e-16 -1 832.4523 553.4926)" style="fill:#E0E0E0;" width="13.744" height="5.082"/>
			</g>
			<g style="opacity:0.4;">
				<rect x="425.903" y="261.553" style="fill:#F0F0F0;" width="41.925" height="49.995"/>
				
					<rect x="414.304" y="261.553" transform="matrix(-1 -1.224647e-16 1.224647e-16 -1 840.2063 573.1009)" style="fill:#E0E0E0;" width="11.599" height="49.995"/>
			</g>
		</g>
	</g>
</g>
<g id="Background_Simple" style="display:none;">
	<g style="display:inline;">
		<path style="fill:#407BFF;" d="M134.577,235.04c55.768-72.218,60.679-190.967,158.991-132.166
			c50.026,29.921,96.395,7.028,106.638,54.61c7.032,32.667-19.815,99.685-40.198,125.233
			c-30.705,38.487-67.567,34.166-108.996,32.919c-46.886-1.411-73.134,27.016-116.05,35.238c-31.317,6-78.313-21.508-74.376-62.035
			C65.409,239.183,110.814,265.813,134.577,235.04z"/>
		<path style="opacity:0.9;fill:#FFFFFF;" d="M134.577,235.04c55.768-72.218,60.679-190.967,158.991-132.166
			c50.026,29.921,96.395,7.028,106.638,54.61c7.032,32.667-19.815,99.685-40.198,125.233
			c-30.705,38.487-67.567,34.166-108.996,32.919c-46.886-1.411-73.134,27.016-116.05,35.238c-31.317,6-78.313-21.508-74.376-62.035
			C65.409,239.183,110.814,265.813,134.577,235.04z"/>
	</g>
</g>
<g id="Shadow_1_">
	<ellipse id="_x3C_Path_x3E__367_" style="fill:#F5F5F5;" cx="250" cy="416.238" rx="193.889" ry="11.323"/>
</g>
<g id="Servers">
	<g>
		<g>
			<rect x="318.477" y="115.276" style="fill:#407BFF;" width="108.889" height="104.444"/>
			<rect x="318.477" y="115.276" style="opacity:0.4;fill:#FFFFFF;" width="108.889" height="104.444"/>
			<rect x="353.144" y="115.276" style="opacity:0.7;fill:#FFFFFF;" width="74.222" height="104.444"/>
			<g>
				<rect x="356.855" y="120.609" style="fill:#407BFF;" width="66.8" height="12.935"/>
				<rect x="356.855" y="136.777" style="fill:#407BFF;" width="66.8" height="12.935"/>
				<rect x="356.855" y="152.946" style="fill:#407BFF;" width="66.8" height="12.935"/>
				<rect x="356.855" y="169.115" style="fill:#407BFF;" width="66.8" height="12.935"/>
				<rect x="356.855" y="185.283" style="fill:#407BFF;" width="66.8" height="12.935"/>
				<rect x="356.855" y="201.452" style="fill:#407BFF;" width="66.8" height="12.935"/>
			</g>
			<g>
				<rect x="322.366" y="120.609" style="fill:#407BFF;" width="26.889" height="12.935"/>
				<rect x="322.366" y="136.777" style="fill:#407BFF;" width="26.889" height="12.935"/>
				<rect x="322.366" y="152.946" style="fill:#407BFF;" width="26.889" height="12.935"/>
				<rect x="322.366" y="169.115" style="fill:#407BFF;" width="26.889" height="12.935"/>
				<rect x="322.366" y="185.283" style="fill:#407BFF;" width="26.889" height="12.935"/>
				<rect x="322.366" y="201.452" style="fill:#407BFF;" width="26.889" height="12.935"/>
			</g>
			<rect x="324.855" y="123.196" style="opacity:0.4;fill:#263238;" width="12.622" height="7.761"/>
			<rect x="324.855" y="139.365" style="opacity:0.4;fill:#263238;" width="12.622" height="7.761"/>
			<rect x="324.855" y="155.533" style="opacity:0.4;fill:#263238;" width="12.622" height="7.761"/>
			<rect x="324.855" y="171.702" style="opacity:0.4;fill:#263238;" width="12.622" height="7.761"/>
			<rect x="324.855" y="187.87" style="opacity:0.4;fill:#263238;" width="12.622" height="7.761"/>
			<rect x="324.855" y="204.039" style="opacity:0.4;fill:#263238;" width="12.622" height="7.761"/>
			<rect x="418.819" y="122.294" style="opacity:0.7;fill:#FFFFFF;" width="1.561" height="9.565"/>
			<rect x="415.819" y="122.294" style="opacity:0.7;fill:#FFFFFF;" width="1.561" height="9.565"/>
			<rect x="412.819" y="122.294" style="opacity:0.7;fill:#FFFFFF;" width="1.561" height="9.565"/>
			<rect x="409.819" y="122.294" style="opacity:0.7;fill:#FFFFFF;" width="1.561" height="9.565"/>
			<rect x="406.819" y="122.294" style="opacity:0.7;fill:#FFFFFF;" width="1.561" height="9.565"/>
			<rect x="418.819" y="138.462" style="opacity:0.7;fill:#FFFFFF;" width="1.561" height="9.565"/>
			<rect x="415.819" y="138.462" style="opacity:0.7;fill:#FFFFFF;" width="1.561" height="9.565"/>
			<rect x="412.819" y="138.462" style="opacity:0.7;fill:#FFFFFF;" width="1.561" height="9.565"/>
			<rect x="409.819" y="138.462" style="opacity:0.7;fill:#FFFFFF;" width="1.561" height="9.565"/>
			<rect x="406.819" y="138.462" style="opacity:0.7;fill:#FFFFFF;" width="1.561" height="9.565"/>
			<rect x="418.819" y="154.631" style="opacity:0.7;fill:#FFFFFF;" width="1.561" height="9.565"/>
			<rect x="415.819" y="154.631" style="opacity:0.7;fill:#FFFFFF;" width="1.561" height="9.565"/>
			<rect x="412.819" y="154.631" style="opacity:0.7;fill:#FFFFFF;" width="1.561" height="9.565"/>
			<rect x="409.819" y="154.631" style="opacity:0.7;fill:#FFFFFF;" width="1.561" height="9.565"/>
			<rect x="406.819" y="154.631" style="opacity:0.7;fill:#FFFFFF;" width="1.561" height="9.565"/>
			<rect x="418.819" y="170.8" style="opacity:0.7;fill:#FFFFFF;" width="1.561" height="9.565"/>
			<rect x="415.819" y="170.8" style="opacity:0.7;fill:#FFFFFF;" width="1.561" height="9.565"/>
			<rect x="412.819" y="170.8" style="opacity:0.7;fill:#FFFFFF;" width="1.561" height="9.565"/>
			<rect x="409.819" y="170.8" style="opacity:0.7;fill:#FFFFFF;" width="1.561" height="9.565"/>
			<rect x="406.819" y="170.8" style="opacity:0.7;fill:#FFFFFF;" width="1.561" height="9.565"/>
			<rect x="418.819" y="186.968" style="opacity:0.7;fill:#FFFFFF;" width="1.561" height="9.565"/>
			<rect x="415.819" y="186.968" style="opacity:0.7;fill:#FFFFFF;" width="1.561" height="9.565"/>
			<rect x="412.819" y="186.968" style="opacity:0.7;fill:#FFFFFF;" width="1.561" height="9.565"/>
			<rect x="409.819" y="186.968" style="opacity:0.7;fill:#FFFFFF;" width="1.561" height="9.565"/>
			<rect x="406.819" y="186.968" style="opacity:0.7;fill:#FFFFFF;" width="1.561" height="9.565"/>
			<rect x="418.819" y="203.137" style="opacity:0.7;fill:#FFFFFF;" width="1.561" height="9.565"/>
			<rect x="415.819" y="203.137" style="opacity:0.7;fill:#FFFFFF;" width="1.561" height="9.565"/>
			<rect x="412.819" y="203.137" style="opacity:0.7;fill:#FFFFFF;" width="1.561" height="9.565"/>
			<rect x="409.819" y="203.137" style="opacity:0.7;fill:#FFFFFF;" width="1.561" height="9.565"/>
			<rect x="406.819" y="203.137" style="opacity:0.7;fill:#FFFFFF;" width="1.561" height="9.565"/>
			<path style="opacity:0.2;fill:#FFFFFF;" d="M381.444,207.919c0-0.877,0.711-1.588,1.588-1.588s1.588,0.711,1.588,1.588
				c0,0.877-0.711,1.588-1.588,1.588S381.444,208.796,381.444,207.919z"/>
			<path style="opacity:0.2;fill:#FFFFFF;" d="M371.444,207.919c0-0.877,0.711-1.588,1.588-1.588s1.588,0.711,1.588,1.588
				c0,0.877-0.711,1.588-1.588,1.588S371.444,208.796,371.444,207.919z"/>
			<path style="opacity:0.4;fill:#FFFFFF;" d="M361.444,207.919c0-0.877,0.711-1.588,1.588-1.588s1.588,0.711,1.588,1.588
				c0,0.877-0.711,1.588-1.588,1.588S361.444,208.796,361.444,207.919z"/>
			<path style="opacity:0.4;fill:#FFFFFF;" d="M381.444,191.751c0-0.877,0.711-1.588,1.588-1.588s1.588,0.711,1.588,1.588
				s-0.711,1.588-1.588,1.588S381.444,192.628,381.444,191.751z"/>
			<path style="opacity:0.2;fill:#FFFFFF;" d="M371.444,191.751c0-0.877,0.711-1.588,1.588-1.588s1.588,0.711,1.588,1.588
				s-0.711,1.588-1.588,1.588S371.444,192.628,371.444,191.751z"/>
			<path style="opacity:0.4;fill:#FFFFFF;" d="M361.444,191.751c0-0.877,0.711-1.588,1.588-1.588s1.588,0.711,1.588,1.588
				s-0.711,1.588-1.588,1.588S361.444,192.628,361.444,191.751z"/>
			<path style="opacity:0.2;fill:#FFFFFF;" d="M381.444,175.582c0-0.877,0.711-1.588,1.588-1.588s1.588,0.711,1.588,1.588
				c0,0.877-0.711,1.588-1.588,1.588S381.444,176.459,381.444,175.582z"/>
			<path style="opacity:0.4;fill:#FFFFFF;" d="M371.444,175.582c0-0.877,0.711-1.588,1.588-1.588s1.588,0.711,1.588,1.588
				c0,0.877-0.711,1.588-1.588,1.588S371.444,176.459,371.444,175.582z"/>
			<path style="opacity:0.2;fill:#FFFFFF;" d="M361.444,175.582c0-0.877,0.711-1.588,1.588-1.588s1.588,0.711,1.588,1.588
				c0,0.877-0.711,1.588-1.588,1.588S361.444,176.459,361.444,175.582z"/>
			<path style="opacity:0.4;fill:#FFFFFF;" d="M381.444,159.413c0-0.877,0.711-1.588,1.588-1.588s1.588,0.711,1.588,1.588
				c0,0.877-0.711,1.588-1.588,1.588S381.444,160.291,381.444,159.413z"/>
			<path style="opacity:0.2;fill:#FFFFFF;" d="M371.444,159.413c0-0.877,0.711-1.588,1.588-1.588s1.588,0.711,1.588,1.588
				c0,0.877-0.711,1.588-1.588,1.588S371.444,160.291,371.444,159.413z"/>
			<path style="opacity:0.2;fill:#FFFFFF;" d="M361.444,159.413c0-0.877,0.711-1.588,1.588-1.588s1.588,0.711,1.588,1.588
				c0,0.877-0.711,1.588-1.588,1.588S361.444,160.291,361.444,159.413z"/>
			<path style="opacity:0.2;fill:#FFFFFF;" d="M381.444,143.245c0-0.877,0.711-1.588,1.588-1.588s1.588,0.711,1.588,1.588
				c0,0.877-0.711,1.588-1.588,1.588S381.444,144.122,381.444,143.245z"/>
			<path style="opacity:0.4;fill:#FFFFFF;" d="M371.444,143.245c0-0.877,0.711-1.588,1.588-1.588s1.588,0.711,1.588,1.588
				c0,0.877-0.711,1.588-1.588,1.588S371.444,144.122,371.444,143.245z"/>
			<path style="opacity:0.4;fill:#FFFFFF;" d="M361.444,143.245c0-0.877,0.711-1.588,1.588-1.588s1.588,0.711,1.588,1.588
				c0,0.877-0.711,1.588-1.588,1.588S361.444,144.122,361.444,143.245z"/>
			<path style="opacity:0.4;fill:#FFFFFF;" d="M381.444,127.076c0-0.877,0.711-1.588,1.588-1.588s1.588,0.711,1.588,1.588
				s-0.711,1.588-1.588,1.588S381.444,127.953,381.444,127.076z"/>
			<path style="opacity:0.2;fill:#FFFFFF;" d="M371.444,127.076c0-0.877,0.711-1.588,1.588-1.588s1.588,0.711,1.588,1.588
				s-0.711,1.588-1.588,1.588S371.444,127.953,371.444,127.076z"/>
			<path style="opacity:0.4;fill:#FFFFFF;" d="M361.444,127.076c0-0.877,0.711-1.588,1.588-1.588s1.588,0.711,1.588,1.588
				s-0.711,1.588-1.588,1.588S361.444,127.953,361.444,127.076z"/>
		</g>
		<g>
			<rect x="117.747" y="311.794" style="fill:#407BFF;" width="108.889" height="104.444"/>
			<rect x="117.747" y="311.794" style="opacity:0.4;fill:#FFFFFF;" width="108.889" height="104.444"/>
			<rect x="152.413" y="311.794" style="opacity:0.7;fill:#FFFFFF;" width="74.222" height="104.444"/>
			<g>
				<rect x="156.125" y="317.127" style="fill:#407BFF;" width="66.8" height="12.935"/>
				<rect x="156.125" y="333.296" style="fill:#407BFF;" width="66.8" height="12.935"/>
				<rect x="156.125" y="349.464" style="fill:#407BFF;" width="66.8" height="12.935"/>
				<rect x="156.125" y="365.633" style="fill:#407BFF;" width="66.8" height="12.935"/>
				<rect x="156.125" y="381.801" style="fill:#407BFF;" width="66.8" height="12.935"/>
				<rect x="156.125" y="397.97" style="fill:#407BFF;" width="66.8" height="12.935"/>
			</g>
			<g>
				<rect x="121.636" y="317.127" style="fill:#407BFF;" width="26.889" height="12.935"/>
				<rect x="121.636" y="333.296" style="fill:#407BFF;" width="26.889" height="12.935"/>
				<rect x="121.636" y="349.464" style="fill:#407BFF;" width="26.889" height="12.935"/>
				<rect x="121.636" y="365.633" style="fill:#407BFF;" width="26.889" height="12.935"/>
				<rect x="121.636" y="381.801" style="fill:#407BFF;" width="26.889" height="12.935"/>
				<rect x="121.636" y="397.97" style="fill:#407BFF;" width="26.889" height="12.935"/>
			</g>
			<rect x="124.125" y="319.714" style="opacity:0.4;fill:#263238;" width="12.622" height="7.761"/>
			<rect x="124.125" y="335.882" style="opacity:0.4;fill:#263238;" width="12.622" height="7.761"/>
			<rect x="124.125" y="352.051" style="opacity:0.4;fill:#263238;" width="12.622" height="7.761"/>
			<rect x="124.125" y="368.22" style="opacity:0.4;fill:#263238;" width="12.622" height="7.761"/>
			<rect x="124.125" y="384.388" style="opacity:0.4;fill:#263238;" width="12.622" height="7.761"/>
			<rect x="124.125" y="400.557" style="opacity:0.4;fill:#263238;" width="12.622" height="7.761"/>
			<rect x="218.089" y="318.812" style="opacity:0.7;fill:#FFFFFF;" width="1.561" height="9.565"/>
			<rect x="215.089" y="318.812" style="opacity:0.7;fill:#FFFFFF;" width="1.561" height="9.565"/>
			<rect x="212.089" y="318.812" style="opacity:0.7;fill:#FFFFFF;" width="1.561" height="9.565"/>
			<rect x="209.089" y="318.812" style="opacity:0.7;fill:#FFFFFF;" width="1.561" height="9.565"/>
			<rect x="206.089" y="318.812" style="opacity:0.7;fill:#FFFFFF;" width="1.561" height="9.565"/>
			<rect x="218.089" y="334.98" style="opacity:0.7;fill:#FFFFFF;" width="1.561" height="9.565"/>
			<rect x="215.089" y="334.98" style="opacity:0.7;fill:#FFFFFF;" width="1.561" height="9.565"/>
			<rect x="212.089" y="334.98" style="opacity:0.7;fill:#FFFFFF;" width="1.561" height="9.565"/>
			<rect x="209.089" y="334.98" style="opacity:0.7;fill:#FFFFFF;" width="1.561" height="9.565"/>
			<rect x="206.089" y="334.98" style="opacity:0.7;fill:#FFFFFF;" width="1.561" height="9.565"/>
			<rect x="218.089" y="351.149" style="opacity:0.7;fill:#FFFFFF;" width="1.561" height="9.565"/>
			<rect x="215.089" y="351.149" style="opacity:0.7;fill:#FFFFFF;" width="1.561" height="9.565"/>
			<rect x="212.089" y="351.149" style="opacity:0.7;fill:#FFFFFF;" width="1.561" height="9.565"/>
			<rect x="209.089" y="351.149" style="opacity:0.7;fill:#FFFFFF;" width="1.561" height="9.565"/>
			<rect x="206.089" y="351.149" style="opacity:0.7;fill:#FFFFFF;" width="1.561" height="9.565"/>
			<rect x="218.089" y="367.318" style="opacity:0.7;fill:#FFFFFF;" width="1.561" height="9.565"/>
			<rect x="215.089" y="367.318" style="opacity:0.7;fill:#FFFFFF;" width="1.561" height="9.565"/>
			<rect x="212.089" y="367.318" style="opacity:0.7;fill:#FFFFFF;" width="1.561" height="9.565"/>
			<rect x="209.089" y="367.318" style="opacity:0.7;fill:#FFFFFF;" width="1.561" height="9.565"/>
			<rect x="206.089" y="367.318" style="opacity:0.7;fill:#FFFFFF;" width="1.561" height="9.565"/>
			<rect x="218.089" y="383.486" style="opacity:0.7;fill:#FFFFFF;" width="1.561" height="9.565"/>
			<rect x="215.089" y="383.486" style="opacity:0.7;fill:#FFFFFF;" width="1.561" height="9.565"/>
			<rect x="212.089" y="383.486" style="opacity:0.7;fill:#FFFFFF;" width="1.561" height="9.565"/>
			<rect x="209.089" y="383.486" style="opacity:0.7;fill:#FFFFFF;" width="1.561" height="9.565"/>
			<rect x="206.089" y="383.486" style="opacity:0.7;fill:#FFFFFF;" width="1.561" height="9.565"/>
			<rect x="218.089" y="399.655" style="opacity:0.7;fill:#FFFFFF;" width="1.561" height="9.565"/>
			<rect x="215.089" y="399.655" style="opacity:0.7;fill:#FFFFFF;" width="1.561" height="9.565"/>
			<rect x="212.089" y="399.655" style="opacity:0.7;fill:#FFFFFF;" width="1.561" height="9.565"/>
			<rect x="209.089" y="399.655" style="opacity:0.7;fill:#FFFFFF;" width="1.561" height="9.565"/>
			<rect x="206.089" y="399.655" style="opacity:0.7;fill:#FFFFFF;" width="1.561" height="9.565"/>
			<path style="opacity:0.2;fill:#FFFFFF;" d="M163.891,323.594c0,0.877-0.711,1.588-1.588,1.588c-0.877,0-1.588-0.711-1.588-1.588
				s0.711-1.588,1.588-1.588C163.179,322.006,163.891,322.717,163.891,323.594z"/>
			<path style="opacity:0.2;fill:#FFFFFF;" d="M173.891,323.594c0,0.877-0.711,1.588-1.588,1.588c-0.877,0-1.588-0.711-1.588-1.588
				s0.711-1.588,1.588-1.588C173.179,322.006,173.891,322.717,173.891,323.594z"/>
			<path style="opacity:0.4;fill:#FFFFFF;" d="M183.891,323.594c0,0.877-0.711,1.588-1.588,1.588c-0.877,0-1.588-0.711-1.588-1.588
				s0.711-1.588,1.588-1.588C183.179,322.006,183.891,322.717,183.891,323.594z"/>
			<path style="opacity:0.4;fill:#FFFFFF;" d="M163.891,339.763c0,0.877-0.711,1.588-1.588,1.588c-0.877,0-1.588-0.711-1.588-1.588
				s0.711-1.588,1.588-1.588C163.179,338.175,163.891,338.886,163.891,339.763z"/>
			<path style="opacity:0.2;fill:#FFFFFF;" d="M173.891,339.763c0,0.877-0.711,1.588-1.588,1.588c-0.877,0-1.588-0.711-1.588-1.588
				s0.711-1.588,1.588-1.588C173.179,338.175,173.891,338.886,173.891,339.763z"/>
			<path style="opacity:0.4;fill:#FFFFFF;" d="M183.891,339.763c0,0.877-0.711,1.588-1.588,1.588c-0.877,0-1.588-0.711-1.588-1.588
				s0.711-1.588,1.588-1.588C183.179,338.175,183.891,338.886,183.891,339.763z"/>
			<path style="opacity:0.2;fill:#FFFFFF;" d="M163.891,355.931c0,0.877-0.711,1.588-1.588,1.588c-0.877,0-1.588-0.711-1.588-1.588
				c0-0.877,0.711-1.588,1.588-1.588C163.179,354.343,163.891,355.054,163.891,355.931z"/>
			<path style="opacity:0.4;fill:#FFFFFF;" d="M173.891,355.931c0,0.877-0.711,1.588-1.588,1.588c-0.877,0-1.588-0.711-1.588-1.588
				c0-0.877,0.711-1.588,1.588-1.588C173.179,354.343,173.891,355.054,173.891,355.931z"/>
			<path style="opacity:0.2;fill:#FFFFFF;" d="M183.891,355.931c0,0.877-0.711,1.588-1.588,1.588c-0.877,0-1.588-0.711-1.588-1.588
				c0-0.877,0.711-1.588,1.588-1.588C183.179,354.343,183.891,355.054,183.891,355.931z"/>
			<path style="opacity:0.4;fill:#FFFFFF;" d="M163.891,372.1c0,0.877-0.711,1.588-1.588,1.588c-0.877,0-1.588-0.711-1.588-1.588
				s0.711-1.588,1.588-1.588C163.179,370.512,163.891,371.223,163.891,372.1z"/>
			<path style="opacity:0.2;fill:#FFFFFF;" d="M173.891,372.1c0,0.877-0.711,1.588-1.588,1.588c-0.877,0-1.588-0.711-1.588-1.588
				s0.711-1.588,1.588-1.588C173.179,370.512,173.891,371.223,173.891,372.1z"/>
			<path style="opacity:0.2;fill:#FFFFFF;" d="M183.891,372.1c0,0.877-0.711,1.588-1.588,1.588c-0.877,0-1.588-0.711-1.588-1.588
				s0.711-1.588,1.588-1.588C183.179,370.512,183.891,371.223,183.891,372.1z"/>
			<path style="opacity:0.2;fill:#FFFFFF;" d="M163.891,388.269c0,0.877-0.711,1.588-1.588,1.588c-0.877,0-1.588-0.711-1.588-1.588
				c0-0.877,0.711-1.588,1.588-1.588C163.179,386.681,163.891,387.392,163.891,388.269z"/>
			<path style="opacity:0.4;fill:#FFFFFF;" d="M173.891,388.269c0,0.877-0.711,1.588-1.588,1.588c-0.877,0-1.588-0.711-1.588-1.588
				c0-0.877,0.711-1.588,1.588-1.588C173.179,386.681,173.891,387.392,173.891,388.269z"/>
			<path style="opacity:0.4;fill:#FFFFFF;" d="M183.891,388.269c0,0.877-0.711,1.588-1.588,1.588c-0.877,0-1.588-0.711-1.588-1.588
				c0-0.877,0.711-1.588,1.588-1.588C183.179,386.681,183.891,387.392,183.891,388.269z"/>
			<path style="opacity:0.4;fill:#FFFFFF;" d="M163.891,404.437c0,0.877-0.711,1.588-1.588,1.588c-0.877,0-1.588-0.711-1.588-1.588
				s0.711-1.588,1.588-1.588C163.179,402.849,163.891,403.56,163.891,404.437z"/>
			<path style="opacity:0.2;fill:#FFFFFF;" d="M173.891,404.437c0,0.877-0.711,1.588-1.588,1.588c-0.877,0-1.588-0.711-1.588-1.588
				s0.711-1.588,1.588-1.588C173.179,402.849,173.891,403.56,173.891,404.437z"/>
			<path style="opacity:0.4;fill:#FFFFFF;" d="M183.891,404.437c0,0.877-0.711,1.588-1.588,1.588c-0.877,0-1.588-0.711-1.588-1.588
				s0.711-1.588,1.588-1.588C183.179,402.849,183.891,403.56,183.891,404.437z"/>
		</g>
		<rect x="384.507" y="219.72" style="fill:#407BFF;" width="2" height="91.617"/>
		<path style="opacity:0.7;fill:#407BFF;" d="M327.333,365.016h-11.199v-2h11.199V365.016z M304.134,365.016h-12v-2h12V365.016z
			 M280.134,365.016h-12v-2h12V365.016z M256.134,365.016h-12v-2h12V365.016z"/>
		<g>
			<path style="fill:#407BFF;" d="M352.673,308.069l-14.43,70.782c-0.692,3.394,2.55,6.265,5.835,5.167l68.514-22.894
				c3.285-1.098,4.151-5.341,1.557-7.637l-54.084-47.888C357.472,303.302,353.365,304.675,352.673,308.069z"/>
			<path style="fill:#FFFFFF;" d="M346.732,372.746l11.364-55.737c0.282-1.383,1.955-1.942,3.012-1.007l42.588,37.709
				c1.057,0.936,0.704,2.664-0.634,3.112l-53.952,18.028C347.771,375.299,346.45,374.129,346.732,372.746z"/>
			<g>
				<path style="fill:#263238;" d="M360.491,333.662l1.574,4.71c0.025,0.076,0.055,0.15,0.089,0.222l5.335,11.213
					c0.427,0.897,1.456,1.335,2.399,1.02l2.091-0.699c0.94-0.314,1.5-1.28,1.305-2.252l-2.444-12.182
					c-0.016-0.08-0.037-0.159-0.063-0.236l-1.573-4.707c-0.344-1.03-1.458-1.586-2.488-1.242l-4.983,1.665
					C360.703,331.518,360.147,332.632,360.491,333.662z"/>
			</g>
			<path style="fill:#263238;" d="M376.362,355.466c0.619,1.853-0.381,3.858-2.235,4.477c-1.853,0.619-3.858-0.381-4.477-2.234
				c-0.619-1.854,0.381-3.858,2.234-4.477C373.738,352.612,375.743,353.612,376.362,355.466z"/>
		</g>
	</g>
</g>
<g id="Character_1_">
	<g>
		<g>
			<g>
				<path style="fill:#263238;" d="M166.828,172.444c-5.036,1.445-27.855,23.111-16.24,34.333
					c11.615,11.222,37.857,12.722,44.37,6.055c6.513-6.667,7.577-23.131,0-37.167C190.269,166.979,166.828,162.778,166.828,172.444z
					"/>
				<path style="opacity:0.5;fill:#FFFFFF;" d="M166.828,172.444c-5.036,1.445-27.855,23.111-16.24,34.333
					c11.615,11.222,37.857,12.722,44.37,6.055c6.513-6.667,7.577-23.131,0-37.167C190.269,166.979,166.828,162.778,166.828,172.444z
					"/>
			</g>
			<path style="fill:#7F3E3B;" d="M200.31,233.764l-0.013,0.634l0.002,0.803c0.008,0.548,0.008,1.105,0.037,1.668
				c0.045,1.124,0.142,2.261,0.282,3.39c0.258,2.264,0.704,4.497,1.269,6.681c0.596,2.175,1.345,4.291,2.275,6.311
				c0.471,1.006,0.986,1.99,1.543,2.946c0.269,0.486,0.57,0.949,0.866,1.417c0.143,0.238,0.308,0.46,0.464,0.688l0.424,0.617
				c0.013,0.059-0.114-0.061-0.386-0.154c-0.27-0.098-0.598-0.102-0.665-0.052c-0.159,0.12,0.534,0.032,1.273-0.378
				c1.548-0.803,3.413-2.3,5.12-3.926c3.476-3.278,6.832-7.212,10.031-11.055l0.061-0.074c1.058-1.27,2.945-1.442,4.215-0.385
				c1.056,0.879,1.351,2.334,0.814,3.528c-1.139,2.529-2.397,4.853-3.784,7.202c-1.391,2.33-2.909,4.608-4.648,6.836
				c-0.873,1.113-1.815,2.2-2.861,3.277c-1.046,1.075-2.199,2.137-3.645,3.122c-1.456,0.949-3.194,2.014-5.965,2.301
				c-1.361,0.131-3.016-0.074-4.458-0.742c-1.451-0.646-2.595-1.622-3.411-2.561l-0.776-0.919c-0.237-0.288-0.483-0.571-0.706-0.871
				c-0.455-0.592-0.914-1.184-1.335-1.801c-0.875-1.214-1.633-2.5-2.36-3.8c-0.721-1.304-1.359-2.645-1.956-4.003
				c-0.568-1.367-1.076-2.754-1.528-4.157c-0.887-2.807-1.513-5.677-1.879-8.576c-0.176-1.451-0.297-2.907-0.353-4.38
				c-0.03-0.735-0.045-1.477-0.033-2.23l0.041-1.146l0.035-0.596l0.058-0.716c0.266-3.298,3.154-5.756,6.452-5.49
				c3.173,0.255,5.569,2.939,5.509,6.08L200.31,233.764z"/>
			<path style="fill:#7F3E3B;" d="M238.289,239.98l-2.091-0.836c-1.388-0.555-2.938-0.54-4.314,0.041l-7.838,3.308l-2.017,3.617
				c2.888,4.615,7.938,2.24,7.938,2.24l4.926,0.363c0.94,0.069,1.837-0.406,2.307-1.224l2.305-4.01
				C240.248,242.186,239.674,240.534,238.289,239.98z"/>
			<path style="fill:#263238;" d="M196.446,223.859c3.642,2.224,7.385,18.083,7.385,18.083l-15.727,7.988
				c0,0-6.705-17.138-3.578-21.722C187.782,223.434,191.132,220.614,196.446,223.859z"/>
			<path style="opacity:0.2;" d="M199.49,235.789c0.634,1.764,0.771,4.943-0.056,8.386l-11.329,5.753c0,0-3.915-10.004-4.36-16.772
				C187.755,229.213,196.957,228.709,199.49,235.789z"/>
			<path style="fill:#263238;" d="M199.017,231.235c-0.527,7.967-2.714,28.953-7.594,41.515c-1.389,3.575,3.667,5.472-1.886,8.967
				l-39.437-2.191c-3.325-2.749-0.37-6.467-0.604-8.275c-1.954-15.083,0.927-19.751-3.026-52.888c0,0,8.632-1.352,17.407-1.258
				c6.864,0.074,12.486,0.186,18.471,1.089c2.662,0.402,5.437,0.938,7.947,1.473C195.675,220.812,199.38,225.746,199.017,231.235z"
				/>
			<path style="opacity:0.2;" d="M148.046,234.28c2.2,1.69,4.09,4.04,5.04,6.44c1.7,4.25-2.74,12.43-4.36,15.17
				C148.746,250.49,148.807,244.24,148.046,234.28z"/>
			<path style="fill:#407BFF;" d="M179.477,225.973c0,0-6.721,5.508-7.304,11.361c-6.083-4.667-13.083-14.868-8.296-20.228
				C168.912,215.848,179.477,225.973,179.477,225.973z"/>
			<path style="fill:#407BFF;" d="M180.34,227.713c0,0,5.167,4.422,5.25,9.62c3.397-4.5,3.397-15.75-3.242-19.139
				C177.312,216.938,180.34,227.713,180.34,227.713z"/>
			<g>
				<polygon style="fill:#7F3E3B;" points="215.548,365.19 224.109,369.701 236.47,348.983 227.91,344.473 				"/>
				<path style="fill:#263238;" d="M225.342,367.451l-5.017-10.094c-0.183-0.367-0.586-0.539-0.97-0.412l-8.558,2.819
					c-0.888,0.292-1.317,1.394-0.882,2.234c1.809,3.489,2.859,5.082,5.065,9.521c1.357,2.731,3.189,8.692,5.063,12.463
					c1.833,3.688,5.703,2.119,5.26,0.381c-1.985-7.793-0.582-11.774,0.232-15.136C225.683,368.621,225.609,367.988,225.342,367.451z
					"/>
				<g style="opacity:0.2;">
					<polygon points="227.904,344.477 236.468,348.989 229.089,361.345 221.179,355.739 					"/>
				</g>
				<g>
					<g>
						<path style="fill:#407BFF;" d="M183.527,281.668c0,0,60.336-8.478,65.786,9.351c10.235,33.479-15.353,66.671-15.353,66.671
							l-11.74-6.435c0,0,12.369-27.66,7.949-44.181c-11.443-3.192-67.001,22.988-67.206-18.327c-0.009-1.787,0.93-3.426,2.687-3.753
							L183.527,281.668z"/>
					</g>
					<g style="opacity:0.3;">
						<path style="fill:#FFFFFF;" d="M183.527,281.668c0,0,60.336-8.478,65.786,9.351c10.235,33.479-15.353,66.671-15.353,66.671
							l-11.74-6.435c0,0,12.369-27.66,7.949-44.181c-11.443-3.192-67.001,22.988-67.206-18.327c-0.009-1.787,0.93-3.426,2.687-3.753
							L183.527,281.668z"/>
					</g>
				</g>
				<polygon style="fill:#407BFF;" points="219.962,351.322 233.925,360.972 237.89,356.348 222.533,345.518 				"/>
				<path style="fill:#407BFF;" d="M226.51,372.737c0.036,0.018,0.073,0.034,0.11,0.048c0.424,0.165,0.863,0.094,1.306-0.21
					c0.334-0.229,0.395-0.518,0.387-0.72c-0.047-1.28-3.164-3.134-3.518-3.341c-0.088-0.054-0.185-0.042-0.261,0.014
					c-0.076,0.056-0.112,0.152-0.09,0.245C224.737,370.033,225.39,372.184,226.51,372.737z M225.048,369.225
					c1.225,0.778,2.767,1.974,2.792,2.648c0.003,0.085-0.014,0.197-0.181,0.312c-0.309,0.212-0.593,0.264-0.865,0.158
					C226.142,372.101,225.513,370.944,225.048,369.225z"/>
				<path style="fill:#407BFF;" d="M224.865,369.1c1.118,0.552,3.43,1.032,4.252,0.396c0.174-0.135,0.438-0.446,0.237-1.011
					c-0.127-0.358-0.375-0.611-0.732-0.76c-1.35-0.547-3.943,0.727-4.053,0.781c-0.076,0.038-0.126,0.113-0.131,0.197
					c-0.005,0.084,0.034,0.165,0.104,0.212C224.633,368.977,224.742,369.039,224.865,369.1z M228.51,368.196
					c0.194,0.096,0.323,0.242,0.396,0.448c0.102,0.288,0.01,0.406-0.08,0.477c-0.555,0.43-2.518,0.135-3.625-0.38
					c0.886-0.379,2.438-0.9,3.243-0.574C228.467,368.175,228.49,368.185,228.51,368.196z"/>
			</g>
			<g>
				<path style="fill:#407BFF;" d="M149.632,277.103l-1.255,3.58c-0.159,0.274,0.159,0.582,0.629,0.61l41.864,2.468
					c0.367,0.022,0.681-0.14,0.718-0.369l0.581-3.619c0.04-0.251-0.265-0.483-0.666-0.507l-41.191-2.428
					C150.01,276.819,149.734,276.927,149.632,277.103z"/>
			</g>
			<g>
				<g>
					<path style="fill:#263238;" d="M155.029,282.043l-1.103-0.065c-0.22-0.013-0.38-0.136-0.357-0.274l0.796-4.7
						c0.023-0.137,0.222-0.239,0.442-0.226l1.103,0.065c0.22,0.013,0.38,0.136,0.357,0.274l-0.796,4.7
						C155.447,281.954,155.248,282.056,155.029,282.043z"/>
				</g>
				<g>
					<path style="fill:#263238;" d="M187.747,283.972l-1.103-0.065c-0.22-0.013-0.38-0.136-0.357-0.274l0.796-4.7
						c0.023-0.138,0.222-0.24,0.442-0.227l1.103,0.065c0.22,0.013,0.38,0.136,0.357,0.274l-0.796,4.7
						C188.165,283.883,187.967,283.985,187.747,283.972z"/>
				</g>
				<g>
					<path style="fill:#263238;" d="M171.456,283.011l-1.103-0.065c-0.22-0.013-0.38-0.136-0.357-0.274l0.796-4.7
						c0.023-0.138,0.222-0.24,0.442-0.227l1.103,0.065c0.22,0.013,0.38,0.136,0.357,0.274l-0.796,4.7
						C171.874,282.922,171.675,283.024,171.456,283.011z"/>
				</g>
			</g>
			<path style="fill:#7F3E3B;" d="M166.802,198.645c0.815,6.012,1.467,14.739-2.925,18.46c0,0,7.224,4.245,14.132,13.146
				c0.729,0.94,2.173,0.871,2.81-0.133c5.085-8.009,1.528-11.924,1.528-11.924c-3.869-0.861-3.396-4.306-1.969-8.856
				L166.802,198.645z"/>
			<path style="fill:#FFFFFF;" d="M183.205,219.855c0.595,1.851,0.793,5.257-2.385,10.263c-0.638,1.004-2.081,1.073-2.81,0.133
				c-4.04-5.206-8.188-8.818-10.936-10.921c4.128,1.17,9.929,6.856,12.404,9.615C181.227,227.585,183.256,222.465,183.205,219.855z"
				/>
			<path style="opacity:0.2;" d="M170.536,203.28l7.52,4.23l2.32,1.83c-0.73,2.33-1.21,4.37-0.98,5.92
				C174.466,213.86,168.837,207.32,170.536,203.28z"/>
			<path style="fill:#7F3E3B;" d="M167.006,184.598c-1.579,9.831-2.457,13.959,1.325,20.035c5.689,9.139,18.109,8.928,22.594-0.233
				c4.036-8.246,5.94-22.938-2.687-28.926C179.738,169.574,168.585,174.766,167.006,184.598z"/>
			<g>
				<path style="fill:#263238;" d="M194.75,185c-1.25-5.333-0.632-14.333-10.691-13.833c-9.36,0.465-15.054-0.937-14.995,4.438
					c-10.342,5.057-10.978,10.295-3.731,15.246c5.515,1.323,6.927-5.012,6.292-10.2c4.045,2.326,11.619-1.029,15.183-0.9
					C191.417,179.917,196,190.333,194.75,185z"/>
				<path style="opacity:0.5;fill:#FFFFFF;" d="M194.75,185c-1.25-5.333-0.632-14.333-10.691-13.833
					c-9.36,0.465-15.054-0.937-14.995,4.438c-10.342,5.057-10.978,10.295-3.731,15.246c5.515,1.323,6.927-5.012,6.292-10.2
					c4.045,2.326,11.619-1.029,15.183-0.9C191.417,179.917,196,190.333,194.75,185z"/>
			</g>
			<path style="opacity:0.2;" d="M179.348,190.131c0,0-2.565,0.03-4.064-1.149C177.63,189.298,179.348,190.131,179.348,190.131z"/>
			<path style="opacity:0.2;" d="M179.593,189.439c0,0-2.334-0.323-3.273-1.65C178.333,188.411,179.593,189.439,179.593,189.439z"/>
			<path style="fill:#263238;" d="M181.895,190.641c-0.177,0.79,0.098,1.524,0.614,1.639c0.516,0.116,1.078-0.431,1.255-1.22
				c0.177-0.79-0.098-1.523-0.614-1.639C182.634,189.305,182.072,189.851,181.895,190.641z"/>
			<path style="fill:#263238;" d="M190.82,192.642c-0.177,0.79,0.098,1.523,0.614,1.639c0.516,0.116,1.078-0.431,1.255-1.22
				c0.177-0.79-0.098-1.524-0.614-1.639C191.559,191.306,190.997,191.852,190.82,192.642z"/>
			<path style="fill:#263238;" d="M191.837,191.415l2.019-0.121C193.857,191.293,192.551,192.556,191.837,191.415z"/>
			<path style="fill:#630F0F;" d="M187.749,193.447c0,0,0.578,3.7,1.685,5.671c-1.261,0.739-2.933-0.103-2.933-0.103
				L187.749,193.447z"/>
			<path style="fill:#263238;" d="M182.471,199.534c-0.37-0.075-0.765-0.125-1.187-0.145c-0.131-0.006-0.243,0.095-0.249,0.226
				c-0.006,0.132,0.095,0.249,0.226,0.248c3.549,0.172,5.089,2.721,5.104,2.747c0.067,0.114,0.212,0.152,0.325,0.085
				c0.113-0.066,0.151-0.212,0.085-0.325C186.716,202.268,185.428,200.132,182.471,199.534z"/>
			<path style="fill:#7F3E3B;" d="M162.754,191.754c0.304,2.042,1.523,3.753,2.902,4.74c2.075,1.485,3.981-0.16,4.132-2.573
				c0.136-2.172-0.78-5.562-3.212-6.091C164.179,187.309,162.406,189.42,162.754,191.754z"/>
			<path style="fill:#263238;" d="M181.303,183.942c0.159,0.122,0.384,0.134,0.558,0.013c1.809-1.249,4.474-0.291,4.501-0.281
				c0.246,0.091,0.519-0.036,0.61-0.282c0.091-0.245-0.033-0.519-0.282-0.61c-0.128-0.047-3.158-1.134-5.369,0.391
				c-0.216,0.149-0.27,0.445-0.121,0.661C181.23,183.877,181.265,183.913,181.303,183.942z"/>
			<path style="fill:#263238;" d="M192.322,188.202c-0.16,0.026-0.303,0.132-0.368,0.294c-0.097,0.244,0.022,0.52,0.266,0.617
				c2.442,0.97,4.251-0.275,4.325-0.328c0.214-0.152,0.265-0.448,0.114-0.662c-0.151-0.214-0.446-0.264-0.662-0.115
				c-0.072,0.05-1.487,0.993-3.427,0.222C192.489,188.197,192.403,188.189,192.322,188.202z"/>
			<g>
				<polygon style="fill:#7F3E3B;" points="229.016,397.918 238.244,395.007 232.216,371.647 222.989,374.558 				"/>
				<path style="fill:#263238;" d="M237.513,392.547l-10.703-3.536c-0.389-0.129-0.795,0.037-0.975,0.4l-4.017,8.065
					c-0.417,0.836,0.064,1.917,0.968,2.199c3.753,1.168,5.623,1.543,10.33,3.098c2.896,0.956,8.421,3.849,12.419,5.17
					c3.911,1.292,5.518-2.563,3.971-3.471c-6.935-4.072-8.777-7.87-10.594-10.813C238.584,393.128,238.083,392.736,237.513,392.547z
					"/>
				<g style="opacity:0.2;">
					<polygon points="222.988,374.565 232.219,371.652 235.81,385.589 226.261,387.267 					"/>
				</g>
				<g>
					<g>
						<path style="fill:#407BFF;" d="M169.786,280.779c0,0,55.747,3.823,56.751,22.439c1.886,34.957,10.101,76.338,10.101,76.338
							l-12.832,3.817c0,0-16.717-42.021-19.712-69.173c-10.34-5.85-60.959,14.519-55.97-31.493c0.193-1.776,1.727-3.102,3.511-2.997
							L169.786,280.779z"/>
					</g>
					<g style="opacity:0.4;">
						<path style="fill:#FFFFFF;" d="M169.786,280.779c0,0,55.747,3.823,56.751,22.439c1.886,34.957,10.101,76.338,10.101,76.338
							l-12.832,3.817c0,0-16.717-42.021-19.712-69.173c-10.34-5.85-60.959,14.519-55.97-31.493c0.193-1.776,1.727-3.102,3.511-2.997
							L169.786,280.779z"/>
					</g>
				</g>
				<polygon style="fill:#407BFF;" points="222.265,385.024 238.946,381.89 238.45,375.819 219.949,379.114 				"/>
				<path style="fill:#407BFF;" d="M242.092,395.436c0.038-0.013,0.075-0.028,0.112-0.044c0.415-0.186,0.674-0.547,0.77-1.076
					c0.072-0.398-0.09-0.646-0.239-0.782c-0.943-0.867-4.453,0.044-4.85,0.15c-0.1,0.024-0.16,0.101-0.174,0.195
					c-0.014,0.094,0.03,0.187,0.111,0.237C238.923,394.794,240.91,395.844,242.092,395.436z M238.566,394.005
					c1.415-0.323,3.35-0.578,3.846-0.121c0.063,0.057,0.13,0.149,0.094,0.348c-0.067,0.369-0.229,0.607-0.496,0.726
					C241.38,395.25,240.115,394.883,238.566,394.005z"/>
				<path style="fill:#407BFF;" d="M238.35,394.047c1.178-0.406,3.146-1.712,3.272-2.743c0.027-0.219-0.009-0.625-0.552-0.88
					c-0.344-0.162-0.698-0.164-1.055-0.014c-1.339,0.575-2.257,3.313-2.296,3.43c-0.027,0.081-0.008,0.169,0.048,0.232
					c0.056,0.063,0.141,0.092,0.224,0.075C238.099,394.125,238.219,394.091,238.35,394.047z M240.271,390.82
					c0.204-0.07,0.4-0.059,0.597,0.033c0.277,0.13,0.296,0.278,0.282,0.392c-0.085,0.697-1.675,1.885-2.82,2.309
					c0.354-0.896,1.076-2.366,1.874-2.709C240.226,390.836,240.249,390.828,240.271,390.82z"/>
			</g>
			<path style="fill:#263238;" d="M182.912,189.413l2.019-0.122C184.931,189.292,183.626,190.555,182.912,189.413z"/>
			<path style="fill:#7F3E3B;" d="M151.706,233.081c-0.969,2.927-2.014,6.063-2.925,9.134c-0.941,3.087-1.825,6.188-2.68,9.289
				c-0.842,3.104-1.598,6.217-2.314,9.327c-0.664,3.113-1.283,6.223-1.745,9.32c-0.414,2.658-0.404,5.749-0.295,8.892
				c0.149,3.149,0.366,6.369,0.693,9.595c0.628,6.452,1.419,13.015,2.243,19.504l0.007,0.052c0.208,1.635-0.949,3.129-2.584,3.336
				c-1.433,0.182-2.758-0.686-3.203-2.004c-2.171-6.415-3.968-12.856-5.407-19.491c-0.693-3.319-1.347-6.67-1.784-10.12
				c-0.419-3.451-0.795-7.014-0.464-10.948c0.553-6.973,1.759-13.741,3.324-20.377c0.779-3.318,1.661-6.604,2.627-9.861
				c1.003-3.271,1.982-6.445,3.234-9.759c1.171-3.1,4.633-4.663,7.733-3.493c3.018,1.14,4.58,4.451,3.58,7.486L151.706,233.081z"/>
			<path style="fill:#263238;" d="M146.47,218.363c-4.148,0.999-9.87,14.743-9.87,14.743l12.826,11.638
				c0,0,8.775-10.777,7.372-16.145C155.339,223.008,151.204,217.223,146.47,218.363z"/>
			<path style="fill:#7F3E3B;" d="M153.585,315.393l-0.049-0.284c-0.33-1.919-1.54-3.573-3.268-4.469l-6.878-3.567l-4.071,0.76
				c-0.762,4.101,4.266,8.129,4.266,8.129l1.092,2.322c0.761,1.618,2.623,2.398,4.309,1.805l2.322-0.816
				C152.911,318.708,153.874,317.069,153.585,315.393z"/>
			<path style="fill:#407BFF;" d="M221.307,246.204c0.833,0.881,2.619,0.544,3.99-0.752c1.371-1.296,1.808-3.061,0.975-3.942
				c-0.833-0.881-2.619-0.544-3.99,0.752C220.911,243.559,220.475,245.324,221.307,246.204z"/>
			<path style="fill:#407BFF;" d="M226.656,249.95c-0.048,0-0.096-0.003-0.145-0.011c-0.18-0.025-4.397-0.717-3.457-7.583
				c0.075-0.547,0.575-0.922,1.127-0.855c0.547,0.075,0.93,0.58,0.855,1.127c-0.664,4.843,1.737,5.329,1.762,5.333
				c0.546,0.079,0.925,0.586,0.846,1.133C227.573,249.592,227.145,249.95,226.656,249.95z"/>
			<path style="fill:#FFFFFF;" d="M221.68,245.236c0.494,0.523,1.719,0.168,2.735-0.793c1.017-0.961,1.44-2.164,0.946-2.687
				c-0.494-0.523-1.719-0.167-2.736,0.794S221.185,244.713,221.68,245.236z"/>
		</g>
	</g>
</g>
<g id="_x35_04_Error">
	<g>
		<g>
			<path style="fill:#263238;" d="M57.339,75.384H76.29v6.369H63.453l-0.685,4.312c0.889-0.418,1.767-0.731,2.636-0.94
				c0.869-0.209,1.728-0.313,2.577-0.313c2.874,0,5.206,0.869,6.997,2.606c1.789,1.737,2.685,3.926,2.685,6.565
				c0,1.855-0.461,3.639-1.382,5.35c-0.921,1.712-2.228,3.019-3.92,3.92c-1.691,0.901-3.857,1.353-6.496,1.353
				c-1.895,0-3.519-0.18-4.87-0.539c-1.352-0.359-2.502-0.895-3.449-1.607c-0.947-0.712-1.715-1.519-2.303-2.42
				c-0.588-0.901-1.078-2.025-1.47-3.371l8.074-0.882c0.195,1.293,0.653,2.276,1.372,2.949c0.718,0.673,1.574,1.01,2.567,1.01
				c1.11,0,2.029-0.422,2.754-1.265c0.726-0.843,1.088-2.1,1.088-3.772c0-1.711-0.366-2.966-1.098-3.763
				c-0.731-0.797-1.705-1.195-2.92-1.195c-0.771,0-1.516,0.189-2.234,0.568c-0.536,0.274-1.124,0.771-1.764,1.489l-6.801-0.979
				L57.339,75.384z"/>
			<path style="fill:#263238;" d="M80.876,89.631c0-5.461,0.982-9.282,2.949-11.465c1.966-2.182,4.961-3.272,8.985-3.272
				c1.934,0,3.521,0.238,4.763,0.716c1.241,0.477,2.254,1.097,3.038,1.861c0.783,0.765,1.4,1.568,1.852,2.41
				c0.451,0.843,0.813,1.826,1.088,2.95c0.535,2.143,0.804,4.377,0.804,6.702c0,5.213-0.882,9.028-2.646,11.445
				c-1.764,2.417-4.801,3.626-9.112,3.626c-2.418,0-4.371-0.386-5.86-1.156c-1.489-0.771-2.711-1.901-3.665-3.391
				c-0.692-1.059-1.231-2.505-1.616-4.341C81.068,93.881,80.876,91.853,80.876,89.631z M88.793,89.651
				c0,3.658,0.323,6.156,0.971,7.496c0.646,1.339,1.584,2.009,2.813,2.009c0.809,0,1.512-0.284,2.106-0.853
				c0.595-0.568,1.032-1.467,1.313-2.695c0.281-1.228,0.422-3.142,0.422-5.742c0-3.814-0.323-6.379-0.97-7.692
				c-0.648-1.313-1.617-1.969-2.911-1.969c-1.319,0-2.273,0.669-2.861,2.009C89.087,83.553,88.793,86.032,88.793,89.651z"/>
			<path style="fill:#263238;" d="M121.366,98.744h-14.542v-6.565l14.542-17.285h6.957v17.658h3.605v6.192h-3.605v5.37h-6.957
				V98.744z M121.366,92.552V83.51l-7.684,9.042H121.366z"/>
			<path style="fill:#263238;" d="M149.077,75.384h23.792v6.134h-14.895v4.566h13.816v5.86h-13.816v5.663h15.326v6.507h-24.224
				V75.384z"/>
			<path style="fill:#263238;" d="M177.632,83.301h7.467v3.41c0.718-1.476,1.46-2.492,2.224-3.047
				c0.765-0.556,1.709-0.833,2.832-0.833c1.176,0,2.463,0.365,3.861,1.098l-2.47,5.683c-0.94-0.392-1.686-0.588-2.234-0.588
				c-1.045,0-1.854,0.432-2.43,1.294c-0.823,1.215-1.234,3.488-1.234,6.82v6.977h-8.016V83.301z"/>
			<path style="fill:#263238;" d="M197.132,83.301h7.467v3.41c0.718-1.476,1.46-2.492,2.224-3.047
				c0.765-0.556,1.709-0.833,2.832-0.833c1.176,0,2.463,0.365,3.861,1.098l-2.47,5.683c-0.94-0.392-1.686-0.588-2.234-0.588
				c-1.045,0-1.854,0.432-2.43,1.294c-0.823,1.215-1.234,3.488-1.234,6.82v6.977h-8.016V83.301z"/>
			<path style="fill:#263238;" d="M214.534,93.767c0-3.175,1.071-5.791,3.214-7.849c2.143-2.059,5.037-3.087,8.682-3.087
				c4.168,0,7.317,1.208,9.446,3.625c1.712,1.947,2.567,4.345,2.567,7.192c0,3.202-1.062,5.824-3.185,7.869
				c-2.123,2.045-5.06,3.067-8.809,3.067c-3.346,0-6.05-0.85-8.114-2.548C215.802,99.934,214.534,97.177,214.534,93.767z
				 M222.53,93.747c0,1.855,0.375,3.228,1.127,4.115c0.751,0.889,1.695,1.333,2.832,1.333c1.149,0,2.094-0.438,2.832-1.313
				c0.737-0.875,1.106-2.279,1.106-4.213c0-1.804-0.372-3.146-1.116-4.027c-0.745-0.883-1.666-1.323-2.764-1.323
				c-1.163,0-2.123,0.447-2.881,1.343C222.909,90.556,222.53,91.918,222.53,93.747z"/>
			<path style="fill:#263238;" d="M242.364,83.301h7.467v3.41c0.718-1.476,1.46-2.492,2.224-3.047
				c0.765-0.556,1.709-0.833,2.832-0.833c1.176,0,2.463,0.365,3.861,1.098l-2.47,5.683c-0.94-0.392-1.685-0.588-2.234-0.588
				c-1.045,0-1.854,0.432-2.43,1.294c-0.823,1.215-1.234,3.488-1.234,6.82v6.977h-8.016V83.301z"/>
		</g>
	</g>
</g>
<g id="Gateway_Timeout">
	<path style="fill:#407BFF;" d="M64.7,127.774v-2.494l9.007-0.015v7.89c-1.383,1.102-2.81,1.932-4.279,2.487
		c-1.47,0.557-2.977,0.834-4.524,0.834c-2.089,0-3.986-0.447-5.693-1.341c-1.706-0.895-2.994-2.188-3.865-3.88
		c-0.87-1.692-1.305-3.583-1.305-5.671c0-2.069,0.433-4.001,1.298-5.794c0.865-1.794,2.11-3.126,3.734-3.996
		c1.625-0.87,3.496-1.306,5.613-1.306c1.537,0,2.927,0.249,4.17,0.747c1.242,0.498,2.216,1.192,2.922,2.081
		c0.706,0.89,1.242,2.051,1.61,3.481l-2.538,0.696c-0.319-1.083-0.716-1.934-1.189-2.553c-0.474-0.619-1.15-1.114-2.03-1.487
		c-0.88-0.372-1.856-0.558-2.93-0.558c-1.286,0-2.398,0.195-3.336,0.587c-0.938,0.392-1.694,0.906-2.27,1.545
		c-0.576,0.638-1.022,1.339-1.342,2.103c-0.542,1.316-0.813,2.741-0.813,4.279c0,1.895,0.326,3.48,0.979,4.757
		c0.652,1.276,1.603,2.224,2.85,2.843c1.247,0.619,2.572,0.928,3.974,0.928c1.219,0,2.408-0.234,3.568-0.703
		c1.16-0.469,2.04-0.97,2.64-1.501v-3.96H64.7z"/>
	<path style="fill:#407BFF;" d="M87.572,134.214c-0.967,0.822-1.898,1.402-2.792,1.741c-0.895,0.338-1.854,0.507-2.879,0.507
		c-1.692,0-2.992-0.413-3.901-1.239c-0.909-0.827-1.363-1.884-1.363-3.169c0-0.755,0.172-1.443,0.515-2.067
		c0.344-0.623,0.793-1.124,1.349-1.501c0.557-0.377,1.183-0.662,1.879-0.855c0.512-0.136,1.285-0.266,2.32-0.392
		c2.107-0.251,3.659-0.552,4.655-0.899c0.01-0.357,0.015-0.585,0.015-0.682c0-1.063-0.246-1.813-0.739-2.248
		c-0.667-0.59-1.658-0.885-2.974-0.885c-1.227,0-2.135,0.216-2.72,0.646c-0.585,0.431-1.018,1.191-1.298,2.284l-2.553-0.348
		c0.232-1.093,0.614-1.975,1.146-2.647c0.531-0.672,1.3-1.189,2.306-1.552c1.006-0.362,2.171-0.544,3.495-0.544
		c1.315,0,2.384,0.155,3.205,0.464c0.822,0.31,1.427,0.699,1.814,1.168c0.387,0.469,0.657,1.062,0.813,1.776
		c0.087,0.445,0.13,1.248,0.13,2.408v3.48c0,2.427,0.056,3.962,0.167,4.604c0.111,0.644,0.331,1.26,0.66,1.85h-2.727
		C87.823,135.573,87.649,134.939,87.572,134.214z M87.354,128.384c-0.947,0.387-2.369,0.716-4.264,0.986
		c-1.073,0.155-1.832,0.329-2.277,0.522c-0.444,0.193-0.788,0.476-1.029,0.849c-0.242,0.372-0.362,0.785-0.362,1.239
		c0,0.696,0.263,1.276,0.79,1.74c0.526,0.465,1.298,0.696,2.313,0.696c1.005,0,1.899-0.22,2.683-0.659
		c0.783-0.44,1.358-1.042,1.727-1.806c0.28-0.59,0.42-1.46,0.42-2.611V128.384z"/>
	<path style="fill:#407BFF;" d="M99.74,133.779l0.377,2.306c-0.735,0.155-1.393,0.232-1.973,0.232c-0.948,0-1.683-0.15-2.204-0.449
		c-0.522-0.3-0.891-0.694-1.103-1.183c-0.213-0.488-0.319-1.516-0.319-3.082v-8.861h-1.914v-2.03h1.914v-3.814l2.596-1.566v5.381
		h2.626v2.03h-2.626v9.007c0,0.744,0.046,1.223,0.139,1.436c0.092,0.213,0.241,0.382,0.449,0.508
		c0.208,0.126,0.505,0.189,0.892,0.189C98.884,133.881,99.266,133.847,99.74,133.779z"/>
	<path style="fill:#407BFF;" d="M112.837,131.154l2.697,0.333c-0.425,1.576-1.213,2.8-2.363,3.67
		c-1.151,0.87-2.621,1.305-4.409,1.305c-2.253,0-4.039-0.693-5.359-2.081c-1.319-1.387-1.979-3.333-1.979-5.838
		c0-2.591,0.667-4.602,2.001-6.033c1.335-1.431,3.066-2.147,5.192-2.147c2.06,0,3.742,0.701,5.048,2.104
		c1.305,1.401,1.958,3.374,1.958,5.917c0,0.155-0.006,0.387-0.015,0.696H104.12c0.097,1.692,0.575,2.987,1.437,3.887
		c0.86,0.899,1.934,1.349,3.22,1.349c0.957,0,1.773-0.251,2.451-0.754C111.903,133.059,112.44,132.256,112.837,131.154z
		 M104.266,126.934h8.601c-0.116-1.296-0.445-2.268-0.986-2.915c-0.832-1.006-1.91-1.509-3.234-1.509
		c-1.199,0-2.207,0.401-3.024,1.204C104.805,124.517,104.353,125.59,104.266,126.934z"/>
	<path style="fill:#407BFF;" d="M121.655,136.114l-4.714-15.402h2.697l2.451,8.891l0.914,3.307c0.039-0.164,0.305-1.224,0.798-3.177
		l2.451-9.021h2.683l2.307,8.934l0.768,2.944l0.885-2.973l2.64-8.905h2.538l-4.815,15.402h-2.712l-2.451-9.225l-0.595-2.625
		l-3.118,11.85H121.655z"/>
	<path style="fill:#407BFF;" d="M150.314,134.214c-0.967,0.822-1.898,1.402-2.792,1.741c-0.895,0.338-1.854,0.507-2.879,0.507
		c-1.692,0-2.992-0.413-3.901-1.239c-0.909-0.827-1.363-1.884-1.363-3.169c0-0.755,0.172-1.443,0.515-2.067
		c0.344-0.623,0.793-1.124,1.349-1.501c0.557-0.377,1.183-0.662,1.879-0.855c0.512-0.136,1.285-0.266,2.32-0.392
		c2.107-0.251,3.659-0.552,4.655-0.899c0.01-0.357,0.015-0.585,0.015-0.682c0-1.063-0.246-1.813-0.739-2.248
		c-0.667-0.59-1.658-0.885-2.974-0.885c-1.228,0-2.135,0.216-2.72,0.646c-0.585,0.431-1.018,1.191-1.298,2.284l-2.553-0.348
		c0.232-1.093,0.614-1.975,1.146-2.647c0.531-0.672,1.3-1.189,2.306-1.552c1.006-0.362,2.171-0.544,3.495-0.544
		c1.315,0,2.384,0.155,3.205,0.464c0.822,0.31,1.427,0.699,1.813,1.168c0.387,0.469,0.657,1.062,0.813,1.776
		c0.087,0.445,0.13,1.248,0.13,2.408v3.48c0,2.427,0.056,3.962,0.167,4.604c0.111,0.644,0.331,1.26,0.66,1.85h-2.727
		C150.564,135.573,150.391,134.939,150.314,134.214z M150.096,128.384c-0.947,0.387-2.369,0.716-4.264,0.986
		c-1.073,0.155-1.832,0.329-2.277,0.522c-0.444,0.193-0.788,0.476-1.029,0.849c-0.242,0.372-0.362,0.785-0.362,1.239
		c0,0.696,0.263,1.276,0.79,1.74c0.526,0.465,1.298,0.696,2.314,0.696c1.005,0,1.899-0.22,2.683-0.659
		c0.783-0.44,1.358-1.042,1.727-1.806c0.28-0.59,0.42-1.46,0.42-2.611V128.384z"/>
	<path style="fill:#407BFF;" d="M156.666,142.046l-0.29-2.451c0.57,0.155,1.068,0.232,1.494,0.232c0.58,0,1.044-0.097,1.393-0.29
		c0.348-0.193,0.633-0.464,0.855-0.813c0.164-0.261,0.43-0.908,0.798-1.943c0.048-0.145,0.125-0.357,0.232-0.638l-5.845-15.432
		h2.813l3.205,8.919c0.416,1.132,0.788,2.321,1.117,3.568c0.3-1.199,0.657-2.369,1.073-3.51l3.292-8.978h2.611l-5.859,15.663
		c-0.629,1.692-1.117,2.857-1.465,3.496c-0.465,0.86-0.996,1.491-1.596,1.893c-0.6,0.4-1.315,0.602-2.146,0.602
		C157.846,142.365,157.285,142.259,156.666,142.046z"/>
	<path style="fill:#407BFF;" d="M185.587,133.779l0.377,2.306c-0.735,0.155-1.393,0.232-1.973,0.232
		c-0.948,0-1.683-0.15-2.204-0.449c-0.522-0.3-0.891-0.694-1.102-1.183c-0.213-0.488-0.319-1.516-0.319-3.082v-8.861h-1.914v-2.03
		h1.914v-3.814l2.596-1.566v5.381h2.626v2.03h-2.626v9.007c0,0.744,0.046,1.223,0.139,1.436c0.092,0.213,0.241,0.382,0.449,0.508
		c0.208,0.126,0.505,0.189,0.892,0.189C184.73,133.881,185.112,133.847,185.587,133.779z"/>
	<path style="fill:#407BFF;" d="M188.153,117.854v-3.002h2.61v3.002H188.153z M188.153,136.114v-15.402h2.61v15.402H188.153z"/>
	<path style="fill:#407BFF;" d="M194.738,136.114v-15.402h2.335v2.161c0.483-0.755,1.126-1.361,1.929-1.82
		c0.803-0.459,1.717-0.689,2.741-0.689c1.141,0,2.076,0.237,2.807,0.711c0.729,0.474,1.245,1.136,1.545,1.987
		c1.218-1.799,2.804-2.698,4.757-2.698c1.527,0,2.702,0.423,3.524,1.27c0.821,0.846,1.232,2.149,1.232,3.908v10.573h-2.596v-9.703
		c0-1.044-0.085-1.796-0.254-2.255c-0.169-0.459-0.477-0.829-0.921-1.109c-0.445-0.28-0.967-0.421-1.566-0.421
		c-1.083,0-1.982,0.36-2.697,1.081c-0.716,0.72-1.073,1.873-1.073,3.459v8.948h-2.611v-10.008c0-1.16-0.213-2.03-0.638-2.61
		c-0.426-0.58-1.122-0.87-2.089-0.87c-0.734,0-1.414,0.193-2.037,0.58c-0.624,0.387-1.076,0.952-1.357,1.697
		c-0.28,0.744-0.421,1.817-0.421,3.22v7.991H194.738z"/>
	<path style="fill:#407BFF;" d="M230.024,131.154l2.697,0.333c-0.425,1.576-1.213,2.8-2.363,3.67
		c-1.151,0.87-2.621,1.305-4.409,1.305c-2.253,0-4.039-0.693-5.359-2.081c-1.319-1.387-1.979-3.333-1.979-5.838
		c0-2.591,0.667-4.602,2.001-6.033c1.335-1.431,3.066-2.147,5.192-2.147c2.06,0,3.742,0.701,5.048,2.104
		c1.305,1.401,1.958,3.374,1.958,5.917c0,0.155-0.006,0.387-0.015,0.696h-11.487c0.097,1.692,0.575,2.987,1.436,3.887
		c0.86,0.899,1.934,1.349,3.22,1.349c0.957,0,1.773-0.251,2.451-0.754C229.091,133.059,229.628,132.256,230.024,131.154z
		 M221.453,126.934h8.601c-0.116-1.296-0.445-2.268-0.986-2.915c-0.832-1.006-1.91-1.509-3.234-1.509
		c-1.199,0-2.207,0.401-3.024,1.204C221.992,124.517,221.54,125.59,221.453,126.934z"/>
	<path style="fill:#407BFF;" d="M235.028,128.413c0-2.853,0.793-4.965,2.379-6.338c1.324-1.141,2.939-1.712,4.844-1.712
		c2.117,0,3.849,0.694,5.192,2.081c1.344,1.388,2.016,3.305,2.016,5.751c0,1.982-0.297,3.541-0.892,4.678
		c-0.595,1.136-1.46,2.019-2.597,2.646c-1.136,0.629-2.376,0.942-3.72,0.942c-2.156,0-3.899-0.69-5.229-2.073
		C235.693,133.006,235.028,131.014,235.028,128.413z M237.711,128.413c0,1.973,0.431,3.449,1.291,4.431
		c0.86,0.981,1.943,1.472,3.249,1.472c1.296,0,2.374-0.493,3.234-1.479c0.86-0.986,1.291-2.49,1.291-4.511
		c0-1.905-0.434-3.348-1.299-4.329c-0.865-0.981-1.94-1.473-3.226-1.473c-1.306,0-2.389,0.488-3.249,1.465
		C238.142,124.966,237.711,126.44,237.711,128.413z"/>
	<path style="fill:#407BFF;" d="M262.614,136.114v-2.263c-1.199,1.74-2.828,2.61-4.888,2.61c-0.909,0-1.758-0.174-2.546-0.521
		c-0.788-0.349-1.373-0.786-1.755-1.313c-0.382-0.527-0.65-1.173-0.805-1.936c-0.106-0.513-0.159-1.324-0.159-2.437v-9.543h2.61
		v8.542c0,1.363,0.053,2.282,0.159,2.756c0.164,0.687,0.513,1.226,1.045,1.617c0.531,0.392,1.188,0.587,1.972,0.587
		c0.783,0,1.519-0.2,2.205-0.602s1.172-0.947,1.457-1.639c0.285-0.691,0.428-1.694,0.428-3.01v-8.252h2.611v15.402H262.614z"/>
	<path style="fill:#407BFF;" d="M274.739,133.779l0.377,2.306c-0.735,0.155-1.393,0.232-1.973,0.232
		c-0.948,0-1.683-0.15-2.204-0.449c-0.523-0.3-0.891-0.694-1.103-1.183c-0.213-0.488-0.319-1.516-0.319-3.082v-8.861h-1.914v-2.03
		h1.914v-3.814l2.596-1.566v5.381h2.626v2.03h-2.626v9.007c0,0.744,0.046,1.223,0.139,1.436c0.092,0.213,0.241,0.382,0.449,0.508
		c0.208,0.126,0.505,0.189,0.892,0.189C273.883,133.881,274.265,133.847,274.739,133.779z"/>
</g>
</svg>
