<?xml version="1.0" encoding="utf-8"?>
<!-- Generator: Adobe Illustrator 27.5.0, SVG Export Plug-In . SVG Version: 6.00 Build 0)  -->
<svg version="1.1" xmlns="http://www.w3.org/2000/svg" xmlns:xlink="http://www.w3.org/1999/xlink" x="0px" y="0px"
	 viewBox="0 0 500 500" style="enable-background:new 0 0 500 500;" xml:space="preserve">
<g id="Background_Complete">
	<g>
		<rect y="382.398" style="fill:#EBEBEB;" width="500" height="0.25"/>
		<rect x="416.779" y="398.494" style="fill:#EBEBEB;" width="33.122" height="0.25"/>
		<rect x="322.527" y="401.208" style="fill:#EBEBEB;" width="8.693" height="0.25"/>
		<rect x="396.586" y="389.208" style="fill:#EBEBEB;" width="19.192" height="0.25"/>
		<rect x="52.459" y="390.888" style="fill:#EBEBEB;" width="43.193" height="0.25"/>
		<rect x="104.556" y="390.888" style="fill:#EBEBEB;" width="6.333" height="0.25"/>
		<rect x="131.471" y="395.111" style="fill:#EBEBEB;" width="93.676" height="0.25"/>
		<path style="fill:#EBEBEB;" d="M237.014,337.8H43.915c-3.147,0-5.708-2.561-5.708-5.708V60.66c0-3.147,2.561-5.708,5.708-5.708
			h193.099c3.146,0,5.707,2.561,5.707,5.708v271.432C242.721,335.239,240.16,337.8,237.014,337.8z M43.915,55.203
			c-3.01,0-5.458,2.448-5.458,5.458v271.432c0,3.01,2.448,5.458,5.458,5.458h193.099c3.009,0,5.457-2.448,5.457-5.458V60.66
			c0-3.009-2.448-5.458-5.457-5.458H43.915z"/>
		<path style="fill:#EBEBEB;" d="M453.31,337.8H260.212c-3.147,0-5.707-2.561-5.707-5.708V60.66c0-3.147,2.561-5.708,5.707-5.708
			H453.31c3.148,0,5.708,2.561,5.708,5.708v271.432C459.019,335.239,456.458,337.8,453.31,337.8z M260.212,55.203
			c-3.009,0-5.457,2.448-5.457,5.458v271.432c0,3.01,2.448,5.458,5.457,5.458H453.31c3.01,0,5.458-2.448,5.458-5.458V60.66
			c0-3.009-2.448-5.458-5.458-5.458H260.212z"/>
	</g>
	<g>
		
			<ellipse transform="matrix(0.7071 -0.7071 0.7071 0.7071 -69.9712 326.6596)" style="fill:#F0F0F0;" cx="359.327" cy="247.793" rx="37.907" ry="37.907"/>
		<path style="fill:#F0F0F0;" d="M70.703,181.043H174.51c0,0-1.503-8.221-20.71-7.751c3.813-11.98-6.937-25.1-31.194-25.603
			c-24.258-0.504-15.73,19.026-15.73,19.026s-40.754-7.047-28.422,7.517C58.254,174.936,54.26,177.519,70.703,181.043z"/>
		<path style="fill:#FAFAFA;" d="M340.165,232.412c2.368-11.814-17.812-24.753-54.97-25.25s-18.523,18.764-18.523,18.764
			s-64.213-6.949-41.203,7.413c-30.621,0.695-35.969,3.243-9.867,6.718h158.392C373.996,240.056,369.336,231.948,340.165,232.412z"
			/>
		<path style="fill:#F5F5F5;" d="M319.574,143.925h107.556c0,0,24-13.778-4.444-15.555c4.889-11.778-7.123-31.758-49.111-32.222
			c-41.988-0.464-20.222,27.111-20.222,27.111s-64.004-18.444-41.556,10.889C302.018,134.147,267.129,143.925,319.574,143.925z"/>
		<path style="fill:#F5F5F5;" d="M94.309,286.632h48.332c0,0,10.785-6.191-1.997-6.99c2.197-5.293-3.201-14.271-22.069-14.48
			c-18.868-0.209-9.087,12.183-9.087,12.183s-28.762-8.289-18.674,4.893C86.42,282.238,70.741,286.632,94.309,286.632z"/>
		<path style="fill:#F0F0F0;" d="M92.125,97.922c0,0-13.632-8.739-23.12,3.689c7.793-7.722,22.602,0.056,22.602,0.056
			s16.95-7.699,22.602,0.056C108.165,89.256,92.125,97.922,92.125,97.922z"/>
		<path style="fill:#F0F0F0;" d="M165.252,213.032c0,0-8.206-5.261-13.918,2.221c4.692-4.649,13.606,0.034,13.606,0.034
			s10.204-4.635,13.606,0.034C174.908,207.816,165.252,213.032,165.252,213.032z"/>
		<path style="fill:#F5F5F5;" d="M314.773,91.136c0,0-4.103-2.63-6.959,1.11c2.346-2.324,6.803,0.017,6.803,0.017
			s5.102-2.317,6.803,0.017C319.601,88.528,314.773,91.136,314.773,91.136z"/>
		<path style="fill:#F5F5F5;" d="M415.066,180.92c0,0-4.103-2.63-6.959,1.11c2.346-2.324,6.803,0.017,6.803,0.017
			s5.102-2.317,6.803,0.017C419.894,178.312,415.066,180.92,415.066,180.92z"/>
	</g>
</g>
<g id="Background_Simple" style="display:none;">
	<g style="display:inline;">
		<path style="fill:#F66A75;" d="M253.1,221.008c-58.126,27.542-187.971-39.199-190.062,60.096
			c-1.484,70.445,134.554,121.913,179.397,63.618c27.142-35.284,20.997-31.208,70.995-42.203
			c50.667-11.143,70.983-19.873,65.96-73.19c-2.599-27.591-19.679-78.032-59.804-81.078
			C269.403,144.441,288.61,204.183,253.1,221.008z"/>
		<path style="opacity:0.9;fill:#FFFFFF;" d="M253.1,221.008c-58.126,27.542-187.971-39.199-190.062,60.096
			c-1.484,70.445,134.554,121.913,179.397,63.618c27.142-35.284,20.997-31.208,70.995-42.203
			c50.667-11.143,70.983-19.873,65.96-73.19c-2.599-27.591-19.679-78.032-59.804-81.078
			C269.403,144.441,288.61,204.183,253.1,221.008z"/>
	</g>
</g>
<g id="Shadow_1_">
	<ellipse id="_x3C_Path_x3E__362_" style="fill:#F5F5F5;" cx="250" cy="416.238" rx="193.889" ry="11.323"/>
</g>
<g id="Rocket">
	<g>
		<g>
			<path style="fill:#F66A75;" d="M184.365,356.772c3.403,19.741-12.513,29.458-27.968,24.555
				c-10.543-3.344-20.987-0.772-28.081,2.599c-1.304,0.62-2.523-0.983-1.602-2.095c1.248-1.508,2.558-2.875,3.805-4.067
				c1.03-0.984,0.031-2.673-1.331-2.257c-6.157,1.882-15.234,3.642-24.01,1.581c-1.188-0.279-1.428-1.861-0.377-2.482
				c8.748-5.175,22.096-18.784,34.613-23.21c1.474-0.521,1.026-2.696-0.535-2.616c-1.964,0.101-3.982,0.369-5.88,0.719
				c-1.478,0.272-2.229-1.684-0.954-2.479C149.51,336.129,180.018,331.556,184.365,356.772z"/>
			<path style="opacity:0.7;fill:#FFFFFF;" d="M184.365,356.772c3.403,19.741-12.513,29.458-27.968,24.555
				c-10.543-3.344-20.987-0.772-28.081,2.599c-1.304,0.62-2.523-0.983-1.602-2.095c1.248-1.508,2.558-2.875,3.805-4.067
				c1.03-0.984,0.031-2.673-1.331-2.257c-6.157,1.882-15.234,3.642-24.01,1.581c-1.188-0.279-1.428-1.861-0.377-2.482
				c8.748-5.175,22.096-18.784,34.613-23.21c1.474-0.521,1.026-2.696-0.535-2.616c-1.964,0.101-3.982,0.369-5.88,0.719
				c-1.478,0.272-2.229-1.684-0.954-2.479C149.51,336.129,180.018,331.556,184.365,356.772z"/>
		</g>
		<path d="M162.838,385.582l-6.693-51.629c-0.155-1.192,0.822-2.227,2.021-2.141l32.5,2.314c0.902,0.064,1.635,0.755,1.751,1.652
			l5.029,38.791c0.116,0.897-0.416,1.752-1.272,2.044l-30.835,10.525C164.201,387.526,162.993,386.774,162.838,385.582z"/>
		<path style="fill:#263238;" d="M156.373,375.9l-4.011-30.936c-0.146-1.124,0.717-2.125,1.85-2.146l37.318-0.698
			c0.969-0.018,1.797,0.696,1.922,1.657l2.955,22.792c0.125,0.961-0.494,1.863-1.436,2.092l-36.263,8.842
			C157.609,377.772,156.519,377.024,156.373,375.9z"/>
		
			<rect x="299.559" y="371.935" transform="matrix(0.9867 -0.1625 0.1625 0.9867 -56.4177 55.2433)" style="fill:#F66A75;" width="19.758" height="1.021"/>
		
			<rect x="288.837" y="374.856" transform="matrix(0.9867 -0.1625 0.1625 0.9867 -57.1225 52.4008)" style="fill:#F66A75;" width="5.812" height="1.021"/>
		<path style="fill:#F66A75;" d="M376.834,331.59c0,0-26.894-25.194-65.411-20.2l-121.33,11.469
			c-9.379,0.887-16.154,9.372-14.943,18.714l4.122,31.794c1.211,9.342,9.926,15.819,19.221,14.285l120.244-19.85
			C357.254,362.809,376.834,331.59,376.834,331.59z"/>
		<path style="opacity:0.3;fill:#FFFFFF;" d="M376.829,331.593c0,0-0.001,0.01-0.011,0.02c-0.364,0.574-7.655,11.882-21.741,21.822
			c-4.427,3.124-10.597,0.402-11.293-4.971l-3.206-24.758c-0.697-5.382,4.588-9.575,9.672-7.678
			C366.813,322.208,376.829,331.593,376.829,331.593z"/>
		
			<ellipse transform="matrix(0.0446 -0.999 0.999 0.0446 -63.3978 618.9122)" style="fill:#FFFFFF;" cx="291.89" cy="342.603" rx="20.656" ry="20.656"/>
		<path style="opacity:0.3;fill:#F66A75;" d="M305.805,343.72c-0.509,6.423-5.454,11.867-12.124,12.729
			c-0.205,0.021-0.412,0.053-0.617,0.064c-0.904,0.082-1.793,0.061-2.669-0.03c-0.305-0.034-0.621-0.069-0.926-0.124
			c-0.213-0.04-0.436-0.081-0.669-0.133c-5.55-1.266-9.986-5.858-10.747-11.828c-0.082-0.669-0.123-1.336-0.113-2
			c0.087-6.831,5.176-12.739,12.155-13.638c7.648-0.991,14.646,4.403,15.638,12.051C305.862,341.789,305.879,342.762,305.805,343.72
			z"/>
		<path style="opacity:0.3;fill:#F66A75;" d="M305.805,343.72c-0.509,6.423-5.454,11.867-12.124,12.729
			c-0.205,0.021-0.412,0.053-0.617,0.064c-0.904,0.071-1.793,0.061-2.669-0.03c-0.305-0.034-0.621-0.069-0.926-0.124
			c-0.213-0.04-0.436-0.081-0.669-0.133c-5.55-1.266-9.986-5.858-10.747-11.828c-0.082-0.669-0.123-1.336-0.113-2
			c0.49-6.025,5.408-11.101,12.074-11.882c7.644-0.91,14.657,4.168,15.671,11.326C305.769,342.471,305.812,343.107,305.805,343.72z"
			/>
	</g>
</g>
<g id="Character_1_">
	<g>
		<polygon style="fill:#CF7A64;" points="262.871,311.381 269.115,310.763 269.998,296.482 263.754,297.1 		"/>
		<polygon style="fill:#CF7A64;" points="226.985,315.094 233.14,314.476 234.452,299.946 228.297,300.564 		"/>
		<path style="fill:#263238;" d="M233.488,313.096l-6.915,0.695c-0.252,0.025-0.448,0.221-0.471,0.472l-0.532,5.58
			c-0.055,0.579,0.458,1.07,1.038,1.001c2.409-0.284,3.564-0.543,6.605-0.849c1.871-0.188,4.378-0.353,6.961-0.612
			c2.527-0.254,2.602-2.842,1.515-2.966c-4.872-0.558-5.465-1.835-7.154-3.044C234.23,313.155,233.856,313.059,233.488,313.096z"/>
		<path style="fill:#263238;" d="M269.302,309.472l-6.722,0.675c-0.252,0.025-0.448,0.221-0.471,0.472l-0.532,5.58
			c-0.055,0.578,0.443,1.071,1.022,1.003c2.42-0.285,5.906-0.779,8.953-1.085c3.564-0.358,3.585-0.171,7.764-0.59
			c2.527-0.254,2.909-2.873,1.822-2.997c-4.947-0.567-5.812-0.587-10.294-2.729C270.357,309.569,269.833,309.419,269.302,309.472z"
			/>
		<path style="fill:#CE7A63;" d="M245.329,110.937c1.557,0.142,3.321,0.314,4.983,0.389c1.683,0.098,3.358,0.143,4.998,0.142
			c1.638-0.014,3.246-0.092,4.734-0.28c1.454-0.197,2.873-0.539,3.617-0.927l-1.835,2.823c-0.024,0.328,0.069,0.328,0.01,0.125
			c-0.043-0.191-0.171-0.521-0.361-0.883c-0.382-0.733-0.984-1.574-1.649-2.393c-1.352-1.649-2.955-3.307-4.638-4.897
			c-1.678-1.606-3.444-3.17-5.238-4.719c-1.777-1.561-3.643-3.083-5.452-4.58l2.41-3.75c2.237,1.142,4.333,2.382,6.454,3.672
			c2.1,1.306,4.159,2.694,6.181,4.192c2.008,1.52,3.998,3.108,5.887,5.042c0.944,0.979,1.876,2.017,2.755,3.345
			c0.438,0.668,0.864,1.419,1.215,2.37c0.341,0.932,0.65,2.153,0.461,3.684l-0.218,1.761l-1.618,1.062
			c-2.311,1.517-4.437,2.073-6.485,2.53c-2.041,0.426-4.01,0.633-5.95,0.733c-1.939,0.109-3.847,0.095-5.739,0.008
			c-1.913-0.113-3.72-0.228-5.717-0.529L245.329,110.937z"/>
		<path style="fill:#CF7A64;" d="M248.987,93.979l-3.673-4.611l-2.758,6.586c0,0,3.348,3.928,6.884,1.945L248.987,93.979z"/>
		<polygon style="fill:#CF7A64;" points="240.439,86.972 239.821,94.466 242.556,95.954 245.314,89.368 		"/>
		<path style="fill:#263238;" d="M235.932,87.927l5.598-2.316c0.416-0.172,0.853,0.007,0.976,0.401l3.611,11.509
			c0.123,0.393-0.114,0.852-0.529,1.023l-5.598,2.316c-0.416,0.172-0.853-0.007-0.976-0.401l-3.611-11.509
			C235.279,88.557,235.516,88.099,235.932,87.927z"/>
		<path style="fill:#F66A75;" d="M239.232,121.923c4.065,4.916,20.746,0.306,20.746,0.306l-1.413-11.278
			c0,0-4.205-1.258-12.551-1.518C237.445,109.166,234.77,116.528,239.232,121.923z"/>
		<g>
			<polygon style="opacity:0.2;" points="269.996,296.486 269.543,303.847 263.296,304.466 263.75,297.105 			"/>
			<polygon style="opacity:0.2;" points="228.295,300.568 234.453,299.95 233.773,307.44 227.616,308.058 			"/>
		</g>
		<path style="fill:#F66A75;" d="M252.046,112.569c2.423,6.28,8.36,24.987,6.293,53.262l-32.922,3.308
			c-0.859-5.019-1.022-32.494-8.873-55.758c0,0,5.502-1.697,10.847-2.495c4.181-0.625,10.255-1.371,13.995-1.406
			c2.692-0.025,5.331,0.202,7.171,0.413C250.128,110.073,251.477,111.094,252.046,112.569z"/>
		<path style="opacity:0.2;" d="M239.397,117.7c-0.43,0.06-0.86,0.11-1.29,0.17c0.13,11.03,0.29,13.98-9.64,24.28
			c-2.08,2.15-3.67,4.14-4.86,5.92c0.13,1.3,0.26,2.56,0.38,3.78c2.57-2.35,5.98-5.43,8.56-7.57
			C244.098,134.64,239.727,117.56,239.397,117.7z"/>
		<path style="opacity:0.2;" d="M224.43,118.528c1.038,3.854,0.974,13.331-1.404,24.514c-1.054-8.317-2.764-17.911-5.729-27.343
			l-0.006-0.047C219.433,115.213,223.447,114.916,224.43,118.528z"/>
		<path style="fill:#CF7A64;" d="M227.584,97.646c1.446,4.403,2.582,9.926-0.193,13.24c0,0,2.381,4.375,10.748,3.534
			c7.646-0.768,3.247-4.94,3.247-4.94c-5.171-0.692-5.685-6.912-5.248-10.49L227.584,97.646z"/>
		<path style="fill:#263238;" d="M238.498,114.019l2.012,1.821c0.144,0.13,0.208,0.326,0.167,0.512l-0.403,1.825
			c-0.046,0.209-0.215,0.366-0.428,0.398l-1.942,0.29c-0.185,0.028-0.374-0.045-0.496-0.19l-1.339-1.598
			c-0.156-0.187-0.169-0.452-0.031-0.646l1.671-2.338C237.892,113.839,238.26,113.804,238.498,114.019z"/>
		<path style="fill:#FFFFFF;" d="M237.881,113.942c-1.039,3.03-3.289,6.169-3.289,6.169s-8.132-3.701-8.626-8.984
			c-0.018-0.195,0.072-0.387,0.227-0.506c0.312-0.24,0.871-0.676,1.395-1.125c0.272-0.233,0.687-0.173,0.865,0.138
			C229.098,110.758,231.199,113.003,237.881,113.942z"/>
		<path style="fill:#FFFFFF;" d="M238.166,113.882c2.693,1.952,4.174,4.751,4.174,4.751s2.606-3.964,0.716-9.029
			c-0.066-0.176-0.214-0.312-0.395-0.361c-0.348-0.095-0.975-0.254-1.673-0.378c-0.379-0.067-0.724,0.253-0.672,0.634
			C240.472,110.649,240.425,112.818,238.166,113.882z"/>
		<path style="fill:#263238;" d="M239.344,117.628c0.315-0.14,3.557,15.158-7.629,24.456c-4.559,3.79-11.881,10.559-11.875,10.545
			c0.682-2.69,2.819-6.837,8.194-12.279c9.709-9.829,9.698-12.497,10.097-22.503C238.536,117.774,238.941,117.701,239.344,117.628z"
			/>
		<path style="opacity:0.2;" d="M236.143,98.993c-0.265,2.097-0.194,5.102,0.958,7.371c-0.753-0.035-1.538-0.185-2.329-0.462
			c-2.998-1.048-4.655-3.003-6.498-5.966c-0.209-0.785-0.441-1.551-0.686-2.29L236.143,98.993z"/>
		<path style="fill:#263238;" d="M232.768,84c1.193-9.411,8.115,0.549,6.19,5.229C237.78,92.092,232.48,86.266,232.768,84z"/>
		<path style="fill:#CF7A64;" d="M223.245,92.538c2.373,5.724,3.474,9.188,7.43,11.236c5.95,3.081,12.162-1.913,11.528-8.19
			c-0.571-5.65-4.356-14.062-10.818-14.546C225.018,80.561,220.872,86.814,223.245,92.538z"/>
		<path style="fill:#263238;" d="M225.92,98.068c2.518-0.287,3.184-2.931,3.184-2.931c-0.863-0.357-3.201-1.54-4.277-3.315
			c0,0,2.542-3.649,2.274-5.761c3.26-0.032,10.897-3.146,9.172-6.635c-1.725-3.49-8.596-5.21-12.588-2.749
			c-3.992,2.461-6.727,2.592-8.56,2.594c1.158,0.778,2.924,1.155,2.924,1.155s-3.588,3.12-3.365,8.503
			c0.186,4.476-2.248,6.275-2.248,6.275s2.964,0.451,3.919-0.869c-0.408,1.459,2.063,6.572,7.496,7.284
			C229.928,102.415,225.92,98.068,225.92,98.068z"/>
		<path style="fill:#CF7A64;" d="M223.425,100.806c2.256,1.028,3.992,1.342,5.167,0.665c1.313-0.757,0.829-3.044-0.649-4.335
			c-1.33-1.163-3.952-2.271-5.471-1.009C220.976,97.37,221.11,99.75,223.425,100.806z"/>
		<path style="fill:#263238;" d="M258.339,165.831c0,0,14.163,46.558,15.162,64.155c1.094,19.269-1.68,70.48-1.68,70.48
			l-11.133,1.132c0,0-2.08-48.76-4.898-67.619c-3.059-20.469-18.43-66.014-18.43-66.014L258.339,165.831z"/>
		<path style="opacity:0.2;" d="M248.588,187.782l-1.745,10.204c2.447,8.277,4.899,17.087,6.689,24.73
			C254.649,204.083,248.588,187.782,248.588,187.782z"/>
		<path style="fill:#F66A75;" d="M259.772,298.833c-0.048,0.005,0.356,4.111,0.356,4.111l12.448-1.251l0.363-4.652L259.772,298.833z
			"/>
		<path style="fill:#263238;" d="M246.66,167.005c0,0,4.613,41.628,2.981,59.592c-1.787,19.672-13.177,78.51-13.177,78.51
			l-11.274,1.133c0,0,6.196-56.742,6.204-76.042c0.009-20.947-5.978-61.058-5.978-61.058L246.66,167.005z"/>
		<path style="fill:#F66A75;" d="M224.824,302.639c-0.048,0.005-0.168,3.869-0.168,3.869l12.391-1.245l1.267-4.388L224.824,302.639z
			"/>
		<path style="fill:#263238;" d="M232.579,91.32c0.164,0.476,0.547,0.78,0.855,0.68c0.308-0.1,0.424-0.566,0.26-1.042
			c-0.164-0.475-0.547-0.78-0.855-0.68C232.531,90.378,232.414,90.845,232.579,91.32z"/>
		<path style="fill:#263238;" d="M237.9,89.591c0.164,0.476,0.547,0.78,0.855,0.68c0.308-0.1,0.424-0.566,0.26-1.042
			s-0.547-0.78-0.855-0.68C237.852,88.649,237.735,89.115,237.9,89.591z"/>
		<path style="fill:#BA4D3C;" d="M236.29,90.377c0,0,2.018,2.395,3.654,3.336c-0.561,1.056-2.102,1.157-2.102,1.157L236.29,90.377z"
			/>
		<path style="fill:#263238;" d="M236.656,96.82c0.075-0.027,0.113-0.111,0.084-0.187c-0.029-0.076-0.114-0.116-0.189-0.089
			c-2.045,0.734-3.547-0.366-3.562-0.377c-0.066-0.049-0.158-0.036-0.204,0.028c-0.047,0.064-0.033,0.156,0.033,0.205
			C232.883,96.449,234.463,97.607,236.656,96.82z"/>
		<path style="fill:#263238;" d="M230.376,90.108c0.084-0.027,0.153-0.092,0.182-0.182c0.401-1.235,1.438-1.506,1.449-1.508
			c0.148-0.031,0.248-0.197,0.206-0.355c-0.042-0.157-0.204-0.254-0.359-0.215c-0.056,0.013-1.355,0.351-1.852,1.884
			c-0.05,0.153,0.035,0.32,0.189,0.374C230.253,90.128,230.318,90.127,230.376,90.108z"/>
		<path style="fill:#263238;" d="M239.631,86.909c0.039-0.016,0.076-0.04,0.106-0.075c0.107-0.119,0.094-0.304-0.028-0.414
			c-1.218-1.099-2.523-0.78-2.579-0.766c-0.153,0.033-0.246,0.199-0.203,0.357c0.044,0.157,0.204,0.251,0.359,0.213l0,0
			c0.043-0.011,1.064-0.248,2.037,0.628C239.411,86.931,239.531,86.949,239.631,86.909z"/>
		<path style="fill:#CF7A64;" d="M212.624,123.53l8.38,3.388c0,0-6.908,20.524-5.418,23.304c2.027,3.783,7.417,9.81,10.623,13.82
			c-0.105,1.021-1.195,3.522-1.973,4.072c-6.734-3.207-17.357-13.252-17.903-17.101C205.09,142.235,212.624,123.53,212.624,123.53z"
			/>
		<path style="fill:#F66A75;" d="M216.544,113.382c-6.858,2.222-7.814,17.451-7.814,17.451l10.599,5.439
			c0,0,4.631-5.113,6.397-12.489C227.577,116.054,222.558,111.434,216.544,113.382z"/>
		<path style="fill:#F66A75;" d="M235.658,313.963c0.469-0.047,0.897-0.171,1.146-0.431c0.198-0.207,0.267-0.477,0.205-0.799
			c-0.045-0.24-0.188-0.342-0.301-0.386c-0.717-0.28-2.557,1.136-2.764,1.298c-0.046,0.037-0.064,0.097-0.048,0.154
			c0.017,0.056,0.066,0.098,0.124,0.106C234.46,313.965,235.089,314.02,235.658,313.963z M236.413,312.601
			c0.076-0.008,0.142-0.003,0.194,0.017c0.042,0.017,0.092,0.049,0.113,0.161c0.044,0.23,0.001,0.409-0.131,0.548
			c-0.3,0.317-1.1,0.435-2.171,0.33C235.062,313.187,235.942,312.649,236.413,312.601z"/>
		<path style="fill:#F66A75;" d="M234.055,313.906c0.024-0.002,0.047-0.01,0.067-0.024c0.594-0.409,1.657-1.878,1.44-2.55
			c-0.039-0.121-0.157-0.327-0.512-0.334c-0.232-0.005-0.431,0.079-0.597,0.249c-0.642,0.655-0.567,2.442-0.563,2.517
			c0.002,0.054,0.034,0.102,0.083,0.126C233.998,313.903,234.027,313.909,234.055,313.906z M234.985,311.292
			c0.022-0.002,0.044-0.002,0.067-0.002c0.192,0.004,0.22,0.09,0.231,0.125c0.128,0.397-0.529,1.492-1.102,2.035
			c0.007-0.525,0.074-1.578,0.485-1.997C234.76,311.357,234.865,311.304,234.985,311.292z"/>
		<path style="fill:#F66A75;" d="M271.996,310.288c0.611-0.061,1.164-0.212,1.448-0.527c0.181-0.2,0.243-0.448,0.184-0.735
			c-0.035-0.171-0.135-0.297-0.289-0.362c-0.799-0.344-3.117,1.159-3.379,1.331c-0.051,0.034-0.075,0.097-0.058,0.158
			c0.016,0.061,0.069,0.105,0.131,0.111C270.569,310.314,271.318,310.356,271.996,310.288z M272.951,308.905
			c0.113-0.011,0.208-0.004,0.279,0.026c0.062,0.027,0.096,0.071,0.111,0.146c0.039,0.195,0.001,0.354-0.117,0.486
			c-0.337,0.373-1.343,0.532-2.73,0.443C271.295,309.517,272.368,308.964,272.951,308.905z"/>
		<path style="fill:#F66A75;" d="M270.063,310.263c0.021-0.002,0.04-0.009,0.058-0.018c0.701-0.408,2.007-1.882,1.807-2.566
			c-0.047-0.16-0.188-0.352-0.594-0.351c-0.297-0.007-0.563,0.111-0.777,0.33c-0.703,0.721-0.661,2.39-0.659,2.461
			c0.002,0.052,0.031,0.099,0.077,0.126C270.002,310.26,270.033,310.266,270.063,310.263z M271.252,307.623
			c0.029-0.003,0.058-0.003,0.088-0.004c0.266,0.001,0.295,0.101,0.305,0.135c0.119,0.41-0.75,1.554-1.451,2.084
			c0.018-0.491,0.114-1.502,0.575-1.974C270.909,307.72,271.067,307.641,271.252,307.623z"/>
		<path style="fill:#CF7A64;" d="M224.698,163.179l5.892,0.198l-3.641,6.142c0,0-5.149-0.344-5.667-4.365L224.698,163.179z"/>
		<polygon style="fill:#CF7A64;" points="233.348,165.433 229.775,170.827 226.949,169.519 230.589,163.377 		"/>
	</g>
</g>
</svg>
