<?xml version="1.0" standalone="no"?>
<!DOCTYPE svg PUBLIC "-//W3C//DTD SVG 20010904//EN"
 "http://www.w3.org/TR/2001/REC-SVG-20010904/DTD/svg10.dtd">
<svg version="1.0" xmlns="http://www.w3.org/2000/svg"
 width="1848.000000pt" height="309.000000pt" viewBox="0 0 1848.000000 309.000000"
 preserveAspectRatio="xMidYMid meet">

<g transform="translate(0.000000,309.000000) scale(0.100000,-0.100000)"
fill="#000000" stroke="none">
<path d="M0 3001 l0 -89 108 -4 c126 -4 160 -20 180 -86 9 -29 12 -269 12
-898 0 -798 -1 -861 -18 -894 -26 -54 -69 -70 -184 -70 l-98 0 0 -90 0 -90
954 0 953 0 7 188 c3 103 9 238 13 300 l6 113 -119 -3 -118 -3 -18 -100 c-10
-54 -25 -121 -34 -148 -21 -63 -75 -124 -122 -137 -22 -6 -174 -10 -364 -10
l-328 0 0 450 0 450 380 0 380 0 0 105 0 105 -380 0 -380 0 0 400 0 400 278 0
c172 0 292 -4 317 -11 53 -15 101 -68 120 -132 9 -29 21 -98 27 -154 l11 -103
120 0 120 0 -6 167 c-4 91 -7 226 -7 300 l0 133 -905 0 -905 0 0 -89z"/>
<path d="M2110 3000 l0 -90 98 0 c115 0 158 -16 184 -70 17 -33 18 -97 18
-905 0 -808 -1 -872 -18 -905 -26 -54 -69 -70 -184 -70 l-98 0 0 -90 0 -90
954 0 953 0 7 178 c3 97 9 261 12 365 l7 187 -97 0 c-53 0 -96 -2 -96 -4 0 -2
-16 -73 -35 -160 -40 -182 -58 -228 -115 -290 -67 -72 -89 -76 -452 -76 l-308
0 0 908 c0 861 1 909 19 948 27 58 66 74 185 74 l96 0 0 90 0 90 -565 0 -565
0 0 -90z"/>
<path d="M3940 3001 l0 -89 70 -4 c76 -4 103 -18 151 -79 15 -19 167 -303 338
-631 l311 -596 0 -269 c0 -366 0 -365 -217 -371 l-123 -4 0 -89 0 -89 605 0
605 0 0 90 0 90 -113 0 c-97 0 -119 3 -157 22 -66 33 -69 49 -69 353 l-1 260
310 604 c171 333 322 620 336 639 40 52 80 72 147 72 l57 0 0 90 0 90 -425 0
-425 0 0 -90 0 -90 78 0 c118 -1 185 -38 202 -115 16 -69 -12 -147 -163 -460
-80 -165 -167 -353 -194 -417 l-49 -117 -43 111 c-24 60 -110 241 -191 402
-82 160 -158 320 -170 356 -53 156 7 240 173 240 l57 0 0 90 0 90 -550 0 -550
0 0 -89z"/>
<path d="M6959 3063 c-6 -16 -168 -455 -361 -978 -193 -522 -359 -966 -369
-986 -47 -93 -115 -138 -206 -139 l-53 0 0 -90 0 -90 425 0 425 0 0 90 0 90
-94 0 c-80 0 -98 3 -127 23 -77 51 -75 100 13 369 l62 188 388 0 c213 0 388
-1 388 -3 0 -2 32 -94 70 -206 41 -119 70 -219 70 -242 0 -92 -51 -129 -179
-129 l-81 0 0 -90 0 -90 535 0 535 0 0 90 0 90 -55 0 c-96 0 -159 46 -212 155
-16 33 -182 491 -369 1017 l-339 958 -228 0 -227 0 -11 -27z m185 -563 c36
-124 104 -344 151 -489 47 -145 85 -266 85 -268 0 -2 -142 -3 -315 -3 -184 0
-315 4 -315 9 0 5 42 130 94 278 111 318 226 669 226 691 0 32 10 1 74 -218z"/>
<path d="M8710 3001 l0 -89 108 -4 c125 -4 164 -22 182 -86 6 -24 10 -338 10
-897 0 -799 -1 -862 -18 -895 -26 -54 -69 -70 -184 -70 l-98 0 0 -90 0 -90
405 0 405 0 0 90 0 90 -52 0 c-70 1 -147 28 -171 61 -12 17 -22 55 -28 105 -5
45 -8 412 -7 844 l3 765 335 -977 335 -978 117 0 117 0 176 538 c97 295 241
733 320 972 l144 435 -2 -842 c-2 -832 -2 -842 -23 -869 -26 -36 -74 -52 -151
-53 l-63 -1 0 -90 0 -90 525 0 525 0 0 90 0 90 -96 0 c-111 0 -156 16 -182 64
-16 29 -17 100 -17 911 0 811 1 882 17 911 26 48 71 64 182 64 l96 0 0 90 0
90 -464 0 -463 0 -167 -507 c-92 -280 -206 -627 -254 -772 l-88 -263 -264 771
-265 771 -472 0 -473 0 0 -89z"/>
<path d="M12705 3078 c-152 -422 -721 -1951 -739 -1985 -45 -89 -113 -133
-206 -133 l-50 0 0 -90 0 -90 425 0 425 0 0 90 0 90 -94 0 c-80 0 -98 3 -127
23 -19 12 -40 36 -48 52 -19 40 -4 117 67 333 l56 172 387 0 387 0 12 -32 c88
-242 130 -379 130 -423 0 -92 -47 -125 -180 -125 l-80 0 0 -90 0 -90 535 0
535 0 0 90 0 90 -52 0 c-96 1 -161 46 -212 149 -13 25 -178 481 -367 1014
l-343 967 -228 0 c-174 0 -230 -3 -233 -12z m125 -373 c0 -26 109 -393 200
-676 50 -152 90 -280 90 -283 0 -3 -142 -6 -315 -6 -173 0 -315 3 -315 8 0 4
56 167 124 362 68 195 141 412 162 483 35 114 54 154 54 112z"/>
<path d="M14230 3001 l0 -89 108 -4 c127 -4 164 -22 182 -88 7 -26 10 -392 8
-1137 -3 -1016 -5 -1103 -21 -1158 -60 -204 -180 -313 -358 -323 l-79 -5 0
-98 0 -99 109 0 c389 0 668 135 790 381 81 163 74 63 81 1304 5 1084 5 1111
25 1150 30 59 69 75 188 75 l97 0 0 90 0 90 -565 0 -565 0 0 -89z"/>
<path d="M15510 3000 l0 -90 95 0 c114 0 164 -19 186 -72 12 -27 14 -183 14
-908 0 -806 -1 -877 -17 -906 -26 -48 -71 -64 -182 -64 l-96 0 0 -90 0 -90
949 0 c896 0 950 1 955 18 2 9 7 123 11 252 3 129 8 256 11 283 l6 47 -120 0
-120 0 -7 -47 c-23 -163 -58 -265 -103 -306 -47 -42 -82 -46 -429 -47 l-333 0
0 450 0 450 385 0 385 0 0 105 0 105 -385 0 -385 0 0 401 0 400 303 -3 c295
-3 303 -4 339 -26 55 -34 85 -105 103 -238 8 -60 15 -115 15 -121 0 -10 30
-13 118 -13 l118 0 -3 248 c-2 136 -6 271 -9 300 l-5 52 -900 0 -899 0 0 -90z"/>
<path d="M17430 3020 l0 -70 30 0 c27 0 30 3 30 29 0 39 24 61 66 61 l34 0 0
-190 0 -190 -30 -6 c-23 -5 -30 -12 -30 -30 0 -24 0 -24 120 -24 l120 0 0 24
c0 19 -6 25 -27 28 l-28 3 -3 193 -2 192 34 0 c38 0 51 -12 61 -57 5 -26 12
-33 31 -33 23 0 24 3 24 70 l0 70 -215 0 -215 0 0 -70z"/>
<path d="M17880 3066 c0 -19 6 -25 28 -28 l27 -3 0 -190 0 -190 -27 -3 c-22
-3 -28 -9 -28 -28 0 -24 2 -24 85 -24 82 0 85 1 85 23 0 14 -9 26 -22 32 -22
10 -23 15 -25 165 l-2 155 66 -187 c63 -181 66 -188 92 -188 27 0 29 6 88 188
l61 187 -1 -160 c-2 -158 -2 -160 -24 -163 -17 -3 -23 -10 -23 -28 0 -24 0
-24 110 -24 l110 0 0 25 c0 17 -5 25 -18 25 -38 0 -42 18 -42 191 0 92 3 174
6 183 3 9 17 16 30 16 19 0 24 5 24 25 0 25 0 25 -98 25 l-97 0 -50 -156 -49
-157 -38 114 c-21 63 -45 133 -54 157 l-16 42 -99 0 c-98 0 -99 0 -99 -24z"/>
</g>
</svg>
