<?xml version="1.0" encoding="utf-8"?>
<!-- Generator: Adobe Illustrator 27.5.0, SVG Export Plug-In . SVG Version: 6.00 Build 0)  -->
<svg version="1.1" xmlns="http://www.w3.org/2000/svg" xmlns:xlink="http://www.w3.org/1999/xlink" x="0px" y="0px"
	 viewBox="0 0 500 500" style="enable-background:new 0 0 500 500;" xml:space="preserve">
<g id="Background_Complete">
	<g>
		<rect y="382.398" style="fill:#EBEBEB;" width="500" height="0.25"/>
		<rect x="363" y="398.494" style="fill:#EBEBEB;" width="86.901" height="0.25"/>
		<rect x="357.665" y="389.208" style="fill:#EBEBEB;" width="8.693" height="0.25"/>
		<rect x="280.124" y="397.5" style="fill:#EBEBEB;" width="19.192" height="0.25"/>
		<rect x="52.459" y="390.888" style="fill:#EBEBEB;" width="21.597" height="0.25"/>
		<rect x="82.959" y="390.888" style="fill:#EBEBEB;" width="27.93" height="0.25"/>
		<rect x="207.667" y="394.986" style="fill:#EBEBEB;" width="46.838" height="0.25"/>
		<path style="fill:#EBEBEB;" d="M237.014,337.8H43.915c-3.147,0-5.708-2.561-5.708-5.708V60.66c0-3.147,2.561-5.708,5.708-5.708
			h193.099c3.146,0,5.707,2.561,5.707,5.708v271.432C242.721,335.239,240.16,337.8,237.014,337.8z M43.915,55.203
			c-3.01,0-5.458,2.448-5.458,5.458v271.432c0,3.01,2.448,5.458,5.458,5.458h193.099c3.009,0,5.457-2.448,5.457-5.458V60.66
			c0-3.009-2.448-5.458-5.457-5.458H43.915z"/>
		<path style="fill:#EBEBEB;" d="M453.31,337.8H260.212c-3.147,0-5.707-2.561-5.707-5.708V60.66c0-3.147,2.561-5.708,5.707-5.708
			H453.31c3.148,0,5.708,2.561,5.708,5.708v271.432C459.019,335.239,456.458,337.8,453.31,337.8z M260.212,55.203
			c-3.009,0-5.457,2.448-5.457,5.458v271.432c0,3.01,2.448,5.458,5.457,5.458H453.31c3.01,0,5.458-2.448,5.458-5.458V60.66
			c0-3.009-2.448-5.458-5.458-5.458H260.212z"/>
	</g>
	<g>
		<g>
			<rect x="219.513" y="239.003" style="fill:#E6E6E6;" width="30.939" height="143.395"/>
			<polygon style="fill:#F0F0F0;" points="244.576,382.398 250.452,382.398 250.452,365.683 238.414,365.683 			"/>
			<rect x="63.995" y="239.003" style="fill:#E6E6E6;" width="30.939" height="143.395"/>
			<rect x="89.806" y="239.003" style="fill:#F0F0F0;" width="160.646" height="133.138"/>
			<path style="fill:#E6E6E6;" d="M245.893,243.566H94.365v32.917h151.529V243.566L245.893,243.566z"/>
			<path style="fill:#E6E6E6;" d="M245.893,280.258h-73.792v70.987h73.792V280.258L245.893,280.258z"/>
			<path style="fill:#E6E6E6;" d="M168.157,280.258H94.365v70.987h73.792V280.258L168.157,280.258z"/>
			<path style="fill:#FAFAFA;" d="M151.652,292.79c0,2.885,2.339,5.224,5.224,5.224c2.885,0,5.224-2.339,5.224-5.224
				c0-2.885-2.339-5.224-5.224-5.224C153.991,287.566,151.652,289.905,151.652,292.79z"/>
			<path style="fill:#FAFAFA;" d="M178.159,292.79c0,2.885,2.339,5.224,5.224,5.224c2.885,0,5.224-2.339,5.224-5.224
				c0-2.885-2.339-5.224-5.224-5.224C180.498,287.566,178.159,289.905,178.159,292.79z"/>
			<polygon style="fill:#F0F0F0;" points="95.683,382.398 89.806,382.398 89.806,365.683 101.844,365.683 			"/>
			<path style="fill:#FAFAFA;" d="M215.303,260.263c0,2.885,2.339,5.224,5.224,5.224c2.885,0,5.224-2.339,5.224-5.224
				c0-2.885-2.339-5.224-5.224-5.224C217.641,255.039,215.303,257.378,215.303,260.263z"/>
			<path style="fill:#FAFAFA;" d="M115.888,260.263c0,2.885,2.339,5.224,5.224,5.224c2.885,0,5.224-2.339,5.224-5.224
				c0-2.885-2.339-5.224-5.224-5.224C118.227,255.039,115.888,257.378,115.888,260.263z"/>
		</g>
		<g>
			<rect x="266.684" y="80.601" style="fill:#EBEBEB;" width="167.496" height="139.189"/>
			<rect x="268.503" y="80.601" style="fill:#F5F5F5;" width="169.57" height="139.189"/>
			<rect x="266.684" y="219.79" style="fill:#EBEBEB;" width="181.719" height="4.612"/>
			<rect x="285.794" y="219.79" style="fill:#F5F5F5;" width="158.001" height="4.612"/>
			
				<rect x="289.393" y="70.861" transform="matrix(-1.836970e-16 1 -1 -1.836970e-16 503.4834 -203.0931)" style="fill:#FAFAFA;" width="127.79" height="158.667"/>
			<polygon style="fill:#FFFFFF;" points="307.776,214.09 354.319,86.3 376.29,86.3 329.747,214.09 			"/>
			<polygon style="fill:#FFFFFF;" points="334.467,214.09 381.01,86.3 389.576,86.3 343.032,214.09 			"/>
			<polygon style="fill:#FFFFFF;" points="362.021,214.09 408.565,86.3 417.13,86.3 370.587,214.09 			"/>
			
				<rect x="368.381" y="149.849" transform="matrix(-1.836970e-16 1 -1 -1.836970e-16 582.4711 -282.0807)" style="fill:#EBEBEB;" width="127.79" height="0.692"/>
			<polygon style="opacity:0.5;fill:#EBEBEB;" points="439.363,92.905 271.867,92.905 271.365,88.515 438.861,88.515 			"/>
			<polygon style="opacity:0.5;fill:#EBEBEB;" points="439.363,98.378 271.867,98.378 271.365,93.988 438.861,93.988 			"/>
			<polygon style="opacity:0.5;fill:#EBEBEB;" points="439.363,103.851 271.867,103.851 271.365,99.461 438.861,99.461 			"/>
			<polygon style="opacity:0.5;fill:#EBEBEB;" points="439.363,109.324 271.867,109.324 271.365,104.934 438.861,104.934 			"/>
			<polygon style="opacity:0.5;fill:#EBEBEB;" points="439.363,114.796 271.867,114.796 271.365,110.406 438.861,110.406 			"/>
			<polygon style="opacity:0.5;fill:#EBEBEB;" points="439.363,120.269 271.867,120.269 271.365,115.879 438.861,115.879 			"/>
			<polygon style="opacity:0.5;fill:#EBEBEB;" points="439.363,125.742 271.867,125.742 271.365,121.352 438.861,121.352 			"/>
			<polygon style="opacity:0.5;fill:#EBEBEB;" points="439.363,131.215 271.867,131.215 271.365,126.825 438.861,126.825 			"/>
			<polygon style="opacity:0.5;fill:#EBEBEB;" points="439.363,136.687 271.867,136.687 271.365,132.297 438.861,132.297 			"/>
			<polygon style="opacity:0.5;fill:#EBEBEB;" points="439.363,142.16 271.867,142.16 271.365,137.77 438.861,137.77 			"/>
			<polygon style="opacity:0.5;fill:#EBEBEB;" points="439.363,147.633 271.867,147.633 271.365,143.243 438.861,143.243 			"/>
			<polygon style="opacity:0.5;fill:#EBEBEB;" points="439.363,153.106 271.867,153.106 271.365,148.716 438.861,148.716 			"/>
			<polygon style="opacity:0.5;fill:#EBEBEB;" points="439.363,158.578 271.867,158.578 271.365,154.188 438.861,154.188 			"/>
			<polygon style="opacity:0.5;fill:#EBEBEB;" points="439.363,164.051 271.867,164.051 271.365,159.661 438.861,159.661 			"/>
		</g>
		<g>
			
				<rect x="310.536" y="255.039" transform="matrix(-1 -1.224647e-16 1.224647e-16 -1 715.3293 525.3885)" style="fill:#EBEBEB;" width="94.257" height="15.311"/>
			<g>
				<polygon style="fill:#E0E0E0;" points="310.538,382.398 320.133,270.35 333.058,270.35 314.379,382.398 				"/>
				<polygon style="fill:#E0E0E0;" points="404.793,382.398 395.198,270.35 382.273,270.35 400.952,382.398 				"/>
				<polygon style="fill:#E0E0E0;" points="369.526,382.398 361.578,270.35 348.653,270.35 365.685,382.398 				"/>
			</g>
		</g>
		<g>
			<path style="fill:#F5F5F5;" d="M105.512,215.229L105.512,215.229c5.685-0.403,9.68-5.359,8.925-11.068l-6.673-50.437
				c-0.755-5.709-5.976-10.011-11.66-9.607h0c-5.685,0.403-9.68,5.359-8.925,11.068l6.673,50.437
				C94.607,211.331,99.827,215.632,105.512,215.229z"/>
			<path style="fill:#F0F0F0;" d="M111.347,211.507L111.347,211.507c4.005,1.001,7.619-1.318,8.073-5.181l4.01-34.123
				c0.454-3.863-2.424-7.806-6.429-8.807l0,0c-4.005-1.001-7.619,1.318-8.073,5.181l-4.01,34.123
				C104.464,206.563,107.343,210.506,111.347,211.507z"/>
			<path style="fill:#E6E6E6;" d="M104.168,216.703L104.168,216.703c-3.699,1.001-8.021-1.318-9.654-5.181L80.09,177.399
				c-1.633-3.863,0.042-7.806,3.741-8.807l0,0c3.699-1.001,8.021,1.318,9.654,5.181l14.424,34.123
				C109.542,211.758,107.867,215.702,104.168,216.703z"/>
			<polygon style="fill:#E6E6E6;" points="90.958,239.003 122.362,239.003 128.911,201.619 84.409,201.619 			"/>
			
				<rect x="82.022" y="196.283" transform="matrix(-1 -1.224647e-16 1.224647e-16 -1 213.3191 403.2376)" style="fill:#E0E0E0;" width="49.275" height="10.671"/>
		</g>
	</g>
</g>
<g id="Background_Simple" style="display:none;">
	<g style="display:inline;">
		<path style="fill:#407BFF;" d="M173.884,174.841c27.303-5.277,53.264-23.304,74.864-45.73
			c96.223-114.367,242.317,3.12,128.579,144.242c-55.743,72.797-111.144,41.987-175.017,49.299
			C73.283,343.829,74.18,237.945,91.006,206.232C108.179,175.096,147.602,180.665,173.884,174.841z"/>
		<path style="opacity:0.9;fill:#FFFFFF;" d="M173.884,174.841c27.303-5.277,53.264-23.304,74.864-45.73
			c96.223-114.367,242.317,3.12,128.579,144.242c-55.743,72.797-111.144,41.987-175.017,49.299
			C73.283,343.829,74.18,237.945,91.006,206.232C108.179,175.096,147.602,180.665,173.884,174.841z"/>
	</g>
</g>
<g id="Shadow_1_">
	<ellipse id="_x3C_Path_x3E__286_" style="fill:#F5F5F5;" cx="250" cy="416.238" rx="193.889" ry="11.323"/>
</g>
<g id="Character_1_">
	<g>
		<polygon style="fill:#FF8B7B;" points="315.276,408.013 307.266,407.887 307.766,389.268 315.776,389.393 		"/>
		<path style="fill:#263238;" d="M307.172,406.959l8.751,0.137c0.328,0.005,0.585,0.237,0.619,0.559l0.762,7.159
			c0.079,0.742-0.562,1.434-1.317,1.409c-3.151-0.103-7.691-0.36-11.658-0.423c-4.639-0.073-4.188,0.118-9.628,0.032
			c-3.29-0.052-3.82-3.397-2.408-3.677c6.427-1.275,7.075-1.342,12.877-4.602C305.8,407.199,306.48,406.948,307.172,406.959z"/>
		<path style="fill:#FF8B7B;" d="M305.202,168.578c-1.1,2.855-2.299,5.433-3.539,8.104c-1.259,2.637-2.584,5.246-4.019,7.813
			c-2.874,5.136-6.035,10.168-10.025,14.928l-0.415,0.497c-0.227,0.252-0.428,0.489-0.69,0.739
			c-0.511,0.493-1.086,0.985-1.813,1.424c-0.694,0.443-1.556,0.809-2.437,1.051c-0.893,0.221-1.837,0.324-2.69,0.258
			c-1.754-0.103-3.088-0.665-4.162-1.229c-1.073-0.581-1.906-1.219-2.64-1.854c-1.454-1.272-2.543-2.571-3.511-3.875
			c-0.969-1.303-1.819-2.604-2.604-3.917c-3.091-5.274-5.311-10.599-7.169-16.225l5.506-2.452c1.444,2.297,2.932,4.689,4.485,6.942
			c1.537,2.272,3.106,4.498,4.756,6.537c0.817,1.021,1.648,2.001,2.496,2.871c0.843,0.868,1.709,1.639,2.452,2.154
			c0.367,0.252,0.706,0.424,0.899,0.477c0.189,0.057,0.224-0.016-0.108-0.084c-0.312-0.071-0.887,0.077-1.103,0.198
			c-0.122,0.07-0.166,0.085-0.176,0.08c-0.007,0.005,0.007-0.042,0.017-0.053l0.236-0.342c1.49-2.072,2.857-4.356,4.213-6.649
			c1.329-2.322,2.594-4.721,3.835-7.14c1.221-2.434,2.414-4.898,3.574-7.38c1.17-2.452,2.294-5.041,3.347-7.422L305.202,168.578z"/>
		<g>
			<path style="fill:#263238;" d="M308.341,163.796c2.444,7.363-12.031,27.435-12.031,27.435l-15.737-9.885
				c0,0,4.127-10.242,9.961-18.051C296.524,155.277,305.659,155.716,308.341,163.796z"/>
		</g>
		<path style="opacity:0.2;" d="M299.304,172.44c-3.109,1.35-8.476,11.782-7.779,15.79l4.781,3c0,0,5.577-7.73,9.218-15.36
			C303.379,173.61,300.947,171.73,299.304,172.44z"/>
		<path style="fill:#FF8B7B;" d="M265.547,175.999l-1.489-9.076l-8.637,2.988c0,0,0.216,7.137,6.016,8.449L265.547,175.999z"/>
		<path style="fill:#FF8B7B;" d="M258.209,160.807l-3.298,2.728c-0.549,0.454-0.789,1.183-0.616,1.875l1.126,4.501l8.637-2.988
			l-3.046-5.577C260.455,160.325,259.105,160.066,258.209,160.807z"/>
		<polygon style="opacity:0.2;" points="307.767,389.273 307.508,398.87 315.521,398.996 315.78,389.399 		"/>
		<g>
			<path style="fill:#263238;" d="M343.998,160.54c-7.49,30.49-4.52,62.853-5.052,69.402c0,0-42.936-0.692-42.936-0.696
				c-3.938-47.094,3.002-71.645,3.002-71.645s2.733-0.535,6.462-0.919c1.17-0.12,2.432-0.226,3.748-0.295
				c0.727-0.044,1.466-0.067,2.216-0.082c4.841-0.079,12.78,0.69,18.255,1.356c1.146,0.142,2.315,0.313,3.445,0.497
				c1.049,0.178,2.079,0.367,3.05,0.56C340.589,159.59,343.998,160.54,343.998,160.54z"/>
		</g>
		<path style="opacity:0.2;" d="M335.359,173.62c-0.658,2.95,0.732,16.41,3.938,19.73c0.257-4.31,0.646-8.81,1.212-13.41
			L335.359,173.62z"/>
		<path style="fill:#FF8B7B;" d="M328.628,137.032c-1.365,5.771-2.906,16.415,1.06,20.627c-3.307,2.927-7.613,6.273-14.595,5.999
			s-5.589-4.965-3.656-7.353c6.605-1.074,6.613-5.931,5.639-10.566L328.628,137.032z"/>
		<path style="fill:#FFFFFF;" d="M329.306,156.884c-0.749,1.063-3.904,4.245-15.762,6.623c1.731,1.238,3.523,4.215,4.446,5.896
			c0.382,0.696,1.22,1.008,1.936,0.72c3.407-1.372,12.294-5.6,11.909-12.265c-0.013-0.219-0.141-0.43-0.335-0.54
			c-0.533-0.301-1.108-0.519-1.5-0.65C329.739,156.58,329.461,156.665,329.306,156.884z"/>
		<path style="fill:#FFFFFF;" d="M308.419,167.689c1.054-1.346,2.902-3.34,5.126-4.182c-1.425-1.144-2.792-4.281-2.067-6.931
			c0.118-0.432-0.24-0.868-0.689-0.827c-0.457,0.041-0.918,0.14-1.137,0.191c-0.088,0.021-0.165,0.057-0.236,0.111
			c-0.896,0.689-7.081,5.76-3.157,11.514C306.775,168.324,307.874,168.386,308.419,167.689z"/>
		<path style="opacity:0.2;" d="M323.919,140.586l-6.837,5.15c0.234,1.097,0.407,2.205,0.445,3.272
			c2.515-0.175,6.052-2.658,6.412-5.251C324.118,142.464,324.109,141.208,323.919,140.586z"/>
		<path style="fill:#263238;" d="M309.943,134.333c-3.37-0.701-3.722-10.292-2.148-12.667c-2.189,0.028-5.606-2.722-6.384-5.25
			c2.389,0.083,5.833-1.278,6.384-2.287c-2.356-1.129-5.967-4.518-6.384-7.379c5.983,2.917,10.556,3.111,12.639,2.861
			c0,0-2-1.944-1.639-4.278c4.361,2.333,9.958,4.083,16,3.875c5.297-0.183,8.044,4.125,6.001,7.292
			c4.79-0.125,1.457,13.417-3.126,16.292C326.953,135.083,319.152,136.25,309.943,134.333z"/>
		<path style="fill:#FF8B7B;" d="M330.573,128.271c-1.006,7.893-1.193,12.568-5.466,16.339c-6.428,5.674-15.985,1.314-17.361-6.742
			c-1.238-7.251,0.614-18.941,8.587-21.519C324.189,113.811,331.579,120.378,330.573,128.271z"/>
		<path style="fill:#263238;" d="M328.328,117.25c0,0-4.958,1.917-3.583,6.958c1.375,5.042,1.167,7.292,0.458,8.792
			c0.5,1.583,4.625,2.297,4.625,2.297s3.458-7.32,3.958-11.433S328.328,117.25,328.328,117.25z"/>
		<path style="fill:#263238;" d="M332.252,116.092c1.969,0.359,4.868-2.926,5.114-5.595
			C337.366,110.497,338.593,120.171,332.252,116.092z"/>
		<path style="fill:#263238;" d="M331.68,115.356c0.995,4.269-9.393,6.478-22.893,6.144c0,0-0.083-5.167,4-7.208
			C316.87,112.25,330.388,109.814,331.68,115.356z"/>
		<path style="fill:#FF8B7B;" d="M333.823,136.316c-1.119,1.823-2.981,2.952-4.704,3.325c-2.592,0.561-3.754-1.797-2.922-4.162
			c0.749-2.129,3.001-4.986,5.548-4.486C334.255,131.486,335.102,134.232,333.823,136.316z"/>
		<path style="fill:#407BFF;" d="M320.9,308.922c-0.324-40.367,8.611-79.133,8.611-79.133l-33.474-0.539
			c0,0,3.849,58.301,5.188,82.72c1.388,25.391,3.336,84.999,3.336,84.999l13.59,0.207
			C318.149,397.176,322.779,340.778,320.9,308.922z"/>
		<path style="opacity:0.2;" d="M322.228,252c-9.54,13.06-5.25,37.63-1.34,54.99c-0.01-21.58,2.54-42.53,4.87-57.15L322.228,252z"/>
		<polygon style="fill:#263238;" points="303.716,397.259 319.871,397.513 320.783,392.28 302.773,391.721 		"/>
		<path style="fill:#263238;" d="M320.016,129.593c-0.042,0.646-0.419,1.143-0.841,1.112s-0.73-0.58-0.688-1.226
			c0.042-0.646,0.419-1.144,0.841-1.112C319.75,128.398,320.058,128.947,320.016,129.593z"/>
		<path style="fill:#263238;" d="M311.09,129.05c-0.042,0.646-0.419,1.144-0.841,1.112s-0.73-0.58-0.688-1.226
			s0.419-1.144,0.841-1.112C310.824,127.855,311.132,128.404,311.09,129.05z"/>
		<path style="fill:#FF5652;" d="M313.391,129.544c0,0-1.713,3.615-3.447,5.292c1.073,1.151,3.049,0.808,3.049,0.808
			L313.391,129.544z"/>
		<path style="fill:#263238;" d="M315.602,137.574c2.479-0.148,3.731-1.769,3.788-1.845c0.063-0.083,0.046-0.202-0.038-0.266
			c-0.084-0.064-0.203-0.048-0.266,0.035c-0.014,0.019-1.476,1.9-4.304,1.689c-0.105-0.007-0.195,0.071-0.202,0.176
			c-0.007,0.105,0.073,0.196,0.177,0.204C315.054,137.589,315.335,137.59,315.602,137.574z"/>
		<path style="fill:#263238;" d="M321.34,126.244c0.063-0.004,0.126-0.023,0.183-0.06c0.175-0.114,0.224-0.349,0.108-0.526
			c-1.157-1.767-2.913-1.795-2.987-1.795c-0.21-0.001-0.379,0.169-0.378,0.379c0.001,0.209,0.171,0.38,0.38,0.382l0,0
			c0.058,0.001,1.427,0.037,2.35,1.447C321.074,126.19,321.207,126.252,321.34,126.244z"/>
		<path style="fill:#263238;" d="M308.159,125.778c0.123,0.007,0.246-0.047,0.324-0.153c0.99-1.347,2.358-1.292,2.416-1.288
			c0.209,0.011,0.387-0.149,0.397-0.358c0.01-0.209-0.15-0.388-0.358-0.401c-0.076-0.003-1.828-0.094-3.069,1.593
			c-0.124,0.169-0.087,0.407,0.083,0.532C308.014,125.749,308.086,125.774,308.159,125.778z"/>
		<g>
			<path style="fill:#407BFF;" d="M305.718,407.674c0.067-0.022,0.117-0.08,0.129-0.151c0.013-0.08-0.027-0.159-0.098-0.197
				c-0.361-0.194-3.561-1.88-4.545-1.352c-0.19,0.102-0.301,0.275-0.322,0.501c0,0,0,0,0,0c-0.035,0.378,0.08,0.691,0.341,0.93
				c0.867,0.793,3.173,0.513,4.47,0.276C305.702,407.679,305.71,407.677,305.718,407.674z M301.453,406.279
				c0.609-0.2,2.347,0.494,3.61,1.121c-1.777,0.267-3.096,0.169-3.583-0.276c-0.171-0.156-0.243-0.358-0.219-0.615
				c0.009-0.099,0.046-0.159,0.123-0.201C301.405,406.297,301.428,406.287,301.453,406.279z"/>
			<path style="fill:#407BFF;" d="M305.718,407.674c0.017-0.006,0.034-0.014,0.049-0.024c0.056-0.039,0.087-0.104,0.081-0.171
				c-0.007-0.092-0.188-2.257-1.195-3.111c-0.307-0.261-0.66-0.376-1.049-0.342l0,0c-0.524,0.045-0.679,0.307-0.717,0.52
				c-0.162,0.905,1.729,2.671,2.69,3.121C305.623,407.686,305.673,407.689,305.718,407.674z M303.442,404.44
				c0.05-0.016,0.113-0.029,0.195-0.036c0,0,0,0,0,0c0.288-0.025,0.54,0.058,0.77,0.254c0.662,0.561,0.926,1.859,1.019,2.491
				c-0.979-0.609-2.261-1.994-2.164-2.537C303.268,404.578,303.284,404.492,303.442,404.44z M303.621,404.214l-0.004,0.002
				L303.621,404.214z"/>
		</g>
		<polygon style="fill:#FF8B7B;" points="360.29,408.013 352.259,407.887 349.609,389.268 357.64,389.393 		"/>
		<path style="fill:#263238;" d="M351.85,406.959l8.751,0.137c0.328,0.005,0.585,0.237,0.619,0.559l0.762,7.159
			c0.079,0.742-0.562,1.434-1.317,1.409c-3.151-0.103-4.142-0.36-8.109-0.423c-4.639-0.073-2.498,0.118-7.939,0.032
			c-3.29-0.052-3.816-3.382-2.408-3.677c4.458-0.934,5.628-2.708,7.638-4.602C350.374,407.058,351.158,406.948,351.85,406.959z"/>
		<polygon style="opacity:0.2;" points="349.612,389.273 350.976,398.87 359.01,398.996 357.646,389.399 		"/>
		<path style="fill:#407BFF;" d="M348.88,307.911c-4.556-36.078-4.525-69.911-9.934-77.969l-28.372-0.458
			c0,0,14.554,57.039,20.092,81.071c5.755,24.988,16.683,84.036,16.683,84.036l12.942,0.184
			C360.29,394.776,357.378,335.821,348.88,307.911z"/>
		<polygon style="fill:#263238;" points="345.56,397.259 361.715,397.513 362.627,392.28 344.617,391.721 		"/>
		<g>
			<path style="fill:#407BFF;" d="M353.436,407.566c0.07,0.002,0.138-0.035,0.172-0.098c0.039-0.071,0.03-0.158-0.024-0.219
				c-0.273-0.306-2.699-2.989-3.804-2.831c-0.213,0.031-0.378,0.155-0.475,0.36c0,0,0,0,0,0c-0.163,0.343-0.162,0.677,0.001,0.991
				c0.542,1.043,2.804,1.571,4.103,1.794C353.418,407.565,353.427,407.566,353.436,407.566z M349.909,404.792
				c0.64,0.021,2.034,1.27,3.005,2.292c-1.76-0.36-2.966-0.904-3.271-1.49c-0.107-0.206-0.105-0.419,0.005-0.653
				c0.043-0.09,0.098-0.134,0.185-0.146C349.858,404.792,349.883,404.791,349.909,404.792z"/>
			<path style="fill:#407BFF;" d="M353.436,407.566c0.018,0.001,0.036-0.001,0.054-0.006c0.066-0.017,0.117-0.068,0.135-0.133
				c0.025-0.089,0.598-2.184-0.054-3.332c-0.199-0.35-0.491-0.58-0.867-0.682l0,0c-0.507-0.138-0.743,0.056-0.852,0.242
				c-0.463,0.795,0.707,3.102,1.455,3.855C353.342,407.545,353.388,407.565,353.436,407.566z M352.408,403.747
				c0.052,0.002,0.116,0.011,0.195,0.033h0c0.279,0.076,0.487,0.24,0.637,0.503c0.429,0.755,0.232,2.064,0.101,2.69
				c-0.71-0.908-1.439-2.649-1.161-3.126C352.198,403.817,352.242,403.742,352.408,403.747z M352.654,403.597l-0.005,0
				L352.654,403.597z"/>
		</g>
		<g>
			<path style="fill:#FF8B7B;" d="M346.215,165.279c2.79,4.996,5.307,9.985,7.732,15.112c2.379,5.141,4.646,10.337,6.628,15.775
				c0.49,1.361,0.967,2.735,1.412,4.143l0.351,1.09c0.171,0.571,0.31,1.152,0.402,1.735c0.186,1.165,0.219,2.326,0.108,3.415
				c-0.22,2.189-0.886,4.07-1.672,5.702c-0.786,1.64-1.751,3.038-2.745,4.327c-1.998,2.567-4.238,4.652-6.568,6.526
				c-1.161,0.942-2.365,1.806-3.595,2.623c-1.24,0.83-2.435,1.584-3.823,2.332l-3.502-4.905c0.858-0.893,1.831-1.884,2.711-2.853
				c0.89-0.984,1.747-1.988,2.581-2.985c1.651-2.004,3.153-4.074,4.29-6.106c1.124-2.012,1.819-4.09,1.678-5.293
				c-0.029-0.298-0.072-0.536-0.147-0.737c-0.034-0.101-0.08-0.192-0.125-0.282l-0.356-0.872c-0.481-1.215-1.005-2.435-1.546-3.657
				c-2.137-4.896-4.56-9.796-7.008-14.675c-2.45-4.871-4.985-9.795-7.484-14.585L346.215,165.279z"/>
			<g>
				<path style="fill:#263238;" d="M343.996,160.541c7.41,2.294,13.547,21.648,13.547,21.648l-16.135,9.041
					c0,0-4.459-8.147-7.967-17.551C329.62,163.435,335.019,157.763,343.996,160.541z"/>
			</g>
			<path style="fill:#FF8B7B;" d="M343.33,221.928l-7.586,2.902l5.891,7.758c0,0,6.55-3.462,5.273-7.239L343.33,221.928z"/>
			<path style="fill:#FF8B7B;" d="M332.244,232.506l2.523,2.371c1.004,0.944,2.545,1.021,3.639,0.183l3.229-2.473l-5.891-7.758
				l-3.583,3.655C331.057,229.611,331.094,231.426,332.244,232.506z"/>
		</g>
	</g>
</g>
<g id="Smartphone">
	<g>
		<rect x="181.329" y="118.735" style="fill:#407BFF;" width="8.667" height="1"/>
		<rect x="152.162" y="118.735" style="fill:#407BFF;" width="19.333" height="1"/>
		<g>
			<path style="fill:#FFFFFF;" d="M257.386,364.671H142.406c-6.844,0-12.828-5.599-13.299-12.443l-14.978-217.55
				c-0.471-6.843,4.743-12.443,11.586-12.443h114.979c6.843,0,12.828,5.599,13.299,12.443l14.978,217.55
				C269.443,359.072,264.229,364.671,257.386,364.671z"/>
			<path style="fill:#407BFF;" d="M240.695,123.235c6.346,0,11.865,5.164,12.302,11.511l14.978,217.55
				c0.209,3.036-0.783,5.894-2.793,8.047c-2.003,2.145-4.771,3.327-7.795,3.327H142.406c-6.346,0-11.865-5.164-12.302-11.511
				l-14.978-217.55c-0.209-3.036,0.783-5.894,2.793-8.047c2.003-2.146,4.771-3.327,7.795-3.327H240.695 M240.695,122.235H125.715
				c-6.843,0-12.057,5.599-11.586,12.443l14.978,217.55c0.471,6.844,6.456,12.443,13.299,12.443h114.979
				c6.843,0,12.057-5.599,11.586-12.443l-14.978-217.55C253.523,127.835,247.538,122.235,240.695,122.235L240.695,122.235z"/>
		</g>
		<path style="fill:#407BFF;" d="M262.163,364.671H147.184c-6.844,0-12.828-5.599-13.299-12.443l-14.978-217.55
			c-0.471-6.843,4.743-12.443,11.586-12.443h114.979c6.844,0,12.828,5.599,13.299,12.443l14.978,217.55
			C274.22,359.072,269.007,364.671,262.163,364.671z"/>
		<g>
			<g>
				<g>
					<path style="fill:#FFFFFF;" d="M222.151,225.141h-51.354c-2.37,0-4.477-1.797-4.873-4.155l-5.53-32.941
						c-0.455-2.712,1.513-5.064,4.238-5.064h57.877c2.725,0,5.017,2.352,4.936,5.064l-0.994,32.941
						C226.381,223.344,224.521,225.141,222.151,225.141z"/>
					<path style="fill:#FFFFFF;" d="M222.151,226.641h-51.354c-3.104,0-5.835-2.324-6.353-5.407l-5.53-32.94
						c-0.291-1.737,0.173-3.48,1.275-4.783c1.091-1.289,2.71-2.028,4.443-2.028h57.877c1.707,0,3.385,0.721,4.606,1.979
						c1.214,1.251,1.881,2.938,1.83,4.63l-0.994,32.941C227.856,224.177,225.309,226.641,222.151,226.641z M164.633,184.481
						c-0.861,0-1.625,0.344-2.153,0.967c-0.539,0.637-0.754,1.471-0.606,2.349l5.53,32.94c0.273,1.628,1.764,2.903,3.394,2.903
						h51.354c1.551,0,2.755-1.161,2.801-2.7l0.994-32.94c0.027-0.886-0.332-1.778-0.984-2.451c-0.658-0.678-1.552-1.067-2.452-1.067
						H164.633z"/>
				</g>
				<path style="fill:#FFFFFF;" d="M226.453,222.485c-0.016,0-0.031,0-0.046-0.001c-0.828-0.024-1.479-0.716-1.454-1.544
					l1.511-50.089c0.017-0.55,0.332-1.046,0.823-1.294c0.49-0.247,1.078-0.208,1.53,0.105l9.018,6.239
					c0.681,0.472,0.852,1.405,0.38,2.087c-0.471,0.681-1.406,0.852-2.087,0.38l-6.749-4.669l-1.428,47.33
					C227.927,221.843,227.26,222.485,226.453,222.485z"/>
				<g>
					
						<ellipse transform="matrix(0.6948 -0.7192 0.7192 0.6948 -117.074 205.0177)" style="fill:#FFFFFF;" cx="183.042" cy="240.461" rx="8.212" ry="8.798"/>
					<path style="fill:#FFFFFF;" d="M183.627,249.615c-5.023,0-9.392-4.087-9.738-9.109c-0.169-2.457,0.632-4.769,2.257-6.509
						c1.62-1.734,3.861-2.691,6.311-2.691c5.023,0,9.392,4.087,9.737,9.109c0.169,2.457-0.632,4.769-2.257,6.509
						C188.318,248.659,186.077,249.615,183.627,249.615z M182.457,232.615c-2.083,0-3.985,0.808-5.355,2.274
						c-1.374,1.473-2.052,3.436-1.908,5.526c0.3,4.352,4.082,7.891,8.433,7.891c2.084,0,3.985-0.808,5.354-2.274
						c1.374-1.473,2.052-3.434,1.908-5.526C190.59,236.154,186.807,232.615,182.457,232.615z"/>
				</g>
				<g>
					
						<ellipse transform="matrix(0.6948 -0.7192 0.7192 0.6948 -108.5098 225.2006)" style="fill:#FFFFFF;" cx="211.106" cy="240.461" rx="8.212" ry="8.798"/>
					<path style="fill:#FFFFFF;" d="M211.691,249.615c-5.023,0-9.392-4.087-9.737-9.109c-0.169-2.457,0.632-4.769,2.257-6.509
						c1.619-1.734,3.86-2.691,6.31-2.691c5.023,0,9.392,4.087,9.738,9.109c0.169,2.457-0.632,4.769-2.257,6.509
						C216.382,248.659,214.141,249.615,211.691,249.615z M210.521,232.615c-2.084,0-3.985,0.808-5.354,2.274
						c-1.374,1.473-2.052,3.435-1.908,5.526c0.3,4.352,4.083,7.891,8.433,7.891c2.083,0,3.985-0.808,5.355-2.274
						c1.374-1.473,2.052-3.436,1.908-5.526C218.654,236.154,214.872,232.615,210.521,232.615z"/>
				</g>
			</g>
			<g>
				
					<ellipse transform="matrix(0.6948 -0.7192 0.7192 0.6948 -63.9649 190.3068)" style="fill:#407BFF;" cx="192.259" cy="170.524" rx="20.333" ry="21.782"/>
				<path style="fill:#FFFFFF;" d="M193.42,188.183c-9.708,0-18.149-7.896-18.817-17.604c-0.326-4.734,1.217-9.186,4.344-12.536
					c3.117-3.338,7.433-5.177,12.152-5.177c9.708,0,18.149,7.896,18.817,17.604l0,0c0.326,4.734-1.217,9.186-4.344,12.536
					C202.455,186.344,198.139,188.183,193.42,188.183z M191.099,154.468c-4.271,0-8.17,1.658-10.981,4.669
					c-2.821,3.021-4.211,7.046-3.917,11.333c0.612,8.884,8.336,16.111,17.219,16.111c4.27,0,8.17-1.658,10.981-4.669
					c2.821-3.021,4.211-7.046,3.917-11.333l0,0C207.706,161.695,199.981,154.468,191.099,154.468z"/>
				<g>
					<path style="fill:#FFFFFF;" d="M180.503,169.7c0,0,7.367,3.979,10.809,9.104c1.862-4,4.696-9.564,12.37-15.815
						c-9.734,4.123-12.724,10.685-12.724,10.685S186.97,170.374,180.503,169.7z"/>
				</g>
			</g>
		</g>
		<path style="fill:#FFFFFF;" d="M204.217,358.295c-4.197,0-7.847-3.414-8.135-7.61c-0.141-2.044,0.525-3.966,1.874-5.411
			c1.345-1.44,3.208-2.234,5.246-2.234c4.197,0,7.847,3.414,8.135,7.61l0,0c0.141,2.044-0.525,3.966-1.874,5.411
			C208.117,357.501,206.254,358.295,204.217,358.295z M203.201,343.539c-1.897,0-3.631,0.737-4.88,2.075
			c-1.253,1.343-1.871,3.132-1.74,5.035c0.271,3.94,3.697,7.145,7.636,7.145c1.897,0,3.63-0.737,4.88-2.076
			c1.254-1.343,1.872-3.131,1.741-5.034l0,0C210.566,346.744,207.141,343.539,203.201,343.539z"/>
		<g>
			<g>
				<path style="fill:#407BFF;" d="M212.519,278.901l-10.259,2.683l-22.182,19.911l22.09,18.405l18.73-16.866
					c2.784-2.53,4.384-6.119,4.457-9.997l0,0l8.015-4.328c3.299-1.781,3.971-6.224,1.403-9.277l-6.053-7.197
					c-2.472-2.939-6.82-3.233-9.287-0.629L212.519,278.901z"/>
				<path style="fill:#FFFFFF;" d="M202.178,320.459l-22.746-18.952l22.72-20.331l10.143-2.652l6.829-7.208
					c1.217-1.284,2.892-1.967,4.722-1.907c1.986,0.059,3.879,0.99,5.195,2.556l6.054,7.197c1.365,1.623,1.931,3.697,1.552,5.69
					c-0.346,1.818-1.468,3.36-3.077,4.229l-7.8,4.212c-0.136,3.922-1.76,7.484-4.588,10.054L202.178,320.459z M180.723,301.483
					l21.434,17.858l18.459-16.621c2.712-2.465,4.246-5.906,4.317-9.69l0.004-0.246l8.232-4.445c1.405-0.76,2.346-2.054,2.649-3.646
					c0.332-1.742-0.167-3.561-1.369-4.989l-6.054-7.197c-1.161-1.381-2.828-2.203-4.574-2.255c-1.568-0.064-3.035,0.536-4.084,1.643
					l-6.995,7.384l-10.278,2.688L180.723,301.483z"/>
			</g>
			<path style="fill:#FFFFFF;" d="M223.764,302.518l-1.289-1.023l-20.738-16.567c-2.755-2.201-5.931-3.785-9.292-4.633l-5.523-1.394
				l-7.917-7.295c-2.826-2.604-7.133-2.31-9.2,0.629l-5.063,7.197c-2.148,3.053-0.864,7.496,2.68,9.277l8.611,4.328v0
				c0.606,3.878,2.701,7.467,5.833,9.997l21.053,16.866l0.01-0.01l1.676,1.348c1.548,1.228,3.755,1.043,4.88-0.514
				c1.065-1.474,0.567-3.645-0.956-4.853l2.08,1.649c1.314,1.043,3.154,1.183,4.382,0.206c1.702-1.355,1.552-3.978-0.22-5.384
				l1.162,0.923c1.315,1.043,3.155,1.184,4.383,0.206c1.702-1.355,1.551-3.978-0.22-5.383l-0.256-0.204
				c1.548,1.228,3.755,1.043,4.88-0.514C225.784,305.897,225.287,303.726,223.764,302.518z"/>
			<g>
				<path style="fill:#407BFF;" d="M214.076,288.703c0,0-3.085,2.543-8.128,3.025c0,0-4.212,0.035-6.438,2.281
					c-2.969,2.995-8.965,4.75-10.396,1.653c-0.722-1.564,4.691-5.081,7.525-10.753c1.988-3.98,8.364-5.387,15.881-6.008"/>
				<path style="fill:#FFFFFF;" d="M192.194,297.63c-0.332,0-0.65-0.025-0.951-0.078c-1.162-0.204-2.004-0.809-2.438-1.747
					c-0.449-0.972,0.683-2.219,2.395-4.107c1.654-1.823,3.712-4.093,5.135-6.94c2.245-4.494,9.814-5.671,16.157-6.194l0.056,0.678
					c-6.165,0.509-13.511,1.63-15.604,5.821c-1.464,2.931-3.557,5.238-5.239,7.093c-1.364,1.504-2.541,2.802-2.281,3.365
					c0.34,0.737,0.992,1.195,1.938,1.362c2.26,0.4,5.81-0.997,7.907-3.112c2.299-2.319,6.499-2.381,6.677-2.382
					c4.841-0.465,7.884-2.924,7.915-2.948l0.433,0.525c-0.129,0.106-3.223,2.614-8.312,3.102c-0.07,0.002-4.129,0.064-6.229,2.182
					C197.752,296.265,194.619,297.63,192.194,297.63z"/>
			</g>
			<g>
				<path style="fill:#407BFF;" d="M183.592,307.885l3.34-2.974c1.495-1.331,1.385-3.753-0.234-5.157l0,0
					c-1.351-1.172-3.297-1.217-4.545-0.107l-3.34,2.974c-1.495,1.331-1.385,3.753,0.234,5.157l0,0
					C180.398,308.95,182.345,308.996,183.592,307.885z"/>
				<path style="fill:#FFFFFF;" d="M181.44,309.107c-0.937,0-1.894-0.338-2.669-1.01c-0.904-0.784-1.426-1.898-1.434-3.057
					c-0.007-1.071,0.418-2.043,1.196-2.735l3.339-2.974c1.401-1.249,3.596-1.204,5.102,0.103c0.904,0.783,1.426,1.896,1.434,3.056
					c0.007,1.07-0.417,2.042-1.195,2.735l-3.34,2.975C183.192,308.807,182.325,309.107,181.44,309.107z M184.305,299.268
					c-0.684,0-1.35,0.23-1.872,0.695l-3.339,2.974c-0.594,0.528-0.918,1.274-0.913,2.099c0.006,0.916,0.422,1.8,1.143,2.424
					c1.188,1.031,2.902,1.077,3.988,0.11l3.34-2.975c0.594-0.529,0.918-1.274,0.913-2.099c-0.006-0.916-0.423-1.799-1.143-2.423
					C185.804,299.537,185.044,299.268,184.305,299.268z"/>
			</g>
			<g>
				<path style="fill:#407BFF;" d="M188.143,313.351l4.037-3.595c1.422-1.266,1.403-3.54-0.042-4.979l0,0
					c-1.339-1.333-3.419-1.458-4.737-0.285l-4.037,3.595c-1.495,1.331-1.385,3.753,0.234,5.157l0,0
					C184.949,314.417,186.895,314.462,188.143,313.351z"/>
				<path style="fill:#FFFFFF;" d="M185.99,314.574c-0.937,0-1.894-0.338-2.669-1.01c-0.904-0.784-1.426-1.899-1.434-3.057
					c-0.007-1.071,0.418-2.043,1.196-2.735l4.037-3.595c1.483-1.32,3.818-1.188,5.315,0.302c0.805,0.802,1.249,1.891,1.219,2.988
					c-0.028,1.018-0.452,1.943-1.194,2.604l-4.037,3.595C187.743,314.272,186.875,314.574,185.99,314.574z M189.552,304.111
					c-0.681,0-1.346,0.229-1.871,0.697l-4.037,3.595c-0.594,0.528-0.919,1.274-0.913,2.099c0.006,0.916,0.422,1.8,1.143,2.424
					c1.188,1.029,2.902,1.077,3.988,0.11l4.037-3.595c0.566-0.504,0.89-1.214,0.912-1.997c0.024-0.866-0.33-1.729-0.971-2.367
					C191.197,304.438,190.364,304.111,189.552,304.111z"/>
			</g>
			<g>
				<path style="fill:#407BFF;" d="M194.054,317.607l3.34-2.974c1.495-1.331,1.385-3.753-0.234-5.157l0,0
					c-1.351-1.172-3.297-1.217-4.545-0.107l-3.34,2.974c-1.495,1.331-1.385,3.753,0.234,5.157l0,0
					C190.86,318.672,192.807,318.717,194.054,317.607z"/>
				<path style="fill:#FFFFFF;" d="M191.902,318.829c-0.937,0-1.894-0.338-2.669-1.01c-0.904-0.784-1.426-1.897-1.434-3.056
					c-0.007-1.071,0.417-2.043,1.195-2.736l3.34-2.974c1.402-1.249,3.596-1.203,5.102,0.103c0.904,0.784,1.426,1.897,1.434,3.056
					c0.007,1.071-0.417,2.043-1.195,2.736l-3.34,2.974C193.654,318.528,192.787,318.829,191.902,318.829z M194.767,308.989
					c-0.684,0-1.35,0.23-1.872,0.695l-3.34,2.974c-0.594,0.529-0.918,1.275-0.913,2.1c0.006,0.915,0.423,1.799,1.143,2.423
					c1.188,1.031,2.902,1.077,3.988,0.11l3.34-2.974c0.594-0.529,0.918-1.275,0.913-2.1c-0.006-0.915-0.423-1.799-1.143-2.423
					C196.266,309.259,195.506,308.989,194.767,308.989z"/>
			</g>
			<g>
				<path style="fill:#407BFF;" d="M200.665,321.239l3.456-3.126c1.522-1.376,1.334-3.877-0.393-5.233l0,0
					c-1.344-1.055-3.187-1.05-4.38,0.012l-3.463,3.084c-1.495,1.331-1.385,3.753,0.234,5.157l0,0
					C197.471,322.304,199.417,322.35,200.665,321.239z"/>
				<path style="fill:#FFFFFF;" d="M198.513,322.461c-0.937,0-1.894-0.338-2.669-1.01c-0.904-0.783-1.426-1.897-1.434-3.056
					c-0.007-1.07,0.417-2.042,1.195-2.735l3.463-3.084c1.347-1.196,3.415-1.209,4.921-0.028c0.965,0.757,1.542,1.874,1.584,3.064
					c0.038,1.083-0.388,2.108-1.168,2.814l-3.459,3.127C200.265,322.16,199.397,322.461,198.513,322.461z M201.491,312.514
					c-0.68,0-1.342,0.231-1.861,0.693l-3.463,3.084c-0.594,0.529-0.918,1.274-0.913,2.099c0.006,0.916,0.423,1.799,1.143,2.423
					c1.188,1.032,2.901,1.077,3.987,0.111l3.455-3.124c0.604-0.546,0.92-1.313,0.891-2.157c-0.033-0.941-0.493-1.827-1.261-2.431
					C202.874,312.746,202.173,312.514,201.491,312.514z"/>
			</g>
		</g>
		<g style="opacity:0.2;">
			<path style="fill:#FFFFFF;" d="M145.307,337.411c-3.553,0-6.642-2.89-6.887-6.442l-13.026-189.203
				c-0.245-3.553,2.447-6.443,6-6.443h114.98c3.553,0,6.641,2.891,6.886,6.443l13.026,189.203c0.245,3.553-2.446,6.442-5.999,6.442
				H145.307z"/>
			<path style="fill:#FFFFFF;" d="M260.287,337.661H145.307c-3.682,0-6.883-2.994-7.136-6.675l-13.026-189.204
				c-0.123-1.791,0.462-3.477,1.647-4.747c1.182-1.267,2.816-1.964,4.602-1.964h114.98c3.681,0,6.882,2.995,7.135,6.676
				l13.026,189.204c0.123,1.791-0.462,3.477-1.647,4.747C263.706,336.964,262.072,337.661,260.287,337.661z M131.394,135.571
				c-1.645,0-3.15,0.641-4.236,1.805c-1.09,1.168-1.628,2.721-1.514,4.371l13.026,189.204c0.236,3.425,3.213,6.21,6.637,6.21
				h114.979c1.646,0,3.15-0.641,4.236-1.804c1.09-1.168,1.627-2.721,1.514-4.371L253.01,141.782
				c-0.236-3.425-3.213-6.211-6.636-6.211H131.394z"/>
		</g>
	</g>
</g>
</svg>
